<svg width="387" height="248" viewBox="0 0 387 248" fill="none" xmlns="http://www.w3.org/2000/svg">
<rect width="340" height="72" rx="4" fill="#EFEFEF"/>
<path d="M27.4881 18.576H28.8001V30H27.0561V20.672C26.3681 21.328 25.4881 21.808 24.4321 22.112V20.384C24.9441 20.256 25.4721 20.032 26.0481 19.712C26.6241 19.36 27.1041 18.992 27.4881 18.576ZM32.4833 27.712C32.8033 27.712 33.0913 27.824 33.3313 28.048C33.5553 28.272 33.6833 28.56 33.6833 28.912C33.6833 29.232 33.5553 29.52 33.3313 29.76C33.0913 29.968 32.8033 30.08 32.4833 30.08C32.1313 30.08 31.8593 29.968 31.6513 29.76C31.4113 29.52 31.2993 29.232 31.2993 28.912C31.2993 28.56 31.4113 28.272 31.6513 28.048C31.8593 27.824 32.1313 27.712 32.4833 27.712ZM41.104 19.696H47.232V16.928H48.768V19.696H54.88V21.152H49.968C51.024 23.552 52.848 25.712 55.44 27.6L54.4 28.912C51.728 26.608 49.856 24.016 48.784 21.152H48.768V27.04H52.064V28.496H48.768V31.648H47.232V28.496H44.064V27.04H47.232V21.152H47.216C46.064 24.384 44.112 27.04 41.392 29.12L40.512 27.696C43.04 26 44.88 23.808 46.032 21.152H41.104V19.696ZM62.72 17.776H70.528V19.264H62.72V17.776ZM62.32 21.776H71.216V23.264H68.72V30.048C68.72 31.072 68.144 31.584 67.008 31.584H64.688L64.352 30.096C65.088 30.16 65.808 30.192 66.48 30.192C66.944 30.192 67.184 30.016 67.184 29.68V23.264H62.32V21.776ZM60 16.992L61.392 17.632C60.528 19.392 59.088 20.96 57.04 22.368L56.576 20.848C58.128 19.744 59.264 18.464 60 16.992ZM60.752 20.656L62.128 21.296C61.696 22.16 61.152 22.976 60.496 23.744V31.648H59.008V25.232C58.432 25.728 57.824 26.208 57.152 26.672L56.704 25.168C58.528 23.888 59.888 22.384 60.752 20.656ZM75.472 26.944C75.28 27.232 75.104 27.488 74.928 27.728L74.544 27.264C74.336 28.96 74.016 30.4 73.584 31.584L72.624 30.576C73.168 28.832 73.456 26.416 73.488 23.344V17.712C75.744 17.68 77.76 17.456 79.52 17.056L80.176 18.256C78.576 18.576 76.784 18.752 74.8 18.816V19.52H80.112V22.624H74.8V23.344C74.784 24.304 74.736 25.184 74.672 26.016C75.168 25.168 75.616 24.128 76 22.88L77.184 23.136C77.072 23.472 76.96 23.792 76.848 24.096H77.888C77.76 23.728 77.632 23.392 77.504 23.072L78.704 22.88C78.832 23.248 78.976 23.648 79.104 24.096H80.48V25.248H79.104V26.064H80.224V27.184H79.104V28.048H80.256V29.168H79.104V29.968H80.576V30.528C81.408 29.984 82.112 29.376 82.688 28.672L83.632 29.504C83.024 30.304 82.256 31.008 81.36 31.616L80.576 30.624V31.136H76.656V31.632H75.472V26.944ZM74.8 21.504H78.736V20.64H74.8V21.504ZM76.656 29.968H77.952V29.168H76.656V29.968ZM77.952 28.048V27.184H76.656V28.048H77.952ZM77.952 26.064V25.248H76.656V26.064H77.952ZM81.072 20.064H82.864C82.992 19.632 83.088 19.2 83.152 18.752H80.64V17.44H87.264V18.752H84.624C84.544 19.2 84.448 19.648 84.336 20.064H86.848V28.656H85.344C86.192 29.312 86.912 29.968 87.52 30.64L86.56 31.584C86.016 30.912 85.28 30.208 84.352 29.456L85.2 28.656H81.072V20.064ZM85.44 27.376V26.24H82.48V27.376H85.44ZM82.48 25.008H85.44V23.792H82.48V25.008ZM82.48 22.56H85.44V21.344H82.48V22.56ZM100.848 26.496V31.696H99.36V31.088H92.912V31.696H91.44V26.496H100.848ZM92.912 29.712H99.36V27.856H92.912V29.712ZM93.776 19.488L95.264 19.808C95.072 20.096 94.864 20.384 94.672 20.656H100.4V21.872C99.824 22.704 98.992 23.44 97.872 24.08C99.504 24.656 101.312 24.992 103.296 25.104L102.96 26.48C100.432 26.336 98.192 25.808 96.24 24.896C94.384 25.68 92.016 26.304 89.168 26.784L88.592 25.44C91.024 25.088 93.056 24.624 94.688 24.064C94.016 23.648 93.408 23.184 92.832 22.688C92.24 23.2 91.616 23.68 90.96 24.096L89.984 22.928C91.456 22.096 92.72 20.96 93.776 19.488ZM96.288 23.424C97.216 22.976 97.984 22.496 98.56 21.952H93.92C94.656 22.528 95.44 23.008 96.288 23.424ZM102.64 17.952V21.184H101.104V19.312H90.896V21.184H89.36V17.952H95.072C94.912 17.632 94.752 17.312 94.56 17.024L96.24 16.768C96.4 17.12 96.56 17.504 96.72 17.952H102.64ZM118.48 18.192V30.944H117.008V29.968H114.208V30.944H112.72V18.192H118.48ZM114.208 28.496H117.008V19.664H114.208V28.496ZM107.344 16.8L108.88 16.928C108.72 17.888 108.544 18.8 108.384 19.632H111.664V20.496C111.536 23.088 110.96 25.328 109.92 27.216C110.816 27.872 111.552 28.464 112.128 28.992L111.072 30.24C110.528 29.696 109.872 29.12 109.104 28.512C108.24 29.696 107.168 30.72 105.904 31.584L104.896 30.32C106.112 29.552 107.136 28.64 107.936 27.584C107.136 26.944 106.24 26.288 105.248 25.584C105.728 24.208 106.144 22.72 106.528 21.12H104.816V19.632H106.848C107.024 18.704 107.184 17.76 107.344 16.8ZM108.736 26.352C109.568 24.832 110.08 23.088 110.24 21.12H108.08C107.728 22.72 107.344 24.048 106.944 25.12C107.584 25.552 108.192 25.968 108.736 26.352ZM125.408 17.76H135.328V19.232H134.192V29.92C134.192 31.04 133.632 31.6 132.544 31.6H129.84L129.504 30.112C130.384 30.176 131.216 30.208 132.016 30.208C132.432 30.208 132.656 29.984 132.656 29.536V19.232H125.408V17.76ZM125.68 21.296H131.024V27.504H125.68V21.296ZM129.552 26.128V22.672H127.136V26.128H129.552ZM123.936 16.752L125.296 17.392C124.928 18.576 124.464 19.696 123.888 20.784V31.68H122.4V23.136C121.952 23.712 121.488 24.288 120.992 24.832L120.496 23.2C122.048 21.36 123.2 19.216 123.936 16.752ZM139.136 22.816H143.296V19.664C142.048 21.136 140.096 22.336 137.456 23.296L136.64 21.952C138.992 21.312 140.784 20.528 142 19.6H137.408V18.192H143.296V16.848H144.768V18.192H150.656V19.6H144.768V19.936C147.184 20.576 149.376 21.264 151.328 22L150.352 23.088C148.528 22.304 146.672 21.616 144.768 21.008V22.816H148.928V28.864H139.136V22.816ZM147.456 27.52V26.512H140.608V27.52H147.456ZM140.608 25.232H147.456V24.16H140.608V25.232ZM137.088 29.824H150.928V31.216H137.088V29.824ZM154.544 30.704V31.648H153.12V25.808H157.648V31.392H156.256V30.704H154.544ZM156.256 29.328V27.152H154.544V29.328H156.256ZM152.8 18.8H154.784C154.56 18.256 154.336 17.728 154.08 17.232L155.52 16.832C155.84 17.552 156.064 18.208 156.224 18.8H157.952V20.208H152.8V18.8ZM153.312 21.184H157.456V22.512H153.312V21.184ZM153.312 23.408H157.456V24.72H153.312V23.408ZM159.072 22.24C158.896 22.432 158.736 22.624 158.576 22.8L157.68 21.632C158.88 20.32 159.696 18.704 160.112 16.784L161.584 16.992C161.472 17.488 161.344 17.968 161.184 18.416H166.848C166.848 24.496 166.768 28.256 166.608 29.68C166.448 30.928 165.68 31.552 164.32 31.552C163.968 31.552 163.376 31.52 162.512 31.472L162.144 30.08C162.896 30.128 163.552 30.16 164.096 30.16C164.736 30.16 165.104 29.76 165.2 28.992C165.296 28.096 165.36 25.04 165.392 19.824H160.624C160.352 20.368 160.048 20.896 159.728 21.376H163.888V28.976H159.072V22.24ZM162.512 27.696V25.76H160.48V27.696H162.512ZM160.48 24.528H162.512V22.672H160.48V24.528ZM172.208 19.632C171.968 20 171.728 20.352 171.488 20.688H181.616C181.584 22.048 181.536 23.248 181.504 24.304H183.44V25.728H181.456C181.408 26.624 181.376 27.392 181.344 28.016H182.992V29.424H181.248C181.2 29.808 181.168 30.048 181.136 30.16C180.992 30.672 180.72 31.04 180.32 31.264C179.92 31.504 179.328 31.632 178.56 31.632C177.984 31.632 177.312 31.648 176.56 31.648L176.112 30.256C176.944 30.288 177.68 30.32 178.336 30.32C178.656 30.32 178.944 30.272 179.184 30.208C179.424 30.112 179.6 29.904 179.728 29.584C179.728 29.552 179.744 29.488 179.76 29.424H170.512C170.736 28.176 170.928 26.944 171.072 25.728H168.592V24.304H171.216C171.328 23.12 171.392 21.936 171.424 20.768C170.88 21.488 170.304 22.128 169.696 22.688L168.72 21.504C170 20.352 171.088 18.768 172.016 16.736L173.552 17.088C173.376 17.472 173.2 17.824 173.024 18.176H182.656V19.632H172.208ZM174.816 25.792C176 26.176 177.088 26.624 178.08 27.168L177.52 28.016H179.872C179.904 27.408 179.936 26.64 179.968 25.728H172.592C172.496 26.544 172.4 27.312 172.272 28.016H176.928C176.016 27.488 175.088 27.072 174.144 26.784L174.816 25.792ZM172.72 24.304H176.864C176 23.824 175.12 23.44 174.256 23.136L174.928 22.144C176.112 22.528 177.184 22.992 178.176 23.552L177.68 24.304H180.016C180.048 23.616 180.064 22.88 180.096 22.096H172.848C172.816 22.864 172.768 23.6 172.72 24.304ZM189.184 22.72V25.232H195.664V22.72H189.184ZM195.664 21.296V18.896H189.184V21.296H195.664ZM189.104 26.64C188.896 28.688 188.288 30.384 187.28 31.744L186.112 30.672C187.12 29.264 187.632 27.472 187.664 25.296V17.44H197.2V29.968C197.2 30.992 196.672 31.504 195.648 31.504H193.6L193.184 30.016C193.888 30.048 194.544 30.08 195.152 30.08C195.488 30.08 195.664 29.856 195.664 29.44V26.64H189.104ZM211.904 22.912C212.096 23.84 212.352 24.704 212.656 25.52C212.976 24.208 213.152 22.72 213.184 21.056H212.016C211.76 21.888 211.488 22.64 211.168 23.312L211.904 22.912ZM214.464 21.056C214.4 23.52 214.064 25.616 213.44 27.36C214.016 28.512 214.704 29.536 215.504 30.448L214.544 31.552C213.872 30.752 213.28 29.856 212.784 28.896C212.24 29.92 211.6 30.784 210.848 31.504L210.096 30.304C210.928 29.552 211.584 28.576 212.08 27.36C211.616 26.24 211.248 25.04 210.96 23.728L210.592 24.368L209.872 23.472L209.92 23.376H208.56L208.896 24.56H210.592V25.808H208.128C208.08 26.16 208.032 26.512 207.968 26.832H210.272C210.272 28.944 210.144 30.224 209.888 30.704C209.648 31.152 209.216 31.376 208.592 31.408H207.44L207.072 30.192H208.256C208.528 30.16 208.704 30.032 208.8 29.808C208.864 29.552 208.896 28.96 208.912 28.048H207.712C207.616 28.4 207.52 28.704 207.424 28.992C207.04 29.92 206.464 30.768 205.696 31.504L204.88 30.448C205.216 30.096 205.504 29.728 205.744 29.344L204.88 29.76C204.624 28.8 204.352 27.968 204.064 27.232L205.008 26.912C205.328 27.616 205.6 28.384 205.824 29.2C205.984 28.928 206.112 28.656 206.24 28.4C206.48 27.728 206.672 26.864 206.816 25.808H205.6V24.56H207.536L207.2 23.376H205.872V18.208H207.28C207.408 17.776 207.52 17.328 207.6 16.864L208.912 17.04C208.832 17.456 208.72 17.84 208.592 18.208H210.256V22.592C210.848 21.088 211.264 19.2 211.488 16.944L212.816 17.168C212.688 18.064 212.544 18.912 212.368 19.68H215.152V21.056H214.464ZM201.088 27.52L202.24 27.664C202.16 29.056 202 30.288 201.744 31.36L200.544 30.976C200.832 29.984 201.024 28.832 201.088 27.52ZM203.6 27.328C203.84 28.304 204.064 29.36 204.256 30.512L203.104 30.768C202.96 29.552 202.784 28.48 202.56 27.552L203.6 27.328ZM204.928 23.296C205.184 24.176 205.408 25.2 205.616 26.352L204.464 26.624C204.432 26.4 204.384 26.192 204.352 26C203.248 26.368 202.192 26.624 201.184 26.768L200.816 25.504C201.072 25.408 201.28 25.28 201.44 25.12C201.808 24.624 202.272 23.792 202.816 22.64L201.104 22.976L200.768 21.712C200.976 21.616 201.168 21.44 201.344 21.184C201.84 19.872 202.272 18.4 202.64 16.784L203.984 17.296C203.408 19.056 202.832 20.48 202.24 21.6L203.376 21.408C203.632 20.8 203.904 20.16 204.192 19.456L205.44 19.904C204.336 22.4 203.408 24.192 202.672 25.312C203.168 25.216 203.664 25.088 204.144 24.944C204.048 24.496 203.936 24.064 203.84 23.664L204.928 23.296ZM209.024 22.304V21.344H207.104V22.304H209.024ZM207.104 20.288H209.024V19.28H207.104V20.288ZM216.736 18.24H220V16.88H221.44V18.24H224.256V19.552H221.44V20.64H223.888V21.92H217.296V20.64H220V19.552H216.736V18.24ZM217.824 22.912H223.392V24.24H217.824V22.912ZM216.848 25.2H224.432V26.512H221.328V31.584H219.888V26.512H216.848V25.2ZM217.968 27.168L219.168 27.408C218.848 28.672 218.4 29.76 217.808 30.688L216.688 29.968C217.296 29.088 217.712 28.16 217.968 27.168ZM223.168 27.04C223.536 27.76 223.872 28.528 224.16 29.36L222.976 29.888C222.672 28.96 222.336 28.128 221.968 27.424L223.168 27.04ZM225.632 16.944L227.024 17.168C226.928 17.936 226.832 18.64 226.704 19.28H230.848V20.192C230.64 21.536 230.368 22.88 230.048 24.224L228.656 23.824C228.944 22.912 229.184 21.856 229.392 20.64H226.384C226.016 21.952 225.552 23.008 224.976 23.808L223.824 22.976C224.752 21.536 225.36 19.52 225.632 16.944ZM226.736 21.76H228.112C228.112 22.816 228.064 23.792 227.968 24.688C228.64 27.104 229.792 29.04 231.44 30.496L230.432 31.648C229.184 30.4 228.208 28.896 227.52 27.152C227.024 28.992 225.92 30.512 224.192 31.728L223.264 30.624C224.752 29.568 225.728 28.288 226.192 26.752C226.544 25.472 226.736 23.808 226.736 21.76ZM245.28 17.424V31.568H243.76V30.448H236.544V31.584H235.024V17.424H245.28ZM236.544 28.96H243.76V24.512H236.544V28.96ZM236.544 23.024H243.76V18.896H236.544V23.024ZM254.768 22.128C255.44 22.608 256.096 23.152 256.704 23.776C257.216 24.304 257.696 24.88 258.144 25.488L257.088 26.352C256.672 25.744 256.208 25.184 255.696 24.64C255.12 24.032 254.512 23.472 253.856 22.96L254.768 22.128ZM44.768 47.632C44.496 47.904 44.208 48.176 43.92 48.432L43.488 47.008C44.592 45.984 45.408 44.8 45.936 43.456L47.168 44.016C46.912 44.656 46.592 45.28 46.208 45.872V51.152H44.768V47.632ZM54.96 41.888V43.312H43.328V47.216C43.28 50.688 42.784 53.472 41.824 55.568L40.672 54.544C41.408 52.784 41.792 50.352 41.824 47.216V41.888H47.888C47.728 41.6 47.552 41.328 47.376 41.088L49.008 40.832C49.168 41.152 49.328 41.504 49.488 41.888H54.96ZM44.32 51.76L45.648 52.032C45.36 53.312 44.976 54.416 44.464 55.344L43.264 54.576C43.76 53.696 44.112 52.752 44.32 51.76ZM50.912 55.472H47.776C46.784 55.472 46.304 54.976 46.304 54.016V51.568H47.744V53.728C47.744 53.968 47.904 54.096 48.224 54.096H50.656C50.944 54.096 51.152 54.032 51.28 53.92C51.44 53.792 51.552 53.376 51.616 52.704L52.928 53.136C52.8 54.256 52.576 54.944 52.256 55.168C51.968 55.36 51.52 55.472 50.912 55.472ZM53.568 51.312C54.368 52.4 54.992 53.344 55.44 54.176L54.256 54.992C53.792 54.096 53.168 53.104 52.4 52.016L53.568 51.312ZM49.44 51.28C50.048 51.92 50.512 52.496 50.848 52.976L49.728 53.76C49.376 53.216 48.912 52.608 48.336 51.968L49.44 51.28ZM49.136 47.456V48.144H51.072V47.456H49.136ZM49.136 49.184V49.936H51.072V49.184H49.136ZM52.416 49.936H54.864V51.088H47.792V47.584C47.536 47.904 47.264 48.224 46.992 48.528L46.544 47.088C47.472 45.984 48.112 44.784 48.496 43.488L49.824 43.744C49.728 44.016 49.648 44.288 49.552 44.544H51.024C50.88 44.24 50.736 43.968 50.576 43.728L52 43.504C52.144 43.824 52.288 44.16 52.432 44.544H54.704V45.696H52.416V46.432H54.448V47.456H52.416V48.144H54.448V49.184H52.416V49.936ZM51.072 45.696H49.136V46.432H51.072V45.696ZM67.904 46.912C68.096 47.84 68.352 48.704 68.656 49.52C68.976 48.208 69.152 46.72 69.184 45.056H68.016C67.76 45.888 67.488 46.64 67.168 47.312L67.904 46.912ZM70.464 45.056C70.4 47.52 70.064 49.616 69.44 51.36C70.016 52.512 70.704 53.536 71.504 54.448L70.544 55.552C69.872 54.752 69.28 53.856 68.784 52.896C68.24 53.92 67.6 54.784 66.848 55.504L66.096 54.304C66.928 53.552 67.584 52.576 68.08 51.36C67.616 50.24 67.248 49.04 66.96 47.728L66.592 48.368L65.872 47.472L65.92 47.376H64.56L64.896 48.56H66.592V49.808H64.128C64.08 50.16 64.032 50.512 63.968 50.832H66.272C66.272 52.944 66.144 54.224 65.888 54.704C65.648 55.152 65.216 55.376 64.592 55.408H63.44L63.072 54.192H64.256C64.528 54.16 64.704 54.032 64.8 53.808C64.864 53.552 64.896 52.96 64.912 52.048H63.712C63.616 52.4 63.52 52.704 63.424 52.992C63.04 53.92 62.464 54.768 61.696 55.504L60.88 54.448C61.216 54.096 61.504 53.728 61.744 53.344L60.88 53.76C60.624 52.8 60.352 51.968 60.064 51.232L61.008 50.912C61.328 51.616 61.6 52.384 61.824 53.2C61.984 52.928 62.112 52.656 62.24 52.4C62.48 51.728 62.672 50.864 62.816 49.808H61.6V48.56H63.536L63.2 47.376H61.872V42.208H63.28C63.408 41.776 63.52 41.328 63.6 40.864L64.912 41.04C64.832 41.456 64.72 41.84 64.592 42.208H66.256V46.592C66.848 45.088 67.264 43.2 67.488 40.944L68.816 41.168C68.688 42.064 68.544 42.912 68.368 43.68H71.152V45.056H70.464ZM57.088 51.52L58.24 51.664C58.16 53.056 58 54.288 57.744 55.36L56.544 54.976C56.832 53.984 57.024 52.832 57.088 51.52ZM59.6 51.328C59.84 52.304 60.064 53.36 60.256 54.512L59.104 54.768C58.96 53.552 58.784 52.48 58.56 51.552L59.6 51.328ZM60.928 47.296C61.184 48.176 61.408 49.2 61.616 50.352L60.464 50.624C60.432 50.4 60.384 50.192 60.352 50C59.248 50.368 58.192 50.624 57.184 50.768L56.816 49.504C57.072 49.408 57.28 49.28 57.44 49.12C57.808 48.624 58.272 47.792 58.816 46.64L57.104 46.976L56.768 45.712C56.976 45.616 57.168 45.44 57.344 45.184C57.84 43.872 58.272 42.4 58.64 40.784L59.984 41.296C59.408 43.056 58.832 44.48 58.24 45.6L59.376 45.408C59.632 44.8 59.904 44.16 60.192 43.456L61.44 43.904C60.336 46.4 59.408 48.192 58.672 49.312C59.168 49.216 59.664 49.088 60.144 48.944C60.048 48.496 59.936 48.064 59.84 47.664L60.928 47.296ZM65.024 46.304V45.344H63.104V46.304H65.024ZM63.104 44.288H65.024V43.28H63.104V44.288ZM75.76 45.696C75.056 46.112 74.32 46.496 73.552 46.848L72.672 45.584C75.44 44.368 77.68 42.816 79.408 40.928H80.624C82.112 42.784 84.336 44.32 87.312 45.552L86.448 46.816C85.68 46.496 84.944 46.144 84.272 45.76V46.592H80.768V48.528H86.336V49.936H80.768V53.856H82.272C82.768 52.864 83.2 51.792 83.584 50.656L84.96 51.152C84.608 52.16 84.224 53.056 83.808 53.856H86.896V55.296H73.12V53.856H76.256C75.952 52.944 75.568 52.08 75.12 51.264L76.48 50.768C76.928 51.632 77.344 52.656 77.728 53.856H79.264V49.936H73.68V48.528H79.264V46.592H75.76V45.696ZM83.392 45.232C82.08 44.4 80.96 43.44 80.016 42.352C78.96 43.44 77.792 44.4 76.512 45.232H83.392ZM90.416 47.456C90.112 47.776 89.776 48.08 89.424 48.368L88.656 47.36C89.808 46.432 90.608 45.312 91.04 44L92.32 44.192C92.24 44.448 92.16 44.704 92.064 44.928H94.832V45.952C94.464 46.752 94.048 47.472 93.568 48.08C94.464 48.672 95.248 49.264 95.952 49.856L94.944 50.864C94.864 50.784 94.784 50.72 94.72 50.656V55.488H93.376V54.704H90.992V55.568H89.664V50.896C89.504 50.944 89.36 50.992 89.216 51.04L88.608 49.824C89.776 49.52 90.784 48.992 91.632 48.256C91.232 47.984 90.832 47.712 90.416 47.456ZM92.72 49.024C92.128 49.568 91.488 50.032 90.8 50.4H94.448C93.936 49.936 93.36 49.472 92.72 49.024ZM92.496 47.36C92.816 46.976 93.104 46.56 93.36 46.112H91.472C91.376 46.272 91.28 46.416 91.184 46.544C91.648 46.816 92.08 47.088 92.496 47.36ZM90.992 53.424H93.376V51.648H90.992V53.424ZM95.584 42.224V44.912H94.272V43.488H90.208V44.912H88.896V42.224H91.536C91.408 41.824 91.264 41.456 91.104 41.104L92.592 40.864C92.72 41.28 92.848 41.728 92.976 42.224H95.584ZM96.336 43.952H98.56C98.608 43.568 98.64 43.168 98.672 42.768H95.856V41.424H103.152V42.768H100.16C100.128 43.184 100.096 43.568 100.048 43.952H102.624V52.432H96.336V43.952ZM101.232 51.12V49.904H97.712V51.12H101.232ZM97.712 48.704H101.232V47.584H97.712V48.704ZM97.712 46.368H101.232V45.2H97.712V46.368ZM97.904 52.464L98.944 53.376C98.24 54.272 97.36 55.072 96.336 55.76L95.44 54.608C96.416 54 97.232 53.28 97.904 52.464ZM101.056 52.448C102 53.184 102.8 53.92 103.44 54.656L102.416 55.664C101.872 54.944 101.104 54.176 100.112 53.36L101.056 52.448ZM110.768 46.128C111.44 46.608 112.096 47.152 112.704 47.776C113.216 48.304 113.696 48.88 114.144 49.488L113.088 50.352C112.672 49.744 112.208 49.184 111.696 48.64C111.12 48.032 110.512 47.472 109.856 46.96L110.768 46.128ZM131.904 46.912C132.096 47.84 132.352 48.704 132.656 49.52C132.976 48.208 133.152 46.72 133.184 45.056H132.016C131.76 45.888 131.488 46.64 131.168 47.312L131.904 46.912ZM134.464 45.056C134.4 47.52 134.064 49.616 133.44 51.36C134.016 52.512 134.704 53.536 135.504 54.448L134.544 55.552C133.872 54.752 133.28 53.856 132.784 52.896C132.24 53.92 131.6 54.784 130.848 55.504L130.096 54.304C130.928 53.552 131.584 52.576 132.08 51.36C131.616 50.24 131.248 49.04 130.96 47.728L130.592 48.368L129.872 47.472L129.92 47.376H128.56L128.896 48.56H130.592V49.808H128.128C128.08 50.16 128.032 50.512 127.968 50.832H130.272C130.272 52.944 130.144 54.224 129.888 54.704C129.648 55.152 129.216 55.376 128.592 55.408H127.44L127.072 54.192H128.256C128.528 54.16 128.704 54.032 128.8 53.808C128.864 53.552 128.896 52.96 128.912 52.048H127.712C127.616 52.4 127.52 52.704 127.424 52.992C127.04 53.92 126.464 54.768 125.696 55.504L124.88 54.448C125.216 54.096 125.504 53.728 125.744 53.344L124.88 53.76C124.624 52.8 124.352 51.968 124.064 51.232L125.008 50.912C125.328 51.616 125.6 52.384 125.824 53.2C125.984 52.928 126.112 52.656 126.24 52.4C126.48 51.728 126.672 50.864 126.816 49.808H125.6V48.56H127.536L127.2 47.376H125.872V42.208H127.28C127.408 41.776 127.52 41.328 127.6 40.864L128.912 41.04C128.832 41.456 128.72 41.84 128.592 42.208H130.256V46.592C130.848 45.088 131.264 43.2 131.488 40.944L132.816 41.168C132.688 42.064 132.544 42.912 132.368 43.68H135.152V45.056H134.464ZM121.088 51.52L122.24 51.664C122.16 53.056 122 54.288 121.744 55.36L120.544 54.976C120.832 53.984 121.024 52.832 121.088 51.52ZM123.6 51.328C123.84 52.304 124.064 53.36 124.256 54.512L123.104 54.768C122.96 53.552 122.784 52.48 122.56 51.552L123.6 51.328ZM124.928 47.296C125.184 48.176 125.408 49.2 125.616 50.352L124.464 50.624C124.432 50.4 124.384 50.192 124.352 50C123.248 50.368 122.192 50.624 121.184 50.768L120.816 49.504C121.072 49.408 121.28 49.28 121.44 49.12C121.808 48.624 122.272 47.792 122.816 46.64L121.104 46.976L120.768 45.712C120.976 45.616 121.168 45.44 121.344 45.184C121.84 43.872 122.272 42.4 122.64 40.784L123.984 41.296C123.408 43.056 122.832 44.48 122.24 45.6L123.376 45.408C123.632 44.8 123.904 44.16 124.192 43.456L125.44 43.904C124.336 46.4 123.408 48.192 122.672 49.312C123.168 49.216 123.664 49.088 124.144 48.944C124.048 48.496 123.936 48.064 123.84 47.664L124.928 47.296ZM129.024 46.304V45.344H127.104V46.304H129.024ZM127.104 44.288H129.024V43.28H127.104V44.288ZM136.736 42.24H140V40.88H141.44V42.24H144.256V43.552H141.44V44.64H143.888V45.92H137.296V44.64H140V43.552H136.736V42.24ZM137.824 46.912H143.392V48.24H137.824V46.912ZM136.848 49.2H144.432V50.512H141.328V55.584H139.888V50.512H136.848V49.2ZM137.968 51.168L139.168 51.408C138.848 52.672 138.4 53.76 137.808 54.688L136.688 53.968C137.296 53.088 137.712 52.16 137.968 51.168ZM143.168 51.04C143.536 51.76 143.872 52.528 144.16 53.36L142.976 53.888C142.672 52.96 142.336 52.128 141.968 51.424L143.168 51.04ZM145.632 40.944L147.024 41.168C146.928 41.936 146.832 42.64 146.704 43.28H150.848V44.192C150.64 45.536 150.368 46.88 150.048 48.224L148.656 47.824C148.944 46.912 149.184 45.856 149.392 44.64H146.384C146.016 45.952 145.552 47.008 144.976 47.808L143.824 46.976C144.752 45.536 145.36 43.52 145.632 40.944ZM146.736 45.76H148.112C148.112 46.816 148.064 47.792 147.968 48.688C148.64 51.104 149.792 53.04 151.44 54.496L150.432 55.648C149.184 54.4 148.208 52.896 147.52 51.152C147.024 52.992 145.92 54.512 144.192 55.728L143.264 54.624C144.752 53.568 145.728 52.288 146.192 50.752C146.544 49.472 146.736 47.808 146.736 45.76ZM163.344 49.904C163.584 50.56 163.888 51.152 164.24 51.696C164.864 51.312 165.472 50.768 166.048 50.064L167.04 51.072C166.432 51.776 165.776 52.32 165.056 52.704C165.744 53.424 166.56 53.968 167.488 54.352L166.672 55.536C164.592 54.64 163.104 52.976 162.224 50.544L163.344 49.904ZM157.152 52.848H156.336V55.712H155.008V44.656H154.256V52.896H153.008V43.328H155.008V40.832H156.336V43.328H158.336V51.488C158.336 52.384 157.936 52.848 157.152 52.848ZM156.336 44.656V51.6L156.736 51.616C156.96 51.616 157.088 51.488 157.088 51.232V44.656H156.336ZM166.608 41.296V42.64H161.12V43.616H166.048V44.928H161.12V45.936H166.112V47.232H161.12V48.256H167.232V49.632H161.008V53.904C161.696 53.648 162.384 53.328 163.056 52.944L163.312 54.304C162.272 54.832 161.072 55.28 159.712 55.632L159.136 54.384C159.424 54.288 159.568 54.16 159.568 53.984V49.632H158.672V48.256H159.68V41.296H166.608ZM169.152 41.424H173.984V45.968H169.152V41.424ZM172.576 44.704V42.688H170.544V44.704H172.576ZM168.64 46.72H174.336V48.128H171.392C171.264 48.704 171.12 49.216 170.992 49.68H173.744C173.68 52.784 173.424 54.528 172.976 54.928C172.56 55.312 171.68 55.504 170.304 55.504H170.08L169.68 54.112C169.904 54.144 170.128 54.16 170.336 54.16C171.088 54.144 171.584 54.048 171.808 53.872C172.064 53.664 172.224 52.72 172.272 51.024H169.2C169.504 49.952 169.744 48.992 169.936 48.128H168.64V46.72ZM177.984 40.816H179.456V41.648H182.656V42.896H179.456V43.76H183.008V44.448C182.88 45.248 182.672 46.032 182.352 46.816L181.216 46.496L181.328 47.216L179.456 47.472V48.032C179.456 48.24 179.6 48.352 179.904 48.352H182.56V49.648H179.488C178.496 49.648 178.016 49.216 178.016 48.384V47.664L176.64 47.856L176.432 46.592L178.016 46.368V45.088H176.224V48.576C176.224 51.36 175.744 53.728 174.816 55.712L173.632 54.688C174.368 53.072 174.752 51.04 174.784 48.576V43.76H177.984V40.816ZM179.456 45.088V46.176L181.12 45.952L181.152 46.112C181.28 45.792 181.392 45.44 181.488 45.088H179.456ZM177.152 50.064H178.592C178.56 52.832 177.984 54.736 176.896 55.76L175.712 54.832C176.64 54 177.12 52.416 177.152 50.064ZM181.76 55.408H181.12C180.064 55.408 179.536 54.96 179.536 54.096V50.08H180.928V53.824C180.928 53.952 181.008 54.032 181.168 54.032H181.68C181.904 54.032 182.032 53.856 182.064 53.536C182.096 53.2 182.112 52.72 182.112 52.08L183.392 52.544C183.392 53.84 183.28 54.64 183.072 54.944C182.88 55.2 182.448 55.36 181.76 55.408ZM192.272 42.352C193.312 42.352 194.144 42.624 194.784 43.2C195.408 43.76 195.728 44.528 195.728 45.488C195.728 46.272 195.52 46.928 195.136 47.44C194.992 47.616 194.544 48.032 193.776 48.688C193.488 48.944 193.264 49.216 193.12 49.504C192.944 49.824 192.864 50.176 192.864 50.576V50.848H191.152V50.576C191.152 49.984 191.248 49.472 191.472 49.024C191.696 48.592 192.064 48.144 192.576 47.696C193.088 47.216 193.424 46.912 193.552 46.768C193.84 46.4 194 46.016 194 45.6C194 45.04 193.84 44.608 193.52 44.288C193.2 43.968 192.752 43.808 192.176 43.808C191.472 43.808 190.944 44.032 190.608 44.48C190.32 44.864 190.176 45.424 190.176 46.128H188.48C188.48 44.96 188.832 44.048 189.504 43.376C190.176 42.688 191.104 42.352 192.272 42.352ZM192 51.712C192.336 51.712 192.624 51.808 192.848 52.032C193.072 52.24 193.184 52.512 193.184 52.848C193.184 53.184 193.072 53.456 192.848 53.68C192.608 53.888 192.32 54 192 54C191.68 54 191.408 53.888 191.184 53.664C190.944 53.44 190.832 53.168 190.832 52.848C190.832 52.512 190.944 52.24 191.184 52.032C191.408 51.808 191.68 51.712 192 51.712Z" fill="black"/>
<g clip-path="url(#clip0_2795_413)">
<path d="M312.534 32.4151L303.974 40.9751L295.414 32.4151" stroke="#4A4A4A" stroke-width="2" stroke-linecap="round" stroke-linejoin="round"/>
</g>
<rect y="88" width="340" height="72" rx="4" fill="#EFEFEF"/>
<path d="M27.4881 106.576H28.8001V118H27.0561V108.672C26.3681 109.328 25.4881 109.808 24.4321 110.112V108.384C24.9441 108.256 25.4721 108.032 26.0481 107.712C26.6241 107.36 27.1041 106.992 27.4881 106.576ZM32.4833 115.712C32.8033 115.712 33.0913 115.824 33.3313 116.048C33.5553 116.272 33.6833 116.56 33.6833 116.912C33.6833 117.232 33.5553 117.52 33.3313 117.76C33.0913 117.968 32.8033 118.08 32.4833 118.08C32.1313 118.08 31.8593 117.968 31.6513 117.76C31.4113 117.52 31.2993 117.232 31.2993 116.912C31.2993 116.56 31.4113 116.272 31.6513 116.048C31.8593 115.824 32.1313 115.712 32.4833 115.712ZM41.104 107.696H47.232V104.928H48.768V107.696H54.88V109.152H49.968C51.024 111.552 52.848 113.712 55.44 115.6L54.4 116.912C51.728 114.608 49.856 112.016 48.784 109.152H48.768V115.04H52.064V116.496H48.768V119.648H47.232V116.496H44.064V115.04H47.232V109.152H47.216C46.064 112.384 44.112 115.04 41.392 117.12L40.512 115.696C43.04 114 44.88 111.808 46.032 109.152H41.104V107.696ZM62.72 105.776H70.528V107.264H62.72V105.776ZM62.32 109.776H71.216V111.264H68.72V118.048C68.72 119.072 68.144 119.584 67.008 119.584H64.688L64.352 118.096C65.088 118.16 65.808 118.192 66.48 118.192C66.944 118.192 67.184 118.016 67.184 117.68V111.264H62.32V109.776ZM60 104.992L61.392 105.632C60.528 107.392 59.088 108.96 57.04 110.368L56.576 108.848C58.128 107.744 59.264 106.464 60 104.992ZM60.752 108.656L62.128 109.296C61.696 110.16 61.152 110.976 60.496 111.744V119.648H59.008V113.232C58.432 113.728 57.824 114.208 57.152 114.672L56.704 113.168C58.528 111.888 59.888 110.384 60.752 108.656ZM75.472 114.944C75.28 115.232 75.104 115.488 74.928 115.728L74.544 115.264C74.336 116.96 74.016 118.4 73.584 119.584L72.624 118.576C73.168 116.832 73.456 114.416 73.488 111.344V105.712C75.744 105.68 77.76 105.456 79.52 105.056L80.176 106.256C78.576 106.576 76.784 106.752 74.8 106.816V107.52H80.112V110.624H74.8V111.344C74.784 112.304 74.736 113.184 74.672 114.016C75.168 113.168 75.616 112.128 76 110.88L77.184 111.136C77.072 111.472 76.96 111.792 76.848 112.096H77.888C77.76 111.728 77.632 111.392 77.504 111.072L78.704 110.88C78.832 111.248 78.976 111.648 79.104 112.096H80.48V113.248H79.104V114.064H80.224V115.184H79.104V116.048H80.256V117.168H79.104V117.968H80.576V118.528C81.408 117.984 82.112 117.376 82.688 116.672L83.632 117.504C83.024 118.304 82.256 119.008 81.36 119.616L80.576 118.624V119.136H76.656V119.632H75.472V114.944ZM74.8 109.504H78.736V108.64H74.8V109.504ZM76.656 117.968H77.952V117.168H76.656V117.968ZM77.952 116.048V115.184H76.656V116.048H77.952ZM77.952 114.064V113.248H76.656V114.064H77.952ZM81.072 108.064H82.864C82.992 107.632 83.088 107.2 83.152 106.752H80.64V105.44H87.264V106.752H84.624C84.544 107.2 84.448 107.648 84.336 108.064H86.848V116.656H85.344C86.192 117.312 86.912 117.968 87.52 118.64L86.56 119.584C86.016 118.912 85.28 118.208 84.352 117.456L85.2 116.656H81.072V108.064ZM85.44 115.376V114.24H82.48V115.376H85.44ZM82.48 113.008H85.44V111.792H82.48V113.008ZM82.48 110.56H85.44V109.344H82.48V110.56ZM100.848 114.496V119.696H99.36V119.088H92.912V119.696H91.44V114.496H100.848ZM92.912 117.712H99.36V115.856H92.912V117.712ZM93.776 107.488L95.264 107.808C95.072 108.096 94.864 108.384 94.672 108.656H100.4V109.872C99.824 110.704 98.992 111.44 97.872 112.08C99.504 112.656 101.312 112.992 103.296 113.104L102.96 114.48C100.432 114.336 98.192 113.808 96.24 112.896C94.384 113.68 92.016 114.304 89.168 114.784L88.592 113.44C91.024 113.088 93.056 112.624 94.688 112.064C94.016 111.648 93.408 111.184 92.832 110.688C92.24 111.2 91.616 111.68 90.96 112.096L89.984 110.928C91.456 110.096 92.72 108.96 93.776 107.488ZM96.288 111.424C97.216 110.976 97.984 110.496 98.56 109.952H93.92C94.656 110.528 95.44 111.008 96.288 111.424ZM102.64 105.952V109.184H101.104V107.312H90.896V109.184H89.36V105.952H95.072C94.912 105.632 94.752 105.312 94.56 105.024L96.24 104.768C96.4 105.12 96.56 105.504 96.72 105.952H102.64ZM118.48 106.192V118.944H117.008V117.968H114.208V118.944H112.72V106.192H118.48ZM114.208 116.496H117.008V107.664H114.208V116.496ZM107.344 104.8L108.88 104.928C108.72 105.888 108.544 106.8 108.384 107.632H111.664V108.496C111.536 111.088 110.96 113.328 109.92 115.216C110.816 115.872 111.552 116.464 112.128 116.992L111.072 118.24C110.528 117.696 109.872 117.12 109.104 116.512C108.24 117.696 107.168 118.72 105.904 119.584L104.896 118.32C106.112 117.552 107.136 116.64 107.936 115.584C107.136 114.944 106.24 114.288 105.248 113.584C105.728 112.208 106.144 110.72 106.528 109.12H104.816V107.632H106.848C107.024 106.704 107.184 105.76 107.344 104.8ZM108.736 114.352C109.568 112.832 110.08 111.088 110.24 109.12H108.08C107.728 110.72 107.344 112.048 106.944 113.12C107.584 113.552 108.192 113.968 108.736 114.352ZM125.408 105.76H135.328V107.232H134.192V117.92C134.192 119.04 133.632 119.6 132.544 119.6H129.84L129.504 118.112C130.384 118.176 131.216 118.208 132.016 118.208C132.432 118.208 132.656 117.984 132.656 117.536V107.232H125.408V105.76ZM125.68 109.296H131.024V115.504H125.68V109.296ZM129.552 114.128V110.672H127.136V114.128H129.552ZM123.936 104.752L125.296 105.392C124.928 106.576 124.464 107.696 123.888 108.784V119.68H122.4V111.136C121.952 111.712 121.488 112.288 120.992 112.832L120.496 111.2C122.048 109.36 123.2 107.216 123.936 104.752ZM139.136 110.816H143.296V107.664C142.048 109.136 140.096 110.336 137.456 111.296L136.64 109.952C138.992 109.312 140.784 108.528 142 107.6H137.408V106.192H143.296V104.848H144.768V106.192H150.656V107.6H144.768V107.936C147.184 108.576 149.376 109.264 151.328 110L150.352 111.088C148.528 110.304 146.672 109.616 144.768 109.008V110.816H148.928V116.864H139.136V110.816ZM147.456 115.52V114.512H140.608V115.52H147.456ZM140.608 113.232H147.456V112.16H140.608V113.232ZM137.088 117.824H150.928V119.216H137.088V117.824ZM154.544 118.704V119.648H153.12V113.808H157.648V119.392H156.256V118.704H154.544ZM156.256 117.328V115.152H154.544V117.328H156.256ZM152.8 106.8H154.784C154.56 106.256 154.336 105.728 154.08 105.232L155.52 104.832C155.84 105.552 156.064 106.208 156.224 106.8H157.952V108.208H152.8V106.8ZM153.312 109.184H157.456V110.512H153.312V109.184ZM153.312 111.408H157.456V112.72H153.312V111.408ZM159.072 110.24C158.896 110.432 158.736 110.624 158.576 110.8L157.68 109.632C158.88 108.32 159.696 106.704 160.112 104.784L161.584 104.992C161.472 105.488 161.344 105.968 161.184 106.416H166.848C166.848 112.496 166.768 116.256 166.608 117.68C166.448 118.928 165.68 119.552 164.32 119.552C163.968 119.552 163.376 119.52 162.512 119.472L162.144 118.08C162.896 118.128 163.552 118.16 164.096 118.16C164.736 118.16 165.104 117.76 165.2 116.992C165.296 116.096 165.36 113.04 165.392 107.824H160.624C160.352 108.368 160.048 108.896 159.728 109.376H163.888V116.976H159.072V110.24ZM162.512 115.696V113.76H160.48V115.696H162.512ZM160.48 112.528H162.512V110.672H160.48V112.528ZM172.208 107.632C171.968 108 171.728 108.352 171.488 108.688H181.616C181.584 110.048 181.536 111.248 181.504 112.304H183.44V113.728H181.456C181.408 114.624 181.376 115.392 181.344 116.016H182.992V117.424H181.248C181.2 117.808 181.168 118.048 181.136 118.16C180.992 118.672 180.72 119.04 180.32 119.264C179.92 119.504 179.328 119.632 178.56 119.632C177.984 119.632 177.312 119.648 176.56 119.648L176.112 118.256C176.944 118.288 177.68 118.32 178.336 118.32C178.656 118.32 178.944 118.272 179.184 118.208C179.424 118.112 179.6 117.904 179.728 117.584C179.728 117.552 179.744 117.488 179.76 117.424H170.512C170.736 116.176 170.928 114.944 171.072 113.728H168.592V112.304H171.216C171.328 111.12 171.392 109.936 171.424 108.768C170.88 109.488 170.304 110.128 169.696 110.688L168.72 109.504C170 108.352 171.088 106.768 172.016 104.736L173.552 105.088C173.376 105.472 173.2 105.824 173.024 106.176H182.656V107.632H172.208ZM174.816 113.792C176 114.176 177.088 114.624 178.08 115.168L177.52 116.016H179.872C179.904 115.408 179.936 114.64 179.968 113.728H172.592C172.496 114.544 172.4 115.312 172.272 116.016H176.928C176.016 115.488 175.088 115.072 174.144 114.784L174.816 113.792ZM172.72 112.304H176.864C176 111.824 175.12 111.44 174.256 111.136L174.928 110.144C176.112 110.528 177.184 110.992 178.176 111.552L177.68 112.304H180.016C180.048 111.616 180.064 110.88 180.096 110.096H172.848C172.816 110.864 172.768 111.6 172.72 112.304ZM189.184 110.72V113.232H195.664V110.72H189.184ZM195.664 109.296V106.896H189.184V109.296H195.664ZM189.104 114.64C188.896 116.688 188.288 118.384 187.28 119.744L186.112 118.672C187.12 117.264 187.632 115.472 187.664 113.296V105.44H197.2V117.968C197.2 118.992 196.672 119.504 195.648 119.504H193.6L193.184 118.016C193.888 118.048 194.544 118.08 195.152 118.08C195.488 118.08 195.664 117.856 195.664 117.44V114.64H189.104ZM211.904 110.912C212.096 111.84 212.352 112.704 212.656 113.52C212.976 112.208 213.152 110.72 213.184 109.056H212.016C211.76 109.888 211.488 110.64 211.168 111.312L211.904 110.912ZM214.464 109.056C214.4 111.52 214.064 113.616 213.44 115.36C214.016 116.512 214.704 117.536 215.504 118.448L214.544 119.552C213.872 118.752 213.28 117.856 212.784 116.896C212.24 117.92 211.6 118.784 210.848 119.504L210.096 118.304C210.928 117.552 211.584 116.576 212.08 115.36C211.616 114.24 211.248 113.04 210.96 111.728L210.592 112.368L209.872 111.472L209.92 111.376H208.56L208.896 112.56H210.592V113.808H208.128C208.08 114.16 208.032 114.512 207.968 114.832H210.272C210.272 116.944 210.144 118.224 209.888 118.704C209.648 119.152 209.216 119.376 208.592 119.408H207.44L207.072 118.192H208.256C208.528 118.16 208.704 118.032 208.8 117.808C208.864 117.552 208.896 116.96 208.912 116.048H207.712C207.616 116.4 207.52 116.704 207.424 116.992C207.04 117.92 206.464 118.768 205.696 119.504L204.88 118.448C205.216 118.096 205.504 117.728 205.744 117.344L204.88 117.76C204.624 116.8 204.352 115.968 204.064 115.232L205.008 114.912C205.328 115.616 205.6 116.384 205.824 117.2C205.984 116.928 206.112 116.656 206.24 116.4C206.48 115.728 206.672 114.864 206.816 113.808H205.6V112.56H207.536L207.2 111.376H205.872V106.208H207.28C207.408 105.776 207.52 105.328 207.6 104.864L208.912 105.04C208.832 105.456 208.72 105.84 208.592 106.208H210.256V110.592C210.848 109.088 211.264 107.2 211.488 104.944L212.816 105.168C212.688 106.064 212.544 106.912 212.368 107.68H215.152V109.056H214.464ZM201.088 115.52L202.24 115.664C202.16 117.056 202 118.288 201.744 119.36L200.544 118.976C200.832 117.984 201.024 116.832 201.088 115.52ZM203.6 115.328C203.84 116.304 204.064 117.36 204.256 118.512L203.104 118.768C202.96 117.552 202.784 116.48 202.56 115.552L203.6 115.328ZM204.928 111.296C205.184 112.176 205.408 113.2 205.616 114.352L204.464 114.624C204.432 114.4 204.384 114.192 204.352 114C203.248 114.368 202.192 114.624 201.184 114.768L200.816 113.504C201.072 113.408 201.28 113.28 201.44 113.12C201.808 112.624 202.272 111.792 202.816 110.64L201.104 110.976L200.768 109.712C200.976 109.616 201.168 109.44 201.344 109.184C201.84 107.872 202.272 106.4 202.64 104.784L203.984 105.296C203.408 107.056 202.832 108.48 202.24 109.6L203.376 109.408C203.632 108.8 203.904 108.16 204.192 107.456L205.44 107.904C204.336 110.4 203.408 112.192 202.672 113.312C203.168 113.216 203.664 113.088 204.144 112.944C204.048 112.496 203.936 112.064 203.84 111.664L204.928 111.296ZM209.024 110.304V109.344H207.104V110.304H209.024ZM207.104 108.288H209.024V107.28H207.104V108.288ZM216.736 106.24H220V104.88H221.44V106.24H224.256V107.552H221.44V108.64H223.888V109.92H217.296V108.64H220V107.552H216.736V106.24ZM217.824 110.912H223.392V112.24H217.824V110.912ZM216.848 113.2H224.432V114.512H221.328V119.584H219.888V114.512H216.848V113.2ZM217.968 115.168L219.168 115.408C218.848 116.672 218.4 117.76 217.808 118.688L216.688 117.968C217.296 117.088 217.712 116.16 217.968 115.168ZM223.168 115.04C223.536 115.76 223.872 116.528 224.16 117.36L222.976 117.888C222.672 116.96 222.336 116.128 221.968 115.424L223.168 115.04ZM225.632 104.944L227.024 105.168C226.928 105.936 226.832 106.64 226.704 107.28H230.848V108.192C230.64 109.536 230.368 110.88 230.048 112.224L228.656 111.824C228.944 110.912 229.184 109.856 229.392 108.64H226.384C226.016 109.952 225.552 111.008 224.976 111.808L223.824 110.976C224.752 109.536 225.36 107.52 225.632 104.944ZM226.736 109.76H228.112C228.112 110.816 228.064 111.792 227.968 112.688C228.64 115.104 229.792 117.04 231.44 118.496L230.432 119.648C229.184 118.4 228.208 116.896 227.52 115.152C227.024 116.992 225.92 118.512 224.192 119.728L223.264 118.624C224.752 117.568 225.728 116.288 226.192 114.752C226.544 113.472 226.736 111.808 226.736 109.76ZM245.28 105.424V119.568H243.76V118.448H236.544V119.584H235.024V105.424H245.28ZM236.544 116.96H243.76V112.512H236.544V116.96ZM236.544 111.024H243.76V106.896H236.544V111.024ZM254.768 110.128C255.44 110.608 256.096 111.152 256.704 111.776C257.216 112.304 257.696 112.88 258.144 113.488L257.088 114.352C256.672 113.744 256.208 113.184 255.696 112.64C255.12 112.032 254.512 111.472 253.856 110.96L254.768 110.128ZM44.768 135.632C44.496 135.904 44.208 136.176 43.92 136.432L43.488 135.008C44.592 133.984 45.408 132.8 45.936 131.456L47.168 132.016C46.912 132.656 46.592 133.28 46.208 133.872V139.152H44.768V135.632ZM54.96 129.888V131.312H43.328V135.216C43.28 138.688 42.784 141.472 41.824 143.568L40.672 142.544C41.408 140.784 41.792 138.352 41.824 135.216V129.888H47.888C47.728 129.6 47.552 129.328 47.376 129.088L49.008 128.832C49.168 129.152 49.328 129.504 49.488 129.888H54.96ZM44.32 139.76L45.648 140.032C45.36 141.312 44.976 142.416 44.464 143.344L43.264 142.576C43.76 141.696 44.112 140.752 44.32 139.76ZM50.912 143.472H47.776C46.784 143.472 46.304 142.976 46.304 142.016V139.568H47.744V141.728C47.744 141.968 47.904 142.096 48.224 142.096H50.656C50.944 142.096 51.152 142.032 51.28 141.92C51.44 141.792 51.552 141.376 51.616 140.704L52.928 141.136C52.8 142.256 52.576 142.944 52.256 143.168C51.968 143.36 51.52 143.472 50.912 143.472ZM53.568 139.312C54.368 140.4 54.992 141.344 55.44 142.176L54.256 142.992C53.792 142.096 53.168 141.104 52.4 140.016L53.568 139.312ZM49.44 139.28C50.048 139.92 50.512 140.496 50.848 140.976L49.728 141.76C49.376 141.216 48.912 140.608 48.336 139.968L49.44 139.28ZM49.136 135.456V136.144H51.072V135.456H49.136ZM49.136 137.184V137.936H51.072V137.184H49.136ZM52.416 137.936H54.864V139.088H47.792V135.584C47.536 135.904 47.264 136.224 46.992 136.528L46.544 135.088C47.472 133.984 48.112 132.784 48.496 131.488L49.824 131.744C49.728 132.016 49.648 132.288 49.552 132.544H51.024C50.88 132.24 50.736 131.968 50.576 131.728L52 131.504C52.144 131.824 52.288 132.16 52.432 132.544H54.704V133.696H52.416V134.432H54.448V135.456H52.416V136.144H54.448V137.184H52.416V137.936ZM51.072 133.696H49.136V134.432H51.072V133.696ZM67.904 134.912C68.096 135.84 68.352 136.704 68.656 137.52C68.976 136.208 69.152 134.72 69.184 133.056H68.016C67.76 133.888 67.488 134.64 67.168 135.312L67.904 134.912ZM70.464 133.056C70.4 135.52 70.064 137.616 69.44 139.36C70.016 140.512 70.704 141.536 71.504 142.448L70.544 143.552C69.872 142.752 69.28 141.856 68.784 140.896C68.24 141.92 67.6 142.784 66.848 143.504L66.096 142.304C66.928 141.552 67.584 140.576 68.08 139.36C67.616 138.24 67.248 137.04 66.96 135.728L66.592 136.368L65.872 135.472L65.92 135.376H64.56L64.896 136.56H66.592V137.808H64.128C64.08 138.16 64.032 138.512 63.968 138.832H66.272C66.272 140.944 66.144 142.224 65.888 142.704C65.648 143.152 65.216 143.376 64.592 143.408H63.44L63.072 142.192H64.256C64.528 142.16 64.704 142.032 64.8 141.808C64.864 141.552 64.896 140.96 64.912 140.048H63.712C63.616 140.4 63.52 140.704 63.424 140.992C63.04 141.92 62.464 142.768 61.696 143.504L60.88 142.448C61.216 142.096 61.504 141.728 61.744 141.344L60.88 141.76C60.624 140.8 60.352 139.968 60.064 139.232L61.008 138.912C61.328 139.616 61.6 140.384 61.824 141.2C61.984 140.928 62.112 140.656 62.24 140.4C62.48 139.728 62.672 138.864 62.816 137.808H61.6V136.56H63.536L63.2 135.376H61.872V130.208H63.28C63.408 129.776 63.52 129.328 63.6 128.864L64.912 129.04C64.832 129.456 64.72 129.84 64.592 130.208H66.256V134.592C66.848 133.088 67.264 131.2 67.488 128.944L68.816 129.168C68.688 130.064 68.544 130.912 68.368 131.68H71.152V133.056H70.464ZM57.088 139.52L58.24 139.664C58.16 141.056 58 142.288 57.744 143.36L56.544 142.976C56.832 141.984 57.024 140.832 57.088 139.52ZM59.6 139.328C59.84 140.304 60.064 141.36 60.256 142.512L59.104 142.768C58.96 141.552 58.784 140.48 58.56 139.552L59.6 139.328ZM60.928 135.296C61.184 136.176 61.408 137.2 61.616 138.352L60.464 138.624C60.432 138.4 60.384 138.192 60.352 138C59.248 138.368 58.192 138.624 57.184 138.768L56.816 137.504C57.072 137.408 57.28 137.28 57.44 137.12C57.808 136.624 58.272 135.792 58.816 134.64L57.104 134.976L56.768 133.712C56.976 133.616 57.168 133.44 57.344 133.184C57.84 131.872 58.272 130.4 58.64 128.784L59.984 129.296C59.408 131.056 58.832 132.48 58.24 133.6L59.376 133.408C59.632 132.8 59.904 132.16 60.192 131.456L61.44 131.904C60.336 134.4 59.408 136.192 58.672 137.312C59.168 137.216 59.664 137.088 60.144 136.944C60.048 136.496 59.936 136.064 59.84 135.664L60.928 135.296ZM65.024 134.304V133.344H63.104V134.304H65.024ZM63.104 132.288H65.024V131.28H63.104V132.288ZM75.76 133.696C75.056 134.112 74.32 134.496 73.552 134.848L72.672 133.584C75.44 132.368 77.68 130.816 79.408 128.928H80.624C82.112 130.784 84.336 132.32 87.312 133.552L86.448 134.816C85.68 134.496 84.944 134.144 84.272 133.76V134.592H80.768V136.528H86.336V137.936H80.768V141.856H82.272C82.768 140.864 83.2 139.792 83.584 138.656L84.96 139.152C84.608 140.16 84.224 141.056 83.808 141.856H86.896V143.296H73.12V141.856H76.256C75.952 140.944 75.568 140.08 75.12 139.264L76.48 138.768C76.928 139.632 77.344 140.656 77.728 141.856H79.264V137.936H73.68V136.528H79.264V134.592H75.76V133.696ZM83.392 133.232C82.08 132.4 80.96 131.44 80.016 130.352C78.96 131.44 77.792 132.4 76.512 133.232H83.392ZM90.416 135.456C90.112 135.776 89.776 136.08 89.424 136.368L88.656 135.36C89.808 134.432 90.608 133.312 91.04 132L92.32 132.192C92.24 132.448 92.16 132.704 92.064 132.928H94.832V133.952C94.464 134.752 94.048 135.472 93.568 136.08C94.464 136.672 95.248 137.264 95.952 137.856L94.944 138.864C94.864 138.784 94.784 138.72 94.72 138.656V143.488H93.376V142.704H90.992V143.568H89.664V138.896C89.504 138.944 89.36 138.992 89.216 139.04L88.608 137.824C89.776 137.52 90.784 136.992 91.632 136.256C91.232 135.984 90.832 135.712 90.416 135.456ZM92.72 137.024C92.128 137.568 91.488 138.032 90.8 138.4H94.448C93.936 137.936 93.36 137.472 92.72 137.024ZM92.496 135.36C92.816 134.976 93.104 134.56 93.36 134.112H91.472C91.376 134.272 91.28 134.416 91.184 134.544C91.648 134.816 92.08 135.088 92.496 135.36ZM90.992 141.424H93.376V139.648H90.992V141.424ZM95.584 130.224V132.912H94.272V131.488H90.208V132.912H88.896V130.224H91.536C91.408 129.824 91.264 129.456 91.104 129.104L92.592 128.864C92.72 129.28 92.848 129.728 92.976 130.224H95.584ZM96.336 131.952H98.56C98.608 131.568 98.64 131.168 98.672 130.768H95.856V129.424H103.152V130.768H100.16C100.128 131.184 100.096 131.568 100.048 131.952H102.624V140.432H96.336V131.952ZM101.232 139.12V137.904H97.712V139.12H101.232ZM97.712 136.704H101.232V135.584H97.712V136.704ZM97.712 134.368H101.232V133.2H97.712V134.368ZM97.904 140.464L98.944 141.376C98.24 142.272 97.36 143.072 96.336 143.76L95.44 142.608C96.416 142 97.232 141.28 97.904 140.464ZM101.056 140.448C102 141.184 102.8 141.92 103.44 142.656L102.416 143.664C101.872 142.944 101.104 142.176 100.112 141.36L101.056 140.448ZM110.768 134.128C111.44 134.608 112.096 135.152 112.704 135.776C113.216 136.304 113.696 136.88 114.144 137.488L113.088 138.352C112.672 137.744 112.208 137.184 111.696 136.64C111.12 136.032 110.512 135.472 109.856 134.96L110.768 134.128ZM131.904 134.912C132.096 135.84 132.352 136.704 132.656 137.52C132.976 136.208 133.152 134.72 133.184 133.056H132.016C131.76 133.888 131.488 134.64 131.168 135.312L131.904 134.912ZM134.464 133.056C134.4 135.52 134.064 137.616 133.44 139.36C134.016 140.512 134.704 141.536 135.504 142.448L134.544 143.552C133.872 142.752 133.28 141.856 132.784 140.896C132.24 141.92 131.6 142.784 130.848 143.504L130.096 142.304C130.928 141.552 131.584 140.576 132.08 139.36C131.616 138.24 131.248 137.04 130.96 135.728L130.592 136.368L129.872 135.472L129.92 135.376H128.56L128.896 136.56H130.592V137.808H128.128C128.08 138.16 128.032 138.512 127.968 138.832H130.272C130.272 140.944 130.144 142.224 129.888 142.704C129.648 143.152 129.216 143.376 128.592 143.408H127.44L127.072 142.192H128.256C128.528 142.16 128.704 142.032 128.8 141.808C128.864 141.552 128.896 140.96 128.912 140.048H127.712C127.616 140.4 127.52 140.704 127.424 140.992C127.04 141.92 126.464 142.768 125.696 143.504L124.88 142.448C125.216 142.096 125.504 141.728 125.744 141.344L124.88 141.76C124.624 140.8 124.352 139.968 124.064 139.232L125.008 138.912C125.328 139.616 125.6 140.384 125.824 141.2C125.984 140.928 126.112 140.656 126.24 140.4C126.48 139.728 126.672 138.864 126.816 137.808H125.6V136.56H127.536L127.2 135.376H125.872V130.208H127.28C127.408 129.776 127.52 129.328 127.6 128.864L128.912 129.04C128.832 129.456 128.72 129.84 128.592 130.208H130.256V134.592C130.848 133.088 131.264 131.2 131.488 128.944L132.816 129.168C132.688 130.064 132.544 130.912 132.368 131.68H135.152V133.056H134.464ZM121.088 139.52L122.24 139.664C122.16 141.056 122 142.288 121.744 143.36L120.544 142.976C120.832 141.984 121.024 140.832 121.088 139.52ZM123.6 139.328C123.84 140.304 124.064 141.36 124.256 142.512L123.104 142.768C122.96 141.552 122.784 140.48 122.56 139.552L123.6 139.328ZM124.928 135.296C125.184 136.176 125.408 137.2 125.616 138.352L124.464 138.624C124.432 138.4 124.384 138.192 124.352 138C123.248 138.368 122.192 138.624 121.184 138.768L120.816 137.504C121.072 137.408 121.28 137.28 121.44 137.12C121.808 136.624 122.272 135.792 122.816 134.64L121.104 134.976L120.768 133.712C120.976 133.616 121.168 133.44 121.344 133.184C121.84 131.872 122.272 130.4 122.64 128.784L123.984 129.296C123.408 131.056 122.832 132.48 122.24 133.6L123.376 133.408C123.632 132.8 123.904 132.16 124.192 131.456L125.44 131.904C124.336 134.4 123.408 136.192 122.672 137.312C123.168 137.216 123.664 137.088 124.144 136.944C124.048 136.496 123.936 136.064 123.84 135.664L124.928 135.296ZM129.024 134.304V133.344H127.104V134.304H129.024ZM127.104 132.288H129.024V131.28H127.104V132.288ZM136.736 130.24H140V128.88H141.44V130.24H144.256V131.552H141.44V132.64H143.888V133.92H137.296V132.64H140V131.552H136.736V130.24ZM137.824 134.912H143.392V136.24H137.824V134.912ZM136.848 137.2H144.432V138.512H141.328V143.584H139.888V138.512H136.848V137.2ZM137.968 139.168L139.168 139.408C138.848 140.672 138.4 141.76 137.808 142.688L136.688 141.968C137.296 141.088 137.712 140.16 137.968 139.168ZM143.168 139.04C143.536 139.76 143.872 140.528 144.16 141.36L142.976 141.888C142.672 140.96 142.336 140.128 141.968 139.424L143.168 139.04ZM145.632 128.944L147.024 129.168C146.928 129.936 146.832 130.64 146.704 131.28H150.848V132.192C150.64 133.536 150.368 134.88 150.048 136.224L148.656 135.824C148.944 134.912 149.184 133.856 149.392 132.64H146.384C146.016 133.952 145.552 135.008 144.976 135.808L143.824 134.976C144.752 133.536 145.36 131.52 145.632 128.944ZM146.736 133.76H148.112C148.112 134.816 148.064 135.792 147.968 136.688C148.64 139.104 149.792 141.04 151.44 142.496L150.432 143.648C149.184 142.4 148.208 140.896 147.52 139.152C147.024 140.992 145.92 142.512 144.192 143.728L143.264 142.624C144.752 141.568 145.728 140.288 146.192 138.752C146.544 137.472 146.736 135.808 146.736 133.76ZM163.344 137.904C163.584 138.56 163.888 139.152 164.24 139.696C164.864 139.312 165.472 138.768 166.048 138.064L167.04 139.072C166.432 139.776 165.776 140.32 165.056 140.704C165.744 141.424 166.56 141.968 167.488 142.352L166.672 143.536C164.592 142.64 163.104 140.976 162.224 138.544L163.344 137.904ZM157.152 140.848H156.336V143.712H155.008V132.656H154.256V140.896H153.008V131.328H155.008V128.832H156.336V131.328H158.336V139.488C158.336 140.384 157.936 140.848 157.152 140.848ZM156.336 132.656V139.6L156.736 139.616C156.96 139.616 157.088 139.488 157.088 139.232V132.656H156.336ZM166.608 129.296V130.64H161.12V131.616H166.048V132.928H161.12V133.936H166.112V135.232H161.12V136.256H167.232V137.632H161.008V141.904C161.696 141.648 162.384 141.328 163.056 140.944L163.312 142.304C162.272 142.832 161.072 143.28 159.712 143.632L159.136 142.384C159.424 142.288 159.568 142.16 159.568 141.984V137.632H158.672V136.256H159.68V129.296H166.608ZM169.152 129.424H173.984V133.968H169.152V129.424ZM172.576 132.704V130.688H170.544V132.704H172.576ZM168.64 134.72H174.336V136.128H171.392C171.264 136.704 171.12 137.216 170.992 137.68H173.744C173.68 140.784 173.424 142.528 172.976 142.928C172.56 143.312 171.68 143.504 170.304 143.504H170.08L169.68 142.112C169.904 142.144 170.128 142.16 170.336 142.16C171.088 142.144 171.584 142.048 171.808 141.872C172.064 141.664 172.224 140.72 172.272 139.024H169.2C169.504 137.952 169.744 136.992 169.936 136.128H168.64V134.72ZM177.984 128.816H179.456V129.648H182.656V130.896H179.456V131.76H183.008V132.448C182.88 133.248 182.672 134.032 182.352 134.816L181.216 134.496L181.328 135.216L179.456 135.472V136.032C179.456 136.24 179.6 136.352 179.904 136.352H182.56V137.648H179.488C178.496 137.648 178.016 137.216 178.016 136.384V135.664L176.64 135.856L176.432 134.592L178.016 134.368V133.088H176.224V136.576C176.224 139.36 175.744 141.728 174.816 143.712L173.632 142.688C174.368 141.072 174.752 139.04 174.784 136.576V131.76H177.984V128.816ZM179.456 133.088V134.176L181.12 133.952L181.152 134.112C181.28 133.792 181.392 133.44 181.488 133.088H179.456ZM177.152 138.064H178.592C178.56 140.832 177.984 142.736 176.896 143.76L175.712 142.832C176.64 142 177.12 140.416 177.152 138.064ZM181.76 143.408H181.12C180.064 143.408 179.536 142.96 179.536 142.096V138.08H180.928V141.824C180.928 141.952 181.008 142.032 181.168 142.032H181.68C181.904 142.032 182.032 141.856 182.064 141.536C182.096 141.2 182.112 140.72 182.112 140.08L183.392 140.544C183.392 141.84 183.28 142.64 183.072 142.944C182.88 143.2 182.448 143.36 181.76 143.408ZM192.272 130.352C193.312 130.352 194.144 130.624 194.784 131.2C195.408 131.76 195.728 132.528 195.728 133.488C195.728 134.272 195.52 134.928 195.136 135.44C194.992 135.616 194.544 136.032 193.776 136.688C193.488 136.944 193.264 137.216 193.12 137.504C192.944 137.824 192.864 138.176 192.864 138.576V138.848H191.152V138.576C191.152 137.984 191.248 137.472 191.472 137.024C191.696 136.592 192.064 136.144 192.576 135.696C193.088 135.216 193.424 134.912 193.552 134.768C193.84 134.4 194 134.016 194 133.6C194 133.04 193.84 132.608 193.52 132.288C193.2 131.968 192.752 131.808 192.176 131.808C191.472 131.808 190.944 132.032 190.608 132.48C190.32 132.864 190.176 133.424 190.176 134.128H188.48C188.48 132.96 188.832 132.048 189.504 131.376C190.176 130.688 191.104 130.352 192.272 130.352ZM192 139.712C192.336 139.712 192.624 139.808 192.848 140.032C193.072 140.24 193.184 140.512 193.184 140.848C193.184 141.184 193.072 141.456 192.848 141.68C192.608 141.888 192.32 142 192 142C191.68 142 191.408 141.888 191.184 141.664C190.944 141.44 190.832 141.168 190.832 140.848C190.832 140.512 190.944 140.24 191.184 140.032C191.408 139.808 191.68 139.712 192 139.712Z" fill="black"/>
<g clip-path="url(#clip1_2795_413)">
<path d="M312.534 120.415L303.974 128.975L295.414 120.415" stroke="#4A4A4A" stroke-width="2" stroke-linecap="round" stroke-linejoin="round"/>
</g>
<rect y="176" width="340" height="72" rx="4" fill="#EFEFEF"/>
<path d="M27.4881 194.576H28.8001V206H27.0561V196.672C26.3681 197.328 25.4881 197.808 24.4321 198.112V196.384C24.9441 196.256 25.4721 196.032 26.0481 195.712C26.6241 195.36 27.1041 194.992 27.4881 194.576ZM32.4833 203.712C32.8033 203.712 33.0913 203.824 33.3313 204.048C33.5553 204.272 33.6833 204.56 33.6833 204.912C33.6833 205.232 33.5553 205.52 33.3313 205.76C33.0913 205.968 32.8033 206.08 32.4833 206.08C32.1313 206.08 31.8593 205.968 31.6513 205.76C31.4113 205.52 31.2993 205.232 31.2993 204.912C31.2993 204.56 31.4113 204.272 31.6513 204.048C31.8593 203.824 32.1313 203.712 32.4833 203.712ZM41.104 195.696H47.232V192.928H48.768V195.696H54.88V197.152H49.968C51.024 199.552 52.848 201.712 55.44 203.6L54.4 204.912C51.728 202.608 49.856 200.016 48.784 197.152H48.768V203.04H52.064V204.496H48.768V207.648H47.232V204.496H44.064V203.04H47.232V197.152H47.216C46.064 200.384 44.112 203.04 41.392 205.12L40.512 203.696C43.04 202 44.88 199.808 46.032 197.152H41.104V195.696ZM62.72 193.776H70.528V195.264H62.72V193.776ZM62.32 197.776H71.216V199.264H68.72V206.048C68.72 207.072 68.144 207.584 67.008 207.584H64.688L64.352 206.096C65.088 206.16 65.808 206.192 66.48 206.192C66.944 206.192 67.184 206.016 67.184 205.68V199.264H62.32V197.776ZM60 192.992L61.392 193.632C60.528 195.392 59.088 196.96 57.04 198.368L56.576 196.848C58.128 195.744 59.264 194.464 60 192.992ZM60.752 196.656L62.128 197.296C61.696 198.16 61.152 198.976 60.496 199.744V207.648H59.008V201.232C58.432 201.728 57.824 202.208 57.152 202.672L56.704 201.168C58.528 199.888 59.888 198.384 60.752 196.656ZM75.472 202.944C75.28 203.232 75.104 203.488 74.928 203.728L74.544 203.264C74.336 204.96 74.016 206.4 73.584 207.584L72.624 206.576C73.168 204.832 73.456 202.416 73.488 199.344V193.712C75.744 193.68 77.76 193.456 79.52 193.056L80.176 194.256C78.576 194.576 76.784 194.752 74.8 194.816V195.52H80.112V198.624H74.8V199.344C74.784 200.304 74.736 201.184 74.672 202.016C75.168 201.168 75.616 200.128 76 198.88L77.184 199.136C77.072 199.472 76.96 199.792 76.848 200.096H77.888C77.76 199.728 77.632 199.392 77.504 199.072L78.704 198.88C78.832 199.248 78.976 199.648 79.104 200.096H80.48V201.248H79.104V202.064H80.224V203.184H79.104V204.048H80.256V205.168H79.104V205.968H80.576V206.528C81.408 205.984 82.112 205.376 82.688 204.672L83.632 205.504C83.024 206.304 82.256 207.008 81.36 207.616L80.576 206.624V207.136H76.656V207.632H75.472V202.944ZM74.8 197.504H78.736V196.64H74.8V197.504ZM76.656 205.968H77.952V205.168H76.656V205.968ZM77.952 204.048V203.184H76.656V204.048H77.952ZM77.952 202.064V201.248H76.656V202.064H77.952ZM81.072 196.064H82.864C82.992 195.632 83.088 195.2 83.152 194.752H80.64V193.44H87.264V194.752H84.624C84.544 195.2 84.448 195.648 84.336 196.064H86.848V204.656H85.344C86.192 205.312 86.912 205.968 87.52 206.64L86.56 207.584C86.016 206.912 85.28 206.208 84.352 205.456L85.2 204.656H81.072V196.064ZM85.44 203.376V202.24H82.48V203.376H85.44ZM82.48 201.008H85.44V199.792H82.48V201.008ZM82.48 198.56H85.44V197.344H82.48V198.56ZM100.848 202.496V207.696H99.36V207.088H92.912V207.696H91.44V202.496H100.848ZM92.912 205.712H99.36V203.856H92.912V205.712ZM93.776 195.488L95.264 195.808C95.072 196.096 94.864 196.384 94.672 196.656H100.4V197.872C99.824 198.704 98.992 199.44 97.872 200.08C99.504 200.656 101.312 200.992 103.296 201.104L102.96 202.48C100.432 202.336 98.192 201.808 96.24 200.896C94.384 201.68 92.016 202.304 89.168 202.784L88.592 201.44C91.024 201.088 93.056 200.624 94.688 200.064C94.016 199.648 93.408 199.184 92.832 198.688C92.24 199.2 91.616 199.68 90.96 200.096L89.984 198.928C91.456 198.096 92.72 196.96 93.776 195.488ZM96.288 199.424C97.216 198.976 97.984 198.496 98.56 197.952H93.92C94.656 198.528 95.44 199.008 96.288 199.424ZM102.64 193.952V197.184H101.104V195.312H90.896V197.184H89.36V193.952H95.072C94.912 193.632 94.752 193.312 94.56 193.024L96.24 192.768C96.4 193.12 96.56 193.504 96.72 193.952H102.64ZM118.48 194.192V206.944H117.008V205.968H114.208V206.944H112.72V194.192H118.48ZM114.208 204.496H117.008V195.664H114.208V204.496ZM107.344 192.8L108.88 192.928C108.72 193.888 108.544 194.8 108.384 195.632H111.664V196.496C111.536 199.088 110.96 201.328 109.92 203.216C110.816 203.872 111.552 204.464 112.128 204.992L111.072 206.24C110.528 205.696 109.872 205.12 109.104 204.512C108.24 205.696 107.168 206.72 105.904 207.584L104.896 206.32C106.112 205.552 107.136 204.64 107.936 203.584C107.136 202.944 106.24 202.288 105.248 201.584C105.728 200.208 106.144 198.72 106.528 197.12H104.816V195.632H106.848C107.024 194.704 107.184 193.76 107.344 192.8ZM108.736 202.352C109.568 200.832 110.08 199.088 110.24 197.12H108.08C107.728 198.72 107.344 200.048 106.944 201.12C107.584 201.552 108.192 201.968 108.736 202.352ZM125.408 193.76H135.328V195.232H134.192V205.92C134.192 207.04 133.632 207.6 132.544 207.6H129.84L129.504 206.112C130.384 206.176 131.216 206.208 132.016 206.208C132.432 206.208 132.656 205.984 132.656 205.536V195.232H125.408V193.76ZM125.68 197.296H131.024V203.504H125.68V197.296ZM129.552 202.128V198.672H127.136V202.128H129.552ZM123.936 192.752L125.296 193.392C124.928 194.576 124.464 195.696 123.888 196.784V207.68H122.4V199.136C121.952 199.712 121.488 200.288 120.992 200.832L120.496 199.2C122.048 197.36 123.2 195.216 123.936 192.752ZM139.136 198.816H143.296V195.664C142.048 197.136 140.096 198.336 137.456 199.296L136.64 197.952C138.992 197.312 140.784 196.528 142 195.6H137.408V194.192H143.296V192.848H144.768V194.192H150.656V195.6H144.768V195.936C147.184 196.576 149.376 197.264 151.328 198L150.352 199.088C148.528 198.304 146.672 197.616 144.768 197.008V198.816H148.928V204.864H139.136V198.816ZM147.456 203.52V202.512H140.608V203.52H147.456ZM140.608 201.232H147.456V200.16H140.608V201.232ZM137.088 205.824H150.928V207.216H137.088V205.824ZM154.544 206.704V207.648H153.12V201.808H157.648V207.392H156.256V206.704H154.544ZM156.256 205.328V203.152H154.544V205.328H156.256ZM152.8 194.8H154.784C154.56 194.256 154.336 193.728 154.08 193.232L155.52 192.832C155.84 193.552 156.064 194.208 156.224 194.8H157.952V196.208H152.8V194.8ZM153.312 197.184H157.456V198.512H153.312V197.184ZM153.312 199.408H157.456V200.72H153.312V199.408ZM159.072 198.24C158.896 198.432 158.736 198.624 158.576 198.8L157.68 197.632C158.88 196.32 159.696 194.704 160.112 192.784L161.584 192.992C161.472 193.488 161.344 193.968 161.184 194.416H166.848C166.848 200.496 166.768 204.256 166.608 205.68C166.448 206.928 165.68 207.552 164.32 207.552C163.968 207.552 163.376 207.52 162.512 207.472L162.144 206.08C162.896 206.128 163.552 206.16 164.096 206.16C164.736 206.16 165.104 205.76 165.2 204.992C165.296 204.096 165.36 201.04 165.392 195.824H160.624C160.352 196.368 160.048 196.896 159.728 197.376H163.888V204.976H159.072V198.24ZM162.512 203.696V201.76H160.48V203.696H162.512ZM160.48 200.528H162.512V198.672H160.48V200.528ZM172.208 195.632C171.968 196 171.728 196.352 171.488 196.688H181.616C181.584 198.048 181.536 199.248 181.504 200.304H183.44V201.728H181.456C181.408 202.624 181.376 203.392 181.344 204.016H182.992V205.424H181.248C181.2 205.808 181.168 206.048 181.136 206.16C180.992 206.672 180.72 207.04 180.32 207.264C179.92 207.504 179.328 207.632 178.56 207.632C177.984 207.632 177.312 207.648 176.56 207.648L176.112 206.256C176.944 206.288 177.68 206.32 178.336 206.32C178.656 206.32 178.944 206.272 179.184 206.208C179.424 206.112 179.6 205.904 179.728 205.584C179.728 205.552 179.744 205.488 179.76 205.424H170.512C170.736 204.176 170.928 202.944 171.072 201.728H168.592V200.304H171.216C171.328 199.12 171.392 197.936 171.424 196.768C170.88 197.488 170.304 198.128 169.696 198.688L168.72 197.504C170 196.352 171.088 194.768 172.016 192.736L173.552 193.088C173.376 193.472 173.2 193.824 173.024 194.176H182.656V195.632H172.208ZM174.816 201.792C176 202.176 177.088 202.624 178.08 203.168L177.52 204.016H179.872C179.904 203.408 179.936 202.64 179.968 201.728H172.592C172.496 202.544 172.4 203.312 172.272 204.016H176.928C176.016 203.488 175.088 203.072 174.144 202.784L174.816 201.792ZM172.72 200.304H176.864C176 199.824 175.12 199.44 174.256 199.136L174.928 198.144C176.112 198.528 177.184 198.992 178.176 199.552L177.68 200.304H180.016C180.048 199.616 180.064 198.88 180.096 198.096H172.848C172.816 198.864 172.768 199.6 172.72 200.304ZM189.184 198.72V201.232H195.664V198.72H189.184ZM195.664 197.296V194.896H189.184V197.296H195.664ZM189.104 202.64C188.896 204.688 188.288 206.384 187.28 207.744L186.112 206.672C187.12 205.264 187.632 203.472 187.664 201.296V193.44H197.2V205.968C197.2 206.992 196.672 207.504 195.648 207.504H193.6L193.184 206.016C193.888 206.048 194.544 206.08 195.152 206.08C195.488 206.08 195.664 205.856 195.664 205.44V202.64H189.104ZM211.904 198.912C212.096 199.84 212.352 200.704 212.656 201.52C212.976 200.208 213.152 198.72 213.184 197.056H212.016C211.76 197.888 211.488 198.64 211.168 199.312L211.904 198.912ZM214.464 197.056C214.4 199.52 214.064 201.616 213.44 203.36C214.016 204.512 214.704 205.536 215.504 206.448L214.544 207.552C213.872 206.752 213.28 205.856 212.784 204.896C212.24 205.92 211.6 206.784 210.848 207.504L210.096 206.304C210.928 205.552 211.584 204.576 212.08 203.36C211.616 202.24 211.248 201.04 210.96 199.728L210.592 200.368L209.872 199.472L209.92 199.376H208.56L208.896 200.56H210.592V201.808H208.128C208.08 202.16 208.032 202.512 207.968 202.832H210.272C210.272 204.944 210.144 206.224 209.888 206.704C209.648 207.152 209.216 207.376 208.592 207.408H207.44L207.072 206.192H208.256C208.528 206.16 208.704 206.032 208.8 205.808C208.864 205.552 208.896 204.96 208.912 204.048H207.712C207.616 204.4 207.52 204.704 207.424 204.992C207.04 205.92 206.464 206.768 205.696 207.504L204.88 206.448C205.216 206.096 205.504 205.728 205.744 205.344L204.88 205.76C204.624 204.8 204.352 203.968 204.064 203.232L205.008 202.912C205.328 203.616 205.6 204.384 205.824 205.2C205.984 204.928 206.112 204.656 206.24 204.4C206.48 203.728 206.672 202.864 206.816 201.808H205.6V200.56H207.536L207.2 199.376H205.872V194.208H207.28C207.408 193.776 207.52 193.328 207.6 192.864L208.912 193.04C208.832 193.456 208.72 193.84 208.592 194.208H210.256V198.592C210.848 197.088 211.264 195.2 211.488 192.944L212.816 193.168C212.688 194.064 212.544 194.912 212.368 195.68H215.152V197.056H214.464ZM201.088 203.52L202.24 203.664C202.16 205.056 202 206.288 201.744 207.36L200.544 206.976C200.832 205.984 201.024 204.832 201.088 203.52ZM203.6 203.328C203.84 204.304 204.064 205.36 204.256 206.512L203.104 206.768C202.96 205.552 202.784 204.48 202.56 203.552L203.6 203.328ZM204.928 199.296C205.184 200.176 205.408 201.2 205.616 202.352L204.464 202.624C204.432 202.4 204.384 202.192 204.352 202C203.248 202.368 202.192 202.624 201.184 202.768L200.816 201.504C201.072 201.408 201.28 201.28 201.44 201.12C201.808 200.624 202.272 199.792 202.816 198.64L201.104 198.976L200.768 197.712C200.976 197.616 201.168 197.44 201.344 197.184C201.84 195.872 202.272 194.4 202.64 192.784L203.984 193.296C203.408 195.056 202.832 196.48 202.24 197.6L203.376 197.408C203.632 196.8 203.904 196.16 204.192 195.456L205.44 195.904C204.336 198.4 203.408 200.192 202.672 201.312C203.168 201.216 203.664 201.088 204.144 200.944C204.048 200.496 203.936 200.064 203.84 199.664L204.928 199.296ZM209.024 198.304V197.344H207.104V198.304H209.024ZM207.104 196.288H209.024V195.28H207.104V196.288ZM216.736 194.24H220V192.88H221.44V194.24H224.256V195.552H221.44V196.64H223.888V197.92H217.296V196.64H220V195.552H216.736V194.24ZM217.824 198.912H223.392V200.24H217.824V198.912ZM216.848 201.2H224.432V202.512H221.328V207.584H219.888V202.512H216.848V201.2ZM217.968 203.168L219.168 203.408C218.848 204.672 218.4 205.76 217.808 206.688L216.688 205.968C217.296 205.088 217.712 204.16 217.968 203.168ZM223.168 203.04C223.536 203.76 223.872 204.528 224.16 205.36L222.976 205.888C222.672 204.96 222.336 204.128 221.968 203.424L223.168 203.04ZM225.632 192.944L227.024 193.168C226.928 193.936 226.832 194.64 226.704 195.28H230.848V196.192C230.64 197.536 230.368 198.88 230.048 200.224L228.656 199.824C228.944 198.912 229.184 197.856 229.392 196.64H226.384C226.016 197.952 225.552 199.008 224.976 199.808L223.824 198.976C224.752 197.536 225.36 195.52 225.632 192.944ZM226.736 197.76H228.112C228.112 198.816 228.064 199.792 227.968 200.688C228.64 203.104 229.792 205.04 231.44 206.496L230.432 207.648C229.184 206.4 228.208 204.896 227.52 203.152C227.024 204.992 225.92 206.512 224.192 207.728L223.264 206.624C224.752 205.568 225.728 204.288 226.192 202.752C226.544 201.472 226.736 199.808 226.736 197.76ZM245.28 193.424V207.568H243.76V206.448H236.544V207.584H235.024V193.424H245.28ZM236.544 204.96H243.76V200.512H236.544V204.96ZM236.544 199.024H243.76V194.896H236.544V199.024ZM254.768 198.128C255.44 198.608 256.096 199.152 256.704 199.776C257.216 200.304 257.696 200.88 258.144 201.488L257.088 202.352C256.672 201.744 256.208 201.184 255.696 200.64C255.12 200.032 254.512 199.472 253.856 198.96L254.768 198.128ZM44.768 223.632C44.496 223.904 44.208 224.176 43.92 224.432L43.488 223.008C44.592 221.984 45.408 220.8 45.936 219.456L47.168 220.016C46.912 220.656 46.592 221.28 46.208 221.872V227.152H44.768V223.632ZM54.96 217.888V219.312H43.328V223.216C43.28 226.688 42.784 229.472 41.824 231.568L40.672 230.544C41.408 228.784 41.792 226.352 41.824 223.216V217.888H47.888C47.728 217.6 47.552 217.328 47.376 217.088L49.008 216.832C49.168 217.152 49.328 217.504 49.488 217.888H54.96ZM44.32 227.76L45.648 228.032C45.36 229.312 44.976 230.416 44.464 231.344L43.264 230.576C43.76 229.696 44.112 228.752 44.32 227.76ZM50.912 231.472H47.776C46.784 231.472 46.304 230.976 46.304 230.016V227.568H47.744V229.728C47.744 229.968 47.904 230.096 48.224 230.096H50.656C50.944 230.096 51.152 230.032 51.28 229.92C51.44 229.792 51.552 229.376 51.616 228.704L52.928 229.136C52.8 230.256 52.576 230.944 52.256 231.168C51.968 231.36 51.52 231.472 50.912 231.472ZM53.568 227.312C54.368 228.4 54.992 229.344 55.44 230.176L54.256 230.992C53.792 230.096 53.168 229.104 52.4 228.016L53.568 227.312ZM49.44 227.28C50.048 227.92 50.512 228.496 50.848 228.976L49.728 229.76C49.376 229.216 48.912 228.608 48.336 227.968L49.44 227.28ZM49.136 223.456V224.144H51.072V223.456H49.136ZM49.136 225.184V225.936H51.072V225.184H49.136ZM52.416 225.936H54.864V227.088H47.792V223.584C47.536 223.904 47.264 224.224 46.992 224.528L46.544 223.088C47.472 221.984 48.112 220.784 48.496 219.488L49.824 219.744C49.728 220.016 49.648 220.288 49.552 220.544H51.024C50.88 220.24 50.736 219.968 50.576 219.728L52 219.504C52.144 219.824 52.288 220.16 52.432 220.544H54.704V221.696H52.416V222.432H54.448V223.456H52.416V224.144H54.448V225.184H52.416V225.936ZM51.072 221.696H49.136V222.432H51.072V221.696ZM67.904 222.912C68.096 223.84 68.352 224.704 68.656 225.52C68.976 224.208 69.152 222.72 69.184 221.056H68.016C67.76 221.888 67.488 222.64 67.168 223.312L67.904 222.912ZM70.464 221.056C70.4 223.52 70.064 225.616 69.44 227.36C70.016 228.512 70.704 229.536 71.504 230.448L70.544 231.552C69.872 230.752 69.28 229.856 68.784 228.896C68.24 229.92 67.6 230.784 66.848 231.504L66.096 230.304C66.928 229.552 67.584 228.576 68.08 227.36C67.616 226.24 67.248 225.04 66.96 223.728L66.592 224.368L65.872 223.472L65.92 223.376H64.56L64.896 224.56H66.592V225.808H64.128C64.08 226.16 64.032 226.512 63.968 226.832H66.272C66.272 228.944 66.144 230.224 65.888 230.704C65.648 231.152 65.216 231.376 64.592 231.408H63.44L63.072 230.192H64.256C64.528 230.16 64.704 230.032 64.8 229.808C64.864 229.552 64.896 228.96 64.912 228.048H63.712C63.616 228.4 63.52 228.704 63.424 228.992C63.04 229.92 62.464 230.768 61.696 231.504L60.88 230.448C61.216 230.096 61.504 229.728 61.744 229.344L60.88 229.76C60.624 228.8 60.352 227.968 60.064 227.232L61.008 226.912C61.328 227.616 61.6 228.384 61.824 229.2C61.984 228.928 62.112 228.656 62.24 228.4C62.48 227.728 62.672 226.864 62.816 225.808H61.6V224.56H63.536L63.2 223.376H61.872V218.208H63.28C63.408 217.776 63.52 217.328 63.6 216.864L64.912 217.04C64.832 217.456 64.72 217.84 64.592 218.208H66.256V222.592C66.848 221.088 67.264 219.2 67.488 216.944L68.816 217.168C68.688 218.064 68.544 218.912 68.368 219.68H71.152V221.056H70.464ZM57.088 227.52L58.24 227.664C58.16 229.056 58 230.288 57.744 231.36L56.544 230.976C56.832 229.984 57.024 228.832 57.088 227.52ZM59.6 227.328C59.84 228.304 60.064 229.36 60.256 230.512L59.104 230.768C58.96 229.552 58.784 228.48 58.56 227.552L59.6 227.328ZM60.928 223.296C61.184 224.176 61.408 225.2 61.616 226.352L60.464 226.624C60.432 226.4 60.384 226.192 60.352 226C59.248 226.368 58.192 226.624 57.184 226.768L56.816 225.504C57.072 225.408 57.28 225.28 57.44 225.12C57.808 224.624 58.272 223.792 58.816 222.64L57.104 222.976L56.768 221.712C56.976 221.616 57.168 221.44 57.344 221.184C57.84 219.872 58.272 218.4 58.64 216.784L59.984 217.296C59.408 219.056 58.832 220.48 58.24 221.6L59.376 221.408C59.632 220.8 59.904 220.16 60.192 219.456L61.44 219.904C60.336 222.4 59.408 224.192 58.672 225.312C59.168 225.216 59.664 225.088 60.144 224.944C60.048 224.496 59.936 224.064 59.84 223.664L60.928 223.296ZM65.024 222.304V221.344H63.104V222.304H65.024ZM63.104 220.288H65.024V219.28H63.104V220.288ZM75.76 221.696C75.056 222.112 74.32 222.496 73.552 222.848L72.672 221.584C75.44 220.368 77.68 218.816 79.408 216.928H80.624C82.112 218.784 84.336 220.32 87.312 221.552L86.448 222.816C85.68 222.496 84.944 222.144 84.272 221.76V222.592H80.768V224.528H86.336V225.936H80.768V229.856H82.272C82.768 228.864 83.2 227.792 83.584 226.656L84.96 227.152C84.608 228.16 84.224 229.056 83.808 229.856H86.896V231.296H73.12V229.856H76.256C75.952 228.944 75.568 228.08 75.12 227.264L76.48 226.768C76.928 227.632 77.344 228.656 77.728 229.856H79.264V225.936H73.68V224.528H79.264V222.592H75.76V221.696ZM83.392 221.232C82.08 220.4 80.96 219.44 80.016 218.352C78.96 219.44 77.792 220.4 76.512 221.232H83.392ZM90.416 223.456C90.112 223.776 89.776 224.08 89.424 224.368L88.656 223.36C89.808 222.432 90.608 221.312 91.04 220L92.32 220.192C92.24 220.448 92.16 220.704 92.064 220.928H94.832V221.952C94.464 222.752 94.048 223.472 93.568 224.08C94.464 224.672 95.248 225.264 95.952 225.856L94.944 226.864C94.864 226.784 94.784 226.72 94.72 226.656V231.488H93.376V230.704H90.992V231.568H89.664V226.896C89.504 226.944 89.36 226.992 89.216 227.04L88.608 225.824C89.776 225.52 90.784 224.992 91.632 224.256C91.232 223.984 90.832 223.712 90.416 223.456ZM92.72 225.024C92.128 225.568 91.488 226.032 90.8 226.4H94.448C93.936 225.936 93.36 225.472 92.72 225.024ZM92.496 223.36C92.816 222.976 93.104 222.56 93.36 222.112H91.472C91.376 222.272 91.28 222.416 91.184 222.544C91.648 222.816 92.08 223.088 92.496 223.36ZM90.992 229.424H93.376V227.648H90.992V229.424ZM95.584 218.224V220.912H94.272V219.488H90.208V220.912H88.896V218.224H91.536C91.408 217.824 91.264 217.456 91.104 217.104L92.592 216.864C92.72 217.28 92.848 217.728 92.976 218.224H95.584ZM96.336 219.952H98.56C98.608 219.568 98.64 219.168 98.672 218.768H95.856V217.424H103.152V218.768H100.16C100.128 219.184 100.096 219.568 100.048 219.952H102.624V228.432H96.336V219.952ZM101.232 227.12V225.904H97.712V227.12H101.232ZM97.712 224.704H101.232V223.584H97.712V224.704ZM97.712 222.368H101.232V221.2H97.712V222.368ZM97.904 228.464L98.944 229.376C98.24 230.272 97.36 231.072 96.336 231.76L95.44 230.608C96.416 230 97.232 229.28 97.904 228.464ZM101.056 228.448C102 229.184 102.8 229.92 103.44 230.656L102.416 231.664C101.872 230.944 101.104 230.176 100.112 229.36L101.056 228.448ZM110.768 222.128C111.44 222.608 112.096 223.152 112.704 223.776C113.216 224.304 113.696 224.88 114.144 225.488L113.088 226.352C112.672 225.744 112.208 225.184 111.696 224.64C111.12 224.032 110.512 223.472 109.856 222.96L110.768 222.128ZM131.904 222.912C132.096 223.84 132.352 224.704 132.656 225.52C132.976 224.208 133.152 222.72 133.184 221.056H132.016C131.76 221.888 131.488 222.64 131.168 223.312L131.904 222.912ZM134.464 221.056C134.4 223.52 134.064 225.616 133.44 227.36C134.016 228.512 134.704 229.536 135.504 230.448L134.544 231.552C133.872 230.752 133.28 229.856 132.784 228.896C132.24 229.92 131.6 230.784 130.848 231.504L130.096 230.304C130.928 229.552 131.584 228.576 132.08 227.36C131.616 226.24 131.248 225.04 130.96 223.728L130.592 224.368L129.872 223.472L129.92 223.376H128.56L128.896 224.56H130.592V225.808H128.128C128.08 226.16 128.032 226.512 127.968 226.832H130.272C130.272 228.944 130.144 230.224 129.888 230.704C129.648 231.152 129.216 231.376 128.592 231.408H127.44L127.072 230.192H128.256C128.528 230.16 128.704 230.032 128.8 229.808C128.864 229.552 128.896 228.96 128.912 228.048H127.712C127.616 228.4 127.52 228.704 127.424 228.992C127.04 229.92 126.464 230.768 125.696 231.504L124.88 230.448C125.216 230.096 125.504 229.728 125.744 229.344L124.88 229.76C124.624 228.8 124.352 227.968 124.064 227.232L125.008 226.912C125.328 227.616 125.6 228.384 125.824 229.2C125.984 228.928 126.112 228.656 126.24 228.4C126.48 227.728 126.672 226.864 126.816 225.808H125.6V224.56H127.536L127.2 223.376H125.872V218.208H127.28C127.408 217.776 127.52 217.328 127.6 216.864L128.912 217.04C128.832 217.456 128.72 217.84 128.592 218.208H130.256V222.592C130.848 221.088 131.264 219.2 131.488 216.944L132.816 217.168C132.688 218.064 132.544 218.912 132.368 219.68H135.152V221.056H134.464ZM121.088 227.52L122.24 227.664C122.16 229.056 122 230.288 121.744 231.36L120.544 230.976C120.832 229.984 121.024 228.832 121.088 227.52ZM123.6 227.328C123.84 228.304 124.064 229.36 124.256 230.512L123.104 230.768C122.96 229.552 122.784 228.48 122.56 227.552L123.6 227.328ZM124.928 223.296C125.184 224.176 125.408 225.2 125.616 226.352L124.464 226.624C124.432 226.4 124.384 226.192 124.352 226C123.248 226.368 122.192 226.624 121.184 226.768L120.816 225.504C121.072 225.408 121.28 225.28 121.44 225.12C121.808 224.624 122.272 223.792 122.816 222.64L121.104 222.976L120.768 221.712C120.976 221.616 121.168 221.44 121.344 221.184C121.84 219.872 122.272 218.4 122.64 216.784L123.984 217.296C123.408 219.056 122.832 220.48 122.24 221.6L123.376 221.408C123.632 220.8 123.904 220.16 124.192 219.456L125.44 219.904C124.336 222.4 123.408 224.192 122.672 225.312C123.168 225.216 123.664 225.088 124.144 224.944C124.048 224.496 123.936 224.064 123.84 223.664L124.928 223.296ZM129.024 222.304V221.344H127.104V222.304H129.024ZM127.104 220.288H129.024V219.28H127.104V220.288ZM136.736 218.24H140V216.88H141.44V218.24H144.256V219.552H141.44V220.64H143.888V221.92H137.296V220.64H140V219.552H136.736V218.24ZM137.824 222.912H143.392V224.24H137.824V222.912ZM136.848 225.2H144.432V226.512H141.328V231.584H139.888V226.512H136.848V225.2ZM137.968 227.168L139.168 227.408C138.848 228.672 138.4 229.76 137.808 230.688L136.688 229.968C137.296 229.088 137.712 228.16 137.968 227.168ZM143.168 227.04C143.536 227.76 143.872 228.528 144.16 229.36L142.976 229.888C142.672 228.96 142.336 228.128 141.968 227.424L143.168 227.04ZM145.632 216.944L147.024 217.168C146.928 217.936 146.832 218.64 146.704 219.28H150.848V220.192C150.64 221.536 150.368 222.88 150.048 224.224L148.656 223.824C148.944 222.912 149.184 221.856 149.392 220.64H146.384C146.016 221.952 145.552 223.008 144.976 223.808L143.824 222.976C144.752 221.536 145.36 219.52 145.632 216.944ZM146.736 221.76H148.112C148.112 222.816 148.064 223.792 147.968 224.688C148.64 227.104 149.792 229.04 151.44 230.496L150.432 231.648C149.184 230.4 148.208 228.896 147.52 227.152C147.024 228.992 145.92 230.512 144.192 231.728L143.264 230.624C144.752 229.568 145.728 228.288 146.192 226.752C146.544 225.472 146.736 223.808 146.736 221.76ZM163.344 225.904C163.584 226.56 163.888 227.152 164.24 227.696C164.864 227.312 165.472 226.768 166.048 226.064L167.04 227.072C166.432 227.776 165.776 228.32 165.056 228.704C165.744 229.424 166.56 229.968 167.488 230.352L166.672 231.536C164.592 230.64 163.104 228.976 162.224 226.544L163.344 225.904ZM157.152 228.848H156.336V231.712H155.008V220.656H154.256V228.896H153.008V219.328H155.008V216.832H156.336V219.328H158.336V227.488C158.336 228.384 157.936 228.848 157.152 228.848ZM156.336 220.656V227.6L156.736 227.616C156.96 227.616 157.088 227.488 157.088 227.232V220.656H156.336ZM166.608 217.296V218.64H161.12V219.616H166.048V220.928H161.12V221.936H166.112V223.232H161.12V224.256H167.232V225.632H161.008V229.904C161.696 229.648 162.384 229.328 163.056 228.944L163.312 230.304C162.272 230.832 161.072 231.28 159.712 231.632L159.136 230.384C159.424 230.288 159.568 230.16 159.568 229.984V225.632H158.672V224.256H159.68V217.296H166.608ZM169.152 217.424H173.984V221.968H169.152V217.424ZM172.576 220.704V218.688H170.544V220.704H172.576ZM168.64 222.72H174.336V224.128H171.392C171.264 224.704 171.12 225.216 170.992 225.68H173.744C173.68 228.784 173.424 230.528 172.976 230.928C172.56 231.312 171.68 231.504 170.304 231.504H170.08L169.68 230.112C169.904 230.144 170.128 230.16 170.336 230.16C171.088 230.144 171.584 230.048 171.808 229.872C172.064 229.664 172.224 228.72 172.272 227.024H169.2C169.504 225.952 169.744 224.992 169.936 224.128H168.64V222.72ZM177.984 216.816H179.456V217.648H182.656V218.896H179.456V219.76H183.008V220.448C182.88 221.248 182.672 222.032 182.352 222.816L181.216 222.496L181.328 223.216L179.456 223.472V224.032C179.456 224.24 179.6 224.352 179.904 224.352H182.56V225.648H179.488C178.496 225.648 178.016 225.216 178.016 224.384V223.664L176.64 223.856L176.432 222.592L178.016 222.368V221.088H176.224V224.576C176.224 227.36 175.744 229.728 174.816 231.712L173.632 230.688C174.368 229.072 174.752 227.04 174.784 224.576V219.76H177.984V216.816ZM179.456 221.088V222.176L181.12 221.952L181.152 222.112C181.28 221.792 181.392 221.44 181.488 221.088H179.456ZM177.152 226.064H178.592C178.56 228.832 177.984 230.736 176.896 231.76L175.712 230.832C176.64 230 177.12 228.416 177.152 226.064ZM181.76 231.408H181.12C180.064 231.408 179.536 230.96 179.536 230.096V226.08H180.928V229.824C180.928 229.952 181.008 230.032 181.168 230.032H181.68C181.904 230.032 182.032 229.856 182.064 229.536C182.096 229.2 182.112 228.72 182.112 228.08L183.392 228.544C183.392 229.84 183.28 230.64 183.072 230.944C182.88 231.2 182.448 231.36 181.76 231.408ZM192.272 218.352C193.312 218.352 194.144 218.624 194.784 219.2C195.408 219.76 195.728 220.528 195.728 221.488C195.728 222.272 195.52 222.928 195.136 223.44C194.992 223.616 194.544 224.032 193.776 224.688C193.488 224.944 193.264 225.216 193.12 225.504C192.944 225.824 192.864 226.176 192.864 226.576V226.848H191.152V226.576C191.152 225.984 191.248 225.472 191.472 225.024C191.696 224.592 192.064 224.144 192.576 223.696C193.088 223.216 193.424 222.912 193.552 222.768C193.84 222.4 194 222.016 194 221.6C194 221.04 193.84 220.608 193.52 220.288C193.2 219.968 192.752 219.808 192.176 219.808C191.472 219.808 190.944 220.032 190.608 220.48C190.32 220.864 190.176 221.424 190.176 222.128H188.48C188.48 220.96 188.832 220.048 189.504 219.376C190.176 218.688 191.104 218.352 192.272 218.352ZM192 227.712C192.336 227.712 192.624 227.808 192.848 228.032C193.072 228.24 193.184 228.512 193.184 228.848C193.184 229.184 193.072 229.456 192.848 229.68C192.608 229.888 192.32 230 192 230C191.68 230 191.408 229.888 191.184 229.664C190.944 229.44 190.832 229.168 190.832 228.848C190.832 228.512 190.944 228.24 191.184 228.032C191.408 227.808 191.68 227.712 192 227.712Z" fill="black"/>
<g clip-path="url(#clip2_2795_413)">
<path d="M312.534 208.415L303.974 216.975L295.414 208.415" stroke="#4A4A4A" stroke-width="2" stroke-linecap="round" stroke-linejoin="round"/>
</g>
<path d="M339.279 88V72" stroke="#C92E34"/>
<path d="M338.558 72H340" stroke="#C92E34"/>
<path d="M338.558 88H340" stroke="#C92E34"/>
<path d="M338.558 88H340" stroke="#C92E34"/>
<path d="M0.183197 88L338.705 88" stroke="#C92E34" stroke-dasharray="1 1"/>
<path d="M0.183197 72L338.705 72" stroke="#C92E34" stroke-dasharray="1 1"/>
<path d="M339.279 176V160" stroke="#C92E34"/>
<path d="M338.558 160H340" stroke="#C92E34"/>
<path d="M338.558 176H340" stroke="#C92E34"/>
<path d="M338.558 176H340" stroke="#C92E34"/>
<path d="M0.183197 176L338.705 176" stroke="#C92E34" stroke-dasharray="1 1"/>
<path d="M0.183197 160L338.705 160" stroke="#C92E34" stroke-dasharray="1 1"/>
<path d="M353.34 78.0684V77.125C354.229 77.0384 354.848 76.8949 355.199 76.6943C355.55 76.4893 355.812 76.0085 355.985 75.252H356.956V85H355.644V78.0684H353.34ZM363.888 75.1699C364.981 75.1699 365.743 75.4548 366.171 76.0244C366.604 76.5895 366.82 77.1729 366.82 77.7744H365.604C365.531 77.387 365.414 77.084 365.255 76.8652C364.959 76.4551 364.51 76.25 363.908 76.25C363.22 76.25 362.673 76.569 362.268 77.207C361.862 77.8405 361.636 78.7497 361.591 79.9346C361.873 79.5199 362.229 79.21 362.657 79.0049C363.049 78.8226 363.487 78.7314 363.97 78.7314C364.79 78.7314 365.506 78.9935 366.116 79.5176C366.727 80.0417 367.032 80.8232 367.032 81.8623C367.032 82.751 366.743 83.5394 366.164 84.2275C365.585 84.9111 364.76 85.2529 363.689 85.2529C362.773 85.2529 361.983 84.9066 361.317 84.2139C360.652 83.5166 360.319 82.3454 360.319 80.7002C360.319 79.4834 360.467 78.4512 360.764 77.6035C361.333 75.9811 362.375 75.1699 363.888 75.1699ZM363.799 84.1592C364.446 84.1592 364.929 83.9427 365.248 83.5098C365.572 83.0723 365.733 82.5573 365.733 81.9648C365.733 81.4635 365.59 80.9873 365.303 80.5361C365.016 80.0804 364.494 79.8525 363.737 79.8525C363.209 79.8525 362.744 80.028 362.343 80.3789C361.946 80.7298 361.748 81.2585 361.748 81.9648C361.748 82.5846 361.928 83.1064 362.288 83.5303C362.653 83.9495 363.156 84.1592 363.799 84.1592ZM375.475 84.1729C376.049 84.1729 376.525 83.9336 376.903 83.4551C377.286 82.972 377.478 82.252 377.478 81.2949C377.478 80.7116 377.393 80.2103 377.225 79.791C376.906 78.9844 376.322 78.5811 375.475 78.5811C374.622 78.5811 374.039 79.0072 373.725 79.8594C373.556 80.3151 373.472 80.8939 373.472 81.5957C373.472 82.1608 373.556 82.6416 373.725 83.0381C374.044 83.7946 374.627 84.1729 375.475 84.1729ZM372.289 77.7129H373.485V78.6836C373.731 78.3509 374 78.0934 374.292 77.9111C374.707 77.6377 375.194 77.501 375.755 77.501C376.584 77.501 377.288 77.82 377.867 78.458C378.446 79.0915 378.735 79.9984 378.735 81.1787C378.735 82.7738 378.318 83.9131 377.484 84.5967C376.956 85.0296 376.34 85.2461 375.639 85.2461C375.087 85.2461 374.625 85.1253 374.251 84.8838C374.032 84.7471 373.788 84.5124 373.52 84.1797V87.9189H372.289V77.7129ZM379.48 77.6787H381.073L382.755 80.2559L384.457 77.6787L385.954 77.7129L383.486 81.2471L386.063 85H384.491L382.673 82.252L380.909 85H379.351L381.928 81.2471L379.48 77.6787Z" fill="#C92E34"/>
<path d="M353.34 166.068V165.125C354.229 165.038 354.848 164.895 355.199 164.694C355.55 164.489 355.812 164.008 355.985 163.252H356.956V173H355.644V166.068H353.34ZM363.888 163.17C364.981 163.17 365.743 163.455 366.171 164.024C366.604 164.59 366.82 165.173 366.82 165.774H365.604C365.531 165.387 365.414 165.084 365.255 164.865C364.959 164.455 364.51 164.25 363.908 164.25C363.22 164.25 362.673 164.569 362.268 165.207C361.862 165.84 361.636 166.75 361.591 167.935C361.873 167.52 362.229 167.21 362.657 167.005C363.049 166.823 363.487 166.731 363.97 166.731C364.79 166.731 365.506 166.993 366.116 167.518C366.727 168.042 367.032 168.823 367.032 169.862C367.032 170.751 366.743 171.539 366.164 172.228C365.585 172.911 364.76 173.253 363.689 173.253C362.773 173.253 361.983 172.907 361.317 172.214C360.652 171.517 360.319 170.345 360.319 168.7C360.319 167.483 360.467 166.451 360.764 165.604C361.333 163.981 362.375 163.17 363.888 163.17ZM363.799 172.159C364.446 172.159 364.929 171.943 365.248 171.51C365.572 171.072 365.733 170.557 365.733 169.965C365.733 169.464 365.59 168.987 365.303 168.536C365.016 168.08 364.494 167.853 363.737 167.853C363.209 167.853 362.744 168.028 362.343 168.379C361.946 168.73 361.748 169.258 361.748 169.965C361.748 170.585 361.928 171.106 362.288 171.53C362.653 171.95 363.156 172.159 363.799 172.159ZM375.475 172.173C376.049 172.173 376.525 171.934 376.903 171.455C377.286 170.972 377.478 170.252 377.478 169.295C377.478 168.712 377.393 168.21 377.225 167.791C376.906 166.984 376.322 166.581 375.475 166.581C374.622 166.581 374.039 167.007 373.725 167.859C373.556 168.315 373.472 168.894 373.472 169.596C373.472 170.161 373.556 170.642 373.725 171.038C374.044 171.795 374.627 172.173 375.475 172.173ZM372.289 165.713H373.485V166.684C373.731 166.351 374 166.093 374.292 165.911C374.707 165.638 375.194 165.501 375.755 165.501C376.584 165.501 377.288 165.82 377.867 166.458C378.446 167.091 378.735 167.998 378.735 169.179C378.735 170.774 378.318 171.913 377.484 172.597C376.956 173.03 376.34 173.246 375.639 173.246C375.087 173.246 374.625 173.125 374.251 172.884C374.032 172.747 373.788 172.512 373.52 172.18V175.919H372.289V165.713ZM379.48 165.679H381.073L382.755 168.256L384.457 165.679L385.954 165.713L383.486 169.247L386.063 173H384.491L382.673 170.252L380.909 173H379.351L381.928 169.247L379.48 165.679Z" fill="#C92E34"/>
<defs>
<clipPath id="clip0_2795_413">
<rect width="19.949" height="10.975" fill="white" transform="translate(294 31)"/>
</clipPath>
<clipPath id="clip1_2795_413">
<rect width="19.949" height="10.975" fill="white" transform="translate(294 119)"/>
</clipPath>
<clipPath id="clip2_2795_413">
<rect width="19.949" height="10.975" fill="white" transform="translate(294 207)"/>
</clipPath>
</defs>
</svg>
