<svg width="1044" height="216" viewBox="0 0 1044 216" fill="none" xmlns="http://www.w3.org/2000/svg">
<rect width="1000" height="56" rx="4" fill="#EFEFEF"/>
<path d="M36.9241 21.648H38.4001V34.5H36.4381V24.006C35.6641 24.744 34.6741 25.284 33.4861 25.626V23.682C34.0621 23.538 34.6561 23.286 35.3041 22.926C35.9521 22.53 36.4921 22.116 36.9241 21.648ZM42.5438 31.926C42.9038 31.926 43.2278 32.052 43.4978 32.304C43.7498 32.556 43.8938 32.88 43.8938 33.276C43.8938 33.636 43.7498 33.96 43.4978 34.23C43.2278 34.464 42.9038 34.59 42.5438 34.59C42.1478 34.59 41.8418 34.464 41.6078 34.23C41.3378 33.96 41.2118 33.636 41.2118 33.276C41.2118 32.88 41.3378 32.556 41.6078 32.304C41.8418 32.052 42.1478 31.926 42.5438 31.926ZM52.242 22.908H59.136V19.794H60.864V22.908H67.74V24.546H62.214C63.402 27.246 65.454 29.676 68.37 31.8L67.2 33.276C64.194 30.684 62.088 27.768 60.882 24.546H60.864V31.17H64.572V32.808H60.864V36.354H59.136V32.808H55.572V31.17H59.136V24.546H59.118C57.822 28.182 55.626 31.17 52.566 33.51L51.576 31.908C54.42 30 56.49 27.534 57.786 24.546H52.242V22.908ZM76.56 20.748H85.344V22.422H76.56V20.748ZM76.11 25.248H86.118V26.922H83.31V34.554C83.31 35.706 82.662 36.282 81.384 36.282H78.774L78.396 34.608C79.224 34.68 80.034 34.716 80.79 34.716C81.312 34.716 81.582 34.518 81.582 34.14V26.922H76.11V25.248ZM73.5 19.866L75.066 20.586C74.094 22.566 72.474 24.33 70.17 25.914L69.648 24.204C71.394 22.962 72.672 21.522 73.5 19.866ZM74.346 23.988L75.894 24.708C75.408 25.68 74.796 26.598 74.058 27.462V36.354H72.384V29.136C71.736 29.694 71.052 30.234 70.296 30.756L69.792 29.064C71.844 27.624 73.374 25.932 74.346 23.988ZM90.906 31.062C90.69 31.386 90.492 31.674 90.294 31.944L89.862 31.422C89.628 33.33 89.268 34.95 88.782 36.282L87.702 35.148C88.314 33.186 88.638 30.468 88.674 27.012V20.676C91.212 20.64 93.48 20.388 95.46 19.938L96.198 21.288C94.398 21.648 92.382 21.846 90.15 21.918V22.71H96.126V26.202H90.15V27.012C90.132 28.092 90.078 29.082 90.006 30.018C90.564 29.064 91.068 27.894 91.5 26.49L92.832 26.778C92.706 27.156 92.58 27.516 92.454 27.858H93.624C93.48 27.444 93.336 27.066 93.192 26.706L94.542 26.49C94.686 26.904 94.848 27.354 94.992 27.858H96.54V29.154H94.992V30.072H96.252V31.332H94.992V32.304H96.288V33.564H94.992V34.464H96.648V35.094C97.584 34.482 98.376 33.798 99.024 33.006L100.086 33.942C99.402 34.842 98.538 35.634 97.53 36.318L96.648 35.202V35.778H92.238V36.336H90.906V31.062ZM90.15 24.942H94.578V23.97H90.15V24.942ZM92.238 34.464H93.696V33.564H92.238V34.464ZM93.696 32.304V31.332H92.238V32.304H93.696ZM93.696 30.072V29.154H92.238V30.072H93.696ZM97.206 23.322H99.222C99.366 22.836 99.474 22.35 99.546 21.846H96.72V20.37H104.172V21.846H101.202C101.112 22.35 101.004 22.854 100.878 23.322H103.704V32.988H102.012C102.966 33.726 103.776 34.464 104.46 35.22L103.38 36.282C102.768 35.526 101.94 34.734 100.896 33.888L101.85 32.988H97.206V23.322ZM102.12 31.548V30.27H98.79V31.548H102.12ZM98.79 28.884H102.12V27.516H98.79V28.884ZM98.79 26.13H102.12V24.762H98.79V26.13ZM119.454 30.558V36.408H117.78V35.724H110.526V36.408H108.87V30.558H119.454ZM110.526 34.176H117.78V32.088H110.526V34.176ZM111.498 22.674L113.172 23.034C112.956 23.358 112.722 23.682 112.506 23.988H118.95V25.356C118.302 26.292 117.366 27.12 116.106 27.84C117.942 28.488 119.976 28.866 122.208 28.992L121.83 30.54C118.986 30.378 116.466 29.784 114.27 28.758C112.182 29.64 109.518 30.342 106.314 30.882L105.666 29.37C108.402 28.974 110.688 28.452 112.524 27.822C111.768 27.354 111.084 26.832 110.436 26.274C109.77 26.85 109.068 27.39 108.33 27.858L107.232 26.544C108.888 25.608 110.31 24.33 111.498 22.674ZM114.324 27.102C115.368 26.598 116.232 26.058 116.88 25.446H111.66C112.488 26.094 113.37 26.634 114.324 27.102ZM121.47 20.946V24.582H119.742V22.476H108.258V24.582H106.53V20.946H112.956C112.776 20.586 112.596 20.226 112.38 19.902L114.27 19.614C114.45 20.01 114.63 20.442 114.81 20.946H121.47ZM139.29 21.216V35.562H137.634V34.464H134.484V35.562H132.81V21.216H139.29ZM134.484 32.808H137.634V22.872H134.484V32.808ZM126.762 19.65L128.49 19.794C128.31 20.874 128.112 21.9 127.932 22.836H131.622V23.808C131.478 26.724 130.83 29.244 129.66 31.368C130.668 32.106 131.496 32.772 132.144 33.366L130.956 34.77C130.344 34.158 129.606 33.51 128.742 32.826C127.77 34.158 126.564 35.31 125.142 36.282L124.008 34.86C125.376 33.996 126.528 32.97 127.428 31.782C126.528 31.062 125.52 30.324 124.404 29.532C124.944 27.984 125.412 26.31 125.844 24.51H123.918V22.836H126.204C126.402 21.792 126.582 20.73 126.762 19.65ZM128.328 30.396C129.264 28.686 129.84 26.724 130.02 24.51H127.59C127.194 26.31 126.762 27.804 126.312 29.01C127.032 29.496 127.716 29.964 128.328 30.396ZM147.084 20.73H158.244V22.386H156.966V34.41C156.966 35.67 156.336 36.3 155.112 36.3H152.07L151.692 34.626C152.682 34.698 153.618 34.734 154.518 34.734C154.986 34.734 155.238 34.482 155.238 33.978V22.386H147.084V20.73ZM147.39 24.708H153.402V31.692H147.39V24.708ZM151.746 30.144V26.256H149.028V30.144H151.746ZM145.428 19.596L146.958 20.316C146.544 21.648 146.022 22.908 145.374 24.132V36.39H143.7V26.778C143.196 27.426 142.674 28.074 142.116 28.686L141.558 26.85C143.304 24.78 144.6 22.368 145.428 19.596ZM162.528 26.418H167.208V22.872C165.804 24.528 163.608 25.878 160.638 26.958L159.72 25.446C162.366 24.726 164.382 23.844 165.75 22.8H160.584V21.216H167.208V19.704H168.864V21.216H175.488V22.8H168.864V23.178C171.582 23.898 174.048 24.672 176.244 25.5L175.146 26.724C173.094 25.842 171.006 25.068 168.864 24.384V26.418H173.544V33.222H162.528V26.418ZM171.888 31.71V30.576H164.184V31.71H171.888ZM164.184 29.136H171.888V27.93H164.184V29.136ZM160.224 34.302H175.794V35.868H160.224V34.302ZM179.862 35.292V36.354H178.26V29.784H183.354V36.066H181.788V35.292H179.862ZM181.788 33.744V31.296H179.862V33.744H181.788ZM177.9 21.9H180.132C179.88 21.288 179.628 20.694 179.34 20.136L180.96 19.686C181.32 20.496 181.572 21.234 181.752 21.9H183.696V23.484H177.9V21.9ZM178.476 24.582H183.138V26.076H178.476V24.582ZM178.476 27.084H183.138V28.56H178.476V27.084ZM184.956 25.77C184.758 25.986 184.578 26.202 184.398 26.4L183.39 25.086C184.74 23.61 185.658 21.792 186.126 19.632L187.782 19.866C187.656 20.424 187.512 20.964 187.332 21.468H193.704C193.704 28.308 193.614 32.538 193.434 34.14C193.254 35.544 192.39 36.246 190.86 36.246C190.464 36.246 189.798 36.21 188.826 36.156L188.412 34.59C189.258 34.644 189.996 34.68 190.608 34.68C191.328 34.68 191.742 34.23 191.85 33.366C191.958 32.358 192.03 28.92 192.066 23.052H186.702C186.396 23.664 186.054 24.258 185.694 24.798H190.374V33.348H184.956V25.77ZM188.826 31.908V29.73H186.54V31.908H188.826ZM186.54 28.344H188.826V26.256H186.54V28.344ZM199.734 22.836C199.464 23.25 199.194 23.646 198.924 24.024H210.318C210.282 25.554 210.228 26.904 210.192 28.092H212.37V29.694H210.138C210.084 30.702 210.048 31.566 210.012 32.268H211.866V33.852H209.904C209.85 34.284 209.814 34.554 209.778 34.68C209.616 35.256 209.31 35.67 208.86 35.922C208.41 36.192 207.744 36.336 206.88 36.336C206.232 36.336 205.476 36.354 204.63 36.354L204.126 34.788C205.062 34.824 205.89 34.86 206.628 34.86C206.988 34.86 207.312 34.806 207.582 34.734C207.852 34.626 208.05 34.392 208.194 34.032C208.194 33.996 208.212 33.924 208.23 33.852H197.826C198.078 32.448 198.294 31.062 198.456 29.694H195.666V28.092H198.618C198.744 26.76 198.816 25.428 198.852 24.114C198.24 24.924 197.592 25.644 196.908 26.274L195.81 24.942C197.25 23.646 198.474 21.864 199.518 19.578L201.246 19.974C201.048 20.406 200.85 20.802 200.652 21.198H211.488V22.836H199.734ZM202.668 29.766C204 30.198 205.224 30.702 206.34 31.314L205.71 32.268H208.356C208.392 31.584 208.428 30.72 208.464 29.694H200.166C200.058 30.612 199.95 31.476 199.806 32.268H205.044C204.018 31.674 202.974 31.206 201.912 30.882L202.668 29.766ZM200.31 28.092H204.972C204 27.552 203.01 27.12 202.038 26.778L202.794 25.662C204.126 26.094 205.332 26.616 206.448 27.246L205.89 28.092H208.518C208.554 27.318 208.572 26.49 208.608 25.608H200.454C200.418 26.472 200.364 27.3 200.31 28.092ZM218.832 26.31V29.136H226.122V26.31H218.832ZM226.122 24.708V22.008H218.832V24.708H226.122ZM218.742 30.72C218.508 33.024 217.824 34.932 216.69 36.462L215.376 35.256C216.51 33.672 217.086 31.656 217.122 29.208V20.37H227.85V34.464C227.85 35.616 227.256 36.192 226.104 36.192H223.8L223.332 34.518C224.124 34.554 224.862 34.59 225.546 34.59C225.924 34.59 226.122 34.338 226.122 33.87V30.72H218.742ZM244.392 26.526C244.608 27.57 244.896 28.542 245.238 29.46C245.598 27.984 245.796 26.31 245.832 24.438H244.518C244.23 25.374 243.924 26.22 243.564 26.976L244.392 26.526ZM247.272 24.438C247.2 27.21 246.822 29.568 246.12 31.53C246.768 32.826 247.542 33.978 248.442 35.004L247.362 36.246C246.606 35.346 245.94 34.338 245.382 33.258C244.77 34.41 244.05 35.382 243.204 36.192L242.358 34.842C243.294 33.996 244.032 32.898 244.59 31.53C244.068 30.27 243.654 28.92 243.33 27.444L242.916 28.164L242.106 27.156L242.16 27.048H240.63L241.008 28.38H242.916V29.784H240.144C240.09 30.18 240.036 30.576 239.964 30.936H242.556C242.556 33.312 242.412 34.752 242.124 35.292C241.854 35.796 241.368 36.048 240.666 36.084H239.37L238.956 34.716H240.288C240.594 34.68 240.792 34.536 240.9 34.284C240.972 33.996 241.008 33.33 241.026 32.304H239.676C239.568 32.7 239.46 33.042 239.352 33.366C238.92 34.41 238.272 35.364 237.408 36.192L236.49 35.004C236.868 34.608 237.192 34.194 237.462 33.762L236.49 34.23C236.202 33.15 235.896 32.214 235.572 31.386L236.634 31.026C236.994 31.818 237.3 32.682 237.552 33.6C237.732 33.294 237.876 32.988 238.02 32.7C238.29 31.944 238.506 30.972 238.668 29.784H237.3V28.38H239.478L239.1 27.048H237.606V21.234H239.19C239.334 20.748 239.46 20.244 239.55 19.722L241.026 19.92C240.936 20.388 240.81 20.82 240.666 21.234H242.538V26.166C243.204 24.474 243.672 22.35 243.924 19.812L245.418 20.064C245.274 21.072 245.112 22.026 244.914 22.89H248.046V24.438H247.272ZM232.224 31.71L233.52 31.872C233.43 33.438 233.25 34.824 232.962 36.03L231.612 35.598C231.936 34.482 232.152 33.186 232.224 31.71ZM235.05 31.494C235.32 32.592 235.572 33.78 235.788 35.076L234.492 35.364C234.33 33.996 234.132 32.79 233.88 31.746L235.05 31.494ZM236.544 26.958C236.832 27.948 237.084 29.1 237.318 30.396L236.022 30.702C235.986 30.45 235.932 30.216 235.896 30C234.654 30.414 233.466 30.702 232.332 30.864L231.918 29.442C232.206 29.334 232.44 29.19 232.62 29.01C233.034 28.452 233.556 27.516 234.168 26.22L232.242 26.598L231.864 25.176C232.098 25.068 232.314 24.87 232.512 24.582C233.07 23.106 233.556 21.45 233.97 19.632L235.482 20.208C234.834 22.188 234.186 23.79 233.52 25.05L234.798 24.834C235.086 24.15 235.392 23.43 235.716 22.638L237.12 23.142C235.878 25.95 234.834 27.966 234.006 29.226C234.564 29.118 235.122 28.974 235.662 28.812C235.554 28.308 235.428 27.822 235.32 27.372L236.544 26.958ZM241.152 25.842V24.762H238.992V25.842H241.152ZM238.992 23.574H241.152V22.44H238.992V23.574ZM249.828 21.27H253.5V19.74H255.12V21.27H258.288V22.746H255.12V23.97H257.874V25.41H250.458V23.97H253.5V22.746H249.828V21.27ZM251.052 26.526H257.316V28.02H251.052V26.526ZM249.954 29.1H258.486V30.576H254.994V36.282H253.374V30.576H249.954V29.1ZM251.214 31.314L252.564 31.584C252.204 33.006 251.7 34.23 251.034 35.274L249.774 34.464C250.458 33.474 250.926 32.43 251.214 31.314ZM257.064 31.17C257.478 31.98 257.856 32.844 258.18 33.78L256.848 34.374C256.506 33.33 256.128 32.394 255.714 31.602L257.064 31.17ZM259.836 19.812L261.402 20.064C261.294 20.928 261.186 21.72 261.042 22.44H265.704V23.466C265.47 24.978 265.164 26.49 264.804 28.002L263.238 27.552C263.562 26.526 263.832 25.338 264.066 23.97H260.682C260.268 25.446 259.746 26.634 259.098 27.534L257.802 26.598C258.846 24.978 259.53 22.71 259.836 19.812ZM261.078 25.23H262.626C262.626 26.418 262.572 27.516 262.464 28.524C263.22 31.242 264.516 33.42 266.37 35.058L265.236 36.354C263.832 34.95 262.734 33.258 261.96 31.296C261.402 33.366 260.16 35.076 258.216 36.444L257.172 35.202C258.846 34.014 259.944 32.574 260.466 30.846C260.862 29.406 261.078 27.534 261.078 25.23ZM281.94 20.352V36.264H280.23V35.004H272.112V36.282H270.402V20.352H281.94ZM272.112 33.33H280.23V28.326H272.112V33.33ZM272.112 26.652H280.23V22.008H272.112V26.652ZM292.614 25.644C293.37 26.184 294.108 26.796 294.792 27.498C295.368 28.092 295.908 28.74 296.412 29.424L295.224 30.396C294.756 29.712 294.234 29.082 293.658 28.47C293.01 27.786 292.326 27.156 291.588 26.58L292.614 25.644ZM308.364 27.336C308.058 27.642 307.734 27.948 307.41 28.236L306.924 26.634C308.166 25.482 309.084 24.15 309.678 22.638L311.064 23.268C310.776 23.988 310.416 24.69 309.984 25.356V31.296H308.364V27.336ZM319.83 20.874V22.476H306.744V26.868C306.69 30.774 306.132 33.906 305.052 36.264L303.756 35.112C304.584 33.132 305.016 30.396 305.052 26.868V20.874H311.874C311.694 20.55 311.496 20.244 311.298 19.974L313.134 19.686C313.314 20.046 313.494 20.442 313.674 20.874H319.83ZM307.86 31.98L309.354 32.286C309.03 33.726 308.598 34.968 308.022 36.012L306.672 35.148C307.23 34.158 307.626 33.096 307.86 31.98ZM315.276 36.156H311.748C310.632 36.156 310.092 35.598 310.092 34.518V31.764H311.712V34.194C311.712 34.464 311.892 34.608 312.252 34.608H314.988C315.312 34.608 315.546 34.536 315.69 34.41C315.87 34.266 315.996 33.798 316.068 33.042L317.544 33.528C317.4 34.788 317.148 35.562 316.788 35.814C316.464 36.03 315.96 36.156 315.276 36.156ZM318.264 31.476C319.164 32.7 319.866 33.762 320.37 34.698L319.038 35.616C318.516 34.608 317.814 33.492 316.95 32.268L318.264 31.476ZM313.62 31.44C314.304 32.16 314.826 32.808 315.204 33.348L313.944 34.23C313.548 33.618 313.026 32.934 312.378 32.214L313.62 31.44ZM313.278 27.138V27.912H315.456V27.138H313.278ZM313.278 29.082V29.928H315.456V29.082H313.278ZM316.968 29.928H319.722V31.224H311.766V27.282C311.478 27.642 311.172 28.002 310.866 28.344L310.362 26.724C311.406 25.482 312.126 24.132 312.558 22.674L314.052 22.962C313.944 23.268 313.854 23.574 313.746 23.862H315.402C315.24 23.52 315.078 23.214 314.898 22.944L316.5 22.692C316.662 23.052 316.824 23.43 316.986 23.862H319.542V25.158H316.968V25.986H319.254V27.138H316.968V27.912H319.254V29.082H316.968V29.928ZM315.456 25.158H313.278V25.986H315.456V25.158ZM334.392 26.526C334.608 27.57 334.896 28.542 335.238 29.46C335.598 27.984 335.796 26.31 335.832 24.438H334.518C334.23 25.374 333.924 26.22 333.564 26.976L334.392 26.526ZM337.272 24.438C337.2 27.21 336.822 29.568 336.12 31.53C336.768 32.826 337.542 33.978 338.442 35.004L337.362 36.246C336.606 35.346 335.94 34.338 335.382 33.258C334.77 34.41 334.05 35.382 333.204 36.192L332.358 34.842C333.294 33.996 334.032 32.898 334.59 31.53C334.068 30.27 333.654 28.92 333.33 27.444L332.916 28.164L332.106 27.156L332.16 27.048H330.63L331.008 28.38H332.916V29.784H330.144C330.09 30.18 330.036 30.576 329.964 30.936H332.556C332.556 33.312 332.412 34.752 332.124 35.292C331.854 35.796 331.368 36.048 330.666 36.084H329.37L328.956 34.716H330.288C330.594 34.68 330.792 34.536 330.9 34.284C330.972 33.996 331.008 33.33 331.026 32.304H329.676C329.568 32.7 329.46 33.042 329.352 33.366C328.92 34.41 328.272 35.364 327.408 36.192L326.49 35.004C326.868 34.608 327.192 34.194 327.462 33.762L326.49 34.23C326.202 33.15 325.896 32.214 325.572 31.386L326.634 31.026C326.994 31.818 327.3 32.682 327.552 33.6C327.732 33.294 327.876 32.988 328.02 32.7C328.29 31.944 328.506 30.972 328.668 29.784H327.3V28.38H329.478L329.1 27.048H327.606V21.234H329.19C329.334 20.748 329.46 20.244 329.55 19.722L331.026 19.92C330.936 20.388 330.81 20.82 330.666 21.234H332.538V26.166C333.204 24.474 333.672 22.35 333.924 19.812L335.418 20.064C335.274 21.072 335.112 22.026 334.914 22.89H338.046V24.438H337.272ZM322.224 31.71L323.52 31.872C323.43 33.438 323.25 34.824 322.962 36.03L321.612 35.598C321.936 34.482 322.152 33.186 322.224 31.71ZM325.05 31.494C325.32 32.592 325.572 33.78 325.788 35.076L324.492 35.364C324.33 33.996 324.132 32.79 323.88 31.746L325.05 31.494ZM326.544 26.958C326.832 27.948 327.084 29.1 327.318 30.396L326.022 30.702C325.986 30.45 325.932 30.216 325.896 30C324.654 30.414 323.466 30.702 322.332 30.864L321.918 29.442C322.206 29.334 322.44 29.19 322.62 29.01C323.034 28.452 323.556 27.516 324.168 26.22L322.242 26.598L321.864 25.176C322.098 25.068 322.314 24.87 322.512 24.582C323.07 23.106 323.556 21.45 323.97 19.632L325.482 20.208C324.834 22.188 324.186 23.79 323.52 25.05L324.798 24.834C325.086 24.15 325.392 23.43 325.716 22.638L327.12 23.142C325.878 25.95 324.834 27.966 324.006 29.226C324.564 29.118 325.122 28.974 325.662 28.812C325.554 28.308 325.428 27.822 325.32 27.372L326.544 26.958ZM331.152 25.842V24.762H328.992V25.842H331.152ZM328.992 23.574H331.152V22.44H328.992V23.574ZM343.23 25.158C342.438 25.626 341.61 26.058 340.746 26.454L339.756 25.032C342.87 23.664 345.39 21.918 347.334 19.794H348.702C350.376 21.882 352.878 23.61 356.226 24.996L355.254 26.418C354.39 26.058 353.562 25.662 352.806 25.23V26.166H348.864V28.344H355.128V29.928H348.864V34.338H350.556C351.114 33.222 351.6 32.016 352.032 30.738L353.58 31.296C353.184 32.43 352.752 33.438 352.284 34.338H355.758V35.958H340.26V34.338H343.788C343.446 33.312 343.014 32.34 342.51 31.422L344.04 30.864C344.544 31.836 345.012 32.988 345.444 34.338H347.172V29.928H340.89V28.344H347.172V26.166H343.23V25.158ZM351.816 24.636C350.34 23.7 349.08 22.62 348.018 21.396C346.83 22.62 345.516 23.7 344.076 24.636H351.816ZM359.718 27.138C359.376 27.498 358.998 27.84 358.602 28.164L357.738 27.03C359.034 25.986 359.934 24.726 360.42 23.25L361.86 23.466C361.77 23.754 361.68 24.042 361.572 24.294H364.686V25.446C364.272 26.346 363.804 27.156 363.264 27.84C364.272 28.506 365.154 29.172 365.946 29.838L364.812 30.972C364.722 30.882 364.632 30.81 364.56 30.738V36.174H363.048V35.292H360.366V36.264H358.872V31.008C358.692 31.062 358.53 31.116 358.368 31.17L357.684 29.802C358.998 29.46 360.132 28.866 361.086 28.038C360.636 27.732 360.186 27.426 359.718 27.138ZM362.31 28.902C361.644 29.514 360.924 30.036 360.15 30.45H364.254C363.678 29.928 363.03 29.406 362.31 28.902ZM362.058 27.03C362.418 26.598 362.742 26.13 363.03 25.626H360.906C360.798 25.806 360.69 25.968 360.582 26.112C361.104 26.418 361.59 26.724 362.058 27.03ZM360.366 33.852H363.048V31.854H360.366V33.852ZM365.532 21.252V24.276H364.056V22.674H359.484V24.276H358.008V21.252H360.978C360.834 20.802 360.672 20.388 360.492 19.992L362.166 19.722C362.31 20.19 362.454 20.694 362.598 21.252H365.532ZM366.378 23.196H368.88C368.934 22.764 368.97 22.314 369.006 21.864H365.838V20.352H374.046V21.864H370.68C370.644 22.332 370.608 22.764 370.554 23.196H373.452V32.736H366.378V23.196ZM371.886 31.26V29.892H367.926V31.26H371.886ZM367.926 28.542H371.886V27.282H367.926V28.542ZM367.926 25.914H371.886V24.6H367.926V25.914ZM368.142 32.772L369.312 33.798C368.52 34.806 367.53 35.706 366.378 36.48L365.37 35.184C366.468 34.5 367.386 33.69 368.142 32.772ZM371.688 32.754C372.75 33.582 373.65 34.41 374.37 35.238L373.218 36.372C372.606 35.562 371.742 34.698 370.626 33.78L371.688 32.754ZM382.614 25.644C383.37 26.184 384.108 26.796 384.792 27.498C385.368 28.092 385.908 28.74 386.412 29.424L385.224 30.396C384.756 29.712 384.234 29.082 383.658 28.47C383.01 27.786 382.326 27.156 381.588 26.58L382.614 25.644ZM406.392 26.526C406.608 27.57 406.896 28.542 407.238 29.46C407.598 27.984 407.796 26.31 407.832 24.438H406.518C406.23 25.374 405.924 26.22 405.564 26.976L406.392 26.526ZM409.272 24.438C409.2 27.21 408.822 29.568 408.12 31.53C408.768 32.826 409.542 33.978 410.442 35.004L409.362 36.246C408.606 35.346 407.94 34.338 407.382 33.258C406.77 34.41 406.05 35.382 405.204 36.192L404.358 34.842C405.294 33.996 406.032 32.898 406.59 31.53C406.068 30.27 405.654 28.92 405.33 27.444L404.916 28.164L404.106 27.156L404.16 27.048H402.63L403.008 28.38H404.916V29.784H402.144C402.09 30.18 402.036 30.576 401.964 30.936H404.556C404.556 33.312 404.412 34.752 404.124 35.292C403.854 35.796 403.368 36.048 402.666 36.084H401.37L400.956 34.716H402.288C402.594 34.68 402.792 34.536 402.9 34.284C402.972 33.996 403.008 33.33 403.026 32.304H401.676C401.568 32.7 401.46 33.042 401.352 33.366C400.92 34.41 400.272 35.364 399.408 36.192L398.49 35.004C398.868 34.608 399.192 34.194 399.462 33.762L398.49 34.23C398.202 33.15 397.896 32.214 397.572 31.386L398.634 31.026C398.994 31.818 399.3 32.682 399.552 33.6C399.732 33.294 399.876 32.988 400.02 32.7C400.29 31.944 400.506 30.972 400.668 29.784H399.3V28.38H401.478L401.1 27.048H399.606V21.234H401.19C401.334 20.748 401.46 20.244 401.55 19.722L403.026 19.92C402.936 20.388 402.81 20.82 402.666 21.234H404.538V26.166C405.204 24.474 405.672 22.35 405.924 19.812L407.418 20.064C407.274 21.072 407.112 22.026 406.914 22.89H410.046V24.438H409.272ZM394.224 31.71L395.52 31.872C395.43 33.438 395.25 34.824 394.962 36.03L393.612 35.598C393.936 34.482 394.152 33.186 394.224 31.71ZM397.05 31.494C397.32 32.592 397.572 33.78 397.788 35.076L396.492 35.364C396.33 33.996 396.132 32.79 395.88 31.746L397.05 31.494ZM398.544 26.958C398.832 27.948 399.084 29.1 399.318 30.396L398.022 30.702C397.986 30.45 397.932 30.216 397.896 30C396.654 30.414 395.466 30.702 394.332 30.864L393.918 29.442C394.206 29.334 394.44 29.19 394.62 29.01C395.034 28.452 395.556 27.516 396.168 26.22L394.242 26.598L393.864 25.176C394.098 25.068 394.314 24.87 394.512 24.582C395.07 23.106 395.556 21.45 395.97 19.632L397.482 20.208C396.834 22.188 396.186 23.79 395.52 25.05L396.798 24.834C397.086 24.15 397.392 23.43 397.716 22.638L399.12 23.142C397.878 25.95 396.834 27.966 396.006 29.226C396.564 29.118 397.122 28.974 397.662 28.812C397.554 28.308 397.428 27.822 397.32 27.372L398.544 26.958ZM403.152 25.842V24.762H400.992V25.842H403.152ZM400.992 23.574H403.152V22.44H400.992V23.574ZM411.828 21.27H415.5V19.74H417.12V21.27H420.288V22.746H417.12V23.97H419.874V25.41H412.458V23.97H415.5V22.746H411.828V21.27ZM413.052 26.526H419.316V28.02H413.052V26.526ZM411.954 29.1H420.486V30.576H416.994V36.282H415.374V30.576H411.954V29.1ZM413.214 31.314L414.564 31.584C414.204 33.006 413.7 34.23 413.034 35.274L411.774 34.464C412.458 33.474 412.926 32.43 413.214 31.314ZM419.064 31.17C419.478 31.98 419.856 32.844 420.18 33.78L418.848 34.374C418.506 33.33 418.128 32.394 417.714 31.602L419.064 31.17ZM421.836 19.812L423.402 20.064C423.294 20.928 423.186 21.72 423.042 22.44H427.704V23.466C427.47 24.978 427.164 26.49 426.804 28.002L425.238 27.552C425.562 26.526 425.832 25.338 426.066 23.97H422.682C422.268 25.446 421.746 26.634 421.098 27.534L419.802 26.598C420.846 24.978 421.53 22.71 421.836 19.812ZM423.078 25.23H424.626C424.626 26.418 424.572 27.516 424.464 28.524C425.22 31.242 426.516 33.42 428.37 35.058L427.236 36.354C425.832 34.95 424.734 33.258 423.96 31.296C423.402 33.366 422.16 35.076 420.216 36.444L419.172 35.202C420.846 34.014 421.944 32.574 422.466 30.846C422.862 29.406 423.078 27.534 423.078 25.23ZM441.762 29.892C442.032 30.63 442.374 31.296 442.77 31.908C443.472 31.476 444.156 30.864 444.804 30.072L445.92 31.206C445.236 31.998 444.498 32.61 443.688 33.042C444.462 33.852 445.38 34.464 446.424 34.896L445.506 36.228C443.166 35.22 441.492 33.348 440.502 30.612L441.762 29.892ZM434.796 33.204H433.878V36.426H432.384V23.988H431.538V33.258H430.134V22.494H432.384V19.686H433.878V22.494H436.128V31.674C436.128 32.682 435.678 33.204 434.796 33.204ZM433.878 23.988V31.8L434.328 31.818C434.58 31.818 434.724 31.674 434.724 31.386V23.988H433.878ZM445.434 20.208V21.72H439.26V22.818H444.804V24.294H439.26V25.428H444.876V26.886H439.26V28.038H446.136V29.586H439.134V34.392C439.908 34.104 440.682 33.744 441.438 33.312L441.726 34.842C440.556 35.436 439.206 35.94 437.676 36.336L437.028 34.932C437.352 34.824 437.514 34.68 437.514 34.482V29.586H436.506V28.038H437.64V20.208H445.434ZM448.296 20.352H453.732V25.464H448.296V20.352ZM452.148 24.042V21.774H449.862V24.042H452.148ZM447.72 26.31H454.128V27.894H450.816C450.672 28.542 450.51 29.118 450.366 29.64H453.462C453.39 33.132 453.102 35.094 452.598 35.544C452.13 35.976 451.14 36.192 449.592 36.192H449.34L448.89 34.626C449.142 34.662 449.394 34.68 449.628 34.68C450.474 34.662 451.032 34.554 451.284 34.356C451.572 34.122 451.752 33.06 451.806 31.152H448.35C448.692 29.946 448.962 28.866 449.178 27.894H447.72V26.31ZM458.232 19.668H459.888V20.604H463.488V22.008H459.888V22.98H463.884V23.754C463.74 24.654 463.506 25.536 463.146 26.418L461.868 26.058L461.994 26.868L459.888 27.156V27.786C459.888 28.02 460.05 28.146 460.392 28.146H463.38V29.604H459.924C458.808 29.604 458.268 29.118 458.268 28.182V27.372L456.72 27.588L456.486 26.166L458.268 25.914V24.474H456.252V28.398C456.252 31.53 455.712 34.194 454.668 36.426L453.336 35.274C454.164 33.456 454.596 31.17 454.632 28.398V22.98H458.232V19.668ZM459.888 24.474V25.698L461.76 25.446L461.796 25.626C461.94 25.266 462.066 24.87 462.174 24.474H459.888ZM457.296 30.072H458.916C458.88 33.186 458.232 35.328 457.008 36.48L455.676 35.436C456.72 34.5 457.26 32.718 457.296 30.072ZM462.48 36.084H461.76C460.572 36.084 459.978 35.58 459.978 34.608V30.09H461.544V34.302C461.544 34.446 461.634 34.536 461.814 34.536H462.39C462.642 34.536 462.786 34.338 462.822 33.978C462.858 33.6 462.876 33.06 462.876 32.34L464.316 32.862C464.316 34.32 464.19 35.22 463.956 35.562C463.74 35.85 463.254 36.03 462.48 36.084ZM474.306 21.396C475.476 21.396 476.412 21.702 477.132 22.35C477.834 22.98 478.194 23.844 478.194 24.924C478.194 25.806 477.96 26.544 477.528 27.12C477.366 27.318 476.862 27.786 475.998 28.524C475.674 28.812 475.422 29.118 475.26 29.442C475.062 29.802 474.972 30.198 474.972 30.648V30.954H473.046V30.648C473.046 29.982 473.154 29.406 473.406 28.902C473.658 28.416 474.072 27.912 474.648 27.408C475.224 26.868 475.602 26.526 475.746 26.364C476.07 25.95 476.25 25.518 476.25 25.05C476.25 24.42 476.07 23.934 475.71 23.574C475.35 23.214 474.846 23.034 474.198 23.034C473.406 23.034 472.812 23.286 472.434 23.79C472.11 24.222 471.948 24.852 471.948 25.644H470.04C470.04 24.33 470.436 23.304 471.192 22.548C471.948 21.774 472.992 21.396 474.306 21.396ZM474 31.926C474.378 31.926 474.702 32.034 474.954 32.286C475.206 32.52 475.332 32.826 475.332 33.204C475.332 33.582 475.206 33.888 474.954 34.14C474.684 34.374 474.36 34.5 474 34.5C473.64 34.5 473.334 34.374 473.082 34.122C472.812 33.87 472.686 33.564 472.686 33.204C472.686 32.826 472.812 32.52 473.082 32.286C473.334 32.034 473.64 31.926 474 31.926Z" fill="black"/>
<g clip-path="url(#clip0_2795_411)">
<path d="M964.534 24.4151L955.974 32.9751L947.414 24.4151" stroke="#4A4A4A" stroke-width="2" stroke-linecap="round" stroke-linejoin="round"/>
</g>
<rect y="80" width="1000" height="56" rx="4" fill="#EFEFEF"/>
<path d="M36.9241 101.648H38.4001V114.5H36.4381V104.006C35.6641 104.744 34.6741 105.284 33.4861 105.626V103.682C34.0621 103.538 34.6561 103.286 35.3041 102.926C35.9521 102.53 36.4921 102.116 36.9241 101.648ZM42.5438 111.926C42.9038 111.926 43.2278 112.052 43.4978 112.304C43.7498 112.556 43.8938 112.88 43.8938 113.276C43.8938 113.636 43.7498 113.96 43.4978 114.23C43.2278 114.464 42.9038 114.59 42.5438 114.59C42.1478 114.59 41.8418 114.464 41.6078 114.23C41.3378 113.96 41.2118 113.636 41.2118 113.276C41.2118 112.88 41.3378 112.556 41.6078 112.304C41.8418 112.052 42.1478 111.926 42.5438 111.926ZM52.242 102.908H59.136V99.794H60.864V102.908H67.74V104.546H62.214C63.402 107.246 65.454 109.676 68.37 111.8L67.2 113.276C64.194 110.684 62.088 107.768 60.882 104.546H60.864V111.17H64.572V112.808H60.864V116.354H59.136V112.808H55.572V111.17H59.136V104.546H59.118C57.822 108.182 55.626 111.17 52.566 113.51L51.576 111.908C54.42 110 56.49 107.534 57.786 104.546H52.242V102.908ZM76.56 100.748H85.344V102.422H76.56V100.748ZM76.11 105.248H86.118V106.922H83.31V114.554C83.31 115.706 82.662 116.282 81.384 116.282H78.774L78.396 114.608C79.224 114.68 80.034 114.716 80.79 114.716C81.312 114.716 81.582 114.518 81.582 114.14V106.922H76.11V105.248ZM73.5 99.866L75.066 100.586C74.094 102.566 72.474 104.33 70.17 105.914L69.648 104.204C71.394 102.962 72.672 101.522 73.5 99.866ZM74.346 103.988L75.894 104.708C75.408 105.68 74.796 106.598 74.058 107.462V116.354H72.384V109.136C71.736 109.694 71.052 110.234 70.296 110.756L69.792 109.064C71.844 107.624 73.374 105.932 74.346 103.988ZM90.906 111.062C90.69 111.386 90.492 111.674 90.294 111.944L89.862 111.422C89.628 113.33 89.268 114.95 88.782 116.282L87.702 115.148C88.314 113.186 88.638 110.468 88.674 107.012V100.676C91.212 100.64 93.48 100.388 95.46 99.938L96.198 101.288C94.398 101.648 92.382 101.846 90.15 101.918V102.71H96.126V106.202H90.15V107.012C90.132 108.092 90.078 109.082 90.006 110.018C90.564 109.064 91.068 107.894 91.5 106.49L92.832 106.778C92.706 107.156 92.58 107.516 92.454 107.858H93.624C93.48 107.444 93.336 107.066 93.192 106.706L94.542 106.49C94.686 106.904 94.848 107.354 94.992 107.858H96.54V109.154H94.992V110.072H96.252V111.332H94.992V112.304H96.288V113.564H94.992V114.464H96.648V115.094C97.584 114.482 98.376 113.798 99.024 113.006L100.086 113.942C99.402 114.842 98.538 115.634 97.53 116.318L96.648 115.202V115.778H92.238V116.336H90.906V111.062ZM90.15 104.942H94.578V103.97H90.15V104.942ZM92.238 114.464H93.696V113.564H92.238V114.464ZM93.696 112.304V111.332H92.238V112.304H93.696ZM93.696 110.072V109.154H92.238V110.072H93.696ZM97.206 103.322H99.222C99.366 102.836 99.474 102.35 99.546 101.846H96.72V100.37H104.172V101.846H101.202C101.112 102.35 101.004 102.854 100.878 103.322H103.704V112.988H102.012C102.966 113.726 103.776 114.464 104.46 115.22L103.38 116.282C102.768 115.526 101.94 114.734 100.896 113.888L101.85 112.988H97.206V103.322ZM102.12 111.548V110.27H98.79V111.548H102.12ZM98.79 108.884H102.12V107.516H98.79V108.884ZM98.79 106.13H102.12V104.762H98.79V106.13ZM119.454 110.558V116.408H117.78V115.724H110.526V116.408H108.87V110.558H119.454ZM110.526 114.176H117.78V112.088H110.526V114.176ZM111.498 102.674L113.172 103.034C112.956 103.358 112.722 103.682 112.506 103.988H118.95V105.356C118.302 106.292 117.366 107.12 116.106 107.84C117.942 108.488 119.976 108.866 122.208 108.992L121.83 110.54C118.986 110.378 116.466 109.784 114.27 108.758C112.182 109.64 109.518 110.342 106.314 110.882L105.666 109.37C108.402 108.974 110.688 108.452 112.524 107.822C111.768 107.354 111.084 106.832 110.436 106.274C109.77 106.85 109.068 107.39 108.33 107.858L107.232 106.544C108.888 105.608 110.31 104.33 111.498 102.674ZM114.324 107.102C115.368 106.598 116.232 106.058 116.88 105.446H111.66C112.488 106.094 113.37 106.634 114.324 107.102ZM121.47 100.946V104.582H119.742V102.476H108.258V104.582H106.53V100.946H112.956C112.776 100.586 112.596 100.226 112.38 99.902L114.27 99.614C114.45 100.01 114.63 100.442 114.81 100.946H121.47ZM139.29 101.216V115.562H137.634V114.464H134.484V115.562H132.81V101.216H139.29ZM134.484 112.808H137.634V102.872H134.484V112.808ZM126.762 99.65L128.49 99.794C128.31 100.874 128.112 101.9 127.932 102.836H131.622V103.808C131.478 106.724 130.83 109.244 129.66 111.368C130.668 112.106 131.496 112.772 132.144 113.366L130.956 114.77C130.344 114.158 129.606 113.51 128.742 112.826C127.77 114.158 126.564 115.31 125.142 116.282L124.008 114.86C125.376 113.996 126.528 112.97 127.428 111.782C126.528 111.062 125.52 110.324 124.404 109.532C124.944 107.984 125.412 106.31 125.844 104.51H123.918V102.836H126.204C126.402 101.792 126.582 100.73 126.762 99.65ZM128.328 110.396C129.264 108.686 129.84 106.724 130.02 104.51H127.59C127.194 106.31 126.762 107.804 126.312 109.01C127.032 109.496 127.716 109.964 128.328 110.396ZM147.084 100.73H158.244V102.386H156.966V114.41C156.966 115.67 156.336 116.3 155.112 116.3H152.07L151.692 114.626C152.682 114.698 153.618 114.734 154.518 114.734C154.986 114.734 155.238 114.482 155.238 113.978V102.386H147.084V100.73ZM147.39 104.708H153.402V111.692H147.39V104.708ZM151.746 110.144V106.256H149.028V110.144H151.746ZM145.428 99.596L146.958 100.316C146.544 101.648 146.022 102.908 145.374 104.132V116.39H143.7V106.778C143.196 107.426 142.674 108.074 142.116 108.686L141.558 106.85C143.304 104.78 144.6 102.368 145.428 99.596ZM162.528 106.418H167.208V102.872C165.804 104.528 163.608 105.878 160.638 106.958L159.72 105.446C162.366 104.726 164.382 103.844 165.75 102.8H160.584V101.216H167.208V99.704H168.864V101.216H175.488V102.8H168.864V103.178C171.582 103.898 174.048 104.672 176.244 105.5L175.146 106.724C173.094 105.842 171.006 105.068 168.864 104.384V106.418H173.544V113.222H162.528V106.418ZM171.888 111.71V110.576H164.184V111.71H171.888ZM164.184 109.136H171.888V107.93H164.184V109.136ZM160.224 114.302H175.794V115.868H160.224V114.302ZM179.862 115.292V116.354H178.26V109.784H183.354V116.066H181.788V115.292H179.862ZM181.788 113.744V111.296H179.862V113.744H181.788ZM177.9 101.9H180.132C179.88 101.288 179.628 100.694 179.34 100.136L180.96 99.686C181.32 100.496 181.572 101.234 181.752 101.9H183.696V103.484H177.9V101.9ZM178.476 104.582H183.138V106.076H178.476V104.582ZM178.476 107.084H183.138V108.56H178.476V107.084ZM184.956 105.77C184.758 105.986 184.578 106.202 184.398 106.4L183.39 105.086C184.74 103.61 185.658 101.792 186.126 99.632L187.782 99.866C187.656 100.424 187.512 100.964 187.332 101.468H193.704C193.704 108.308 193.614 112.538 193.434 114.14C193.254 115.544 192.39 116.246 190.86 116.246C190.464 116.246 189.798 116.21 188.826 116.156L188.412 114.59C189.258 114.644 189.996 114.68 190.608 114.68C191.328 114.68 191.742 114.23 191.85 113.366C191.958 112.358 192.03 108.92 192.066 103.052H186.702C186.396 103.664 186.054 104.258 185.694 104.798H190.374V113.348H184.956V105.77ZM188.826 111.908V109.73H186.54V111.908H188.826ZM186.54 108.344H188.826V106.256H186.54V108.344ZM199.734 102.836C199.464 103.25 199.194 103.646 198.924 104.024H210.318C210.282 105.554 210.228 106.904 210.192 108.092H212.37V109.694H210.138C210.084 110.702 210.048 111.566 210.012 112.268H211.866V113.852H209.904C209.85 114.284 209.814 114.554 209.778 114.68C209.616 115.256 209.31 115.67 208.86 115.922C208.41 116.192 207.744 116.336 206.88 116.336C206.232 116.336 205.476 116.354 204.63 116.354L204.126 114.788C205.062 114.824 205.89 114.86 206.628 114.86C206.988 114.86 207.312 114.806 207.582 114.734C207.852 114.626 208.05 114.392 208.194 114.032C208.194 113.996 208.212 113.924 208.23 113.852H197.826C198.078 112.448 198.294 111.062 198.456 109.694H195.666V108.092H198.618C198.744 106.76 198.816 105.428 198.852 104.114C198.24 104.924 197.592 105.644 196.908 106.274L195.81 104.942C197.25 103.646 198.474 101.864 199.518 99.578L201.246 99.974C201.048 100.406 200.85 100.802 200.652 101.198H211.488V102.836H199.734ZM202.668 109.766C204 110.198 205.224 110.702 206.34 111.314L205.71 112.268H208.356C208.392 111.584 208.428 110.72 208.464 109.694H200.166C200.058 110.612 199.95 111.476 199.806 112.268H205.044C204.018 111.674 202.974 111.206 201.912 110.882L202.668 109.766ZM200.31 108.092H204.972C204 107.552 203.01 107.12 202.038 106.778L202.794 105.662C204.126 106.094 205.332 106.616 206.448 107.246L205.89 108.092H208.518C208.554 107.318 208.572 106.49 208.608 105.608H200.454C200.418 106.472 200.364 107.3 200.31 108.092ZM218.832 106.31V109.136H226.122V106.31H218.832ZM226.122 104.708V102.008H218.832V104.708H226.122ZM218.742 110.72C218.508 113.024 217.824 114.932 216.69 116.462L215.376 115.256C216.51 113.672 217.086 111.656 217.122 109.208V100.37H227.85V114.464C227.85 115.616 227.256 116.192 226.104 116.192H223.8L223.332 114.518C224.124 114.554 224.862 114.59 225.546 114.59C225.924 114.59 226.122 114.338 226.122 113.87V110.72H218.742ZM244.392 106.526C244.608 107.57 244.896 108.542 245.238 109.46C245.598 107.984 245.796 106.31 245.832 104.438H244.518C244.23 105.374 243.924 106.22 243.564 106.976L244.392 106.526ZM247.272 104.438C247.2 107.21 246.822 109.568 246.12 111.53C246.768 112.826 247.542 113.978 248.442 115.004L247.362 116.246C246.606 115.346 245.94 114.338 245.382 113.258C244.77 114.41 244.05 115.382 243.204 116.192L242.358 114.842C243.294 113.996 244.032 112.898 244.59 111.53C244.068 110.27 243.654 108.92 243.33 107.444L242.916 108.164L242.106 107.156L242.16 107.048H240.63L241.008 108.38H242.916V109.784H240.144C240.09 110.18 240.036 110.576 239.964 110.936H242.556C242.556 113.312 242.412 114.752 242.124 115.292C241.854 115.796 241.368 116.048 240.666 116.084H239.37L238.956 114.716H240.288C240.594 114.68 240.792 114.536 240.9 114.284C240.972 113.996 241.008 113.33 241.026 112.304H239.676C239.568 112.7 239.46 113.042 239.352 113.366C238.92 114.41 238.272 115.364 237.408 116.192L236.49 115.004C236.868 114.608 237.192 114.194 237.462 113.762L236.49 114.23C236.202 113.15 235.896 112.214 235.572 111.386L236.634 111.026C236.994 111.818 237.3 112.682 237.552 113.6C237.732 113.294 237.876 112.988 238.02 112.7C238.29 111.944 238.506 110.972 238.668 109.784H237.3V108.38H239.478L239.1 107.048H237.606V101.234H239.19C239.334 100.748 239.46 100.244 239.55 99.722L241.026 99.92C240.936 100.388 240.81 100.82 240.666 101.234H242.538V106.166C243.204 104.474 243.672 102.35 243.924 99.812L245.418 100.064C245.274 101.072 245.112 102.026 244.914 102.89H248.046V104.438H247.272ZM232.224 111.71L233.52 111.872C233.43 113.438 233.25 114.824 232.962 116.03L231.612 115.598C231.936 114.482 232.152 113.186 232.224 111.71ZM235.05 111.494C235.32 112.592 235.572 113.78 235.788 115.076L234.492 115.364C234.33 113.996 234.132 112.79 233.88 111.746L235.05 111.494ZM236.544 106.958C236.832 107.948 237.084 109.1 237.318 110.396L236.022 110.702C235.986 110.45 235.932 110.216 235.896 110C234.654 110.414 233.466 110.702 232.332 110.864L231.918 109.442C232.206 109.334 232.44 109.19 232.62 109.01C233.034 108.452 233.556 107.516 234.168 106.22L232.242 106.598L231.864 105.176C232.098 105.068 232.314 104.87 232.512 104.582C233.07 103.106 233.556 101.45 233.97 99.632L235.482 100.208C234.834 102.188 234.186 103.79 233.52 105.05L234.798 104.834C235.086 104.15 235.392 103.43 235.716 102.638L237.12 103.142C235.878 105.95 234.834 107.966 234.006 109.226C234.564 109.118 235.122 108.974 235.662 108.812C235.554 108.308 235.428 107.822 235.32 107.372L236.544 106.958ZM241.152 105.842V104.762H238.992V105.842H241.152ZM238.992 103.574H241.152V102.44H238.992V103.574ZM249.828 101.27H253.5V99.74H255.12V101.27H258.288V102.746H255.12V103.97H257.874V105.41H250.458V103.97H253.5V102.746H249.828V101.27ZM251.052 106.526H257.316V108.02H251.052V106.526ZM249.954 109.1H258.486V110.576H254.994V116.282H253.374V110.576H249.954V109.1ZM251.214 111.314L252.564 111.584C252.204 113.006 251.7 114.23 251.034 115.274L249.774 114.464C250.458 113.474 250.926 112.43 251.214 111.314ZM257.064 111.17C257.478 111.98 257.856 112.844 258.18 113.78L256.848 114.374C256.506 113.33 256.128 112.394 255.714 111.602L257.064 111.17ZM259.836 99.812L261.402 100.064C261.294 100.928 261.186 101.72 261.042 102.44H265.704V103.466C265.47 104.978 265.164 106.49 264.804 108.002L263.238 107.552C263.562 106.526 263.832 105.338 264.066 103.97H260.682C260.268 105.446 259.746 106.634 259.098 107.534L257.802 106.598C258.846 104.978 259.53 102.71 259.836 99.812ZM261.078 105.23H262.626C262.626 106.418 262.572 107.516 262.464 108.524C263.22 111.242 264.516 113.42 266.37 115.058L265.236 116.354C263.832 114.95 262.734 113.258 261.96 111.296C261.402 113.366 260.16 115.076 258.216 116.444L257.172 115.202C258.846 114.014 259.944 112.574 260.466 110.846C260.862 109.406 261.078 107.534 261.078 105.23ZM281.94 100.352V116.264H280.23V115.004H272.112V116.282H270.402V100.352H281.94ZM272.112 113.33H280.23V108.326H272.112V113.33ZM272.112 106.652H280.23V102.008H272.112V106.652ZM292.614 105.644C293.37 106.184 294.108 106.796 294.792 107.498C295.368 108.092 295.908 108.74 296.412 109.424L295.224 110.396C294.756 109.712 294.234 109.082 293.658 108.47C293.01 107.786 292.326 107.156 291.588 106.58L292.614 105.644ZM308.364 107.336C308.058 107.642 307.734 107.948 307.41 108.236L306.924 106.634C308.166 105.482 309.084 104.15 309.678 102.638L311.064 103.268C310.776 103.988 310.416 104.69 309.984 105.356V111.296H308.364V107.336ZM319.83 100.874V102.476H306.744V106.868C306.69 110.774 306.132 113.906 305.052 116.264L303.756 115.112C304.584 113.132 305.016 110.396 305.052 106.868V100.874H311.874C311.694 100.55 311.496 100.244 311.298 99.974L313.134 99.686C313.314 100.046 313.494 100.442 313.674 100.874H319.83ZM307.86 111.98L309.354 112.286C309.03 113.726 308.598 114.968 308.022 116.012L306.672 115.148C307.23 114.158 307.626 113.096 307.86 111.98ZM315.276 116.156H311.748C310.632 116.156 310.092 115.598 310.092 114.518V111.764H311.712V114.194C311.712 114.464 311.892 114.608 312.252 114.608H314.988C315.312 114.608 315.546 114.536 315.69 114.41C315.87 114.266 315.996 113.798 316.068 113.042L317.544 113.528C317.4 114.788 317.148 115.562 316.788 115.814C316.464 116.03 315.96 116.156 315.276 116.156ZM318.264 111.476C319.164 112.7 319.866 113.762 320.37 114.698L319.038 115.616C318.516 114.608 317.814 113.492 316.95 112.268L318.264 111.476ZM313.62 111.44C314.304 112.16 314.826 112.808 315.204 113.348L313.944 114.23C313.548 113.618 313.026 112.934 312.378 112.214L313.62 111.44ZM313.278 107.138V107.912H315.456V107.138H313.278ZM313.278 109.082V109.928H315.456V109.082H313.278ZM316.968 109.928H319.722V111.224H311.766V107.282C311.478 107.642 311.172 108.002 310.866 108.344L310.362 106.724C311.406 105.482 312.126 104.132 312.558 102.674L314.052 102.962C313.944 103.268 313.854 103.574 313.746 103.862H315.402C315.24 103.52 315.078 103.214 314.898 102.944L316.5 102.692C316.662 103.052 316.824 103.43 316.986 103.862H319.542V105.158H316.968V105.986H319.254V107.138H316.968V107.912H319.254V109.082H316.968V109.928ZM315.456 105.158H313.278V105.986H315.456V105.158ZM334.392 106.526C334.608 107.57 334.896 108.542 335.238 109.46C335.598 107.984 335.796 106.31 335.832 104.438H334.518C334.23 105.374 333.924 106.22 333.564 106.976L334.392 106.526ZM337.272 104.438C337.2 107.21 336.822 109.568 336.12 111.53C336.768 112.826 337.542 113.978 338.442 115.004L337.362 116.246C336.606 115.346 335.94 114.338 335.382 113.258C334.77 114.41 334.05 115.382 333.204 116.192L332.358 114.842C333.294 113.996 334.032 112.898 334.59 111.53C334.068 110.27 333.654 108.92 333.33 107.444L332.916 108.164L332.106 107.156L332.16 107.048H330.63L331.008 108.38H332.916V109.784H330.144C330.09 110.18 330.036 110.576 329.964 110.936H332.556C332.556 113.312 332.412 114.752 332.124 115.292C331.854 115.796 331.368 116.048 330.666 116.084H329.37L328.956 114.716H330.288C330.594 114.68 330.792 114.536 330.9 114.284C330.972 113.996 331.008 113.33 331.026 112.304H329.676C329.568 112.7 329.46 113.042 329.352 113.366C328.92 114.41 328.272 115.364 327.408 116.192L326.49 115.004C326.868 114.608 327.192 114.194 327.462 113.762L326.49 114.23C326.202 113.15 325.896 112.214 325.572 111.386L326.634 111.026C326.994 111.818 327.3 112.682 327.552 113.6C327.732 113.294 327.876 112.988 328.02 112.7C328.29 111.944 328.506 110.972 328.668 109.784H327.3V108.38H329.478L329.1 107.048H327.606V101.234H329.19C329.334 100.748 329.46 100.244 329.55 99.722L331.026 99.92C330.936 100.388 330.81 100.82 330.666 101.234H332.538V106.166C333.204 104.474 333.672 102.35 333.924 99.812L335.418 100.064C335.274 101.072 335.112 102.026 334.914 102.89H338.046V104.438H337.272ZM322.224 111.71L323.52 111.872C323.43 113.438 323.25 114.824 322.962 116.03L321.612 115.598C321.936 114.482 322.152 113.186 322.224 111.71ZM325.05 111.494C325.32 112.592 325.572 113.78 325.788 115.076L324.492 115.364C324.33 113.996 324.132 112.79 323.88 111.746L325.05 111.494ZM326.544 106.958C326.832 107.948 327.084 109.1 327.318 110.396L326.022 110.702C325.986 110.45 325.932 110.216 325.896 110C324.654 110.414 323.466 110.702 322.332 110.864L321.918 109.442C322.206 109.334 322.44 109.19 322.62 109.01C323.034 108.452 323.556 107.516 324.168 106.22L322.242 106.598L321.864 105.176C322.098 105.068 322.314 104.87 322.512 104.582C323.07 103.106 323.556 101.45 323.97 99.632L325.482 100.208C324.834 102.188 324.186 103.79 323.52 105.05L324.798 104.834C325.086 104.15 325.392 103.43 325.716 102.638L327.12 103.142C325.878 105.95 324.834 107.966 324.006 109.226C324.564 109.118 325.122 108.974 325.662 108.812C325.554 108.308 325.428 107.822 325.32 107.372L326.544 106.958ZM331.152 105.842V104.762H328.992V105.842H331.152ZM328.992 103.574H331.152V102.44H328.992V103.574ZM343.23 105.158C342.438 105.626 341.61 106.058 340.746 106.454L339.756 105.032C342.87 103.664 345.39 101.918 347.334 99.794H348.702C350.376 101.882 352.878 103.61 356.226 104.996L355.254 106.418C354.39 106.058 353.562 105.662 352.806 105.23V106.166H348.864V108.344H355.128V109.928H348.864V114.338H350.556C351.114 113.222 351.6 112.016 352.032 110.738L353.58 111.296C353.184 112.43 352.752 113.438 352.284 114.338H355.758V115.958H340.26V114.338H343.788C343.446 113.312 343.014 112.34 342.51 111.422L344.04 110.864C344.544 111.836 345.012 112.988 345.444 114.338H347.172V109.928H340.89V108.344H347.172V106.166H343.23V105.158ZM351.816 104.636C350.34 103.7 349.08 102.62 348.018 101.396C346.83 102.62 345.516 103.7 344.076 104.636H351.816ZM359.718 107.138C359.376 107.498 358.998 107.84 358.602 108.164L357.738 107.03C359.034 105.986 359.934 104.726 360.42 103.25L361.86 103.466C361.77 103.754 361.68 104.042 361.572 104.294H364.686V105.446C364.272 106.346 363.804 107.156 363.264 107.84C364.272 108.506 365.154 109.172 365.946 109.838L364.812 110.972C364.722 110.882 364.632 110.81 364.56 110.738V116.174H363.048V115.292H360.366V116.264H358.872V111.008C358.692 111.062 358.53 111.116 358.368 111.17L357.684 109.802C358.998 109.46 360.132 108.866 361.086 108.038C360.636 107.732 360.186 107.426 359.718 107.138ZM362.31 108.902C361.644 109.514 360.924 110.036 360.15 110.45H364.254C363.678 109.928 363.03 109.406 362.31 108.902ZM362.058 107.03C362.418 106.598 362.742 106.13 363.03 105.626H360.906C360.798 105.806 360.69 105.968 360.582 106.112C361.104 106.418 361.59 106.724 362.058 107.03ZM360.366 113.852H363.048V111.854H360.366V113.852ZM365.532 101.252V104.276H364.056V102.674H359.484V104.276H358.008V101.252H360.978C360.834 100.802 360.672 100.388 360.492 99.992L362.166 99.722C362.31 100.19 362.454 100.694 362.598 101.252H365.532ZM366.378 103.196H368.88C368.934 102.764 368.97 102.314 369.006 101.864H365.838V100.352H374.046V101.864H370.68C370.644 102.332 370.608 102.764 370.554 103.196H373.452V112.736H366.378V103.196ZM371.886 111.26V109.892H367.926V111.26H371.886ZM367.926 108.542H371.886V107.282H367.926V108.542ZM367.926 105.914H371.886V104.6H367.926V105.914ZM368.142 112.772L369.312 113.798C368.52 114.806 367.53 115.706 366.378 116.48L365.37 115.184C366.468 114.5 367.386 113.69 368.142 112.772ZM371.688 112.754C372.75 113.582 373.65 114.41 374.37 115.238L373.218 116.372C372.606 115.562 371.742 114.698 370.626 113.78L371.688 112.754ZM382.614 105.644C383.37 106.184 384.108 106.796 384.792 107.498C385.368 108.092 385.908 108.74 386.412 109.424L385.224 110.396C384.756 109.712 384.234 109.082 383.658 108.47C383.01 107.786 382.326 107.156 381.588 106.58L382.614 105.644ZM406.392 106.526C406.608 107.57 406.896 108.542 407.238 109.46C407.598 107.984 407.796 106.31 407.832 104.438H406.518C406.23 105.374 405.924 106.22 405.564 106.976L406.392 106.526ZM409.272 104.438C409.2 107.21 408.822 109.568 408.12 111.53C408.768 112.826 409.542 113.978 410.442 115.004L409.362 116.246C408.606 115.346 407.94 114.338 407.382 113.258C406.77 114.41 406.05 115.382 405.204 116.192L404.358 114.842C405.294 113.996 406.032 112.898 406.59 111.53C406.068 110.27 405.654 108.92 405.33 107.444L404.916 108.164L404.106 107.156L404.16 107.048H402.63L403.008 108.38H404.916V109.784H402.144C402.09 110.18 402.036 110.576 401.964 110.936H404.556C404.556 113.312 404.412 114.752 404.124 115.292C403.854 115.796 403.368 116.048 402.666 116.084H401.37L400.956 114.716H402.288C402.594 114.68 402.792 114.536 402.9 114.284C402.972 113.996 403.008 113.33 403.026 112.304H401.676C401.568 112.7 401.46 113.042 401.352 113.366C400.92 114.41 400.272 115.364 399.408 116.192L398.49 115.004C398.868 114.608 399.192 114.194 399.462 113.762L398.49 114.23C398.202 113.15 397.896 112.214 397.572 111.386L398.634 111.026C398.994 111.818 399.3 112.682 399.552 113.6C399.732 113.294 399.876 112.988 400.02 112.7C400.29 111.944 400.506 110.972 400.668 109.784H399.3V108.38H401.478L401.1 107.048H399.606V101.234H401.19C401.334 100.748 401.46 100.244 401.55 99.722L403.026 99.92C402.936 100.388 402.81 100.82 402.666 101.234H404.538V106.166C405.204 104.474 405.672 102.35 405.924 99.812L407.418 100.064C407.274 101.072 407.112 102.026 406.914 102.89H410.046V104.438H409.272ZM394.224 111.71L395.52 111.872C395.43 113.438 395.25 114.824 394.962 116.03L393.612 115.598C393.936 114.482 394.152 113.186 394.224 111.71ZM397.05 111.494C397.32 112.592 397.572 113.78 397.788 115.076L396.492 115.364C396.33 113.996 396.132 112.79 395.88 111.746L397.05 111.494ZM398.544 106.958C398.832 107.948 399.084 109.1 399.318 110.396L398.022 110.702C397.986 110.45 397.932 110.216 397.896 110C396.654 110.414 395.466 110.702 394.332 110.864L393.918 109.442C394.206 109.334 394.44 109.19 394.62 109.01C395.034 108.452 395.556 107.516 396.168 106.22L394.242 106.598L393.864 105.176C394.098 105.068 394.314 104.87 394.512 104.582C395.07 103.106 395.556 101.45 395.97 99.632L397.482 100.208C396.834 102.188 396.186 103.79 395.52 105.05L396.798 104.834C397.086 104.15 397.392 103.43 397.716 102.638L399.12 103.142C397.878 105.95 396.834 107.966 396.006 109.226C396.564 109.118 397.122 108.974 397.662 108.812C397.554 108.308 397.428 107.822 397.32 107.372L398.544 106.958ZM403.152 105.842V104.762H400.992V105.842H403.152ZM400.992 103.574H403.152V102.44H400.992V103.574ZM411.828 101.27H415.5V99.74H417.12V101.27H420.288V102.746H417.12V103.97H419.874V105.41H412.458V103.97H415.5V102.746H411.828V101.27ZM413.052 106.526H419.316V108.02H413.052V106.526ZM411.954 109.1H420.486V110.576H416.994V116.282H415.374V110.576H411.954V109.1ZM413.214 111.314L414.564 111.584C414.204 113.006 413.7 114.23 413.034 115.274L411.774 114.464C412.458 113.474 412.926 112.43 413.214 111.314ZM419.064 111.17C419.478 111.98 419.856 112.844 420.18 113.78L418.848 114.374C418.506 113.33 418.128 112.394 417.714 111.602L419.064 111.17ZM421.836 99.812L423.402 100.064C423.294 100.928 423.186 101.72 423.042 102.44H427.704V103.466C427.47 104.978 427.164 106.49 426.804 108.002L425.238 107.552C425.562 106.526 425.832 105.338 426.066 103.97H422.682C422.268 105.446 421.746 106.634 421.098 107.534L419.802 106.598C420.846 104.978 421.53 102.71 421.836 99.812ZM423.078 105.23H424.626C424.626 106.418 424.572 107.516 424.464 108.524C425.22 111.242 426.516 113.42 428.37 115.058L427.236 116.354C425.832 114.95 424.734 113.258 423.96 111.296C423.402 113.366 422.16 115.076 420.216 116.444L419.172 115.202C420.846 114.014 421.944 112.574 422.466 110.846C422.862 109.406 423.078 107.534 423.078 105.23ZM441.762 109.892C442.032 110.63 442.374 111.296 442.77 111.908C443.472 111.476 444.156 110.864 444.804 110.072L445.92 111.206C445.236 111.998 444.498 112.61 443.688 113.042C444.462 113.852 445.38 114.464 446.424 114.896L445.506 116.228C443.166 115.22 441.492 113.348 440.502 110.612L441.762 109.892ZM434.796 113.204H433.878V116.426H432.384V103.988H431.538V113.258H430.134V102.494H432.384V99.686H433.878V102.494H436.128V111.674C436.128 112.682 435.678 113.204 434.796 113.204ZM433.878 103.988V111.8L434.328 111.818C434.58 111.818 434.724 111.674 434.724 111.386V103.988H433.878ZM445.434 100.208V101.72H439.26V102.818H444.804V104.294H439.26V105.428H444.876V106.886H439.26V108.038H446.136V109.586H439.134V114.392C439.908 114.104 440.682 113.744 441.438 113.312L441.726 114.842C440.556 115.436 439.206 115.94 437.676 116.336L437.028 114.932C437.352 114.824 437.514 114.68 437.514 114.482V109.586H436.506V108.038H437.64V100.208H445.434ZM448.296 100.352H453.732V105.464H448.296V100.352ZM452.148 104.042V101.774H449.862V104.042H452.148ZM447.72 106.31H454.128V107.894H450.816C450.672 108.542 450.51 109.118 450.366 109.64H453.462C453.39 113.132 453.102 115.094 452.598 115.544C452.13 115.976 451.14 116.192 449.592 116.192H449.34L448.89 114.626C449.142 114.662 449.394 114.68 449.628 114.68C450.474 114.662 451.032 114.554 451.284 114.356C451.572 114.122 451.752 113.06 451.806 111.152H448.35C448.692 109.946 448.962 108.866 449.178 107.894H447.72V106.31ZM458.232 99.668H459.888V100.604H463.488V102.008H459.888V102.98H463.884V103.754C463.74 104.654 463.506 105.536 463.146 106.418L461.868 106.058L461.994 106.868L459.888 107.156V107.786C459.888 108.02 460.05 108.146 460.392 108.146H463.38V109.604H459.924C458.808 109.604 458.268 109.118 458.268 108.182V107.372L456.72 107.588L456.486 106.166L458.268 105.914V104.474H456.252V108.398C456.252 111.53 455.712 114.194 454.668 116.426L453.336 115.274C454.164 113.456 454.596 111.17 454.632 108.398V102.98H458.232V99.668ZM459.888 104.474V105.698L461.76 105.446L461.796 105.626C461.94 105.266 462.066 104.87 462.174 104.474H459.888ZM457.296 110.072H458.916C458.88 113.186 458.232 115.328 457.008 116.48L455.676 115.436C456.72 114.5 457.26 112.718 457.296 110.072ZM462.48 116.084H461.76C460.572 116.084 459.978 115.58 459.978 114.608V110.09H461.544V114.302C461.544 114.446 461.634 114.536 461.814 114.536H462.39C462.642 114.536 462.786 114.338 462.822 113.978C462.858 113.6 462.876 113.06 462.876 112.34L464.316 112.862C464.316 114.32 464.19 115.22 463.956 115.562C463.74 115.85 463.254 116.03 462.48 116.084ZM474.306 101.396C475.476 101.396 476.412 101.702 477.132 102.35C477.834 102.98 478.194 103.844 478.194 104.924C478.194 105.806 477.96 106.544 477.528 107.12C477.366 107.318 476.862 107.786 475.998 108.524C475.674 108.812 475.422 109.118 475.26 109.442C475.062 109.802 474.972 110.198 474.972 110.648V110.954H473.046V110.648C473.046 109.982 473.154 109.406 473.406 108.902C473.658 108.416 474.072 107.912 474.648 107.408C475.224 106.868 475.602 106.526 475.746 106.364C476.07 105.95 476.25 105.518 476.25 105.05C476.25 104.42 476.07 103.934 475.71 103.574C475.35 103.214 474.846 103.034 474.198 103.034C473.406 103.034 472.812 103.286 472.434 103.79C472.11 104.222 471.948 104.852 471.948 105.644H470.04C470.04 104.33 470.436 103.304 471.192 102.548C471.948 101.774 472.992 101.396 474.306 101.396ZM474 111.926C474.378 111.926 474.702 112.034 474.954 112.286C475.206 112.52 475.332 112.826 475.332 113.204C475.332 113.582 475.206 113.888 474.954 114.14C474.684 114.374 474.36 114.5 474 114.5C473.64 114.5 473.334 114.374 473.082 114.122C472.812 113.87 472.686 113.564 472.686 113.204C472.686 112.826 472.812 112.52 473.082 112.286C473.334 112.034 473.64 111.926 474 111.926Z" fill="black"/>
<g clip-path="url(#clip1_2795_411)">
<path d="M964.534 104.415L955.974 112.975L947.414 104.415" stroke="#4A4A4A" stroke-width="2" stroke-linecap="round" stroke-linejoin="round"/>
</g>
<rect y="160" width="1000" height="56" rx="4" fill="#EFEFEF"/>
<path d="M36.9241 181.648H38.4001V194.5H36.4381V184.006C35.6641 184.744 34.6741 185.284 33.4861 185.626V183.682C34.0621 183.538 34.6561 183.286 35.3041 182.926C35.9521 182.53 36.4921 182.116 36.9241 181.648ZM42.5438 191.926C42.9038 191.926 43.2278 192.052 43.4978 192.304C43.7498 192.556 43.8938 192.88 43.8938 193.276C43.8938 193.636 43.7498 193.96 43.4978 194.23C43.2278 194.464 42.9038 194.59 42.5438 194.59C42.1478 194.59 41.8418 194.464 41.6078 194.23C41.3378 193.96 41.2118 193.636 41.2118 193.276C41.2118 192.88 41.3378 192.556 41.6078 192.304C41.8418 192.052 42.1478 191.926 42.5438 191.926ZM52.242 182.908H59.136V179.794H60.864V182.908H67.74V184.546H62.214C63.402 187.246 65.454 189.676 68.37 191.8L67.2 193.276C64.194 190.684 62.088 187.768 60.882 184.546H60.864V191.17H64.572V192.808H60.864V196.354H59.136V192.808H55.572V191.17H59.136V184.546H59.118C57.822 188.182 55.626 191.17 52.566 193.51L51.576 191.908C54.42 190 56.49 187.534 57.786 184.546H52.242V182.908ZM76.56 180.748H85.344V182.422H76.56V180.748ZM76.11 185.248H86.118V186.922H83.31V194.554C83.31 195.706 82.662 196.282 81.384 196.282H78.774L78.396 194.608C79.224 194.68 80.034 194.716 80.79 194.716C81.312 194.716 81.582 194.518 81.582 194.14V186.922H76.11V185.248ZM73.5 179.866L75.066 180.586C74.094 182.566 72.474 184.33 70.17 185.914L69.648 184.204C71.394 182.962 72.672 181.522 73.5 179.866ZM74.346 183.988L75.894 184.708C75.408 185.68 74.796 186.598 74.058 187.462V196.354H72.384V189.136C71.736 189.694 71.052 190.234 70.296 190.756L69.792 189.064C71.844 187.624 73.374 185.932 74.346 183.988ZM90.906 191.062C90.69 191.386 90.492 191.674 90.294 191.944L89.862 191.422C89.628 193.33 89.268 194.95 88.782 196.282L87.702 195.148C88.314 193.186 88.638 190.468 88.674 187.012V180.676C91.212 180.64 93.48 180.388 95.46 179.938L96.198 181.288C94.398 181.648 92.382 181.846 90.15 181.918V182.71H96.126V186.202H90.15V187.012C90.132 188.092 90.078 189.082 90.006 190.018C90.564 189.064 91.068 187.894 91.5 186.49L92.832 186.778C92.706 187.156 92.58 187.516 92.454 187.858H93.624C93.48 187.444 93.336 187.066 93.192 186.706L94.542 186.49C94.686 186.904 94.848 187.354 94.992 187.858H96.54V189.154H94.992V190.072H96.252V191.332H94.992V192.304H96.288V193.564H94.992V194.464H96.648V195.094C97.584 194.482 98.376 193.798 99.024 193.006L100.086 193.942C99.402 194.842 98.538 195.634 97.53 196.318L96.648 195.202V195.778H92.238V196.336H90.906V191.062ZM90.15 184.942H94.578V183.97H90.15V184.942ZM92.238 194.464H93.696V193.564H92.238V194.464ZM93.696 192.304V191.332H92.238V192.304H93.696ZM93.696 190.072V189.154H92.238V190.072H93.696ZM97.206 183.322H99.222C99.366 182.836 99.474 182.35 99.546 181.846H96.72V180.37H104.172V181.846H101.202C101.112 182.35 101.004 182.854 100.878 183.322H103.704V192.988H102.012C102.966 193.726 103.776 194.464 104.46 195.22L103.38 196.282C102.768 195.526 101.94 194.734 100.896 193.888L101.85 192.988H97.206V183.322ZM102.12 191.548V190.27H98.79V191.548H102.12ZM98.79 188.884H102.12V187.516H98.79V188.884ZM98.79 186.13H102.12V184.762H98.79V186.13ZM119.454 190.558V196.408H117.78V195.724H110.526V196.408H108.87V190.558H119.454ZM110.526 194.176H117.78V192.088H110.526V194.176ZM111.498 182.674L113.172 183.034C112.956 183.358 112.722 183.682 112.506 183.988H118.95V185.356C118.302 186.292 117.366 187.12 116.106 187.84C117.942 188.488 119.976 188.866 122.208 188.992L121.83 190.54C118.986 190.378 116.466 189.784 114.27 188.758C112.182 189.64 109.518 190.342 106.314 190.882L105.666 189.37C108.402 188.974 110.688 188.452 112.524 187.822C111.768 187.354 111.084 186.832 110.436 186.274C109.77 186.85 109.068 187.39 108.33 187.858L107.232 186.544C108.888 185.608 110.31 184.33 111.498 182.674ZM114.324 187.102C115.368 186.598 116.232 186.058 116.88 185.446H111.66C112.488 186.094 113.37 186.634 114.324 187.102ZM121.47 180.946V184.582H119.742V182.476H108.258V184.582H106.53V180.946H112.956C112.776 180.586 112.596 180.226 112.38 179.902L114.27 179.614C114.45 180.01 114.63 180.442 114.81 180.946H121.47ZM139.29 181.216V195.562H137.634V194.464H134.484V195.562H132.81V181.216H139.29ZM134.484 192.808H137.634V182.872H134.484V192.808ZM126.762 179.65L128.49 179.794C128.31 180.874 128.112 181.9 127.932 182.836H131.622V183.808C131.478 186.724 130.83 189.244 129.66 191.368C130.668 192.106 131.496 192.772 132.144 193.366L130.956 194.77C130.344 194.158 129.606 193.51 128.742 192.826C127.77 194.158 126.564 195.31 125.142 196.282L124.008 194.86C125.376 193.996 126.528 192.97 127.428 191.782C126.528 191.062 125.52 190.324 124.404 189.532C124.944 187.984 125.412 186.31 125.844 184.51H123.918V182.836H126.204C126.402 181.792 126.582 180.73 126.762 179.65ZM128.328 190.396C129.264 188.686 129.84 186.724 130.02 184.51H127.59C127.194 186.31 126.762 187.804 126.312 189.01C127.032 189.496 127.716 189.964 128.328 190.396ZM147.084 180.73H158.244V182.386H156.966V194.41C156.966 195.67 156.336 196.3 155.112 196.3H152.07L151.692 194.626C152.682 194.698 153.618 194.734 154.518 194.734C154.986 194.734 155.238 194.482 155.238 193.978V182.386H147.084V180.73ZM147.39 184.708H153.402V191.692H147.39V184.708ZM151.746 190.144V186.256H149.028V190.144H151.746ZM145.428 179.596L146.958 180.316C146.544 181.648 146.022 182.908 145.374 184.132V196.39H143.7V186.778C143.196 187.426 142.674 188.074 142.116 188.686L141.558 186.85C143.304 184.78 144.6 182.368 145.428 179.596ZM162.528 186.418H167.208V182.872C165.804 184.528 163.608 185.878 160.638 186.958L159.72 185.446C162.366 184.726 164.382 183.844 165.75 182.8H160.584V181.216H167.208V179.704H168.864V181.216H175.488V182.8H168.864V183.178C171.582 183.898 174.048 184.672 176.244 185.5L175.146 186.724C173.094 185.842 171.006 185.068 168.864 184.384V186.418H173.544V193.222H162.528V186.418ZM171.888 191.71V190.576H164.184V191.71H171.888ZM164.184 189.136H171.888V187.93H164.184V189.136ZM160.224 194.302H175.794V195.868H160.224V194.302ZM179.862 195.292V196.354H178.26V189.784H183.354V196.066H181.788V195.292H179.862ZM181.788 193.744V191.296H179.862V193.744H181.788ZM177.9 181.9H180.132C179.88 181.288 179.628 180.694 179.34 180.136L180.96 179.686C181.32 180.496 181.572 181.234 181.752 181.9H183.696V183.484H177.9V181.9ZM178.476 184.582H183.138V186.076H178.476V184.582ZM178.476 187.084H183.138V188.56H178.476V187.084ZM184.956 185.77C184.758 185.986 184.578 186.202 184.398 186.4L183.39 185.086C184.74 183.61 185.658 181.792 186.126 179.632L187.782 179.866C187.656 180.424 187.512 180.964 187.332 181.468H193.704C193.704 188.308 193.614 192.538 193.434 194.14C193.254 195.544 192.39 196.246 190.86 196.246C190.464 196.246 189.798 196.21 188.826 196.156L188.412 194.59C189.258 194.644 189.996 194.68 190.608 194.68C191.328 194.68 191.742 194.23 191.85 193.366C191.958 192.358 192.03 188.92 192.066 183.052H186.702C186.396 183.664 186.054 184.258 185.694 184.798H190.374V193.348H184.956V185.77ZM188.826 191.908V189.73H186.54V191.908H188.826ZM186.54 188.344H188.826V186.256H186.54V188.344ZM199.734 182.836C199.464 183.25 199.194 183.646 198.924 184.024H210.318C210.282 185.554 210.228 186.904 210.192 188.092H212.37V189.694H210.138C210.084 190.702 210.048 191.566 210.012 192.268H211.866V193.852H209.904C209.85 194.284 209.814 194.554 209.778 194.68C209.616 195.256 209.31 195.67 208.86 195.922C208.41 196.192 207.744 196.336 206.88 196.336C206.232 196.336 205.476 196.354 204.63 196.354L204.126 194.788C205.062 194.824 205.89 194.86 206.628 194.86C206.988 194.86 207.312 194.806 207.582 194.734C207.852 194.626 208.05 194.392 208.194 194.032C208.194 193.996 208.212 193.924 208.23 193.852H197.826C198.078 192.448 198.294 191.062 198.456 189.694H195.666V188.092H198.618C198.744 186.76 198.816 185.428 198.852 184.114C198.24 184.924 197.592 185.644 196.908 186.274L195.81 184.942C197.25 183.646 198.474 181.864 199.518 179.578L201.246 179.974C201.048 180.406 200.85 180.802 200.652 181.198H211.488V182.836H199.734ZM202.668 189.766C204 190.198 205.224 190.702 206.34 191.314L205.71 192.268H208.356C208.392 191.584 208.428 190.72 208.464 189.694H200.166C200.058 190.612 199.95 191.476 199.806 192.268H205.044C204.018 191.674 202.974 191.206 201.912 190.882L202.668 189.766ZM200.31 188.092H204.972C204 187.552 203.01 187.12 202.038 186.778L202.794 185.662C204.126 186.094 205.332 186.616 206.448 187.246L205.89 188.092H208.518C208.554 187.318 208.572 186.49 208.608 185.608H200.454C200.418 186.472 200.364 187.3 200.31 188.092ZM218.832 186.31V189.136H226.122V186.31H218.832ZM226.122 184.708V182.008H218.832V184.708H226.122ZM218.742 190.72C218.508 193.024 217.824 194.932 216.69 196.462L215.376 195.256C216.51 193.672 217.086 191.656 217.122 189.208V180.37H227.85V194.464C227.85 195.616 227.256 196.192 226.104 196.192H223.8L223.332 194.518C224.124 194.554 224.862 194.59 225.546 194.59C225.924 194.59 226.122 194.338 226.122 193.87V190.72H218.742ZM244.392 186.526C244.608 187.57 244.896 188.542 245.238 189.46C245.598 187.984 245.796 186.31 245.832 184.438H244.518C244.23 185.374 243.924 186.22 243.564 186.976L244.392 186.526ZM247.272 184.438C247.2 187.21 246.822 189.568 246.12 191.53C246.768 192.826 247.542 193.978 248.442 195.004L247.362 196.246C246.606 195.346 245.94 194.338 245.382 193.258C244.77 194.41 244.05 195.382 243.204 196.192L242.358 194.842C243.294 193.996 244.032 192.898 244.59 191.53C244.068 190.27 243.654 188.92 243.33 187.444L242.916 188.164L242.106 187.156L242.16 187.048H240.63L241.008 188.38H242.916V189.784H240.144C240.09 190.18 240.036 190.576 239.964 190.936H242.556C242.556 193.312 242.412 194.752 242.124 195.292C241.854 195.796 241.368 196.048 240.666 196.084H239.37L238.956 194.716H240.288C240.594 194.68 240.792 194.536 240.9 194.284C240.972 193.996 241.008 193.33 241.026 192.304H239.676C239.568 192.7 239.46 193.042 239.352 193.366C238.92 194.41 238.272 195.364 237.408 196.192L236.49 195.004C236.868 194.608 237.192 194.194 237.462 193.762L236.49 194.23C236.202 193.15 235.896 192.214 235.572 191.386L236.634 191.026C236.994 191.818 237.3 192.682 237.552 193.6C237.732 193.294 237.876 192.988 238.02 192.7C238.29 191.944 238.506 190.972 238.668 189.784H237.3V188.38H239.478L239.1 187.048H237.606V181.234H239.19C239.334 180.748 239.46 180.244 239.55 179.722L241.026 179.92C240.936 180.388 240.81 180.82 240.666 181.234H242.538V186.166C243.204 184.474 243.672 182.35 243.924 179.812L245.418 180.064C245.274 181.072 245.112 182.026 244.914 182.89H248.046V184.438H247.272ZM232.224 191.71L233.52 191.872C233.43 193.438 233.25 194.824 232.962 196.03L231.612 195.598C231.936 194.482 232.152 193.186 232.224 191.71ZM235.05 191.494C235.32 192.592 235.572 193.78 235.788 195.076L234.492 195.364C234.33 193.996 234.132 192.79 233.88 191.746L235.05 191.494ZM236.544 186.958C236.832 187.948 237.084 189.1 237.318 190.396L236.022 190.702C235.986 190.45 235.932 190.216 235.896 190C234.654 190.414 233.466 190.702 232.332 190.864L231.918 189.442C232.206 189.334 232.44 189.19 232.62 189.01C233.034 188.452 233.556 187.516 234.168 186.22L232.242 186.598L231.864 185.176C232.098 185.068 232.314 184.87 232.512 184.582C233.07 183.106 233.556 181.45 233.97 179.632L235.482 180.208C234.834 182.188 234.186 183.79 233.52 185.05L234.798 184.834C235.086 184.15 235.392 183.43 235.716 182.638L237.12 183.142C235.878 185.95 234.834 187.966 234.006 189.226C234.564 189.118 235.122 188.974 235.662 188.812C235.554 188.308 235.428 187.822 235.32 187.372L236.544 186.958ZM241.152 185.842V184.762H238.992V185.842H241.152ZM238.992 183.574H241.152V182.44H238.992V183.574ZM249.828 181.27H253.5V179.74H255.12V181.27H258.288V182.746H255.12V183.97H257.874V185.41H250.458V183.97H253.5V182.746H249.828V181.27ZM251.052 186.526H257.316V188.02H251.052V186.526ZM249.954 189.1H258.486V190.576H254.994V196.282H253.374V190.576H249.954V189.1ZM251.214 191.314L252.564 191.584C252.204 193.006 251.7 194.23 251.034 195.274L249.774 194.464C250.458 193.474 250.926 192.43 251.214 191.314ZM257.064 191.17C257.478 191.98 257.856 192.844 258.18 193.78L256.848 194.374C256.506 193.33 256.128 192.394 255.714 191.602L257.064 191.17ZM259.836 179.812L261.402 180.064C261.294 180.928 261.186 181.72 261.042 182.44H265.704V183.466C265.47 184.978 265.164 186.49 264.804 188.002L263.238 187.552C263.562 186.526 263.832 185.338 264.066 183.97H260.682C260.268 185.446 259.746 186.634 259.098 187.534L257.802 186.598C258.846 184.978 259.53 182.71 259.836 179.812ZM261.078 185.23H262.626C262.626 186.418 262.572 187.516 262.464 188.524C263.22 191.242 264.516 193.42 266.37 195.058L265.236 196.354C263.832 194.95 262.734 193.258 261.96 191.296C261.402 193.366 260.16 195.076 258.216 196.444L257.172 195.202C258.846 194.014 259.944 192.574 260.466 190.846C260.862 189.406 261.078 187.534 261.078 185.23ZM281.94 180.352V196.264H280.23V195.004H272.112V196.282H270.402V180.352H281.94ZM272.112 193.33H280.23V188.326H272.112V193.33ZM272.112 186.652H280.23V182.008H272.112V186.652ZM292.614 185.644C293.37 186.184 294.108 186.796 294.792 187.498C295.368 188.092 295.908 188.74 296.412 189.424L295.224 190.396C294.756 189.712 294.234 189.082 293.658 188.47C293.01 187.786 292.326 187.156 291.588 186.58L292.614 185.644ZM308.364 187.336C308.058 187.642 307.734 187.948 307.41 188.236L306.924 186.634C308.166 185.482 309.084 184.15 309.678 182.638L311.064 183.268C310.776 183.988 310.416 184.69 309.984 185.356V191.296H308.364V187.336ZM319.83 180.874V182.476H306.744V186.868C306.69 190.774 306.132 193.906 305.052 196.264L303.756 195.112C304.584 193.132 305.016 190.396 305.052 186.868V180.874H311.874C311.694 180.55 311.496 180.244 311.298 179.974L313.134 179.686C313.314 180.046 313.494 180.442 313.674 180.874H319.83ZM307.86 191.98L309.354 192.286C309.03 193.726 308.598 194.968 308.022 196.012L306.672 195.148C307.23 194.158 307.626 193.096 307.86 191.98ZM315.276 196.156H311.748C310.632 196.156 310.092 195.598 310.092 194.518V191.764H311.712V194.194C311.712 194.464 311.892 194.608 312.252 194.608H314.988C315.312 194.608 315.546 194.536 315.69 194.41C315.87 194.266 315.996 193.798 316.068 193.042L317.544 193.528C317.4 194.788 317.148 195.562 316.788 195.814C316.464 196.03 315.96 196.156 315.276 196.156ZM318.264 191.476C319.164 192.7 319.866 193.762 320.37 194.698L319.038 195.616C318.516 194.608 317.814 193.492 316.95 192.268L318.264 191.476ZM313.62 191.44C314.304 192.16 314.826 192.808 315.204 193.348L313.944 194.23C313.548 193.618 313.026 192.934 312.378 192.214L313.62 191.44ZM313.278 187.138V187.912H315.456V187.138H313.278ZM313.278 189.082V189.928H315.456V189.082H313.278ZM316.968 189.928H319.722V191.224H311.766V187.282C311.478 187.642 311.172 188.002 310.866 188.344L310.362 186.724C311.406 185.482 312.126 184.132 312.558 182.674L314.052 182.962C313.944 183.268 313.854 183.574 313.746 183.862H315.402C315.24 183.52 315.078 183.214 314.898 182.944L316.5 182.692C316.662 183.052 316.824 183.43 316.986 183.862H319.542V185.158H316.968V185.986H319.254V187.138H316.968V187.912H319.254V189.082H316.968V189.928ZM315.456 185.158H313.278V185.986H315.456V185.158ZM334.392 186.526C334.608 187.57 334.896 188.542 335.238 189.46C335.598 187.984 335.796 186.31 335.832 184.438H334.518C334.23 185.374 333.924 186.22 333.564 186.976L334.392 186.526ZM337.272 184.438C337.2 187.21 336.822 189.568 336.12 191.53C336.768 192.826 337.542 193.978 338.442 195.004L337.362 196.246C336.606 195.346 335.94 194.338 335.382 193.258C334.77 194.41 334.05 195.382 333.204 196.192L332.358 194.842C333.294 193.996 334.032 192.898 334.59 191.53C334.068 190.27 333.654 188.92 333.33 187.444L332.916 188.164L332.106 187.156L332.16 187.048H330.63L331.008 188.38H332.916V189.784H330.144C330.09 190.18 330.036 190.576 329.964 190.936H332.556C332.556 193.312 332.412 194.752 332.124 195.292C331.854 195.796 331.368 196.048 330.666 196.084H329.37L328.956 194.716H330.288C330.594 194.68 330.792 194.536 330.9 194.284C330.972 193.996 331.008 193.33 331.026 192.304H329.676C329.568 192.7 329.46 193.042 329.352 193.366C328.92 194.41 328.272 195.364 327.408 196.192L326.49 195.004C326.868 194.608 327.192 194.194 327.462 193.762L326.49 194.23C326.202 193.15 325.896 192.214 325.572 191.386L326.634 191.026C326.994 191.818 327.3 192.682 327.552 193.6C327.732 193.294 327.876 192.988 328.02 192.7C328.29 191.944 328.506 190.972 328.668 189.784H327.3V188.38H329.478L329.1 187.048H327.606V181.234H329.19C329.334 180.748 329.46 180.244 329.55 179.722L331.026 179.92C330.936 180.388 330.81 180.82 330.666 181.234H332.538V186.166C333.204 184.474 333.672 182.35 333.924 179.812L335.418 180.064C335.274 181.072 335.112 182.026 334.914 182.89H338.046V184.438H337.272ZM322.224 191.71L323.52 191.872C323.43 193.438 323.25 194.824 322.962 196.03L321.612 195.598C321.936 194.482 322.152 193.186 322.224 191.71ZM325.05 191.494C325.32 192.592 325.572 193.78 325.788 195.076L324.492 195.364C324.33 193.996 324.132 192.79 323.88 191.746L325.05 191.494ZM326.544 186.958C326.832 187.948 327.084 189.1 327.318 190.396L326.022 190.702C325.986 190.45 325.932 190.216 325.896 190C324.654 190.414 323.466 190.702 322.332 190.864L321.918 189.442C322.206 189.334 322.44 189.19 322.62 189.01C323.034 188.452 323.556 187.516 324.168 186.22L322.242 186.598L321.864 185.176C322.098 185.068 322.314 184.87 322.512 184.582C323.07 183.106 323.556 181.45 323.97 179.632L325.482 180.208C324.834 182.188 324.186 183.79 323.52 185.05L324.798 184.834C325.086 184.15 325.392 183.43 325.716 182.638L327.12 183.142C325.878 185.95 324.834 187.966 324.006 189.226C324.564 189.118 325.122 188.974 325.662 188.812C325.554 188.308 325.428 187.822 325.32 187.372L326.544 186.958ZM331.152 185.842V184.762H328.992V185.842H331.152ZM328.992 183.574H331.152V182.44H328.992V183.574ZM343.23 185.158C342.438 185.626 341.61 186.058 340.746 186.454L339.756 185.032C342.87 183.664 345.39 181.918 347.334 179.794H348.702C350.376 181.882 352.878 183.61 356.226 184.996L355.254 186.418C354.39 186.058 353.562 185.662 352.806 185.23V186.166H348.864V188.344H355.128V189.928H348.864V194.338H350.556C351.114 193.222 351.6 192.016 352.032 190.738L353.58 191.296C353.184 192.43 352.752 193.438 352.284 194.338H355.758V195.958H340.26V194.338H343.788C343.446 193.312 343.014 192.34 342.51 191.422L344.04 190.864C344.544 191.836 345.012 192.988 345.444 194.338H347.172V189.928H340.89V188.344H347.172V186.166H343.23V185.158ZM351.816 184.636C350.34 183.7 349.08 182.62 348.018 181.396C346.83 182.62 345.516 183.7 344.076 184.636H351.816ZM359.718 187.138C359.376 187.498 358.998 187.84 358.602 188.164L357.738 187.03C359.034 185.986 359.934 184.726 360.42 183.25L361.86 183.466C361.77 183.754 361.68 184.042 361.572 184.294H364.686V185.446C364.272 186.346 363.804 187.156 363.264 187.84C364.272 188.506 365.154 189.172 365.946 189.838L364.812 190.972C364.722 190.882 364.632 190.81 364.56 190.738V196.174H363.048V195.292H360.366V196.264H358.872V191.008C358.692 191.062 358.53 191.116 358.368 191.17L357.684 189.802C358.998 189.46 360.132 188.866 361.086 188.038C360.636 187.732 360.186 187.426 359.718 187.138ZM362.31 188.902C361.644 189.514 360.924 190.036 360.15 190.45H364.254C363.678 189.928 363.03 189.406 362.31 188.902ZM362.058 187.03C362.418 186.598 362.742 186.13 363.03 185.626H360.906C360.798 185.806 360.69 185.968 360.582 186.112C361.104 186.418 361.59 186.724 362.058 187.03ZM360.366 193.852H363.048V191.854H360.366V193.852ZM365.532 181.252V184.276H364.056V182.674H359.484V184.276H358.008V181.252H360.978C360.834 180.802 360.672 180.388 360.492 179.992L362.166 179.722C362.31 180.19 362.454 180.694 362.598 181.252H365.532ZM366.378 183.196H368.88C368.934 182.764 368.97 182.314 369.006 181.864H365.838V180.352H374.046V181.864H370.68C370.644 182.332 370.608 182.764 370.554 183.196H373.452V192.736H366.378V183.196ZM371.886 191.26V189.892H367.926V191.26H371.886ZM367.926 188.542H371.886V187.282H367.926V188.542ZM367.926 185.914H371.886V184.6H367.926V185.914ZM368.142 192.772L369.312 193.798C368.52 194.806 367.53 195.706 366.378 196.48L365.37 195.184C366.468 194.5 367.386 193.69 368.142 192.772ZM371.688 192.754C372.75 193.582 373.65 194.41 374.37 195.238L373.218 196.372C372.606 195.562 371.742 194.698 370.626 193.78L371.688 192.754ZM382.614 185.644C383.37 186.184 384.108 186.796 384.792 187.498C385.368 188.092 385.908 188.74 386.412 189.424L385.224 190.396C384.756 189.712 384.234 189.082 383.658 188.47C383.01 187.786 382.326 187.156 381.588 186.58L382.614 185.644ZM406.392 186.526C406.608 187.57 406.896 188.542 407.238 189.46C407.598 187.984 407.796 186.31 407.832 184.438H406.518C406.23 185.374 405.924 186.22 405.564 186.976L406.392 186.526ZM409.272 184.438C409.2 187.21 408.822 189.568 408.12 191.53C408.768 192.826 409.542 193.978 410.442 195.004L409.362 196.246C408.606 195.346 407.94 194.338 407.382 193.258C406.77 194.41 406.05 195.382 405.204 196.192L404.358 194.842C405.294 193.996 406.032 192.898 406.59 191.53C406.068 190.27 405.654 188.92 405.33 187.444L404.916 188.164L404.106 187.156L404.16 187.048H402.63L403.008 188.38H404.916V189.784H402.144C402.09 190.18 402.036 190.576 401.964 190.936H404.556C404.556 193.312 404.412 194.752 404.124 195.292C403.854 195.796 403.368 196.048 402.666 196.084H401.37L400.956 194.716H402.288C402.594 194.68 402.792 194.536 402.9 194.284C402.972 193.996 403.008 193.33 403.026 192.304H401.676C401.568 192.7 401.46 193.042 401.352 193.366C400.92 194.41 400.272 195.364 399.408 196.192L398.49 195.004C398.868 194.608 399.192 194.194 399.462 193.762L398.49 194.23C398.202 193.15 397.896 192.214 397.572 191.386L398.634 191.026C398.994 191.818 399.3 192.682 399.552 193.6C399.732 193.294 399.876 192.988 400.02 192.7C400.29 191.944 400.506 190.972 400.668 189.784H399.3V188.38H401.478L401.1 187.048H399.606V181.234H401.19C401.334 180.748 401.46 180.244 401.55 179.722L403.026 179.92C402.936 180.388 402.81 180.82 402.666 181.234H404.538V186.166C405.204 184.474 405.672 182.35 405.924 179.812L407.418 180.064C407.274 181.072 407.112 182.026 406.914 182.89H410.046V184.438H409.272ZM394.224 191.71L395.52 191.872C395.43 193.438 395.25 194.824 394.962 196.03L393.612 195.598C393.936 194.482 394.152 193.186 394.224 191.71ZM397.05 191.494C397.32 192.592 397.572 193.78 397.788 195.076L396.492 195.364C396.33 193.996 396.132 192.79 395.88 191.746L397.05 191.494ZM398.544 186.958C398.832 187.948 399.084 189.1 399.318 190.396L398.022 190.702C397.986 190.45 397.932 190.216 397.896 190C396.654 190.414 395.466 190.702 394.332 190.864L393.918 189.442C394.206 189.334 394.44 189.19 394.62 189.01C395.034 188.452 395.556 187.516 396.168 186.22L394.242 186.598L393.864 185.176C394.098 185.068 394.314 184.87 394.512 184.582C395.07 183.106 395.556 181.45 395.97 179.632L397.482 180.208C396.834 182.188 396.186 183.79 395.52 185.05L396.798 184.834C397.086 184.15 397.392 183.43 397.716 182.638L399.12 183.142C397.878 185.95 396.834 187.966 396.006 189.226C396.564 189.118 397.122 188.974 397.662 188.812C397.554 188.308 397.428 187.822 397.32 187.372L398.544 186.958ZM403.152 185.842V184.762H400.992V185.842H403.152ZM400.992 183.574H403.152V182.44H400.992V183.574ZM411.828 181.27H415.5V179.74H417.12V181.27H420.288V182.746H417.12V183.97H419.874V185.41H412.458V183.97H415.5V182.746H411.828V181.27ZM413.052 186.526H419.316V188.02H413.052V186.526ZM411.954 189.1H420.486V190.576H416.994V196.282H415.374V190.576H411.954V189.1ZM413.214 191.314L414.564 191.584C414.204 193.006 413.7 194.23 413.034 195.274L411.774 194.464C412.458 193.474 412.926 192.43 413.214 191.314ZM419.064 191.17C419.478 191.98 419.856 192.844 420.18 193.78L418.848 194.374C418.506 193.33 418.128 192.394 417.714 191.602L419.064 191.17ZM421.836 179.812L423.402 180.064C423.294 180.928 423.186 181.72 423.042 182.44H427.704V183.466C427.47 184.978 427.164 186.49 426.804 188.002L425.238 187.552C425.562 186.526 425.832 185.338 426.066 183.97H422.682C422.268 185.446 421.746 186.634 421.098 187.534L419.802 186.598C420.846 184.978 421.53 182.71 421.836 179.812ZM423.078 185.23H424.626C424.626 186.418 424.572 187.516 424.464 188.524C425.22 191.242 426.516 193.42 428.37 195.058L427.236 196.354C425.832 194.95 424.734 193.258 423.96 191.296C423.402 193.366 422.16 195.076 420.216 196.444L419.172 195.202C420.846 194.014 421.944 192.574 422.466 190.846C422.862 189.406 423.078 187.534 423.078 185.23ZM441.762 189.892C442.032 190.63 442.374 191.296 442.77 191.908C443.472 191.476 444.156 190.864 444.804 190.072L445.92 191.206C445.236 191.998 444.498 192.61 443.688 193.042C444.462 193.852 445.38 194.464 446.424 194.896L445.506 196.228C443.166 195.22 441.492 193.348 440.502 190.612L441.762 189.892ZM434.796 193.204H433.878V196.426H432.384V183.988H431.538V193.258H430.134V182.494H432.384V179.686H433.878V182.494H436.128V191.674C436.128 192.682 435.678 193.204 434.796 193.204ZM433.878 183.988V191.8L434.328 191.818C434.58 191.818 434.724 191.674 434.724 191.386V183.988H433.878ZM445.434 180.208V181.72H439.26V182.818H444.804V184.294H439.26V185.428H444.876V186.886H439.26V188.038H446.136V189.586H439.134V194.392C439.908 194.104 440.682 193.744 441.438 193.312L441.726 194.842C440.556 195.436 439.206 195.94 437.676 196.336L437.028 194.932C437.352 194.824 437.514 194.68 437.514 194.482V189.586H436.506V188.038H437.64V180.208H445.434ZM448.296 180.352H453.732V185.464H448.296V180.352ZM452.148 184.042V181.774H449.862V184.042H452.148ZM447.72 186.31H454.128V187.894H450.816C450.672 188.542 450.51 189.118 450.366 189.64H453.462C453.39 193.132 453.102 195.094 452.598 195.544C452.13 195.976 451.14 196.192 449.592 196.192H449.34L448.89 194.626C449.142 194.662 449.394 194.68 449.628 194.68C450.474 194.662 451.032 194.554 451.284 194.356C451.572 194.122 451.752 193.06 451.806 191.152H448.35C448.692 189.946 448.962 188.866 449.178 187.894H447.72V186.31ZM458.232 179.668H459.888V180.604H463.488V182.008H459.888V182.98H463.884V183.754C463.74 184.654 463.506 185.536 463.146 186.418L461.868 186.058L461.994 186.868L459.888 187.156V187.786C459.888 188.02 460.05 188.146 460.392 188.146H463.38V189.604H459.924C458.808 189.604 458.268 189.118 458.268 188.182V187.372L456.72 187.588L456.486 186.166L458.268 185.914V184.474H456.252V188.398C456.252 191.53 455.712 194.194 454.668 196.426L453.336 195.274C454.164 193.456 454.596 191.17 454.632 188.398V182.98H458.232V179.668ZM459.888 184.474V185.698L461.76 185.446L461.796 185.626C461.94 185.266 462.066 184.87 462.174 184.474H459.888ZM457.296 190.072H458.916C458.88 193.186 458.232 195.328 457.008 196.48L455.676 195.436C456.72 194.5 457.26 192.718 457.296 190.072ZM462.48 196.084H461.76C460.572 196.084 459.978 195.58 459.978 194.608V190.09H461.544V194.302C461.544 194.446 461.634 194.536 461.814 194.536H462.39C462.642 194.536 462.786 194.338 462.822 193.978C462.858 193.6 462.876 193.06 462.876 192.34L464.316 192.862C464.316 194.32 464.19 195.22 463.956 195.562C463.74 195.85 463.254 196.03 462.48 196.084ZM474.306 181.396C475.476 181.396 476.412 181.702 477.132 182.35C477.834 182.98 478.194 183.844 478.194 184.924C478.194 185.806 477.96 186.544 477.528 187.12C477.366 187.318 476.862 187.786 475.998 188.524C475.674 188.812 475.422 189.118 475.26 189.442C475.062 189.802 474.972 190.198 474.972 190.648V190.954H473.046V190.648C473.046 189.982 473.154 189.406 473.406 188.902C473.658 188.416 474.072 187.912 474.648 187.408C475.224 186.868 475.602 186.526 475.746 186.364C476.07 185.95 476.25 185.518 476.25 185.05C476.25 184.42 476.07 183.934 475.71 183.574C475.35 183.214 474.846 183.034 474.198 183.034C473.406 183.034 472.812 183.286 472.434 183.79C472.11 184.222 471.948 184.852 471.948 185.644H470.04C470.04 184.33 470.436 183.304 471.192 182.548C471.948 181.774 472.992 181.396 474.306 181.396ZM474 191.926C474.378 191.926 474.702 192.034 474.954 192.286C475.206 192.52 475.332 192.826 475.332 193.204C475.332 193.582 475.206 193.888 474.954 194.14C474.684 194.374 474.36 194.5 474 194.5C473.64 194.5 473.334 194.374 473.082 194.122C472.812 193.87 472.686 193.564 472.686 193.204C472.686 192.826 472.812 192.52 473.082 192.286C473.334 192.034 473.64 191.926 474 191.926Z" fill="black"/>
<g clip-path="url(#clip2_2795_411)">
<path d="M964.534 184.415L955.974 192.975L947.414 184.415" stroke="#4A4A4A" stroke-width="2" stroke-linecap="round" stroke-linejoin="round"/>
</g>
<path d="M999.873 80V56" stroke="#C92E34"/>
<path d="M997.748 56H1002" stroke="#C92E34"/>
<path d="M997.748 80H1002" stroke="#C92E34"/>
<path d="M997.748 80H1002" stroke="#C92E34"/>
<path d="M0.183197 80L998.183 80" stroke="#C92E34" stroke-dasharray="1 1"/>
<path d="M0.183197 56L998.183 56" stroke="#C92E34" stroke-dasharray="1 1"/>
<path d="M999.873 160V136" stroke="#C92E34"/>
<path d="M997.748 136H1002" stroke="#C92E34"/>
<path d="M997.748 160H1002" stroke="#C92E34"/>
<path d="M997.748 160H1002" stroke="#C92E34"/>
<path d="M0.183197 160L998.183 160" stroke="#C92E34" stroke-dasharray="1 1"/>
<path d="M0.183197 136H998.183" stroke="#C92E34" stroke-dasharray="1 1"/>
<path d="M1009.44 73C1009.48 72.1569 1009.66 71.4232 1009.96 70.7988C1010.26 70.1745 1010.85 69.6071 1011.73 69.0967L1013.05 68.3379C1013.63 67.9961 1014.05 67.7044 1014.28 67.4629C1014.66 67.0846 1014.84 66.6517 1014.84 66.1641C1014.84 65.5944 1014.67 65.1432 1014.33 64.8105C1013.99 64.4733 1013.53 64.3047 1012.96 64.3047C1012.12 64.3047 1011.54 64.6237 1011.21 65.2617C1011.04 65.6035 1010.95 66.0775 1010.93 66.6836H1009.68C1009.69 65.8314 1009.85 65.1364 1010.15 64.5986C1010.68 63.6507 1011.62 63.1768 1012.97 63.1768C1014.09 63.1768 1014.91 63.4798 1015.43 64.0859C1015.95 64.6921 1016.21 65.3665 1016.21 66.1094C1016.21 66.8932 1015.93 67.5632 1015.38 68.1191C1015.06 68.4427 1014.49 68.8346 1013.66 69.2949L1012.73 69.8145C1012.28 70.0605 1011.93 70.2952 1011.67 70.5186C1011.22 70.915 1010.93 71.3548 1010.81 71.8379H1016.16V73H1009.44ZM1021.42 69.5342V65.0977L1018.28 69.5342H1021.42ZM1021.44 73V70.6074H1017.15V69.4043L1021.63 63.1836H1022.67V69.5342H1024.11V70.6074H1022.67V73H1021.44ZM1032.47 72.1729C1033.05 72.1729 1033.53 71.9336 1033.9 71.4551C1034.29 70.972 1034.48 70.252 1034.48 69.2949C1034.48 68.7116 1034.39 68.2103 1034.22 67.791C1033.91 66.9844 1033.32 66.5811 1032.47 66.5811C1031.62 66.5811 1031.04 67.0072 1030.72 67.8594C1030.56 68.3151 1030.47 68.8939 1030.47 69.5957C1030.47 70.1608 1030.56 70.6416 1030.72 71.0381C1031.04 71.7946 1031.63 72.1729 1032.47 72.1729ZM1029.29 65.7129H1030.49V66.6836C1030.73 66.3509 1031 66.0934 1031.29 65.9111C1031.71 65.6377 1032.19 65.501 1032.75 65.501C1033.58 65.501 1034.29 65.82 1034.87 66.458C1035.45 67.0915 1035.74 67.9984 1035.74 69.1787C1035.74 70.7738 1035.32 71.9131 1034.48 72.5967C1033.96 73.0296 1033.34 73.2461 1032.64 73.2461C1032.09 73.2461 1031.62 73.1253 1031.25 72.8838C1031.03 72.7471 1030.79 72.5124 1030.52 72.1797V75.9189H1029.29V65.7129ZM1036.48 65.6787H1038.07L1039.75 68.2559L1041.46 65.6787L1042.95 65.7129L1040.49 69.2471L1043.06 73H1041.49L1039.67 70.252L1037.91 73H1036.35L1038.93 69.2471L1036.48 65.6787Z" fill="#C92E34"/>
<path d="M1009.44 153C1009.48 152.157 1009.66 151.423 1009.96 150.799C1010.26 150.174 1010.85 149.607 1011.73 149.097L1013.05 148.338C1013.63 147.996 1014.05 147.704 1014.28 147.463C1014.66 147.085 1014.84 146.652 1014.84 146.164C1014.84 145.594 1014.67 145.143 1014.33 144.811C1013.99 144.473 1013.53 144.305 1012.96 144.305C1012.12 144.305 1011.54 144.624 1011.21 145.262C1011.04 145.604 1010.95 146.077 1010.93 146.684H1009.68C1009.69 145.831 1009.85 145.136 1010.15 144.599C1010.68 143.651 1011.62 143.177 1012.97 143.177C1014.09 143.177 1014.91 143.48 1015.43 144.086C1015.95 144.692 1016.21 145.367 1016.21 146.109C1016.21 146.893 1015.93 147.563 1015.38 148.119C1015.06 148.443 1014.49 148.835 1013.66 149.295L1012.73 149.814C1012.28 150.061 1011.93 150.295 1011.67 150.519C1011.22 150.915 1010.93 151.355 1010.81 151.838H1016.16V153H1009.44ZM1021.42 149.534V145.098L1018.28 149.534H1021.42ZM1021.44 153V150.607H1017.15V149.404L1021.63 143.184H1022.67V149.534H1024.11V150.607H1022.67V153H1021.44ZM1032.47 152.173C1033.05 152.173 1033.53 151.934 1033.9 151.455C1034.29 150.972 1034.48 150.252 1034.48 149.295C1034.48 148.712 1034.39 148.21 1034.22 147.791C1033.91 146.984 1033.32 146.581 1032.47 146.581C1031.62 146.581 1031.04 147.007 1030.72 147.859C1030.56 148.315 1030.47 148.894 1030.47 149.596C1030.47 150.161 1030.56 150.642 1030.72 151.038C1031.04 151.795 1031.63 152.173 1032.47 152.173ZM1029.29 145.713H1030.49V146.684C1030.73 146.351 1031 146.093 1031.29 145.911C1031.71 145.638 1032.19 145.501 1032.75 145.501C1033.58 145.501 1034.29 145.82 1034.87 146.458C1035.45 147.091 1035.74 147.998 1035.74 149.179C1035.74 150.774 1035.32 151.913 1034.48 152.597C1033.96 153.03 1033.34 153.246 1032.64 153.246C1032.09 153.246 1031.62 153.125 1031.25 152.884C1031.03 152.747 1030.79 152.512 1030.52 152.18V155.919H1029.29V145.713ZM1036.48 145.679H1038.07L1039.75 148.256L1041.46 145.679L1042.95 145.713L1040.49 149.247L1043.06 153H1041.49L1039.67 150.252L1037.91 153H1036.35L1038.93 149.247L1036.48 145.679Z" fill="#C92E34"/>
<defs>
<clipPath id="clip0_2795_411">
<rect width="19.949" height="10.975" fill="white" transform="translate(946 23)"/>
</clipPath>
<clipPath id="clip1_2795_411">
<rect width="19.949" height="10.975" fill="white" transform="translate(946 103)"/>
</clipPath>
<clipPath id="clip2_2795_411">
<rect width="19.949" height="10.975" fill="white" transform="translate(946 183)"/>
</clipPath>
</defs>
</svg>
