<svg width="400" height="234" viewBox="0 0 400 234" fill="none" xmlns="http://www.w3.org/2000/svg">
<rect y="40" width="361" height="194" rx="8" fill="#F4F8FA"/>
<path d="M121.98 86.28H128.48V87.78C127.88 89.5 127.18 91.3 126.38 93.2C127.64 95.04 128.32 96.64 128.4 98.02C128.4 98.94 128.2 99.62 127.8 100.02C127.2 100.54 126.18 100.8 124.7 100.8L124.08 98.88C124.48 98.94 124.82 98.98 125.1 98.98C125.66 98.94 126.02 98.86 126.22 98.74C126.4 98.6 126.5 98.36 126.5 98.02C126.5 96.66 125.82 95.16 124.46 93.48C125.36 91.48 126.06 89.66 126.58 88.06H123.84V104.08H121.98V86.28ZM131.02 91.62V93.46H136.32V91.62H131.02ZM136.32 89.92V88.06H131.02V89.92H136.32ZM138.16 95.82L139.38 97.04C138.54 98.04 137.58 98.82 136.54 99.38C137.46 100.58 138.58 101.52 139.86 102.24L138.76 103.86C136.24 102.36 134.42 100.02 133.28 96.84L134.7 96.04C134.98 96.76 135.28 97.42 135.64 98.04C136.52 97.52 137.36 96.78 138.16 95.82ZM131.02 95.2V101.42C132.1 101.1 133.16 100.7 134.2 100.22L134.66 101.98C133.2 102.58 131.36 103.18 129.12 103.76L128.66 102.1C128.98 101.98 129.16 101.8 129.16 101.54V86.26H138.18V95.2H131.02ZM153.2 85.72H155.04V87.6H159.62V89.34H155.04V91.22H158.86V92.98H149.3V91.22H153.2V89.34H148.52V87.6H153.2V85.72ZM148.92 95.04H155.46V93.64H157.3V95.04H159.62V96.82H157.3V101.78C157.3 103.2 156.62 103.92 155.3 103.92H152.86L152.46 102.12C153.22 102.2 153.96 102.26 154.66 102.26C155.18 102.26 155.46 101.94 155.46 101.32V96.82H148.92V95.04ZM150.66 97.34C151.72 98.48 152.54 99.48 153.12 100.34L151.62 101.38C151.02 100.44 150.2 99.4 149.18 98.26L150.66 97.34ZM147.88 86.98V101.96H146.08V100.7H143.76V102.44H141.94V86.98H147.88ZM143.76 98.96H146.08V94.62H143.76V98.96ZM143.76 92.9H146.08V88.7H143.76V92.9ZM168.98 97.76C169.2 98 169.44 98.24 169.68 98.48C170.08 98.18 170.46 97.86 170.82 97.5C170.34 97.3 170.1 96.94 170.1 96.4V94.7H171.7V96.06C171.7 96.3 171.84 96.42 172.14 96.42H174.16C174.4 96.42 174.58 96.36 174.7 96.26C174.86 96.16 174.96 95.84 175.02 95.28L176.08 95.62L176.94 94.8C177.86 95.52 178.64 96.22 179.26 96.94L178.2 98C177.76 97.38 177.16 96.74 176.44 96.08C176.3 96.8 176.1 97.24 175.82 97.4C175.5 97.56 175.04 97.66 174.42 97.66H172.58C172.38 97.9 172.18 98.1 172.02 98.3H177.54V99.56C176.98 100.36 176.14 101.06 175.04 101.68C176.5 102.16 178.1 102.44 179.82 102.52L179.4 104.08C177.04 103.94 174.94 103.44 173.06 102.6C171.38 103.22 169.34 103.74 166.9 104.14L166.24 102.62C168.18 102.34 169.86 102.02 171.26 101.62C170.66 101.22 170.08 100.8 169.56 100.36C168.98 100.72 168.32 101.08 167.58 101.48L166.72 100.08C167.32 99.86 167.9 99.6 168.42 99.3C168.18 99.06 167.96 98.84 167.76 98.6L168.98 97.76ZM173.2 100.94C174.14 100.54 174.9 100.1 175.48 99.62H171.02C171.7 100.12 172.42 100.56 173.2 100.94ZM177.86 88.18V92.96H179.48V95.44H177.74V94.26H173.4C173.84 94.64 174.22 95.04 174.52 95.48L173.36 96.02C173 95.46 172.6 94.98 172.16 94.58L173.16 94.26H168.26V95.44H166.52V92.96H168.1V88.18H171.48C171.56 87.96 171.64 87.74 171.7 87.54H167V86.06H179.08V87.54H173.58C173.52 87.76 173.46 87.98 173.38 88.18H177.86ZM169.82 92.96H176.14V92.38H169.82V92.96ZM169.82 91.4H176.14V90.86H169.82V91.4ZM169.82 89.9H176.14V89.3H169.82V89.9ZM168.86 94.92L169.88 95.82C169.24 96.7 168.44 97.46 167.48 98.12L166.56 96.9C167.46 96.34 168.22 95.68 168.86 94.92ZM165 85.5L166.64 86.28C166.24 87.72 165.72 89.08 165.08 90.4V104.1H163.26V93.52C162.8 94.18 162.32 94.82 161.8 95.44L161.2 93.46C162.9 91.18 164.16 88.54 165 85.5ZM181.58 86.78H189.56V85.56H191.44V86.78H199.42V88.38H191.44V89.26H197.72V95.24H197.02C198.06 96.12 198.88 96.92 199.48 97.6L198.08 98.56C197.76 98.16 197.42 97.76 197.04 97.36C193.94 97.58 189 97.78 182.24 97.96L182 96.3C184.76 96.26 187.28 96.24 189.56 96.2V95.24H183.28V89.26H189.56V88.38H181.58V86.78ZM195.68 96.02L195.12 95.5L195.52 95.24H191.44V96.16C193 96.12 194.42 96.06 195.68 96.02ZM195.92 93.84V92.86H191.44V93.84H195.92ZM189.56 93.84V92.86H185.08V93.84H189.56ZM185.08 91.64H189.56V90.66H185.08V91.64ZM191.44 90.66V91.64H195.92V90.66H191.44ZM183.26 98.56L184.96 98.9C184.48 100.62 183.82 102.1 182.96 103.36L181.4 102.36C182.26 101.18 182.88 99.92 183.26 98.56ZM193.36 103.74H188.04C186.72 103.74 186.06 103.1 186.06 101.82V98.48H187.9V101.42C187.9 101.8 188.12 102 188.6 102H193.02C193.3 102 193.52 101.9 193.64 101.74C193.8 101.54 193.92 100.98 193.98 100.04L195.7 100.6C195.56 102.12 195.3 103.02 194.94 103.32C194.6 103.6 194.08 103.74 193.36 103.74ZM190.72 97.98C191.7 98.88 192.46 99.66 193 100.34L191.58 101.32C191.02 100.58 190.26 99.76 189.3 98.86L190.72 97.98ZM196.72 98.1C198.02 99.56 199.02 100.86 199.72 101.98L198.22 102.98C197.5 101.78 196.52 100.46 195.28 99L196.72 98.1ZM205.94 93.92V104.02H204.16V94.36C203.6 96.06 202.88 97.62 202.04 99.06L201.22 96.96C202.52 95.16 203.46 93.12 204.04 90.82H201.86V89.06H204.16V85.6H205.94V89.06H207.96V90.82H205.94V91.8C206.78 92.74 207.62 93.78 208.46 94.9L207.36 96.56C206.82 95.5 206.34 94.62 205.94 93.92ZM208.64 89H211.54V87.82H208.18V86.22H219.38V87.82H216.18V89H219.08V93.9H208.64V89ZM214.62 87.82H213.12V89H214.62V87.82ZM217.44 92.46V90.44H216.04V92.46H217.44ZM214.6 92.46V90.44H213.14V92.46H214.6ZM211.7 92.46V90.44H210.28V92.46H211.7ZM209.22 94.86H218.62V96.46H209.22V94.86ZM208.3 97.46H219.42V99.06H214.62V103.96H212.86V99.06H208.3V97.46ZM210.44 99.56L211.64 100.6C210.76 101.88 209.7 102.98 208.42 103.94L207.36 102.54C208.56 101.7 209.6 100.7 210.44 99.56ZM216.96 99.58C218.1 100.6 219.06 101.62 219.84 102.62L218.6 103.84C217.94 102.88 217.02 101.82 215.82 100.7L216.96 99.58ZM234.8 101.98C236.98 101.98 238.6 101.94 239.68 101.86L239.36 103.74H235.22C230.48 103.74 227.52 103.48 226.34 102.98C225.38 102.58 224.54 101.88 223.8 100.9C223.46 102.02 223 103.08 222.44 104.06L221.1 102.88C222.1 101.12 222.66 99.14 222.76 96.98L224.4 97.18C224.36 97.82 224.3 98.46 224.22 99.06C224.64 99.66 225.08 100.16 225.56 100.56V96.16H221.76V94.48H230.12V96.16H227.22V97.98H229.78V99.68H227.22V101.46C227.24 101.46 227.26 101.48 227.28 101.48C228.36 101.8 230.88 101.98 234.8 101.98ZM222.7 86.26H229.46V93.5H222.7V86.26ZM227.7 91.94V90.6H224.48V91.94H227.7ZM224.48 89.16H227.7V87.82H224.48V89.16ZM231.06 89.08H233.42C233.54 88.7 233.62 88.32 233.7 87.92H230.48V86.28H239.28V87.92H235.54C235.46 88.32 235.36 88.7 235.24 89.08H238.6V98.46H236.72C237.72 99.1 238.58 99.72 239.3 100.36L238.14 101.54C237.46 100.82 236.5 100.06 235.26 99.26L236.1 98.46H233.2L234.22 99.34C233.36 100.18 232.3 100.94 231.06 101.6L230.08 100.32C231.16 99.78 232.08 99.16 232.84 98.46H231.06V89.08ZM236.9 96.98V95.72H232.78V96.98H236.9ZM232.78 94.32H236.9V93.22H232.78V94.32ZM232.78 91.82H236.9V90.56H232.78V91.82Z" fill="#00A19B"/>
<path d="M43.52 196.52H50.62C50.84 195.26 51 193.88 51.08 192.38H44.04V190.56H59.96V192.38H53C52.9 193.9 52.74 195.28 52.54 196.52H60.54V198.34H53.44C54.84 201.92 57.42 204.68 61.2 206.62L60.02 208.16C56.12 206.04 53.44 203.04 51.96 199.18C51.64 200.3 51.28 201.24 50.84 202C49.5 204.38 47.22 206.44 44.02 208.18L42.82 206.62C45.74 205.1 47.82 203.32 49.06 201.24C49.52 200.46 49.9 199.5 50.22 198.34H43.52V196.52ZM69.58 189.6H71.42L64.44 208H62.58L69.58 189.6Z" fill="black"/>
<path d="M47.2114 136.296H50.1634V162H46.2394V141.012C44.6914 142.488 42.7114 143.568 40.3354 144.252V140.364C41.4874 140.076 42.6754 139.572 43.9714 138.852C45.2674 138.06 46.3474 137.232 47.2114 136.296ZM64.6067 135.792C67.1987 135.792 69.2507 136.404 70.8347 137.664C72.3467 138.924 73.1387 140.652 73.1387 142.848C73.1387 145.656 71.6987 147.564 68.8907 148.5C70.4027 148.968 71.5547 149.688 72.3467 150.624C73.2107 151.596 73.6427 152.856 73.6427 154.368C73.6427 156.744 72.8147 158.688 71.1947 160.2C69.4667 161.712 67.1987 162.504 64.4627 162.504C61.8347 162.504 59.7107 161.82 58.1267 160.488C56.3267 158.976 55.3187 156.78 55.1027 153.9H59.0627C59.1347 155.628 59.6747 156.96 60.7547 157.896C61.6907 158.76 62.9147 159.192 64.4267 159.192C66.0827 159.192 67.4147 158.688 68.4227 157.752C69.2867 156.888 69.7547 155.844 69.7547 154.548C69.7547 153.036 69.2867 151.92 68.3507 151.2C67.4867 150.48 66.1907 150.12 64.4987 150.12H62.6267V147.168H64.4627C66.0467 147.168 67.2347 146.808 68.0267 146.124C68.8187 145.44 69.2507 144.432 69.2507 143.136C69.2507 141.84 68.8547 140.868 68.1347 140.184C67.3427 139.464 66.1547 139.14 64.6427 139.14C63.0947 139.14 61.8707 139.536 61.0067 140.328C60.1427 141.12 59.6027 142.308 59.4587 143.892H55.6067C55.8227 141.336 56.7587 139.356 58.4507 137.916C60.0347 136.476 62.0867 135.792 64.6067 135.792Z" fill="#00A19B"/>
<path d="M122.9 207.84H119.96L119.5 205.86C120.46 205.94 121.34 206 122.18 206C122.94 206 123.34 205.6 123.34 204.82V189.9H125.32V205.32C125.32 207 124.5 207.84 122.9 207.84ZM117.96 194.54L119.86 195.3C118.94 199.24 117.72 202.26 116.22 204.34L114.56 202.88C116.08 200.8 117.22 198.02 117.96 194.54ZM130 194.04C131.44 197.56 132.56 200.62 133.34 203.26L131.62 204.44C130.78 201.66 129.66 198.56 128.26 195.12L130 194.04ZM146.7 189.72H148.54V191.6H153.12V193.34H148.54V195.22H152.36V196.98H142.8V195.22H146.7V193.34H142.02V191.6H146.7V189.72ZM142.42 199.04H148.96V197.64H150.8V199.04H153.12V200.82H150.8V205.78C150.8 207.2 150.12 207.92 148.8 207.92H146.36L145.96 206.12C146.72 206.2 147.46 206.26 148.16 206.26C148.68 206.26 148.96 205.94 148.96 205.32V200.82H142.42V199.04ZM144.16 201.34C145.22 202.48 146.04 203.48 146.62 204.34L145.12 205.38C144.52 204.44 143.7 203.4 142.68 202.26L144.16 201.34ZM141.38 190.98V205.96H139.58V204.7H137.26V206.44H135.44V190.98H141.38ZM137.26 202.96H139.58V198.62H137.26V202.96ZM137.26 196.9H139.58V192.7H137.26V196.9ZM161.58 189.6H163.42L156.44 208H154.58L161.58 189.6Z" fill="black"/>
<path d="M129.211 136.296H132.163V162H128.239V141.012C126.691 142.488 124.711 143.568 122.335 144.252V140.364C123.487 140.076 124.675 139.572 125.971 138.852C127.267 138.06 128.347 137.232 129.211 136.296ZM146.607 135.792C149.199 135.792 151.251 136.404 152.835 137.664C154.347 138.924 155.139 140.652 155.139 142.848C155.139 145.656 153.699 147.564 150.891 148.5C152.403 148.968 153.555 149.688 154.347 150.624C155.211 151.596 155.643 152.856 155.643 154.368C155.643 156.744 154.815 158.688 153.195 160.2C151.467 161.712 149.199 162.504 146.463 162.504C143.835 162.504 141.711 161.82 140.127 160.488C138.327 158.976 137.319 156.78 137.103 153.9H141.063C141.135 155.628 141.675 156.96 142.755 157.896C143.691 158.76 144.915 159.192 146.427 159.192C148.083 159.192 149.415 158.688 150.423 157.752C151.287 156.888 151.755 155.844 151.755 154.548C151.755 153.036 151.287 151.92 150.351 151.2C149.487 150.48 148.191 150.12 146.499 150.12H144.627V147.168H146.463C148.047 147.168 149.235 146.808 150.027 146.124C150.819 145.44 151.251 144.432 151.251 143.136C151.251 141.84 150.855 140.868 150.135 140.184C149.343 139.464 148.155 139.14 146.643 139.14C145.095 139.14 143.871 139.536 143.007 140.328C142.143 141.12 141.603 142.308 141.459 143.892H137.607C137.823 141.336 138.759 139.356 140.451 137.916C142.035 136.476 144.087 135.792 146.607 135.792Z" fill="#00A19B"/>
<path d="M212.12 190.44L213.88 191.16C212.48 194.32 210.6 196.76 208.26 198.46L206.76 197.16C209.16 195.48 210.96 193.24 212.12 190.44ZM215.82 190.2H219.78C220.82 192.96 222.66 195.18 225.26 196.86L224.02 198.56C221.58 196.92 219.76 194.74 218.54 192.06H215.82V190.2ZM213.6 199.22H209.92V197.4H221.94C221.86 199.96 221.74 202.02 221.54 203.62C221.34 205.18 221.02 206.28 220.56 206.9C220.1 207.5 219.36 207.84 218.34 207.9H214.54L214.02 206.02C215.2 206.06 216.32 206.1 217.38 206.1C218.38 206.1 219.06 205.68 219.38 204.84C219.7 203.96 219.92 202.08 220.02 199.22H215.52C215.04 201.3 214.4 202.96 213.6 204.2C212.56 205.64 211.02 206.96 208.96 208.12L207.74 206.54C209.54 205.58 210.92 204.5 211.86 203.32C212.6 202.26 213.18 200.9 213.6 199.22ZM233.58 189.6H235.42L228.44 208H226.58L233.58 189.6Z" fill="black"/>
<path d="M211.211 136.296H214.163V162H210.239V141.012C208.691 142.488 206.711 143.568 204.335 144.252V140.364C205.487 140.076 206.675 139.572 207.971 138.852C209.267 138.06 210.347 137.232 211.211 136.296ZM228.715 135.792C233.683 135.792 236.527 138.096 237.175 142.776H233.359C232.819 140.256 231.271 139.032 228.679 139.032C226.879 139.032 225.475 139.896 224.431 141.66C223.387 143.316 222.883 145.368 222.883 147.888C222.883 147.996 222.883 148.14 222.919 148.356H223.063C223.783 147.204 224.683 146.376 225.799 145.836C226.807 145.296 227.995 145.044 229.363 145.044C231.883 145.044 233.899 145.836 235.411 147.42C236.887 149.04 237.643 151.128 237.643 153.648C237.643 156.204 236.779 158.328 235.087 159.984C233.359 161.64 231.199 162.504 228.679 162.504C225.511 162.504 223.135 161.352 221.479 159.048C219.895 156.852 219.103 153.792 219.103 149.868C219.103 145.692 219.931 142.308 221.659 139.716C223.387 137.088 225.763 135.792 228.715 135.792ZM228.571 148.212C226.951 148.212 225.691 148.716 224.755 149.724C223.819 150.732 223.351 152.064 223.351 153.756C223.351 155.412 223.819 156.744 224.791 157.752C225.727 158.76 226.987 159.264 228.535 159.264C230.119 159.264 231.379 158.724 232.315 157.68C233.287 156.6 233.791 155.268 233.791 153.648C233.791 151.992 233.323 150.66 232.387 149.724C231.451 148.716 230.155 148.212 228.571 148.212Z" fill="#00A19B"/>
<path d="M300.24 189.64H302.16V201.08H300.24V189.64ZM297.56 192.62L299.36 193C298.84 195.64 298.12 197.94 297.16 199.86L295.52 198.82C296.48 196.9 297.16 194.84 297.56 192.62ZM304.5 192.1C305.58 193.78 306.54 195.56 307.34 197.48L305.64 198.24C304.78 196.12 303.84 194.26 302.82 192.66L304.5 192.1ZM304.72 198.36L306.3 199.32C304.54 203.8 301.04 206.68 295.84 208L294.82 206.28C299.78 205.08 303.08 202.44 304.72 198.36ZM289.12 194.72H291.86V192.52C291.1 192.62 290.32 192.72 289.52 192.8L289.14 191.02C291.6 190.82 293.8 190.4 295.72 189.78L296.38 191.54C295.52 191.78 294.62 192 293.68 192.2V194.72H296V196.56H293.68V197.86C294.68 198.74 295.7 199.74 296.72 200.82L295.66 202.42C294.9 201.24 294.24 200.28 293.68 199.56V207.98H291.86V199.8C291.2 201.4 290.38 202.86 289.42 204.18L288.58 202.06C290.02 200.44 291.08 198.6 291.76 196.56H289.12V194.72ZM315.58 189.6H317.42L310.44 208H308.58L315.58 189.6Z" fill="black"/>
<path d="M284.834 136.296H300.314V139.752H288.002L287.246 147.168H287.354C288.146 146.34 289.046 145.764 290.09 145.404C291.026 145.008 292.106 144.828 293.258 144.828C295.67 144.828 297.65 145.62 299.162 147.204C300.674 148.788 301.466 150.948 301.466 153.72C301.466 156.384 300.458 158.544 298.514 160.236C296.678 161.748 294.482 162.504 291.926 162.504C289.622 162.504 287.642 161.856 285.986 160.596C284.15 159.228 283.142 157.32 282.962 154.944H286.814C286.958 156.384 287.534 157.5 288.506 158.22C289.37 158.868 290.522 159.192 291.962 159.192C293.546 159.192 294.878 158.688 295.958 157.716C297.038 156.708 297.578 155.412 297.578 153.756C297.578 151.956 297.11 150.552 296.174 149.544C295.238 148.536 293.942 148.032 292.214 148.032C291.062 148.032 290.09 148.212 289.226 148.644C288.29 149.076 287.606 149.76 287.102 150.696H283.43L284.834 136.296ZM314.16 135.792C319.128 135.792 321.972 138.096 322.62 142.776H318.804C318.264 140.256 316.716 139.032 314.124 139.032C312.324 139.032 310.92 139.896 309.876 141.66C308.832 143.316 308.328 145.368 308.328 147.888C308.328 147.996 308.328 148.14 308.364 148.356H308.508C309.228 147.204 310.128 146.376 311.244 145.836C312.252 145.296 313.44 145.044 314.808 145.044C317.328 145.044 319.344 145.836 320.856 147.42C322.332 149.04 323.088 151.128 323.088 153.648C323.088 156.204 322.224 158.328 320.532 159.984C318.804 161.64 316.644 162.504 314.124 162.504C310.956 162.504 308.58 161.352 306.924 159.048C305.34 156.852 304.548 153.792 304.548 149.868C304.548 145.692 305.376 142.308 307.104 139.716C308.832 137.088 311.208 135.792 314.16 135.792ZM314.016 148.212C312.396 148.212 311.136 148.716 310.2 149.724C309.264 150.732 308.796 152.064 308.796 153.756C308.796 155.412 309.264 156.744 310.236 157.752C311.172 158.76 312.432 159.264 313.98 159.264C315.564 159.264 316.824 158.724 317.76 157.68C318.732 156.6 319.236 155.268 319.236 153.648C319.236 151.992 318.768 150.66 317.832 149.724C316.896 148.716 315.6 148.212 314.016 148.212Z" fill="#00A19B"/>
<g clip-path="url(#clip0_2972_1201)">
<path d="M98.6904 34.4125C102.115 41.081 101.526 49.5931 97.5789 55.8975C100.618 49.1835 101.185 41.3997 98.6904 34.4125Z" fill="#FFAB04"/>
<path d="M98.8038 8.80798C101.412 11.8123 102.002 16.3642 100.505 20.0285C101.027 15.9773 100.596 12.495 98.8038 8.80798Z" fill="#FFAB04"/>
<path d="M75.7133 3.68706C78.5259 0.864866 82.9943 -0.0455181 86.7369 1.20626C82.6768 0.978664 79.2518 1.63869 75.7133 3.68706Z" fill="#FFAB04"/>
<path d="M77.0289 1.29722C77.7774 0.27304 79.2518 -0.31871 80.4539 0.182001C79.2291 0.341318 78.1403 0.79651 77.0289 1.29722Z" fill="#FFAB04"/>
<path d="M23.6351 19.3002C23.2268 23.3741 24.0434 26.8108 25.926 30.4069C23.2495 27.4936 22.2288 23.0327 23.6351 19.3002Z" fill="#FFAB04"/>
<path d="M43.3686 5.71259C39.3538 4.916 35.8835 5.41671 32.1182 6.96436C35.2484 4.57461 39.7848 3.98286 43.3686 5.71259Z" fill="#FFAB04"/>
<path d="M38.9456 3.5277C37.7207 3.61874 36.5639 3.73254 35.3845 4.18773C36.2464 3.16355 37.8115 2.98147 38.9456 3.5277Z" fill="#FFAB04"/>
<path d="M57.8625 4.98438C57.0232 5.89476 56.2747 6.78238 55.7303 7.8976C55.6396 6.57755 56.6376 5.34853 57.8625 4.98438Z" fill="#FFAB04"/>
<path d="M102.955 47.6586C103.272 51.3229 101.684 55.2375 99.0987 57.8094C99.3028 57.3769 99.5523 57.0128 99.7564 56.6031C101.299 53.8037 102.365 50.7994 102.955 47.6586Z" fill="#FFAB04"/>
<path d="M31.3697 34.458C28.5571 41.3314 28.7386 49.1152 31.4831 55.9658C27.8086 49.5021 27.6272 40.9673 31.3697 34.458Z" fill="#FFAB04"/>
<path d="M27.5591 38.3954C26.856 41.5135 26.6518 44.6998 26.9467 47.8634C26.9694 48.3186 27.0601 48.7738 27.0828 49.2517C25.6992 45.8605 25.7899 41.6272 27.5591 38.3954Z" fill="#FFAB04"/>
<path d="M85.1491 18.7084L83.6748 17.5932L93.6323 4.34709C93.9271 3.93741 94.5169 3.86913 94.9252 4.16501C95.3334 4.46088 95.4015 5.05263 95.1066 5.46231C95.0839 5.48507 85.1491 18.7084 85.1491 18.7084Z" fill="#FFAB04"/>
<path opacity="0.1" d="M84.015 17.1608L85.3533 18.4353L85.1491 18.7084L83.6748 17.5932L84.015 17.1608Z" fill="black"/>
<path opacity="0.1" d="M85.6708 18.0029L84.3326 16.7511L84.5367 16.4552L85.9884 17.5704L85.6708 18.0029Z" fill="black"/>
<path d="M96.6944 25.6501L73.8534 8.37557C78.6167 2.0484 87.5761 0.796622 93.8818 5.55338C100.187 10.3329 101.435 19.3229 96.6944 25.6501Z" fill="#FFC727"/>
<path d="M96.6944 25.6501L73.8534 8.37557C78.6167 2.0484 87.5761 0.796622 93.8818 5.55338C100.187 10.3329 101.435 19.3229 96.6944 25.6501Z" fill="#FFAB04"/>
<path opacity="0.5" d="M94.3354 5.94025C88.9824 2.54907 81.2932 4.50639 76.7341 10.5377L75.3051 9.44523C80.0683 3.11806 88.2793 1.29729 93.6323 5.3485C93.8818 5.55333 94.1086 5.73541 94.3354 5.94025Z" fill="white"/>
<path d="M40.057 23.101L41.2818 21.7354L28.9881 10.6515C28.6025 10.3101 28.0355 10.3556 27.6952 10.7197C27.355 11.1067 27.3777 11.6757 27.7633 12.017L40.057 23.101Z" fill="#FFAB04"/>
<path opacity="0.1" d="M40.8736 21.3713L39.8075 22.8735L40.057 23.1011L41.2818 21.7355L40.8736 21.3713Z" fill="black"/>
<path opacity="0.1" d="M39.3992 22.5093L40.488 21.0071L40.2384 20.7795L39.0136 22.1451L39.3992 22.5093Z" fill="black"/>
<path d="M30.0542 32.1366L49.1525 10.7881C43.2779 5.50788 34.2277 5.98583 28.9654 11.8806C23.7032 17.7753 24.1795 26.8336 30.0542 32.1366Z" fill="#FFC727"/>
<path d="M30.0542 32.1366L49.1525 10.7881C43.2779 5.50788 34.2277 5.98583 28.9654 11.8806C23.7032 17.7753 24.1795 26.8336 30.0542 32.1366Z" fill="#FFAB04"/>
<path opacity="0.5" d="M28.6025 12.3358C33.207 7.98869 41.1457 8.42112 46.7482 13.4738L47.9504 12.1309C42.0757 6.82795 33.6606 6.62311 29.1696 11.6302C28.9654 11.8578 28.784 12.0854 28.6025 12.3358Z" fill="white"/>
<path d="M46.1131 70.7823L44.2532 80L47.4514 79.6814L52.8951 74.1963L46.1131 70.7823Z" fill="#FFC727"/>
<path opacity="0.1" d="M46.1131 70.7823L44.2532 80L47.4514 79.6814L52.8951 74.1963L46.1131 70.7823Z" fill="#FFAB04"/>
<path d="M87.9164 66.7085L91.5002 75.4027L88.302 75.7213L81.9056 71.3742L87.9164 66.7085Z" fill="#FFC727"/>
<path opacity="0.1" d="M87.9164 66.7085L91.5002 75.4027L88.302 75.7213L81.9056 71.3742L87.9164 66.7085Z" fill="#FFAB04"/>
<path d="M64.5049 6.06097L57.4842 6.74304L57.7705 9.7104L64.7912 9.02832L64.5049 6.06097Z" fill="#37474F"/>
<path d="M63.004 9.21594L59.5725 9.54932L59.8413 12.3356L63.2728 12.0022L63.004 9.21594Z" fill="#37474F"/>
<path d="M63.0567 9.71836L59.6317 10.2646L59.5637 9.53629L63.0113 9.21765L63.0567 9.71836Z" fill="#263238"/>
<path d="M64.6218 76.9047C82.7609 76.9047 97.4656 62.1499 97.4656 43.9488C97.4656 25.7478 82.7609 10.9929 64.6218 10.9929C46.4827 10.9929 31.778 25.7478 31.778 43.9488C31.778 62.1499 46.4827 76.9047 64.6218 76.9047Z" fill="#FFAB04"/>
<path opacity="0.1" d="M64.5764 74.8791C81.8888 74.8791 95.9232 60.7968 95.9232 43.4253C95.9232 26.0539 81.8888 11.9716 64.5764 11.9716C47.2641 11.9716 33.2297 26.0539 33.2297 43.4253C33.2297 60.7968 47.2641 74.8791 64.5764 74.8791Z" fill="black"/>
<path d="M64.5991 73.2177C80.784 73.2177 93.9045 60.0524 93.9045 43.8123C93.9045 27.5721 80.784 14.4069 64.5991 14.4069C48.4142 14.4069 35.2938 27.5721 35.2938 43.8123C35.2938 60.0524 48.4142 73.2177 64.5991 73.2177Z" fill="white"/>
<path d="M82.8809 22.0541L81.52 23.7155L81.021 23.3059L82.3819 21.6444C82.4727 21.7127 82.5634 21.781 82.6314 21.8492C82.6995 21.9175 82.8129 21.9858 82.8809 22.0541Z" fill="#263238"/>
<path d="M69.249 17.9118L68.6139 17.798L68.9768 15.6814C69.1809 15.7042 69.4077 15.7497 69.6119 15.7952L69.249 17.9118Z" fill="#263238"/>
<path d="M55.7077 19.0726L55.0953 19.3002L54.3468 17.2746C54.5509 17.2063 54.755 17.1153 54.9592 17.047L55.7077 19.0726Z" fill="#263238"/>
<path d="M44.5708 26.8336L44.1625 27.3343L42.5067 25.9687C42.5747 25.8777 42.6428 25.7867 42.7108 25.7184C42.7789 25.6273 42.8469 25.5591 42.915 25.468L44.5708 26.8336Z" fill="#263238"/>
<path d="M38.6961 39.8066L36.5866 39.4424C36.6093 39.2376 36.6547 39.01 36.7001 38.8052L38.8095 39.1693L38.6961 39.8066Z" fill="#263238"/>
<path d="M40.1704 53.3485L38.1517 54.0996C38.061 53.8947 37.9929 53.6899 37.9249 53.4851L39.9436 52.734L40.1704 53.3485Z" fill="#263238"/>
<path d="M48.1999 64.3414L46.839 66.0029C46.7482 65.9346 46.6575 65.8663 46.5895 65.7981C46.5214 65.7298 46.408 65.6615 46.34 65.5932L47.7009 63.9318L48.1999 64.3414Z" fill="#263238"/>
<path d="M60.2668 71.9431C60.0627 71.9204 59.8359 71.8749 59.6317 71.8293L59.9946 69.6899L60.6297 69.8037L60.2668 71.9431Z" fill="#263238"/>
<path d="M74.8514 70.3728C74.6473 70.4638 74.4432 70.5321 74.239 70.6004L73.4905 68.5748L74.1029 68.3472L74.8514 70.3728Z" fill="#263238"/>
<path d="M86.5101 61.9061C86.442 61.9971 86.374 62.0882 86.3059 62.1565L84.6501 60.7909L85.0584 60.2902L86.7142 61.6557C86.6461 61.7468 86.5781 61.8378 86.5101 61.9061Z" fill="#263238"/>
<path d="M92.5435 48.8194L90.4114 48.4553L90.5248 47.818L92.6569 48.1821C92.6116 48.387 92.5889 48.6146 92.5435 48.8194Z" fill="#263238"/>
<path d="M91.296 34.1394L89.2773 34.8905L89.0505 34.276L91.0692 33.5249C91.1372 33.7297 91.228 33.9346 91.296 34.1394Z" fill="#263238"/>
<path d="M89.7309 46.9986L63.0567 45.1551L63.3743 42.3784L89.8217 46.2476L89.7309 46.9986Z" fill="#FFC727"/>
<path d="M62.8979 23.7838L66.2095 45.3144L63.4196 45.5648L62.1494 23.8521L62.8979 23.7838Z" fill="#263238"/>
<path d="M56.5923 57.6729L64.0774 41.946L66.5044 43.3116L57.2501 58.0371L56.5923 57.6729Z" fill="#263238"/>
<path d="M65.5518 43.7213C65.5971 44.2448 65.2115 44.7227 64.6898 44.7682C64.1681 44.8137 63.6918 44.4268 63.6464 43.9034C63.6011 43.3799 63.9867 42.9019 64.5084 42.8564C65.0301 42.8109 65.5064 43.1978 65.5518 43.7213Z" fill="#FFC727"/>
<path d="M61.2421 17.2518L61.4916 19.9374C61.5143 20.074 61.4009 20.2105 61.2648 20.2105C61.1287 20.2333 61.0153 20.1195 60.9926 19.9829L60.7885 17.7525L60.607 17.8663C60.5617 17.889 60.5163 17.9118 60.4936 17.9118C60.4029 17.9118 60.3122 17.889 60.2668 17.798C60.1761 17.6842 60.1988 17.5249 60.3122 17.4566L60.8339 17.0697C60.8339 17.0697 60.8565 17.0697 60.8565 17.0469L60.8792 17.0242H60.9019H60.9246H60.9473C60.9473 17.0242 60.9473 17.0242 60.9699 17.0242C60.9926 17.0242 60.9926 17.0242 60.9926 17.0242H61.0153C61.038 17.0242 61.038 17.0242 61.038 17.0242H61.0607C61.0834 17.0242 61.0834 17.0469 61.0834 17.0469C61.0834 17.0469 61.0834 17.0469 61.106 17.0697C61.106 17.0697 61.1287 17.0697 61.1287 17.0924L61.1514 17.1152C61.1514 17.1152 61.1514 17.1152 61.1741 17.138L61.1968 17.1607C61.1968 17.1607 61.1968 17.1607 61.1968 17.1835L61.2194 17.2062C61.2194 17.2062 61.2195 17.229 61.2421 17.229V17.2518C61.2421 17.229 61.2421 17.2062 61.2421 17.2518C61.2421 17.229 61.2421 17.229 61.2421 17.2518Z" fill="#263238"/>
<path d="M64.1228 19.6643C64.1455 19.8009 64.0321 19.9147 63.896 19.9375L62.2855 20.0968C62.2175 20.0968 62.1494 20.074 62.0814 20.0285C61.968 19.9375 61.968 19.7781 62.0587 19.6643L63.2835 18.3215C63.397 18.185 63.4423 18.0256 63.4196 17.8663C63.397 17.7298 63.3516 17.5932 63.2382 17.4794C63.1021 17.3656 62.9433 17.3201 62.7845 17.3201C62.6484 17.3429 62.5123 17.3884 62.3989 17.5022L62.2628 17.6387C62.1721 17.7525 62.0133 17.7525 61.8999 17.6615C61.8092 17.5705 61.7865 17.4111 61.8772 17.2973L62.0133 17.1608C62.1948 16.9559 62.4443 16.8421 62.7165 16.7966C63.0114 16.7739 63.3289 16.8649 63.5557 17.0697C63.7599 17.2518 63.8733 17.5022 63.9186 17.7753C63.9413 18.0712 63.8506 18.3898 63.6465 18.6174L62.8753 19.4823L63.8279 19.3912C63.9867 19.414 64.1001 19.5278 64.1228 19.6643Z" fill="#263238"/>
<path d="M75.2597 19.2547L75.5092 21.9403C75.5319 22.0769 75.4185 22.2134 75.2824 22.2134C75.1463 22.2362 75.0329 22.1224 75.0102 21.9858L74.8061 19.7554L74.6246 19.8692C74.5793 19.892 74.5339 19.9147 74.5112 19.9147C74.4205 19.9147 74.3298 19.892 74.2844 19.8009C74.1937 19.6871 74.2164 19.5278 74.3298 19.4595L74.8515 19.0726C74.8515 19.0726 74.8741 19.0726 74.8741 19.0499L74.8968 19.0271H74.9195H74.9422H74.9649C74.9649 19.0271 74.9649 19.0271 74.9876 19.0271C75.0102 19.0271 75.0102 19.0271 75.0102 19.0271H75.0329C75.0556 19.0271 75.0556 19.0271 75.0556 19.0271H75.0783C75.101 19.0271 75.101 19.0499 75.101 19.0499C75.101 19.0499 75.101 19.0499 75.1236 19.0726C75.1236 19.0726 75.1463 19.0726 75.1463 19.0954L75.169 19.1181C75.169 19.1181 75.169 19.1181 75.1917 19.1409L75.2144 19.1637C75.2144 19.1637 75.2144 19.1637 75.2144 19.1864L75.2371 19.2092C75.2371 19.2092 75.2371 19.2319 75.2597 19.2319V19.2547C75.2371 19.2319 75.2371 19.2319 75.2597 19.2547Z" fill="#263238"/>
<path d="M49.0845 21.8038L49.334 24.4894C49.3567 24.626 49.2433 24.7625 49.1072 24.7625C48.9711 24.7853 48.8577 24.6715 48.835 24.5349L48.6309 22.3045L48.4494 22.4183C48.404 22.441 48.3587 22.4638 48.336 22.4638C48.2453 22.4638 48.1545 22.441 48.1092 22.35C48.0184 22.2362 48.0411 22.0769 48.1545 22.0086L48.6762 21.6217C48.6762 21.6217 48.6989 21.6217 48.6989 21.5989L48.7216 21.5762H48.7443H48.767H48.7896C48.7896 21.5762 48.7896 21.5762 48.8123 21.5762C48.835 21.5762 48.835 21.5762 48.835 21.5762H48.8577C48.8804 21.5762 48.8804 21.5762 48.8804 21.5762H48.9031C48.9257 21.5762 48.9257 21.5989 48.9257 21.5989C48.9257 21.5989 48.9257 21.5989 48.9484 21.6217C48.9484 21.6217 48.9711 21.6217 48.9711 21.6444L48.9938 21.6672C48.9938 21.6672 48.9938 21.6672 49.0165 21.69L49.0391 21.7127C49.0391 21.7127 49.0391 21.7127 49.0391 21.7355L49.0618 21.7582C49.0618 21.7582 49.0618 21.781 49.0845 21.781V21.8038C49.0618 21.781 49.0618 21.7582 49.0845 21.8038Z" fill="#263238"/>
<path d="M50.6042 21.6445L50.8537 24.3301C50.8764 24.4667 50.763 24.6032 50.6269 24.6032C50.4908 24.626 50.3774 24.5122 50.3547 24.3756L50.1506 22.1452L49.9691 22.259C49.9238 22.2817 49.8784 22.3045 49.8557 22.3045C49.765 22.3045 49.6743 22.2817 49.6289 22.1907C49.5382 22.0769 49.5608 21.9176 49.6743 21.8493L50.1959 21.4624C50.1959 21.4624 50.2186 21.4624 50.2186 21.4396L50.2413 21.4169H50.264H50.2867H50.3094C50.3094 21.4169 50.3094 21.4169 50.332 21.4169C50.3547 21.4169 50.3547 21.4169 50.3547 21.4169H50.3774C50.4001 21.4169 50.4001 21.4169 50.4001 21.4169H50.4228C50.4454 21.4169 50.4454 21.4396 50.4454 21.4396C50.4454 21.4396 50.4454 21.4396 50.4681 21.4624C50.4681 21.4624 50.4908 21.4624 50.4908 21.4851L50.5135 21.5079C50.5135 21.5079 50.5135 21.5079 50.5362 21.5307L50.5589 21.5534C50.5589 21.5534 50.5589 21.5534 50.5589 21.5762L50.5815 21.5989C50.5815 21.5989 50.5815 21.6217 50.6042 21.6217V21.6445C50.5815 21.6217 50.5815 21.6217 50.6042 21.6445Z" fill="#263238"/>
<path d="M86.6008 30.3841C86.6235 30.5206 86.5101 30.6344 86.374 30.6572L84.7862 30.8165C84.7182 30.8165 84.6501 30.7937 84.5821 30.7482C84.4687 30.6572 84.4687 30.4979 84.5594 30.3841L85.7842 29.0412C85.8976 28.9047 85.943 28.7454 85.9203 28.5861C85.8977 28.4495 85.8523 28.3129 85.7389 28.1991C85.6028 28.0853 85.444 28.0398 85.2852 28.0398C85.1491 28.0626 85.013 28.1081 84.8996 28.2219L84.7635 28.3585C84.6728 28.4723 84.514 28.4723 84.4006 28.3812C84.3099 28.2902 84.2872 28.1309 84.3779 28.0171L84.514 27.8805C84.6955 27.6757 84.9677 27.5619 85.2172 27.5164C85.5121 27.4936 85.8296 27.5846 86.0564 27.7895C86.2606 27.9715 86.374 28.2219 86.3967 28.495C86.4193 28.7909 86.3286 29.1095 86.1245 29.3371L85.3533 30.202L86.3059 30.1109C86.4647 30.1337 86.5781 30.2247 86.6008 30.3841Z" fill="#263238"/>
<path d="M40.4653 32.1594L40.7148 34.845C40.7375 34.9815 40.6241 35.0953 40.488 35.1181C40.3519 35.1409 40.2385 35.0271 40.2158 34.8905L40.0116 32.6601L39.8302 32.7739C39.7848 32.7966 39.7394 32.8194 39.7168 32.8194C39.626 32.8194 39.5353 32.7966 39.4899 32.7056C39.3992 32.5918 39.4219 32.4325 39.5353 32.3642L40.057 31.9773C40.057 31.9773 40.0797 31.9773 40.0797 31.9545L40.1024 31.9318H40.125H40.1477H40.1704C40.1704 31.9318 40.1704 31.9318 40.1931 31.9318C40.2158 31.9318 40.2158 31.9318 40.2158 31.9318H40.2385C40.2611 31.9318 40.2611 31.9318 40.2611 31.9318H40.2838C40.3065 31.9318 40.3065 31.9545 40.3065 31.9545C40.3065 31.9545 40.3065 31.9545 40.3292 31.9773C40.3292 31.9773 40.3519 31.9773 40.3519 32L40.3745 32.0228C40.3745 32.0228 40.3745 32.0228 40.3972 32.0456L40.4199 32.0683C40.4199 32.0683 40.4199 32.0683 40.4199 32.0911L40.4426 32.1138C40.4426 32.1138 40.4426 32.1366 40.4653 32.1366V32.1594C40.4653 32.1366 40.4653 32.1366 40.4653 32.1594Z" fill="#263238"/>
<path d="M41.1684 33.4339C41.1231 33.0242 41.1911 32.6373 41.3726 32.3186C41.5313 32 41.8035 31.7724 42.1664 31.7269C42.5067 31.7041 42.8242 31.8862 43.051 32.1593C43.2779 32.4324 43.414 32.7966 43.4593 33.2063C43.5047 33.6159 43.4366 34.0029 43.2552 34.3215C43.0964 34.6174 42.8242 34.8677 42.4613 34.9132C42.0984 34.936 41.7808 34.7539 41.5767 34.4808C41.3499 34.2304 41.2138 33.8435 41.1684 33.4339ZM42.9603 33.2745C42.9376 32.9559 42.8015 32.6828 42.6654 32.5007C42.5067 32.3186 42.3479 32.2504 42.2118 32.2731C42.0757 32.2731 41.9169 32.3869 41.8035 32.5918C41.6901 32.7966 41.6221 33.0925 41.6674 33.4111C41.6901 33.7297 41.8262 34.0029 41.9623 34.1849C42.1211 34.367 42.2799 34.4353 42.4159 34.4353C42.552 34.4353 42.6881 34.3215 42.8015 34.1167C42.9376 33.8891 42.983 33.5932 42.9603 33.2745Z" fill="#263238"/>
<path d="M38.2651 45.929C38.1971 45.3145 38.6507 44.791 39.2631 44.7227C39.8302 44.6772 40.3519 45.0413 40.4426 45.6103C40.5107 45.9745 40.5107 45.9745 40.4426 45.6103C40.4653 45.7014 40.4653 45.7924 40.488 45.8607C40.5107 46.1566 40.5107 46.498 40.4199 46.7938C40.3292 47.0897 40.1704 47.4083 39.9209 47.6359C39.7395 47.7725 39.5126 47.8863 39.2631 47.909C39.127 47.9318 38.991 47.8408 38.9683 47.7042C38.9456 47.5677 39.0363 47.4539 39.1951 47.4083C39.3765 47.3856 39.49 47.3173 39.6034 47.249C39.7168 47.158 39.7848 47.0442 39.8529 46.9076C39.8756 46.8621 39.8982 46.8166 39.8982 46.7938C39.7621 46.8621 39.6261 46.9076 39.4673 46.9304C38.8775 46.9759 38.3332 46.5435 38.2651 45.929ZM38.7641 45.8834C38.7868 46.2021 39.0817 46.4524 39.4219 46.4297C39.7621 46.4069 39.989 46.111 39.9663 45.7696C39.9436 45.451 39.6487 45.2007 39.3085 45.2234C38.9683 45.2462 38.7414 45.542 38.7641 45.8834Z" fill="#263238"/>
<path d="M90.5475 40.99C90.797 41.1949 90.9331 41.468 90.9558 41.7639C90.9784 42.0597 90.9104 42.3556 90.7063 42.5832C90.5021 42.8336 90.2299 42.9701 89.9351 42.9929C89.6402 43.0156 89.3453 42.9474 89.1185 42.7425C89.0051 42.6515 89.0051 42.4922 89.0958 42.3784C89.1865 42.2646 89.3453 42.2418 89.4587 42.3556C89.5948 42.4694 89.7536 42.5149 89.9124 42.4922C90.0712 42.4694 90.2299 42.4011 90.3207 42.2646C90.4341 42.128 90.4794 41.9687 90.4567 41.8094C90.4341 41.6501 90.366 41.4908 90.2299 41.3997C90.0938 41.2859 89.9351 41.2404 89.7763 41.2632C89.7082 41.2859 89.6402 41.2404 89.5721 41.1949C89.5495 41.1721 89.5268 41.1494 89.5721 41.1949C89.4587 41.1038 89.436 40.9445 89.5268 40.8307L89.9351 40.3073L89.2092 40.3755C89.0731 40.3983 88.937 40.2845 88.937 40.1479C88.9144 40.0114 89.0278 39.8748 89.1639 39.8748L90.5021 39.7383C90.6382 39.7155 90.7743 39.8293 90.7743 39.9659C90.7743 40.0114 90.7743 40.0569 90.7516 40.1024C90.7516 40.1252 90.7289 40.1479 90.7063 40.1707L90.1846 40.808C90.3207 40.8535 90.4341 40.9218 90.5475 40.99Z" fill="#263238"/>
<path d="M88.8917 55.01C88.9144 55.1465 88.801 55.2603 88.6649 55.2831H88.6195L88.6422 55.6245C88.6649 55.761 88.5515 55.8748 88.4154 55.8976C88.2793 55.9203 88.1659 55.8065 88.1432 55.67L88.1205 55.3286L86.7142 55.4651C86.6689 55.4651 86.6008 55.4651 86.5555 55.4196C86.4421 55.3513 86.3967 55.192 86.4874 55.0782L87.9618 52.825C87.9618 52.825 87.9618 52.825 87.9618 52.8023C87.9844 52.8023 87.9844 52.7795 87.9844 52.7795L88.0071 52.7568L88.0298 52.734C88.0298 52.734 88.0298 52.7112 88.0525 52.7112C88.0525 52.7112 88.0752 52.7112 88.0752 52.6885H88.0978H88.1205H88.1432H88.1659H88.1886H88.2113L88.2339 52.7112C88.2339 52.7112 88.2566 52.7112 88.2566 52.734H88.2793L88.302 52.7568C88.302 52.7568 88.302 52.7795 88.3247 52.7795C88.3247 52.7795 88.3247 52.7795 88.3474 52.8023V52.825V52.8478V52.8706V52.8933V52.9161C88.3474 52.9161 88.3474 52.9161 88.3474 52.9388L88.5288 54.7824H88.5742C88.7329 54.7596 88.869 54.8734 88.8917 55.01ZM87.9618 53.7127L87.1679 54.9189L88.0752 54.8279L87.9618 53.7127Z" fill="#263238"/>
<path d="M45.1832 59.0157C45.2285 59.6075 44.7976 60.1537 44.2078 60.1992C43.6181 60.2448 43.0737 59.8123 43.0283 59.2206C42.983 58.8564 43.1418 58.4923 43.4366 58.2647C43.3232 58.1509 43.2552 57.9916 43.2552 57.8322C43.2098 57.4226 43.5274 57.0584 43.9356 57.0129C44.3439 56.9674 44.7068 57.286 44.7522 57.6729C44.7749 57.8322 44.7295 58.0143 44.6388 58.1281C44.911 58.3102 45.1378 58.6288 45.1832 59.0157ZM44.6841 59.0613C44.6615 58.7426 44.3666 58.4923 44.049 58.5378C43.7315 58.5605 43.482 58.8564 43.5047 59.175C43.55 59.4937 43.8222 59.744 44.1625 59.6985C44.48 59.6758 44.7068 59.3799 44.6841 59.0613ZM43.7088 57.7867C43.7315 57.9233 43.8449 58.0371 43.981 58.0143C44.1171 57.9915 44.2305 57.8778 44.2078 57.7412C44.1851 57.6046 44.0717 57.4908 43.9356 57.5136C43.7995 57.5364 43.7088 57.6502 43.7088 57.7867Z" fill="#263238"/>
<path d="M79.9322 64.4097C80.1817 64.6145 80.3178 64.8876 80.3405 65.1835C80.3632 65.4794 80.2952 65.7752 80.091 66.0028C79.8869 66.2532 79.6147 66.3897 79.3198 66.4125C79.0476 66.4353 78.7301 66.367 78.5033 66.1622C78.3899 66.0711 78.3672 65.9118 78.4806 65.798C78.5713 65.6842 78.7301 65.6842 78.8435 65.7752C78.9796 65.889 79.1384 65.9346 79.2971 65.9118C79.4559 65.889 79.6147 65.8208 79.7054 65.6842C79.8188 65.5476 79.8642 65.3883 79.8415 65.229C79.8188 65.0697 79.7508 64.9104 79.6147 64.8193C79.4786 64.7055 79.3198 64.66 79.1611 64.6828C79.0023 64.7055 78.8435 64.7738 78.7528 64.9104C78.662 65.0242 78.5033 65.0242 78.3899 64.9331C78.3672 64.9104 78.3445 64.8876 78.3445 64.8876V64.8649C78.3445 64.8649 78.3445 64.8421 78.3218 64.8421C78.3218 64.8193 78.3218 64.8193 78.3218 64.8193C78.3218 64.7966 78.3218 64.7738 78.3218 64.7511L78.3445 63.5676C78.3445 63.4993 78.3899 63.431 78.4352 63.3627H78.4579C78.4579 63.3627 78.4579 63.3627 78.4806 63.3627C78.5033 63.34 78.5486 63.34 78.594 63.3172L79.9322 63.1806C80.0683 63.1579 80.2044 63.2717 80.2044 63.4082C80.2271 63.5448 80.1137 63.6814 79.9776 63.6814L78.8662 63.7952L78.8435 64.2503C78.9342 64.2048 79.0476 64.1821 79.1384 64.1821C79.3879 64.1366 79.7054 64.2048 79.9322 64.4097Z" fill="#263238"/>
<path d="M55.0953 65.9118L54.2334 68.7113C54.2107 68.8023 54.1199 68.8706 54.0292 68.8934C54.0065 68.8934 53.9612 68.8934 53.9385 68.8934C53.8024 68.8478 53.7343 68.7113 53.7797 68.5747L54.5282 66.1622L53.3714 66.276C53.2353 66.2988 53.1219 66.185 53.0992 66.0484C53.0766 65.9118 53.19 65.798 53.3261 65.7753L54.8685 65.616C54.8911 65.616 54.8911 65.616 54.9138 65.616C54.9365 65.616 54.9819 65.6387 55.0046 65.6387C55.0046 65.6387 55.0046 65.6387 55.0272 65.6387C55.0272 65.6387 55.0499 65.6387 55.0499 65.6615C55.0499 65.6615 55.0726 65.6615 55.0726 65.6842L55.0953 65.707L55.118 65.7298L55.1406 65.7525V65.7753C55.1406 65.7753 55.1406 65.798 55.1633 65.798C55.1633 65.8208 55.186 65.8663 55.1633 65.8891C55.0953 65.8891 55.0953 65.9118 55.0953 65.9118Z" fill="#263238"/>
<path d="M68.2056 69.5079C68.2736 70.1224 67.82 70.6458 67.2076 70.7141C66.6405 70.7596 66.1188 70.3727 66.0281 69.8265C65.96 69.4623 65.96 69.4623 66.0281 69.8265C66.0054 69.7355 66.0054 69.6444 66.0054 69.5761C65.9827 69.2803 65.9827 68.9389 66.0734 68.643C66.1642 68.3244 66.323 68.0285 66.5725 67.8009C66.7539 67.6643 66.9807 67.5505 67.2302 67.5278C67.3663 67.505 67.5024 67.5961 67.5251 67.7326C67.5478 67.8692 67.4344 67.983 67.2983 68.0285C67.1168 68.0512 67.0034 68.1195 66.89 68.1878C66.7766 68.2788 66.7085 68.3926 66.6405 68.5292C66.6178 68.5747 66.6178 68.6202 66.5951 68.643C66.7312 68.5747 66.8673 68.5292 67.0261 68.5064C67.6158 68.4609 68.1602 68.9161 68.2056 69.5079ZM67.7066 69.5534C67.6839 69.2347 67.389 68.9844 67.0488 69.0072C66.7312 69.0299 66.4817 69.3485 66.5044 69.6672C66.5271 70.0086 66.822 70.2362 67.1622 70.2134C67.5024 70.1906 67.7292 69.8948 67.7066 69.5534Z" fill="#263238"/>
</g>
<path d="M353.903 188V180" stroke="#C92E34"/>
<path d="M351.807 180H356" stroke="#C92E34"/>
<path d="M351.807 188H356" stroke="#C92E34"/>
<path d="M351.807 188H356" stroke="#C92E34"/>
<path d="M2 188H352.236" stroke="#C92E34" stroke-dasharray="1 1"/>
<path d="M2 180L352.236 180" stroke="#C92E34" stroke-dasharray="1 1"/>
<path d="M353.903 122V110" stroke="#C92E34"/>
<path d="M351.807 110H356" stroke="#C92E34"/>
<path d="M351.807 122H356" stroke="#C92E34"/>
<path d="M351.807 122H356" stroke="#C92E34"/>
<path d="M2 122L352.236 122" stroke="#C92E34" stroke-dasharray="1 1"/>
<path d="M2 110L352.236 110" stroke="#C92E34" stroke-dasharray="1 1"/>
<path d="M368.808 183.312C369.35 183.312 369.774 183.162 370.079 182.861C370.384 182.556 370.537 182.194 370.537 181.774C370.537 181.41 370.391 181.075 370.1 180.77C369.808 180.464 369.364 180.312 368.767 180.312C368.174 180.312 367.746 180.464 367.481 180.77C367.217 181.075 367.085 181.433 367.085 181.843C367.085 182.303 367.256 182.663 367.598 182.923C367.939 183.183 368.343 183.312 368.808 183.312ZM368.883 188.159C369.452 188.159 369.924 188.007 370.298 187.701C370.676 187.391 370.865 186.931 370.865 186.32C370.865 185.687 370.672 185.206 370.284 184.878C369.897 184.55 369.4 184.386 368.794 184.386C368.206 184.386 367.725 184.554 367.352 184.892C366.982 185.224 366.798 185.687 366.798 186.279C366.798 186.79 366.966 187.232 367.304 187.605C367.646 187.975 368.172 188.159 368.883 188.159ZM367.133 183.784C366.791 183.638 366.524 183.467 366.333 183.271C365.973 182.907 365.793 182.433 365.793 181.85C365.793 181.12 366.057 180.494 366.586 179.97C367.115 179.446 367.864 179.184 368.835 179.184C369.774 179.184 370.51 179.432 371.043 179.929C371.576 180.421 371.843 180.997 371.843 181.658C371.843 182.269 371.688 182.763 371.378 183.142C371.205 183.356 370.936 183.565 370.571 183.771C370.977 183.957 371.296 184.172 371.528 184.413C371.961 184.869 372.178 185.461 372.178 186.19C372.178 187.052 371.888 187.783 371.31 188.385C370.731 188.982 369.913 189.28 368.855 189.28C367.903 189.28 367.096 189.023 366.436 188.508C365.779 187.988 365.451 187.236 365.451 186.252C365.451 185.673 365.592 185.174 365.875 184.755C366.158 184.331 366.577 184.007 367.133 183.784ZM380.682 188.173C381.256 188.173 381.732 187.934 382.11 187.455C382.493 186.972 382.685 186.252 382.685 185.295C382.685 184.712 382.6 184.21 382.432 183.791C382.113 182.984 381.529 182.581 380.682 182.581C379.829 182.581 379.246 183.007 378.932 183.859C378.763 184.315 378.679 184.894 378.679 185.596C378.679 186.161 378.763 186.642 378.932 187.038C379.251 187.795 379.834 188.173 380.682 188.173ZM377.496 181.713H378.692V182.684C378.938 182.351 379.207 182.093 379.499 181.911C379.914 181.638 380.401 181.501 380.962 181.501C381.791 181.501 382.495 181.82 383.074 182.458C383.653 183.091 383.942 183.998 383.942 185.179C383.942 186.774 383.525 187.913 382.691 188.597C382.163 189.03 381.548 189.246 380.846 189.246C380.294 189.246 379.832 189.125 379.458 188.884C379.239 188.747 378.995 188.512 378.727 188.18V191.919H377.496V181.713ZM384.688 181.679H386.28L387.962 184.256L389.664 181.679L391.161 181.713L388.693 185.247L391.271 189H389.698L387.88 186.252L386.116 189H384.558L387.135 185.247L384.688 181.679Z" fill="#C92E34"/>
<path d="M366.34 116.068V115.125C367.229 115.038 367.848 114.895 368.199 114.694C368.55 114.489 368.812 114.008 368.985 113.252H369.956V123H368.644V116.068H366.34ZM373.23 123C373.276 122.157 373.449 121.423 373.75 120.799C374.055 120.174 374.648 119.607 375.527 119.097L376.84 118.338C377.428 117.996 377.84 117.704 378.077 117.463C378.451 117.085 378.638 116.652 378.638 116.164C378.638 115.594 378.467 115.143 378.125 114.811C377.783 114.473 377.327 114.305 376.758 114.305C375.915 114.305 375.331 114.624 375.008 115.262C374.835 115.604 374.739 116.077 374.721 116.684H373.47C373.483 115.831 373.641 115.136 373.941 114.599C374.475 113.651 375.416 113.177 376.765 113.177C377.886 113.177 378.704 113.48 379.219 114.086C379.738 114.692 379.998 115.367 379.998 116.109C379.998 116.893 379.722 117.563 379.171 118.119C378.852 118.443 378.28 118.835 377.455 119.295L376.519 119.814C376.072 120.061 375.721 120.295 375.466 120.519C375.01 120.915 374.723 121.355 374.604 121.838H379.95V123H373.23ZM388.475 122.173C389.049 122.173 389.525 121.934 389.903 121.455C390.286 120.972 390.478 120.252 390.478 119.295C390.478 118.712 390.393 118.21 390.225 117.791C389.906 116.984 389.322 116.581 388.475 116.581C387.622 116.581 387.039 117.007 386.725 117.859C386.556 118.315 386.472 118.894 386.472 119.596C386.472 120.161 386.556 120.642 386.725 121.038C387.044 121.795 387.627 122.173 388.475 122.173ZM385.289 115.713H386.485V116.684C386.731 116.351 387 116.093 387.292 115.911C387.707 115.638 388.194 115.501 388.755 115.501C389.584 115.501 390.288 115.82 390.867 116.458C391.446 117.091 391.735 117.998 391.735 119.179C391.735 120.774 391.318 121.913 390.484 122.597C389.956 123.03 389.34 123.246 388.639 123.246C388.087 123.246 387.625 123.125 387.251 122.884C387.032 122.747 386.788 122.512 386.52 122.18V125.919H385.289V115.713ZM392.48 115.679H394.073L395.755 118.256L397.457 115.679L398.954 115.713L396.486 119.247L399.063 123H397.491L395.673 120.252L393.909 123H392.351L394.928 119.247L392.48 115.679Z" fill="#C92E34"/>
<path d="M0.999985 234L33 234L33 40L1 40L0.999985 234Z" fill="#FF685D" fill-opacity="0.2"/>
<path d="M329 234L361 234L361 40L329 40L329 234Z" fill="#FF685D" fill-opacity="0.2"/>
<path d="M361 40L361 80L1 80L0.999998 40L361 40Z" fill="#FF685D" fill-opacity="0.2"/>
<path d="M361 214L361 234L1 234L0.999999 214L361 214Z" fill="#FF685D" fill-opacity="0.2"/>
<path d="M4.63672 166.267C3.47917 166.267 2.63835 165.95 2.11426 165.316C1.59473 164.678 1.33496 163.904 1.33496 162.992H2.62012C2.6748 163.626 2.79329 164.086 2.97559 164.373C3.2946 164.888 3.87109 165.146 4.70508 165.146C5.35221 165.146 5.87174 164.972 6.26367 164.626C6.6556 164.28 6.85156 163.833 6.85156 163.286C6.85156 162.612 6.64421 162.14 6.22949 161.871C5.81934 161.602 5.2474 161.468 4.51367 161.468C4.43164 161.468 4.34733 161.47 4.26074 161.475C4.17871 161.475 4.0944 161.477 4.00781 161.481V160.395C4.13542 160.408 4.24251 160.417 4.3291 160.422C4.41569 160.426 4.50911 160.429 4.60938 160.429C5.06966 160.429 5.44792 160.356 5.74414 160.21C6.26367 159.955 6.52344 159.499 6.52344 158.843C6.52344 158.355 6.35026 157.979 6.00391 157.715C5.65755 157.451 5.25423 157.318 4.79395 157.318C3.97363 157.318 3.40625 157.592 3.0918 158.139C2.91862 158.439 2.82064 158.868 2.79785 159.424H1.58105C1.58105 158.695 1.72689 158.075 2.01855 157.564C2.51986 156.653 3.40169 156.197 4.66406 156.197C5.66211 156.197 6.43457 156.421 6.98145 156.867C7.52832 157.309 7.80176 157.952 7.80176 158.795C7.80176 159.396 7.63997 159.884 7.31641 160.258C7.11589 160.49 6.85612 160.673 6.53711 160.805C7.05208 160.946 7.45312 161.219 7.74023 161.625C8.0319 162.026 8.17773 162.518 8.17773 163.102C8.17773 164.036 7.87012 164.797 7.25488 165.385C6.63965 165.973 5.76693 166.267 4.63672 166.267ZM9.23047 166C9.27604 165.157 9.44922 164.423 9.75 163.799C10.0553 163.174 10.6478 162.607 11.5273 162.097L12.8398 161.338C13.4277 160.996 13.8402 160.704 14.0771 160.463C14.4508 160.085 14.6377 159.652 14.6377 159.164C14.6377 158.594 14.4668 158.143 14.125 157.811C13.7832 157.473 13.3275 157.305 12.7578 157.305C11.9147 157.305 11.3314 157.624 11.0078 158.262C10.8346 158.604 10.7389 159.077 10.7207 159.684H9.46973C9.4834 158.831 9.64062 158.136 9.94141 157.599C10.4746 156.651 11.4157 156.177 12.7646 156.177C13.8857 156.177 14.7038 156.48 15.2188 157.086C15.7383 157.692 15.998 158.367 15.998 159.109C15.998 159.893 15.7223 160.563 15.1709 161.119C14.8519 161.443 14.2799 161.835 13.4551 162.295L12.5186 162.814C12.0719 163.061 11.721 163.295 11.4658 163.519C11.0101 163.915 10.723 164.355 10.6045 164.838H15.9502V166H9.23047ZM24.4746 165.173C25.0488 165.173 25.5251 164.934 25.9033 164.455C26.2861 163.972 26.4775 163.252 26.4775 162.295C26.4775 161.712 26.3932 161.21 26.2246 160.791C25.9056 159.984 25.3223 159.581 24.4746 159.581C23.6224 159.581 23.0391 160.007 22.7246 160.859C22.556 161.315 22.4717 161.894 22.4717 162.596C22.4717 163.161 22.556 163.642 22.7246 164.038C23.0436 164.795 23.627 165.173 24.4746 165.173ZM21.2891 158.713H22.4854V159.684C22.7314 159.351 23.0003 159.093 23.292 158.911C23.7067 158.638 24.1943 158.501 24.7549 158.501C25.5843 158.501 26.2884 158.82 26.8672 159.458C27.446 160.091 27.7354 160.998 27.7354 162.179C27.7354 163.774 27.3184 164.913 26.4844 165.597C25.9557 166.03 25.3405 166.246 24.6387 166.246C24.0872 166.246 23.6247 166.125 23.251 165.884C23.0322 165.747 22.7884 165.512 22.5195 165.18V168.919H21.2891V158.713ZM28.4805 158.679H30.0732L31.7549 161.256L33.457 158.679L34.9541 158.713L32.4863 162.247L35.0635 166H33.4912L31.6729 163.252L29.9092 166H28.3506L30.9277 162.247L28.4805 158.679Z" fill="#C92E34"/>
<path d="M339.637 166.267C338.479 166.267 337.638 165.95 337.114 165.316C336.595 164.678 336.335 163.904 336.335 162.992H337.62C337.675 163.626 337.793 164.086 337.976 164.373C338.295 164.888 338.871 165.146 339.705 165.146C340.352 165.146 340.872 164.972 341.264 164.626C341.656 164.28 341.852 163.833 341.852 163.286C341.852 162.612 341.644 162.14 341.229 161.871C340.819 161.602 340.247 161.468 339.514 161.468C339.432 161.468 339.347 161.47 339.261 161.475C339.179 161.475 339.094 161.477 339.008 161.481V160.395C339.135 160.408 339.243 160.417 339.329 160.422C339.416 160.426 339.509 160.429 339.609 160.429C340.07 160.429 340.448 160.356 340.744 160.21C341.264 159.955 341.523 159.499 341.523 158.843C341.523 158.355 341.35 157.979 341.004 157.715C340.658 157.451 340.254 157.318 339.794 157.318C338.974 157.318 338.406 157.592 338.092 158.139C337.919 158.439 337.821 158.868 337.798 159.424H336.581C336.581 158.695 336.727 158.075 337.019 157.564C337.52 156.653 338.402 156.197 339.664 156.197C340.662 156.197 341.435 156.421 341.981 156.867C342.528 157.309 342.802 157.952 342.802 158.795C342.802 159.396 342.64 159.884 342.316 160.258C342.116 160.49 341.856 160.673 341.537 160.805C342.052 160.946 342.453 161.219 342.74 161.625C343.032 162.026 343.178 162.518 343.178 163.102C343.178 164.036 342.87 164.797 342.255 165.385C341.64 165.973 340.767 166.267 339.637 166.267ZM344.23 166C344.276 165.157 344.449 164.423 344.75 163.799C345.055 163.174 345.648 162.607 346.527 162.097L347.84 161.338C348.428 160.996 348.84 160.704 349.077 160.463C349.451 160.085 349.638 159.652 349.638 159.164C349.638 158.594 349.467 158.143 349.125 157.811C348.783 157.473 348.327 157.305 347.758 157.305C346.915 157.305 346.331 157.624 346.008 158.262C345.835 158.604 345.739 159.077 345.721 159.684H344.47C344.483 158.831 344.641 158.136 344.941 157.599C345.475 156.651 346.416 156.177 347.765 156.177C348.886 156.177 349.704 156.48 350.219 157.086C350.738 157.692 350.998 158.367 350.998 159.109C350.998 159.893 350.722 160.563 350.171 161.119C349.852 161.443 349.28 161.835 348.455 162.295L347.519 162.814C347.072 163.061 346.721 163.295 346.466 163.519C346.01 163.915 345.723 164.355 345.604 164.838H350.95V166H344.23ZM359.475 165.173C360.049 165.173 360.525 164.934 360.903 164.455C361.286 163.972 361.478 163.252 361.478 162.295C361.478 161.712 361.393 161.21 361.225 160.791C360.906 159.984 360.322 159.581 359.475 159.581C358.622 159.581 358.039 160.007 357.725 160.859C357.556 161.315 357.472 161.894 357.472 162.596C357.472 163.161 357.556 163.642 357.725 164.038C358.044 164.795 358.627 165.173 359.475 165.173ZM356.289 158.713H357.485V159.684C357.731 159.351 358 159.093 358.292 158.911C358.707 158.638 359.194 158.501 359.755 158.501C360.584 158.501 361.288 158.82 361.867 159.458C362.446 160.091 362.735 160.998 362.735 162.179C362.735 163.774 362.318 164.913 361.484 165.597C360.956 166.03 360.34 166.246 359.639 166.246C359.087 166.246 358.625 166.125 358.251 165.884C358.032 165.747 357.788 165.512 357.52 165.18V168.919H356.289V158.713ZM363.48 158.679H365.073L366.755 161.256L368.457 158.679L369.954 158.713L367.486 162.247L370.063 166H368.491L366.673 163.252L364.909 166H363.351L365.928 162.247L363.48 158.679Z" fill="#C92E34"/>
<path d="M82 234L114 234L114 80L82 80L82 234Z" fill="#FF685D" fill-opacity="0.1"/>
<path d="M165 234L197 234L197 80L165 80L165 234Z" fill="#FF685D" fill-opacity="0.1"/>
<path d="M246 234L278 234L278 80L246 80L246 234Z" fill="#FF685D" fill-opacity="0.1"/>
<path d="M87.6367 173.267C86.4792 173.267 85.6383 172.95 85.1143 172.316C84.5947 171.678 84.335 170.904 84.335 169.992H85.6201C85.6748 170.626 85.7933 171.086 85.9756 171.373C86.2946 171.888 86.8711 172.146 87.7051 172.146C88.3522 172.146 88.8717 171.972 89.2637 171.626C89.6556 171.28 89.8516 170.833 89.8516 170.286C89.8516 169.612 89.6442 169.14 89.2295 168.871C88.8193 168.602 88.2474 168.468 87.5137 168.468C87.4316 168.468 87.3473 168.47 87.2607 168.475C87.1787 168.475 87.0944 168.477 87.0078 168.481V167.395C87.1354 167.408 87.2425 167.417 87.3291 167.422C87.4157 167.426 87.5091 167.429 87.6094 167.429C88.0697 167.429 88.4479 167.356 88.7441 167.21C89.2637 166.955 89.5234 166.499 89.5234 165.843C89.5234 165.355 89.3503 164.979 89.0039 164.715C88.6576 164.451 88.2542 164.318 87.7939 164.318C86.9736 164.318 86.4062 164.592 86.0918 165.139C85.9186 165.439 85.8206 165.868 85.7979 166.424H84.5811C84.5811 165.695 84.7269 165.075 85.0186 164.564C85.5199 163.653 86.4017 163.197 87.6641 163.197C88.6621 163.197 89.4346 163.421 89.9814 163.867C90.5283 164.309 90.8018 164.952 90.8018 165.795C90.8018 166.396 90.64 166.884 90.3164 167.258C90.1159 167.49 89.8561 167.673 89.5371 167.805C90.0521 167.946 90.4531 168.219 90.7402 168.625C91.0319 169.026 91.1777 169.518 91.1777 170.102C91.1777 171.036 90.8701 171.797 90.2549 172.385C89.6396 172.973 88.7669 173.267 87.6367 173.267ZM92.2305 173C92.276 172.157 92.4492 171.423 92.75 170.799C93.0553 170.174 93.6478 169.607 94.5273 169.097L95.8398 168.338C96.4277 167.996 96.8402 167.704 97.0771 167.463C97.4508 167.085 97.6377 166.652 97.6377 166.164C97.6377 165.594 97.4668 165.143 97.125 164.811C96.7832 164.473 96.3275 164.305 95.7578 164.305C94.9147 164.305 94.3314 164.624 94.0078 165.262C93.8346 165.604 93.7389 166.077 93.7207 166.684H92.4697C92.4834 165.831 92.6406 165.136 92.9414 164.599C93.4746 163.651 94.4157 163.177 95.7646 163.177C96.8857 163.177 97.7038 163.48 98.2188 164.086C98.7383 164.692 98.998 165.367 98.998 166.109C98.998 166.893 98.7223 167.563 98.1709 168.119C97.8519 168.443 97.2799 168.835 96.4551 169.295L95.5186 169.814C95.0719 170.061 94.721 170.295 94.4658 170.519C94.0101 170.915 93.723 171.355 93.6045 171.838H98.9502V173H92.2305ZM103.578 172.173C104.152 172.173 104.629 171.934 105.007 171.455C105.39 170.972 105.581 170.252 105.581 169.295C105.581 168.712 105.497 168.21 105.328 167.791C105.009 166.984 104.426 166.581 103.578 166.581C102.726 166.581 102.143 167.007 101.828 167.859C101.66 168.315 101.575 168.894 101.575 169.596C101.575 170.161 101.66 170.642 101.828 171.038C102.147 171.795 102.73 172.173 103.578 172.173ZM100.393 165.713H101.589V166.684C101.835 166.351 102.104 166.093 102.396 165.911C102.81 165.638 103.298 165.501 103.858 165.501C104.688 165.501 105.392 165.82 105.971 166.458C106.549 167.091 106.839 167.998 106.839 169.179C106.839 170.774 106.422 171.913 105.588 172.597C105.059 173.03 104.444 173.246 103.742 173.246C103.191 173.246 102.728 173.125 102.354 172.884C102.136 172.747 101.892 172.512 101.623 172.18V175.919H100.393V165.713ZM107.584 165.679H109.177L110.858 168.256L112.561 165.679L114.058 165.713L111.59 169.247L114.167 173H112.595L110.776 170.252L109.013 173H107.454L110.031 169.247L107.584 165.679Z" fill="#C92E34"/>
<path d="M169.637 173.267C168.479 173.267 167.638 172.95 167.114 172.316C166.595 171.678 166.335 170.904 166.335 169.992H167.62C167.675 170.626 167.793 171.086 167.976 171.373C168.295 171.888 168.871 172.146 169.705 172.146C170.352 172.146 170.872 171.972 171.264 171.626C171.656 171.28 171.852 170.833 171.852 170.286C171.852 169.612 171.644 169.14 171.229 168.871C170.819 168.602 170.247 168.468 169.514 168.468C169.432 168.468 169.347 168.47 169.261 168.475C169.179 168.475 169.094 168.477 169.008 168.481V167.395C169.135 167.408 169.243 167.417 169.329 167.422C169.416 167.426 169.509 167.429 169.609 167.429C170.07 167.429 170.448 167.356 170.744 167.21C171.264 166.955 171.523 166.499 171.523 165.843C171.523 165.355 171.35 164.979 171.004 164.715C170.658 164.451 170.254 164.318 169.794 164.318C168.974 164.318 168.406 164.592 168.092 165.139C167.919 165.439 167.821 165.868 167.798 166.424H166.581C166.581 165.695 166.727 165.075 167.019 164.564C167.52 163.653 168.402 163.197 169.664 163.197C170.662 163.197 171.435 163.421 171.981 163.867C172.528 164.309 172.802 164.952 172.802 165.795C172.802 166.396 172.64 166.884 172.316 167.258C172.116 167.49 171.856 167.673 171.537 167.805C172.052 167.946 172.453 168.219 172.74 168.625C173.032 169.026 173.178 169.518 173.178 170.102C173.178 171.036 172.87 171.797 172.255 172.385C171.64 172.973 170.767 173.267 169.637 173.267ZM174.23 173C174.276 172.157 174.449 171.423 174.75 170.799C175.055 170.174 175.648 169.607 176.527 169.097L177.84 168.338C178.428 167.996 178.84 167.704 179.077 167.463C179.451 167.085 179.638 166.652 179.638 166.164C179.638 165.594 179.467 165.143 179.125 164.811C178.783 164.473 178.327 164.305 177.758 164.305C176.915 164.305 176.331 164.624 176.008 165.262C175.835 165.604 175.739 166.077 175.721 166.684H174.47C174.483 165.831 174.641 165.136 174.941 164.599C175.475 163.651 176.416 163.177 177.765 163.177C178.886 163.177 179.704 163.48 180.219 164.086C180.738 164.692 180.998 165.367 180.998 166.109C180.998 166.893 180.722 167.563 180.171 168.119C179.852 168.443 179.28 168.835 178.455 169.295L177.519 169.814C177.072 170.061 176.721 170.295 176.466 170.519C176.01 170.915 175.723 171.355 175.604 171.838H180.95V173H174.23ZM185.578 172.173C186.152 172.173 186.629 171.934 187.007 171.455C187.39 170.972 187.581 170.252 187.581 169.295C187.581 168.712 187.497 168.21 187.328 167.791C187.009 166.984 186.426 166.581 185.578 166.581C184.726 166.581 184.143 167.007 183.828 167.859C183.66 168.315 183.575 168.894 183.575 169.596C183.575 170.161 183.66 170.642 183.828 171.038C184.147 171.795 184.73 172.173 185.578 172.173ZM182.393 165.713H183.589V166.684C183.835 166.351 184.104 166.093 184.396 165.911C184.81 165.638 185.298 165.501 185.858 165.501C186.688 165.501 187.392 165.82 187.971 166.458C188.549 167.091 188.839 167.998 188.839 169.179C188.839 170.774 188.422 171.913 187.588 172.597C187.059 173.03 186.444 173.246 185.742 173.246C185.191 173.246 184.728 173.125 184.354 172.884C184.136 172.747 183.892 172.512 183.623 172.18V175.919H182.393V165.713ZM189.584 165.679H191.177L192.858 168.256L194.561 165.679L196.058 165.713L193.59 169.247L196.167 173H194.595L192.776 170.252L191.013 173H189.454L192.031 169.247L189.584 165.679Z" fill="#C92E34"/>
<path d="M250.637 173.267C249.479 173.267 248.638 172.95 248.114 172.316C247.595 171.678 247.335 170.904 247.335 169.992H248.62C248.675 170.626 248.793 171.086 248.976 171.373C249.295 171.888 249.871 172.146 250.705 172.146C251.352 172.146 251.872 171.972 252.264 171.626C252.656 171.28 252.852 170.833 252.852 170.286C252.852 169.612 252.644 169.14 252.229 168.871C251.819 168.602 251.247 168.468 250.514 168.468C250.432 168.468 250.347 168.47 250.261 168.475C250.179 168.475 250.094 168.477 250.008 168.481V167.395C250.135 167.408 250.243 167.417 250.329 167.422C250.416 167.426 250.509 167.429 250.609 167.429C251.07 167.429 251.448 167.356 251.744 167.21C252.264 166.955 252.523 166.499 252.523 165.843C252.523 165.355 252.35 164.979 252.004 164.715C251.658 164.451 251.254 164.318 250.794 164.318C249.974 164.318 249.406 164.592 249.092 165.139C248.919 165.439 248.821 165.868 248.798 166.424H247.581C247.581 165.695 247.727 165.075 248.019 164.564C248.52 163.653 249.402 163.197 250.664 163.197C251.662 163.197 252.435 163.421 252.981 163.867C253.528 164.309 253.802 164.952 253.802 165.795C253.802 166.396 253.64 166.884 253.316 167.258C253.116 167.49 252.856 167.673 252.537 167.805C253.052 167.946 253.453 168.219 253.74 168.625C254.032 169.026 254.178 169.518 254.178 170.102C254.178 171.036 253.87 171.797 253.255 172.385C252.64 172.973 251.767 173.267 250.637 173.267ZM255.23 173C255.276 172.157 255.449 171.423 255.75 170.799C256.055 170.174 256.648 169.607 257.527 169.097L258.84 168.338C259.428 167.996 259.84 167.704 260.077 167.463C260.451 167.085 260.638 166.652 260.638 166.164C260.638 165.594 260.467 165.143 260.125 164.811C259.783 164.473 259.327 164.305 258.758 164.305C257.915 164.305 257.331 164.624 257.008 165.262C256.835 165.604 256.739 166.077 256.721 166.684H255.47C255.483 165.831 255.641 165.136 255.941 164.599C256.475 163.651 257.416 163.177 258.765 163.177C259.886 163.177 260.704 163.48 261.219 164.086C261.738 164.692 261.998 165.367 261.998 166.109C261.998 166.893 261.722 167.563 261.171 168.119C260.852 168.443 260.28 168.835 259.455 169.295L258.519 169.814C258.072 170.061 257.721 170.295 257.466 170.519C257.01 170.915 256.723 171.355 256.604 171.838H261.95V173H255.23ZM266.578 172.173C267.152 172.173 267.629 171.934 268.007 171.455C268.39 170.972 268.581 170.252 268.581 169.295C268.581 168.712 268.497 168.21 268.328 167.791C268.009 166.984 267.426 166.581 266.578 166.581C265.726 166.581 265.143 167.007 264.828 167.859C264.66 168.315 264.575 168.894 264.575 169.596C264.575 170.161 264.66 170.642 264.828 171.038C265.147 171.795 265.73 172.173 266.578 172.173ZM263.393 165.713H264.589V166.684C264.835 166.351 265.104 166.093 265.396 165.911C265.81 165.638 266.298 165.501 266.858 165.501C267.688 165.501 268.392 165.82 268.971 166.458C269.549 167.091 269.839 167.998 269.839 169.179C269.839 170.774 269.422 171.913 268.588 172.597C268.059 173.03 267.444 173.246 266.742 173.246C266.191 173.246 265.728 173.125 265.354 172.884C265.136 172.747 264.892 172.512 264.623 172.18V175.919H263.393V165.713ZM270.584 165.679H272.177L273.858 168.256L275.561 165.679L277.058 165.713L274.59 169.247L277.167 173H275.595L273.776 170.252L272.013 173H270.454L273.031 169.247L270.584 165.679Z" fill="#C92E34"/>
<path d="M174.438 229C174.483 228.157 174.656 227.423 174.957 226.799C175.262 226.174 175.855 225.607 176.734 225.097L178.047 224.338C178.635 223.996 179.047 223.704 179.284 223.463C179.658 223.085 179.845 222.652 179.845 222.164C179.845 221.594 179.674 221.143 179.332 220.811C178.99 220.473 178.535 220.305 177.965 220.305C177.122 220.305 176.538 220.624 176.215 221.262C176.042 221.604 175.946 222.077 175.928 222.684H174.677C174.69 221.831 174.848 221.136 175.148 220.599C175.682 219.651 176.623 219.177 177.972 219.177C179.093 219.177 179.911 219.48 180.426 220.086C180.945 220.692 181.205 221.367 181.205 222.109C181.205 222.893 180.929 223.563 180.378 224.119C180.059 224.443 179.487 224.835 178.662 225.295L177.726 225.814C177.279 226.061 176.928 226.295 176.673 226.519C176.217 226.915 175.93 227.355 175.812 227.838H181.157V229H174.438ZM185.58 219.211C186.847 219.211 187.763 219.733 188.328 220.776C188.766 221.583 188.984 222.688 188.984 224.092C188.984 225.423 188.786 226.523 188.39 227.394C187.815 228.642 186.877 229.267 185.573 229.267C184.397 229.267 183.522 228.756 182.948 227.735C182.47 226.883 182.23 225.739 182.23 224.304C182.23 223.192 182.374 222.237 182.661 221.439C183.199 219.954 184.172 219.211 185.58 219.211ZM185.566 228.146C186.204 228.146 186.713 227.863 187.091 227.298C187.469 226.733 187.658 225.68 187.658 224.14C187.658 223.028 187.521 222.114 187.248 221.398C186.975 220.678 186.444 220.318 185.655 220.318C184.931 220.318 184.4 220.66 184.062 221.344C183.73 222.023 183.563 223.025 183.563 224.352C183.563 225.35 183.671 226.152 183.885 226.758C184.213 227.683 184.773 228.146 185.566 228.146ZM197.475 228.173C198.049 228.173 198.525 227.934 198.903 227.455C199.286 226.972 199.478 226.252 199.478 225.295C199.478 224.712 199.393 224.21 199.225 223.791C198.906 222.984 198.322 222.581 197.475 222.581C196.622 222.581 196.039 223.007 195.725 223.859C195.556 224.315 195.472 224.894 195.472 225.596C195.472 226.161 195.556 226.642 195.725 227.038C196.044 227.795 196.627 228.173 197.475 228.173ZM194.289 221.713H195.485V222.684C195.731 222.351 196 222.093 196.292 221.911C196.707 221.638 197.194 221.501 197.755 221.501C198.584 221.501 199.288 221.82 199.867 222.458C200.446 223.091 200.735 223.998 200.735 225.179C200.735 226.774 200.318 227.913 199.484 228.597C198.956 229.03 198.34 229.246 197.639 229.246C197.087 229.246 196.625 229.125 196.251 228.884C196.032 228.747 195.788 228.512 195.52 228.18V231.919H194.289V221.713ZM201.48 221.679H203.073L204.755 224.256L206.457 221.679L207.954 221.713L205.486 225.247L208.063 229H206.491L204.673 226.252L202.909 229H201.351L203.928 225.247L201.48 221.679Z" fill="#C92E34"/>
<path d="M115.628 61.5342V57.0977L112.49 61.5342H115.628ZM115.648 65V62.6074H111.355V61.4043L115.84 55.1836H116.879V61.5342H118.321V62.6074H116.879V65H115.648ZM122.58 55.2109C123.847 55.2109 124.763 55.7327 125.328 56.7764C125.766 57.583 125.984 58.6882 125.984 60.0918C125.984 61.4225 125.786 62.5231 125.39 63.3936C124.815 64.6423 123.877 65.2666 122.573 65.2666C121.397 65.2666 120.522 64.7562 119.948 63.7354C119.47 62.8831 119.23 61.7393 119.23 60.3037C119.23 59.1917 119.374 58.237 119.661 57.4395C120.199 55.9538 121.172 55.2109 122.58 55.2109ZM122.566 64.1455C123.204 64.1455 123.713 63.863 124.091 63.2979C124.469 62.7327 124.658 61.68 124.658 60.1396C124.658 59.0277 124.521 58.1139 124.248 57.3984C123.975 56.6784 123.444 56.3184 122.655 56.3184C121.931 56.3184 121.4 56.6602 121.062 57.3438C120.73 58.0228 120.563 59.0254 120.563 60.3516C120.563 61.3496 120.671 62.1517 120.885 62.7578C121.213 63.6829 121.773 64.1455 122.566 64.1455ZM134.475 64.1729C135.049 64.1729 135.525 63.9336 135.903 63.4551C136.286 62.972 136.478 62.252 136.478 61.2949C136.478 60.7116 136.393 60.2103 136.225 59.791C135.906 58.9844 135.322 58.5811 134.475 58.5811C133.622 58.5811 133.039 59.0072 132.725 59.8594C132.556 60.3151 132.472 60.8939 132.472 61.5957C132.472 62.1608 132.556 62.6416 132.725 63.0381C133.044 63.7946 133.627 64.1729 134.475 64.1729ZM131.289 57.7129H132.485V58.6836C132.731 58.3509 133 58.0934 133.292 57.9111C133.707 57.6377 134.194 57.501 134.755 57.501C135.584 57.501 136.288 57.82 136.867 58.458C137.446 59.0915 137.735 59.9984 137.735 61.1787C137.735 62.7738 137.318 63.9131 136.484 64.5967C135.956 65.0296 135.34 65.2461 134.639 65.2461C134.087 65.2461 133.625 65.1253 133.251 64.8838C133.032 64.7471 132.788 64.5124 132.52 64.1797V67.9189H131.289V57.7129ZM138.48 57.6787H140.073L141.755 60.2559L143.457 57.6787L144.954 57.7129L142.486 61.2471L145.063 65H143.491L141.673 62.252L139.909 65H138.351L140.928 61.2471L138.48 57.6787ZM149.418 54.7939C148.702 56.1839 148.238 57.207 148.023 57.8633C147.7 58.8613 147.538 60.0143 147.538 61.3223C147.538 62.6439 147.723 63.8516 148.092 64.9453C148.32 65.6198 148.769 66.5905 149.438 67.8574H148.611C147.946 66.8184 147.534 66.1553 147.374 65.8682C147.215 65.5811 147.041 65.1914 146.854 64.6992C146.599 64.0247 146.422 63.3047 146.321 62.5391C146.271 62.1426 146.246 61.7643 146.246 61.4043C146.246 60.0553 146.458 58.8545 146.882 57.8018C147.151 57.1318 147.711 56.1292 148.563 54.7939H149.418ZM157.96 63.712H162.328V64.706H157.96V63.712ZM157.386 54.752H162.874V65.546H161.824V55.746H158.394V65.77H157.386V54.752ZM150.554 56.096H155.748V57.118H150.554V56.096ZM152.92 53.226L153.956 53.352C153.797 54.052 153.62 54.7987 153.424 55.592C153.237 56.3853 153.041 57.188 152.836 58C152.64 58.8027 152.439 59.5727 152.234 60.31C152.038 61.038 151.856 61.6913 151.688 62.27L150.792 61.836C150.96 61.304 151.137 60.6833 151.324 59.974C151.52 59.2647 151.711 58.518 151.898 57.734C152.094 56.95 152.28 56.1707 152.458 55.396C152.635 54.6213 152.789 53.898 152.92 53.226ZM151.268 61.304L151.842 60.548C152.299 60.7813 152.766 61.0427 153.242 61.332C153.727 61.6213 154.194 61.9247 154.642 62.242C155.099 62.5593 155.514 62.8767 155.888 63.194C156.27 63.5113 156.583 63.8147 156.826 64.104L156.196 64.986C155.953 64.6967 155.645 64.3933 155.272 64.076C154.908 63.7493 154.502 63.4227 154.053 63.096C153.606 62.76 153.144 62.4427 152.668 62.144C152.192 61.836 151.725 61.556 151.268 61.304ZM155.454 56.096H155.636L155.818 56.082L156.476 56.208C156.326 58.084 156.037 59.6707 155.608 60.968C155.178 62.2653 154.609 63.3293 153.9 64.16C153.2 64.9813 152.36 65.6393 151.38 66.134C151.314 66.0033 151.221 65.854 151.1 65.686C150.978 65.518 150.862 65.378 150.75 65.266C151.636 64.874 152.406 64.2953 153.06 63.53C153.722 62.7647 154.254 61.7893 154.656 60.604C155.057 59.4093 155.323 57.9813 155.454 56.32V56.096ZM164.806 60.674H177.084V61.64H164.806V60.674ZM170.392 54.262H171.498V66.12H170.392V54.262ZM170.014 61.08L170.896 61.472C170.457 62.06 169.925 62.6247 169.3 63.166C168.674 63.7073 168.002 64.1927 167.284 64.622C166.574 65.042 165.87 65.3873 165.17 65.658C165.114 65.574 165.044 65.476 164.96 65.364C164.876 65.252 164.787 65.1447 164.694 65.042C164.61 64.9487 164.526 64.8647 164.442 64.79C164.964 64.622 165.492 64.4073 166.024 64.146C166.556 63.8847 167.069 63.5907 167.564 63.264C168.068 62.9373 168.525 62.5873 168.936 62.214C169.356 61.8407 169.715 61.4627 170.014 61.08ZM171.806 61.038C172.114 61.4207 172.482 61.794 172.912 62.158C173.35 62.522 173.822 62.8673 174.326 63.194C174.83 63.5113 175.348 63.8007 175.88 64.062C176.421 64.3233 176.944 64.538 177.448 64.706C177.373 64.7713 177.289 64.86 177.196 64.972C177.102 65.0747 177.014 65.182 176.93 65.294C176.855 65.406 176.79 65.504 176.734 65.588C176.22 65.3827 175.693 65.1353 175.152 64.846C174.62 64.5473 174.097 64.216 173.584 63.852C173.08 63.488 172.604 63.1007 172.156 62.69C171.708 62.27 171.316 61.8453 170.98 61.416L171.806 61.038ZM167.242 57.118V58.574H174.676V57.118H167.242ZM167.242 54.822V56.25H174.676V54.822H167.242ZM166.164 53.912H175.81V59.484H166.164V53.912ZM184.924 54.528H189.852V55.48H184.924V54.528ZM183.006 59.792H189.81V60.758H183.006V59.792ZM189.446 54.528H190.51C190.51 54.528 190.505 54.584 190.496 54.696C190.496 54.7987 190.486 54.8873 190.468 54.962C190.421 55.7833 190.365 56.4507 190.3 56.964C190.234 57.4773 190.155 57.874 190.062 58.154C189.978 58.434 189.875 58.644 189.754 58.784C189.623 58.9053 189.488 58.994 189.348 59.05C189.208 59.106 189.03 59.1387 188.816 59.148C188.638 59.1667 188.386 59.176 188.06 59.176C187.742 59.1667 187.402 59.1527 187.038 59.134C187.019 58.9847 186.982 58.8213 186.926 58.644C186.879 58.4573 186.809 58.294 186.716 58.154C187.07 58.1913 187.402 58.2147 187.71 58.224C188.027 58.2333 188.251 58.238 188.382 58.238C188.503 58.238 188.596 58.2333 188.662 58.224C188.736 58.2053 188.806 58.168 188.872 58.112C188.956 58.0187 189.03 57.8507 189.096 57.608C189.17 57.356 189.236 56.9967 189.292 56.53C189.348 56.054 189.399 55.4333 189.446 54.668V54.528ZM184.77 53.24L185.834 53.366C185.656 54.7193 185.348 55.9093 184.91 56.936C184.48 57.9533 183.888 58.798 183.132 59.47C183.076 59.414 182.992 59.344 182.88 59.26C182.777 59.1667 182.665 59.078 182.544 58.994C182.432 58.91 182.329 58.8447 182.236 58.798C182.982 58.21 183.552 57.4447 183.944 56.502C184.345 55.55 184.62 54.4627 184.77 53.24ZM189.46 59.792H189.67L189.866 59.75L190.538 60.044C190.211 60.9307 189.777 61.71 189.236 62.382C188.704 63.0447 188.083 63.6233 187.374 64.118C186.674 64.6033 185.913 65.0047 185.092 65.322C184.28 65.6487 183.435 65.91 182.558 66.106C182.53 66.0127 182.488 65.9053 182.432 65.784C182.376 65.672 182.31 65.56 182.236 65.448C182.161 65.336 182.091 65.2427 182.026 65.168C182.856 65.0187 183.654 64.804 184.42 64.524C185.194 64.2347 185.908 63.88 186.562 63.46C187.224 63.0307 187.803 62.5267 188.298 61.948C188.802 61.36 189.189 60.6973 189.46 59.96V59.792ZM184.896 60.66C185.278 61.4067 185.792 62.0833 186.436 62.69C187.08 63.2873 187.826 63.8007 188.676 64.23C189.525 64.65 190.449 64.9673 191.448 65.182C191.373 65.2567 191.289 65.3453 191.196 65.448C191.112 65.56 191.028 65.672 190.944 65.784C190.869 65.9053 190.804 66.0173 190.748 66.12C189.73 65.8587 188.788 65.4853 187.92 65C187.061 64.524 186.296 63.95 185.624 63.278C184.952 62.5967 184.396 61.8313 183.958 60.982L184.896 60.66ZM179.226 54.108L179.814 53.352C180.122 53.4827 180.434 53.6367 180.752 53.814C181.078 53.982 181.386 54.1593 181.676 54.346C181.965 54.5327 182.198 54.71 182.376 54.878L181.76 55.746C181.582 55.5687 181.349 55.382 181.06 55.186C180.78 54.99 180.481 54.7987 180.164 54.612C179.846 54.416 179.534 54.248 179.226 54.108ZM178.47 57.902L179.03 57.118C179.338 57.2393 179.655 57.384 179.982 57.552C180.318 57.7107 180.63 57.8787 180.92 58.056C181.218 58.2333 181.461 58.4013 181.648 58.56L181.06 59.428C180.873 59.2693 180.635 59.0967 180.346 58.91C180.056 58.7233 179.748 58.5413 179.422 58.364C179.095 58.1867 178.778 58.0327 178.47 57.902ZM178.932 65.238C179.174 64.8647 179.44 64.4307 179.73 63.936C180.019 63.432 180.313 62.9047 180.612 62.354C180.91 61.794 181.186 61.248 181.438 60.716L182.222 61.388C181.998 61.8827 181.746 62.396 181.466 62.928C181.195 63.46 180.915 63.9873 180.626 64.51C180.346 65.0233 180.08 65.4947 179.828 65.924L178.932 65.238ZM192.82 55.06H205.084V56.04H192.82V55.06ZM196.25 60.058H202.816V60.954H196.25V60.058ZM195.508 57.664H202.648V58.616H196.544V66.106H195.508V57.664ZM202.41 57.664H203.446V64.804C203.446 65.112 203.404 65.35 203.32 65.518C203.236 65.6953 203.077 65.8307 202.844 65.924C202.61 65.9987 202.293 66.0407 201.892 66.05C201.5 66.0687 201.005 66.078 200.408 66.078C200.38 65.938 200.333 65.77 200.268 65.574C200.202 65.378 200.132 65.21 200.058 65.07C200.366 65.0793 200.655 65.084 200.926 65.084C201.206 65.0933 201.448 65.0933 201.654 65.084C201.859 65.084 202.008 65.084 202.102 65.084C202.223 65.084 202.302 65.0607 202.34 65.014C202.386 64.9767 202.41 64.902 202.41 64.79V57.664ZM197.412 53.24L198.476 53.492C198.158 54.5093 197.757 55.5173 197.272 56.516C196.786 57.5147 196.203 58.448 195.522 59.316C194.84 60.1747 194.056 60.9213 193.17 61.556C193.123 61.472 193.058 61.3833 192.974 61.29C192.89 61.1873 192.806 61.0893 192.722 60.996C192.638 60.8933 192.563 60.8093 192.498 60.744C193.123 60.3147 193.692 59.8153 194.206 59.246C194.728 58.6767 195.195 58.0653 195.606 57.412C196.016 56.7493 196.371 56.068 196.67 55.368C196.968 54.6587 197.216 53.9493 197.412 53.24ZM196.25 62.424H202.816V63.334H196.25V62.424ZM211.832 54.906H218.846V55.844H211.832V54.906ZM211.244 57.622H219.434V58.574H211.244V57.622ZM211.314 60.156H219.294V61.094H211.314V60.156ZM214.772 53.226H215.808V58.21H214.772V53.226ZM216.62 58.42H217.656V64.874C217.656 65.1727 217.614 65.4013 217.53 65.56C217.446 65.728 217.296 65.8493 217.082 65.924C216.858 66.008 216.564 66.0593 216.2 66.078C215.836 66.0967 215.369 66.106 214.8 66.106C214.781 65.966 214.734 65.798 214.66 65.602C214.594 65.4153 214.524 65.252 214.45 65.112C214.879 65.1213 215.271 65.126 215.626 65.126C215.98 65.1353 216.214 65.1353 216.326 65.126C216.438 65.126 216.512 65.1073 216.55 65.07C216.596 65.0327 216.62 64.9627 216.62 64.86V58.42ZM212.168 62.074L213.007 61.584C213.241 61.8173 213.479 62.0787 213.722 62.368C213.964 62.6573 214.184 62.942 214.38 63.222C214.585 63.502 214.739 63.7587 214.842 63.992L213.946 64.538C213.843 64.3047 213.694 64.048 213.498 63.768C213.311 63.4787 213.101 63.1893 212.868 62.9C212.634 62.6013 212.401 62.326 212.168 62.074ZM207.506 54.15H211.006V63.362H207.506V62.41H210.012V55.116H207.506V54.15ZM207.548 58.224H210.474V59.176H207.548V58.224ZM207.002 54.15H207.982V64.51H207.002V54.15ZM228.982 53.282H229.976V54.794H228.982V53.282ZM226.056 54.234H233.028V55.046H226.056V54.234ZM225.664 56.53H233.35V57.37H225.664V56.53ZM227.12 55.172L227.974 54.976C228.114 55.2093 228.24 55.466 228.352 55.746C228.473 56.0167 228.557 56.25 228.604 56.446L227.694 56.684C227.656 56.4787 227.582 56.236 227.47 55.956C227.367 55.6667 227.25 55.4053 227.12 55.172ZM231.068 54.92L231.964 55.186C231.824 55.4567 231.684 55.7273 231.544 55.998C231.404 56.2687 231.268 56.5067 231.138 56.712L230.368 56.474C230.489 56.2593 230.615 56.0027 230.746 55.704C230.886 55.4053 230.993 55.144 231.068 54.92ZM227.218 60.436V61.444H231.88V60.436H227.218ZM227.218 58.742V59.736H231.88V58.742H227.218ZM226.364 58.028H232.776V62.158H226.364V58.028ZM228.996 58.518H229.976V65.406H228.996V58.518ZM226.252 63.04H232.832V63.852H226.252V63.04ZM225.468 64.944H233.378V65.798H225.468V64.944ZM221.45 56.712H225.398V57.608H221.45V56.712ZM220.708 59.106H225.832V60.03H220.708V59.106ZM221.016 60.94L221.744 60.772C221.893 61.192 222.019 61.6493 222.122 62.144C222.224 62.6387 222.29 63.0633 222.318 63.418L221.534 63.614C221.524 63.25 221.468 62.8207 221.366 62.326C221.272 61.8313 221.156 61.3693 221.016 60.94ZM220.568 64.72C221.025 64.636 221.543 64.538 222.122 64.426C222.71 64.314 223.33 64.1973 223.984 64.076C224.637 63.9453 225.29 63.81 225.944 63.67L226.014 64.552C225.099 64.7573 224.18 64.958 223.256 65.154C222.341 65.3593 221.52 65.5367 220.792 65.686L220.568 64.72ZM224.908 60.646L225.734 60.856C225.612 61.2853 225.491 61.7333 225.37 62.2C225.248 62.6573 225.127 63.0493 225.006 63.376L224.32 63.166C224.394 62.942 224.469 62.6807 224.544 62.382C224.618 62.074 224.688 61.7707 224.754 61.472C224.819 61.164 224.87 60.8887 224.908 60.646ZM222.892 57.048H223.83V64.678L222.892 64.818V57.048ZM222.85 53.24H223.41V53.464H223.718V53.744C223.447 54.276 223.078 54.8873 222.612 55.578C222.145 56.2593 221.566 56.908 220.876 57.524C220.82 57.4493 220.754 57.37 220.68 57.286C220.605 57.202 220.526 57.1227 220.442 57.048C220.358 56.964 220.283 56.8987 220.218 56.852C220.647 56.4973 221.03 56.1147 221.366 55.704C221.702 55.284 221.991 54.864 222.234 54.444C222.486 54.0147 222.691 53.6133 222.85 53.24ZM223.018 53.24H223.802C224.082 53.4827 224.371 53.7533 224.67 54.052C224.978 54.3507 225.267 54.6447 225.538 54.934C225.818 55.2233 226.042 55.4893 226.21 55.732L225.496 56.53C225.337 56.2967 225.132 56.026 224.88 55.718C224.628 55.41 224.357 55.102 224.068 54.794C223.788 54.486 223.508 54.2153 223.228 53.982H223.018V53.24ZM236.136 66.498L235.828 65.756C236.397 65.5227 236.831 65.224 237.13 64.86C237.438 64.496 237.592 64.048 237.592 63.516L237.34 62.34L238.096 63.404C237.993 63.5253 237.876 63.6093 237.746 63.656C237.615 63.6933 237.484 63.712 237.354 63.712C237.064 63.712 236.817 63.628 236.612 63.46C236.406 63.292 236.304 63.0447 236.304 62.718C236.304 62.382 236.406 62.13 236.612 61.962C236.826 61.794 237.078 61.71 237.368 61.71C237.76 61.71 238.054 61.8593 238.25 62.158C238.455 62.4473 238.558 62.8347 238.558 63.32C238.558 64.076 238.338 64.7293 237.9 65.28C237.461 65.8307 236.873 66.2367 236.136 66.498ZM256.268 54.92H257.29V62.69H256.268V54.92ZM259.698 53.506H260.748V64.72C260.748 65.084 260.696 65.3547 260.594 65.532C260.5 65.7093 260.342 65.8447 260.118 65.938C259.884 66.022 259.562 66.0733 259.152 66.092C258.741 66.12 258.214 66.134 257.57 66.134C257.56 66.0407 257.532 65.9287 257.486 65.798C257.439 65.6673 257.388 65.5367 257.332 65.406C257.285 65.2753 257.234 65.1633 257.178 65.07C257.682 65.0793 258.134 65.084 258.536 65.084C258.937 65.0933 259.203 65.0933 259.334 65.084C259.464 65.0747 259.558 65.0467 259.614 65C259.67 64.944 259.698 64.8507 259.698 64.72V53.506ZM250.276 63.04L251.312 63.32C251.078 63.852 250.78 64.37 250.416 64.874C250.052 65.378 249.683 65.8027 249.31 66.148C249.244 66.0827 249.156 66.008 249.044 65.924C248.941 65.84 248.834 65.7607 248.722 65.686C248.61 65.6113 248.512 65.5507 248.428 65.504C248.801 65.1867 249.151 64.8133 249.478 64.384C249.814 63.9453 250.08 63.4973 250.276 63.04ZM252.698 63.446L253.608 63.054C253.925 63.418 254.233 63.824 254.532 64.272C254.83 64.72 255.059 65.112 255.218 65.448L254.252 65.924C254.168 65.6907 254.042 65.4293 253.874 65.14C253.706 64.8507 253.519 64.5613 253.314 64.272C253.118 63.9733 252.912 63.698 252.698 63.446ZM250.276 57.314V59.064H253.692V57.314H250.276ZM250.276 59.932V61.682H253.692V59.932H250.276ZM250.276 54.724V56.46H253.692V54.724H250.276ZM249.282 53.786H254.742V62.634H249.282V53.786ZM263.478 58.21H267.034V59.176H263.478V58.21ZM262.904 54.472H267.678V59.708H266.656V55.452H262.904V54.472ZM262.918 58.21H263.926V62.69C263.926 62.9047 263.968 63.0447 264.052 63.11C264.136 63.166 264.322 63.194 264.612 63.194C264.677 63.194 264.798 63.194 264.976 63.194C265.153 63.194 265.349 63.194 265.564 63.194C265.788 63.194 265.993 63.194 266.18 63.194C266.366 63.194 266.506 63.194 266.6 63.194C266.768 63.194 266.894 63.1567 266.978 63.082C267.062 63.0073 267.122 62.8533 267.16 62.62C267.197 62.3773 267.225 62.0227 267.244 61.556C267.318 61.612 267.412 61.668 267.524 61.724C267.636 61.78 267.752 61.8313 267.874 61.878C267.995 61.9153 268.102 61.948 268.196 61.976C268.158 62.5547 268.088 63.0073 267.986 63.334C267.883 63.6607 267.729 63.8847 267.524 64.006C267.328 64.1273 267.048 64.188 266.684 64.188C266.609 64.188 266.469 64.188 266.264 64.188C266.058 64.188 265.83 64.188 265.578 64.188C265.335 64.188 265.111 64.188 264.906 64.188C264.71 64.188 264.579 64.188 264.514 64.188C264.094 64.188 263.767 64.1507 263.534 64.076C263.31 63.992 263.151 63.8427 263.058 63.628C262.964 63.404 262.918 63.096 262.918 62.704V58.21ZM269.651 55.802H275.406V56.81H269.651V55.802ZM270.016 53.24L271.108 53.436C270.921 54.276 270.697 55.088 270.436 55.872C270.174 56.6467 269.876 57.37 269.54 58.042C269.204 58.7047 268.83 59.288 268.42 59.792C268.354 59.736 268.266 59.666 268.154 59.582C268.042 59.498 267.925 59.4187 267.804 59.344C267.682 59.26 267.58 59.19 267.496 59.134C267.906 58.6767 268.27 58.14 268.588 57.524C268.905 56.8987 269.18 56.222 269.414 55.494C269.656 54.766 269.857 54.0147 270.016 53.24ZM273.292 56.208L274.356 56.334C274.16 57.6313 273.889 58.798 273.544 59.834C273.208 60.8607 272.774 61.7753 272.242 62.578C271.719 63.3713 271.075 64.062 270.31 64.65C269.554 65.238 268.658 65.7467 267.622 66.176C267.584 66.0827 267.528 65.98 267.454 65.868C267.379 65.756 267.295 65.6393 267.202 65.518C267.118 65.3967 267.043 65.3033 266.978 65.238C268.312 64.7527 269.4 64.1133 270.24 63.32C271.089 62.5267 271.752 61.5467 272.228 60.38C272.713 59.204 273.068 57.8133 273.292 56.208ZM270.058 56.712C270.319 58.0373 270.678 59.26 271.136 60.38C271.602 61.5 272.2 62.4753 272.928 63.306C273.656 64.1273 274.538 64.7573 275.574 65.196C275.499 65.2707 275.415 65.3593 275.322 65.462C275.228 65.5647 275.14 65.672 275.056 65.784C274.972 65.9053 274.902 66.0127 274.846 66.106C273.763 65.602 272.848 64.9067 272.102 64.02C271.355 63.1333 270.739 62.088 270.254 60.884C269.768 59.6707 269.386 58.336 269.106 56.88L270.058 56.712ZM278.892 60.702H288.426V61.626H278.892V60.702ZM277.086 55.634H286.228V56.6H277.086V55.634ZM281.02 58.168H287.446V59.092H281.02V58.168ZM287.978 60.702H289.028C289.028 60.702 289.023 60.73 289.014 60.786C289.014 60.842 289.009 60.9073 289 60.982C289 61.0473 288.995 61.1033 288.986 61.15C288.902 62.13 288.813 62.9327 288.72 63.558C288.626 64.174 288.524 64.6547 288.412 65C288.3 65.336 288.169 65.5787 288.02 65.728C287.889 65.868 287.749 65.9613 287.6 66.008C287.45 66.064 287.273 66.1013 287.068 66.12C286.89 66.1387 286.638 66.1433 286.312 66.134C285.994 66.134 285.654 66.1247 285.29 66.106C285.28 65.966 285.248 65.8027 285.192 65.616C285.145 65.4387 285.075 65.28 284.982 65.14C285.336 65.1773 285.668 65.2007 285.976 65.21C286.284 65.2193 286.503 65.2193 286.634 65.21C286.764 65.21 286.867 65.2007 286.942 65.182C287.026 65.1633 287.096 65.126 287.152 65.07C287.264 64.9673 287.366 64.762 287.46 64.454C287.553 64.146 287.642 63.7027 287.726 63.124C287.819 62.536 287.903 61.78 287.978 60.856V60.702ZM284.87 62.382L285.598 62.102C285.822 62.382 286.032 62.6993 286.228 63.054C286.433 63.4087 286.578 63.712 286.662 63.964L285.892 64.286C285.808 64.0247 285.668 63.7167 285.472 63.362C285.276 62.998 285.075 62.6713 284.87 62.382ZM278.808 53.66L279.732 53.282C280.002 53.5527 280.273 53.8653 280.544 54.22C280.814 54.5747 281.02 54.8873 281.16 55.158L280.194 55.606C280.072 55.3353 279.876 55.018 279.606 54.654C279.344 54.2807 279.078 53.9493 278.808 53.66ZM280.712 62.718L281.58 62.606C281.72 63.054 281.822 63.5393 281.888 64.062C281.962 64.5847 282 65.0327 282 65.406L281.076 65.546C281.094 65.294 281.085 65.0093 281.048 64.692C281.02 64.3653 280.978 64.034 280.922 63.698C280.875 63.3527 280.805 63.026 280.712 62.718ZM282.784 62.592L283.596 62.41C283.782 62.7927 283.95 63.208 284.1 63.656C284.258 64.104 284.37 64.4913 284.436 64.818L283.554 65.056C283.507 64.72 283.409 64.3233 283.26 63.866C283.11 63.3993 282.952 62.9747 282.784 62.592ZM278.92 62.41L279.802 62.69C279.699 63.082 279.573 63.4833 279.424 63.894C279.274 64.2953 279.092 64.6827 278.878 65.056C278.672 65.4293 278.43 65.756 278.15 66.036L277.338 65.476C277.599 65.224 277.832 64.93 278.038 64.594C278.243 64.2487 278.416 63.8893 278.556 63.516C278.705 63.1333 278.826 62.7647 278.92 62.41ZM283.05 53.226L284.114 53.492C283.806 54.472 283.428 55.4333 282.98 56.376C282.541 57.3093 282.028 58.2007 281.44 59.05C280.861 59.8993 280.194 60.688 279.438 61.416C278.691 62.1347 277.856 62.7647 276.932 63.306C276.894 63.222 276.838 63.1287 276.764 63.026C276.698 62.914 276.628 62.8067 276.554 62.704C276.488 62.592 276.423 62.4987 276.358 62.424C277.226 61.9293 278.014 61.3413 278.724 60.66C279.433 59.9787 280.063 59.2367 280.614 58.434C281.164 57.6313 281.64 56.7913 282.042 55.914C282.452 55.0273 282.788 54.1313 283.05 53.226ZM286.004 55.634H286.984C286.89 56.1193 286.783 56.628 286.662 57.16C286.55 57.692 286.442 58.1493 286.34 58.532L285.402 58.392C285.504 58.0187 285.612 57.58 285.724 57.076C285.836 56.5627 285.929 56.082 286.004 55.634ZM287.054 58.168H288.034C287.94 58.6533 287.838 59.162 287.726 59.694C287.614 60.226 287.506 60.6787 287.404 61.052L286.452 60.954C286.564 60.5713 286.676 60.1233 286.788 59.61C286.9 59.0967 286.988 58.616 287.054 58.168ZM290.375 65C290.421 64.1569 290.594 63.4232 290.895 62.7988C291.2 62.1745 291.792 61.6071 292.672 61.0967L293.984 60.3379C294.572 59.9961 294.985 59.7044 295.222 59.4629C295.595 59.0846 295.782 58.6517 295.782 58.1641C295.782 57.5944 295.611 57.1432 295.27 56.8105C294.928 56.4733 294.472 56.3047 293.902 56.3047C293.059 56.3047 292.476 56.6237 292.152 57.2617C291.979 57.6035 291.883 58.0775 291.865 58.6836H290.614C290.628 57.8314 290.785 57.1364 291.086 56.5986C291.619 55.6507 292.56 55.1768 293.909 55.1768C295.03 55.1768 295.848 55.4798 296.363 56.0859C296.883 56.6921 297.143 57.3665 297.143 58.1094C297.143 58.8932 296.867 59.5632 296.315 60.1191C295.996 60.4427 295.424 60.8346 294.6 61.2949L293.663 61.8145C293.216 62.0605 292.866 62.2952 292.61 62.5186C292.155 62.915 291.868 63.3548 291.749 63.8379H297.095V65H290.375ZM301.518 55.2109C302.785 55.2109 303.701 55.7327 304.266 56.7764C304.703 57.583 304.922 58.6882 304.922 60.0918C304.922 61.4225 304.724 62.5231 304.327 63.3936C303.753 64.6423 302.814 65.2666 301.511 65.2666C300.335 65.2666 299.46 64.7562 298.886 63.7354C298.407 62.8831 298.168 61.7393 298.168 60.3037C298.168 59.1917 298.312 58.237 298.599 57.4395C299.136 55.9538 300.109 55.2109 301.518 55.2109ZM301.504 64.1455C302.142 64.1455 302.65 63.863 303.028 63.2979C303.407 62.7327 303.596 61.68 303.596 60.1396C303.596 59.0277 303.459 58.1139 303.186 57.3984C302.912 56.6784 302.381 56.3184 301.593 56.3184C300.868 56.3184 300.337 56.6602 300 57.3438C299.667 58.0228 299.501 59.0254 299.501 60.3516C299.501 61.3496 299.608 62.1517 299.822 62.7578C300.15 63.6829 300.711 64.1455 301.504 64.1455ZM309.516 64.1729C310.09 64.1729 310.566 63.9336 310.944 63.4551C311.327 62.972 311.519 62.252 311.519 61.2949C311.519 60.7116 311.434 60.2103 311.266 59.791C310.947 58.9844 310.363 58.5811 309.516 58.5811C308.663 58.5811 308.08 59.0072 307.766 59.8594C307.597 60.3151 307.513 60.8939 307.513 61.5957C307.513 62.1608 307.597 62.6416 307.766 63.0381C308.085 63.7946 308.668 64.1729 309.516 64.1729ZM306.33 57.7129H307.526V58.6836C307.772 58.3509 308.041 58.0934 308.333 57.9111C308.748 57.6377 309.235 57.501 309.796 57.501C310.625 57.501 311.329 57.82 311.908 58.458C312.487 59.0915 312.776 59.9984 312.776 61.1787C312.776 62.7738 312.359 63.9131 311.525 64.5967C310.997 65.0296 310.382 65.2461 309.68 65.2461C309.128 65.2461 308.666 65.1253 308.292 64.8838C308.073 64.7471 307.829 64.5124 307.561 64.1797V67.9189H306.33V57.7129ZM313.521 57.6787H315.114L316.796 60.2559L318.498 57.6787L319.995 57.7129L317.527 61.2471L320.104 65H318.532L316.714 62.252L314.95 65H313.392L315.969 61.2471L313.521 57.6787ZM320.802 67.8574C321.526 66.4447 321.993 65.4147 322.203 64.7676C322.522 63.7878 322.682 62.6393 322.682 61.3223C322.682 60.0052 322.497 58.7998 322.128 57.7061C321.9 57.0316 321.451 56.0609 320.781 54.7939H321.608C322.31 55.915 322.734 56.6077 322.88 56.8721C323.03 57.1318 323.192 57.4919 323.365 57.9521C323.584 58.5218 323.739 59.0846 323.83 59.6406C323.926 60.1966 323.974 60.7321 323.974 61.2471C323.974 62.596 323.759 63.7992 323.331 64.8564C323.062 65.5355 322.504 66.5358 321.656 67.8574H320.802Z" fill="#C92E34"/>
<defs>
<clipPath id="clip0_2972_1201">
<rect width="80" height="80" fill="white" transform="translate(23)"/>
</clipPath>
</defs>
</svg>
