<svg width="488" height="257" viewBox="0 0 488 257" fill="none" xmlns="http://www.w3.org/2000/svg">
<rect x="0.999146" y="40" width="424.002" height="216" rx="8" fill="#F4F8FA"/>
<path d="M142.775 88.136H150.575V89.936C149.855 92 149.015 94.16 148.055 96.44C149.567 98.648 150.383 100.568 150.479 102.224C150.479 103.328 150.239 104.144 149.759 104.624C149.039 105.248 147.815 105.56 146.039 105.56L145.295 103.256C145.775 103.328 146.183 103.376 146.519 103.376C147.191 103.328 147.623 103.232 147.863 103.088C148.079 102.92 148.199 102.632 148.199 102.224C148.199 100.592 147.383 98.792 145.751 96.776C146.831 94.376 147.671 92.192 148.295 90.272H145.007V109.496H142.775V88.136ZM153.623 94.544V96.752H159.983V94.544H153.623ZM159.983 92.504V90.272H153.623V92.504H159.983ZM162.191 99.584L163.655 101.048C162.647 102.248 161.495 103.184 160.247 103.856C161.351 105.296 162.695 106.424 164.231 107.288L162.911 109.232C159.887 107.432 157.703 104.624 156.335 100.808L158.039 99.848C158.375 100.712 158.735 101.504 159.167 102.248C160.223 101.624 161.231 100.736 162.191 99.584ZM153.623 98.84V106.304C154.919 105.92 156.191 105.44 157.439 104.864L157.991 106.976C156.239 107.696 154.031 108.416 151.343 109.112L150.791 107.12C151.175 106.976 151.391 106.76 151.391 106.448V88.112H162.215V98.84H153.623ZM180.239 87.464H182.447V89.72H187.943V91.808H182.447V94.064H187.031V96.176H175.559V94.064H180.239V91.808H174.623V89.72H180.239V87.464ZM175.103 98.648H182.951V96.968H185.159V98.648H187.943V100.784H185.159V106.736C185.159 108.44 184.343 109.304 182.759 109.304H179.831L179.351 107.144C180.263 107.24 181.151 107.312 181.991 107.312C182.615 107.312 182.951 106.928 182.951 106.184V100.784H175.103V98.648ZM177.191 101.408C178.463 102.776 179.447 103.976 180.143 105.008L178.343 106.256C177.623 105.128 176.639 103.88 175.415 102.512L177.191 101.408ZM173.855 88.976V106.952H171.695V105.44H168.911V107.528H166.727V88.976H173.855ZM168.911 103.352H171.695V98.144H168.911V103.352ZM168.911 96.08H171.695V91.04H168.911V96.08ZM199.175 101.912C199.439 102.2 199.727 102.488 200.015 102.776C200.495 102.416 200.951 102.032 201.383 101.6C200.807 101.36 200.519 100.928 200.519 100.28V98.24H202.439V99.872C202.439 100.16 202.607 100.304 202.967 100.304H205.391C205.679 100.304 205.895 100.232 206.039 100.112C206.231 99.992 206.351 99.608 206.423 98.936L207.695 99.344L208.727 98.36C209.831 99.224 210.767 100.064 211.511 100.928L210.239 102.2C209.711 101.456 208.991 100.688 208.127 99.896C207.959 100.76 207.719 101.288 207.383 101.48C206.999 101.672 206.447 101.792 205.703 101.792H203.495C203.255 102.08 203.015 102.32 202.823 102.56H209.447V104.072C208.775 105.032 207.767 105.872 206.447 106.616C208.199 107.192 210.119 107.528 212.183 107.624L211.679 109.496C208.847 109.328 206.327 108.728 204.071 107.72C202.055 108.464 199.607 109.088 196.679 109.568L195.887 107.744C198.215 107.408 200.231 107.024 201.911 106.544C201.191 106.064 200.495 105.56 199.871 105.032C199.175 105.464 198.383 105.896 197.495 106.376L196.463 104.696C197.183 104.432 197.879 104.12 198.503 103.76C198.215 103.472 197.951 103.208 197.711 102.92L199.175 101.912ZM204.239 105.728C205.367 105.248 206.279 104.72 206.975 104.144H201.623C202.439 104.744 203.303 105.272 204.239 105.728ZM209.831 90.416V96.152H211.775V99.128H209.687V97.712H204.479C205.007 98.168 205.463 98.648 205.823 99.176L204.431 99.824C203.999 99.152 203.519 98.576 202.991 98.096L204.191 97.712H198.311V99.128H196.223V96.152H198.119V90.416H202.175C202.271 90.152 202.367 89.888 202.439 89.648H196.799V87.872H211.295V89.648H204.695C204.623 89.912 204.551 90.176 204.455 90.416H209.831ZM200.183 96.152H207.767V95.456H200.183V96.152ZM200.183 94.28H207.767V93.632H200.183V94.28ZM200.183 92.48H207.767V91.76H200.183V92.48ZM199.031 98.504L200.255 99.584C199.487 100.64 198.527 101.552 197.375 102.344L196.271 100.88C197.351 100.208 198.263 99.416 199.031 98.504ZM194.399 87.2L196.367 88.136C195.887 89.864 195.263 91.496 194.495 93.08V109.52H192.311V96.824C191.759 97.616 191.183 98.384 190.559 99.128L189.839 96.752C191.879 94.016 193.391 90.848 194.399 87.2ZM214.295 88.736H223.871V87.272H226.127V88.736H235.703V90.656H226.127V91.712H233.663V98.888H232.823C234.071 99.944 235.055 100.904 235.775 101.72L234.095 102.872C233.711 102.392 233.303 101.912 232.847 101.432C229.127 101.696 223.199 101.936 215.087 102.152L214.799 100.16C218.111 100.112 221.135 100.088 223.871 100.04V98.888H216.335V91.712H223.871V90.656H214.295V88.736ZM231.215 99.824L230.543 99.2L231.023 98.888H226.127V99.992C227.999 99.944 229.703 99.872 231.215 99.824ZM231.503 97.208V96.032H226.127V97.208H231.503ZM223.871 97.208V96.032H218.495V97.208H223.871ZM218.495 94.568H223.871V93.392H218.495V94.568ZM226.127 93.392V94.568H231.503V93.392H226.127ZM216.311 102.872L218.351 103.28C217.775 105.344 216.983 107.12 215.951 108.632L214.079 107.432C215.111 106.016 215.855 104.504 216.311 102.872ZM228.431 109.088H222.047C220.463 109.088 219.671 108.32 219.671 106.784V102.776H221.879V106.304C221.879 106.76 222.143 107 222.719 107H228.023C228.359 107 228.623 106.88 228.767 106.688C228.959 106.448 229.103 105.776 229.175 104.648L231.239 105.32C231.071 107.144 230.759 108.224 230.327 108.584C229.919 108.92 229.295 109.088 228.431 109.088ZM225.263 102.176C226.439 103.256 227.351 104.192 227.999 105.008L226.295 106.184C225.623 105.296 224.711 104.312 223.559 103.232L225.263 102.176ZM232.463 102.32C234.023 104.072 235.223 105.632 236.063 106.976L234.263 108.176C233.399 106.736 232.223 105.152 230.735 103.4L232.463 102.32ZM243.527 97.304V109.424H241.391V97.832C240.719 99.872 239.855 101.744 238.847 103.472L237.863 100.952C239.423 98.792 240.551 96.344 241.247 93.584H238.631V91.472H241.391V87.32H243.527V91.472H245.951V93.584H243.527V94.76C244.535 95.888 245.543 97.136 246.551 98.48L245.231 100.472C244.583 99.2 244.007 98.144 243.527 97.304ZM246.767 91.4H250.247V89.984H246.215V88.064H259.655V89.984H255.815V91.4H259.295V97.28H246.767V91.4ZM253.943 89.984H252.143V91.4H253.943V89.984ZM257.327 95.552V93.128H255.647V95.552H257.327ZM253.919 95.552V93.128H252.167V95.552H253.919ZM250.439 95.552V93.128H248.735V95.552H250.439ZM247.463 98.432H258.743V100.352H247.463V98.432ZM246.359 101.552H259.703V103.472H253.943V109.352H251.831V103.472H246.359V101.552ZM248.927 104.072L250.367 105.32C249.311 106.856 248.039 108.176 246.503 109.328L245.231 107.648C246.671 106.64 247.919 105.44 248.927 104.072ZM256.751 104.096C258.119 105.32 259.271 106.544 260.207 107.744L258.719 109.208C257.927 108.056 256.823 106.784 255.383 105.44L256.751 104.096ZM278.159 106.976C280.775 106.976 282.719 106.928 284.015 106.832L283.631 109.088H278.663C272.975 109.088 269.423 108.776 268.007 108.176C266.855 107.696 265.847 106.856 264.959 105.68C264.551 107.024 263.999 108.296 263.327 109.472L261.719 108.056C262.919 105.944 263.591 103.568 263.711 100.976L265.679 101.216C265.631 101.984 265.559 102.752 265.463 103.472C265.967 104.192 266.495 104.792 267.071 105.272V99.992H262.511V97.976H272.543V99.992H269.063V102.176H272.135V104.216H269.063V106.352C269.087 106.352 269.111 106.376 269.135 106.376C270.431 106.76 273.455 106.976 278.159 106.976ZM263.639 88.112H271.751V96.8H263.639V88.112ZM269.639 94.928V93.32H265.775V94.928H269.639ZM265.775 91.592H269.639V89.984H265.775V91.592ZM273.671 91.496H276.503C276.647 91.04 276.743 90.584 276.839 90.104H272.975V88.136H283.535V90.104H279.047C278.951 90.584 278.831 91.04 278.687 91.496H282.719V102.752H280.463C281.663 103.52 282.695 104.264 283.559 105.032L282.167 106.448C281.351 105.584 280.199 104.672 278.711 103.712L279.719 102.752H276.239L277.463 103.808C276.431 104.816 275.159 105.728 273.671 106.52L272.495 104.984C273.791 104.336 274.895 103.592 275.807 102.752H273.671V91.496ZM280.679 100.976V99.464H275.735V100.976H280.679ZM275.735 97.784H280.679V96.464H275.735V97.784ZM275.735 94.784H280.679V93.272H275.735V94.784Z" fill="#00A19B"/>
<path d="M50.4817 215.624H59.0017C59.2657 214.112 59.4577 212.456 59.5537 210.656H51.1057V208.472H70.2097V210.656H61.8577C61.7377 212.48 61.5457 214.136 61.3057 215.624H70.9057V217.808H62.3857C64.0657 222.104 67.1617 225.416 71.6977 227.744L70.2817 229.592C65.6017 227.048 62.3857 223.448 60.6097 218.816C60.2257 220.16 59.7937 221.288 59.2657 222.2C57.6577 225.056 54.9217 227.528 51.0817 229.616L49.6417 227.744C53.1457 225.92 55.6417 223.784 57.1297 221.288C57.6817 220.352 58.1377 219.2 58.5217 217.808H50.4817V215.624ZM81.7537 207.32H83.9617L75.5857 229.4H73.3537L81.7537 207.32Z" fill="black"/>
<path d="M52.1229 147.44H55.4029V176H51.0429V152.68C49.3229 154.32 47.1229 155.52 44.4829 156.28V151.96C45.7629 151.64 47.0829 151.08 48.5229 150.28C49.9629 149.4 51.1629 148.48 52.1229 147.44ZM71.451 146.88C74.331 146.88 76.611 147.56 78.371 148.96C80.051 150.36 80.931 152.28 80.931 154.72C80.931 157.84 79.331 159.96 76.211 161C77.891 161.52 79.171 162.32 80.051 163.36C81.011 164.44 81.491 165.84 81.491 167.52C81.491 170.16 80.571 172.32 78.771 174C76.851 175.68 74.331 176.56 71.291 176.56C68.371 176.56 66.011 175.8 64.251 174.32C62.251 172.64 61.131 170.2 60.891 167H65.291C65.371 168.92 65.971 170.4 67.171 171.44C68.211 172.4 69.571 172.88 71.251 172.88C73.091 172.88 74.571 172.32 75.691 171.28C76.651 170.32 77.171 169.16 77.171 167.72C77.171 166.04 76.651 164.8 75.611 164C74.651 163.2 73.211 162.8 71.331 162.8H69.251V159.52H71.291C73.051 159.52 74.371 159.12 75.251 158.36C76.131 157.6 76.611 156.48 76.611 155.04C76.611 153.6 76.171 152.52 75.371 151.76C74.491 150.96 73.171 150.6 71.491 150.6C69.771 150.6 68.411 151.04 67.451 151.92C66.491 152.8 65.891 154.12 65.731 155.88H61.451C61.691 153.04 62.731 150.84 64.611 149.24C66.371 147.64 68.651 146.88 71.451 146.88Z" fill="#00A19B"/>
<path d="M143.679 229.208H140.151L139.599 226.832C140.751 226.928 141.807 227 142.815 227C143.727 227 144.207 226.52 144.207 225.584V207.68H146.583V226.184C146.583 228.2 145.599 229.208 143.679 229.208ZM137.751 213.248L140.031 214.16C138.927 218.888 137.463 222.512 135.663 225.008L133.671 223.256C135.495 220.76 136.863 217.424 137.751 213.248ZM152.199 212.648C153.927 216.872 155.271 220.544 156.207 223.712L154.143 225.128C153.135 221.792 151.791 218.072 150.111 213.944L152.199 212.648ZM172.239 207.464H174.447V209.72H179.943V211.808H174.447V214.064H179.031V216.176H167.559V214.064H172.239V211.808H166.623V209.72H172.239V207.464ZM167.103 218.648H174.951V216.968H177.159V218.648H179.943V220.784H177.159V226.736C177.159 228.44 176.343 229.304 174.759 229.304H171.831L171.351 227.144C172.263 227.24 173.151 227.312 173.991 227.312C174.615 227.312 174.951 226.928 174.951 226.184V220.784H167.103V218.648ZM169.191 221.408C170.463 222.776 171.447 223.976 172.143 225.008L170.343 226.256C169.623 225.128 168.639 223.88 167.415 222.512L169.191 221.408ZM165.855 208.976V226.952H163.695V225.44H160.911V227.528H158.727V208.976H165.855ZM160.911 223.352H163.695V218.144H160.911V223.352ZM160.911 216.08H163.695V211.04H160.911V216.08ZM190.095 207.32H192.303L183.927 229.4H181.695L190.095 207.32Z" fill="black"/>
<path d="M152.125 147.44H155.405V176H151.045V152.68C149.325 154.32 147.125 155.52 144.485 156.28V151.96C145.765 151.64 147.085 151.08 148.525 150.28C149.965 149.4 151.165 148.48 152.125 147.44ZM171.453 146.88C174.333 146.88 176.613 147.56 178.373 148.96C180.053 150.36 180.933 152.28 180.933 154.72C180.933 157.84 179.333 159.96 176.213 161C177.893 161.52 179.173 162.32 180.053 163.36C181.013 164.44 181.493 165.84 181.493 167.52C181.493 170.16 180.573 172.32 178.773 174C176.853 175.68 174.333 176.56 171.293 176.56C168.373 176.56 166.013 175.8 164.253 174.32C162.253 172.64 161.133 170.2 160.893 167H165.293C165.373 168.92 165.973 170.4 167.173 171.44C168.213 172.4 169.573 172.88 171.253 172.88C173.093 172.88 174.573 172.32 175.693 171.28C176.653 170.32 177.173 169.16 177.173 167.72C177.173 166.04 176.653 164.8 175.613 164C174.653 163.2 173.213 162.8 171.333 162.8H169.253V159.52H171.293C173.053 159.52 174.373 159.12 175.253 158.36C176.133 157.6 176.613 156.48 176.613 155.04C176.613 153.6 176.173 152.52 175.373 151.76C174.493 150.96 173.173 150.6 171.493 150.6C169.773 150.6 168.413 151.04 167.453 151.92C166.493 152.8 165.893 154.12 165.733 155.88H161.453C161.693 153.04 162.733 150.84 164.613 149.24C166.373 147.64 168.653 146.88 171.453 146.88Z" fill="#00A19B"/>
<path d="M252.345 208.328L254.457 209.192C252.777 212.984 250.521 215.912 247.713 217.952L245.913 216.392C248.793 214.376 250.953 211.688 252.345 208.328ZM256.785 208.04H261.537C262.785 211.352 264.993 214.016 268.113 216.032L266.625 218.072C263.697 216.104 261.513 213.488 260.049 210.272H256.785V208.04ZM254.121 218.864H249.705V216.68H264.129C264.033 219.752 263.889 222.224 263.649 224.144C263.409 226.016 263.025 227.336 262.473 228.08C261.921 228.8 261.033 229.208 259.809 229.28H255.249L254.625 227.024C256.041 227.072 257.385 227.12 258.657 227.12C259.857 227.12 260.673 226.616 261.057 225.608C261.441 224.552 261.705 222.296 261.825 218.864H256.425C255.849 221.36 255.081 223.352 254.121 224.84C252.873 226.568 251.025 228.152 248.553 229.544L247.089 227.648C249.249 226.496 250.905 225.2 252.033 223.784C252.921 222.512 253.617 220.88 254.121 218.864ZM278.097 207.32H280.305L271.929 229.4H269.697L278.097 207.32Z" fill="black"/>
<path d="M252.125 147.44H255.405V176H251.045V152.68C249.325 154.32 247.125 155.52 244.485 156.28V151.96C245.765 151.64 247.085 151.08 248.525 150.28C249.965 149.4 251.165 148.48 252.125 147.44ZM271.573 146.88C277.093 146.88 280.253 149.44 280.973 154.64H276.733C276.133 151.84 274.413 150.48 271.533 150.48C269.533 150.48 267.973 151.44 266.813 153.4C265.653 155.24 265.093 157.52 265.093 160.32C265.093 160.44 265.093 160.6 265.133 160.84H265.293C266.093 159.56 267.093 158.64 268.333 158.04C269.453 157.44 270.773 157.16 272.293 157.16C275.093 157.16 277.333 158.04 279.013 159.8C280.653 161.6 281.493 163.92 281.493 166.72C281.493 169.56 280.533 171.92 278.653 173.76C276.733 175.6 274.333 176.56 271.533 176.56C268.013 176.56 265.373 175.28 263.533 172.72C261.773 170.28 260.893 166.88 260.893 162.52C260.893 157.88 261.813 154.12 263.733 151.24C265.653 148.32 268.293 146.88 271.573 146.88ZM271.413 160.68C269.613 160.68 268.213 161.24 267.173 162.36C266.133 163.48 265.613 164.96 265.613 166.84C265.613 168.68 266.133 170.16 267.213 171.28C268.253 172.4 269.653 172.96 271.373 172.96C273.133 172.96 274.533 172.36 275.573 171.2C276.653 170 277.213 168.52 277.213 166.72C277.213 164.88 276.693 163.4 275.653 162.36C274.613 161.24 273.173 160.68 271.413 160.68Z" fill="#00A19B"/>
<path d="M359.689 207.368H361.993V221.096H359.689V207.368ZM356.473 210.944L358.633 211.4C358.009 214.568 357.145 217.328 355.993 219.632L354.025 218.384C355.177 216.08 355.993 213.608 356.473 210.944ZM364.801 210.32C366.097 212.336 367.249 214.472 368.209 216.776L366.169 217.688C365.137 215.144 364.009 212.912 362.785 210.992L364.801 210.32ZM365.065 217.832L366.961 218.984C364.849 224.36 360.649 227.816 354.409 229.4L353.185 227.336C359.137 225.896 363.097 222.728 365.065 217.832ZM346.345 213.464H349.633V210.824C348.721 210.944 347.785 211.064 346.825 211.16L346.369 209.024C349.321 208.784 351.961 208.28 354.265 207.536L355.057 209.648C354.025 209.936 352.945 210.2 351.817 210.44V213.464H354.601V215.672H351.817V217.232C353.017 218.288 354.241 219.488 355.465 220.784L354.193 222.704C353.281 221.288 352.489 220.136 351.817 219.272V229.376H349.633V219.56C348.841 221.48 347.857 223.232 346.705 224.816L345.697 222.272C347.425 220.328 348.697 218.12 349.513 215.672H346.345V213.464ZM378.097 207.32H380.305L371.929 229.4H369.697L378.097 207.32Z" fill="black"/>
<path d="M342.816 147.44H360.016V151.28H346.336L345.496 159.52H345.616C346.496 158.6 347.496 157.96 348.656 157.56C349.696 157.12 350.896 156.92 352.176 156.92C354.856 156.92 357.056 157.8 358.736 159.56C360.416 161.32 361.296 163.72 361.296 166.8C361.296 169.76 360.176 172.16 358.016 174.04C355.976 175.72 353.536 176.56 350.696 176.56C348.136 176.56 345.936 175.84 344.096 174.44C342.056 172.92 340.936 170.8 340.736 168.16H345.016C345.176 169.76 345.816 171 346.896 171.8C347.856 172.52 349.136 172.88 350.736 172.88C352.496 172.88 353.976 172.32 355.176 171.24C356.376 170.12 356.976 168.68 356.976 166.84C356.976 164.84 356.456 163.28 355.416 162.16C354.376 161.04 352.936 160.48 351.016 160.48C349.736 160.48 348.656 160.68 347.696 161.16C346.656 161.64 345.896 162.4 345.336 163.44H341.256L342.816 147.44ZM375.401 146.88C380.921 146.88 384.081 149.44 384.801 154.64H380.561C379.961 151.84 378.241 150.48 375.361 150.48C373.361 150.48 371.801 151.44 370.641 153.4C369.481 155.24 368.921 157.52 368.921 160.32C368.921 160.44 368.921 160.6 368.961 160.84H369.121C369.921 159.56 370.921 158.64 372.161 158.04C373.281 157.44 374.601 157.16 376.121 157.16C378.921 157.16 381.161 158.04 382.841 159.8C384.481 161.6 385.321 163.92 385.321 166.72C385.321 169.56 384.361 171.92 382.481 173.76C380.561 175.6 378.161 176.56 375.361 176.56C371.841 176.56 369.201 175.28 367.361 172.72C365.601 170.28 364.721 166.88 364.721 162.52C364.721 157.88 365.641 154.12 367.561 151.24C369.481 148.32 372.121 146.88 375.401 146.88ZM375.241 160.68C373.441 160.68 372.041 161.24 371.001 162.36C369.961 163.48 369.441 164.96 369.441 166.84C369.441 168.68 369.961 170.16 371.041 171.28C372.081 172.4 373.481 172.96 375.201 172.96C376.961 172.96 378.361 172.36 379.401 171.2C380.481 170 381.041 168.52 381.041 166.72C381.041 164.88 380.521 163.4 379.481 162.36C378.441 161.24 377.001 160.68 375.241 160.68Z" fill="#00A19B"/>
<g clip-path="url(#clip0_2972_327)">
<path d="M96.6904 34.4125C100.115 41.081 99.5256 49.5931 95.5789 55.8975C98.6184 49.1835 99.1854 41.3997 96.6904 34.4125Z" fill="#FFAB04"/>
<path d="M96.8038 8.80792C99.4123 11.8122 100.002 16.3641 98.505 20.0284C99.0267 15.9772 98.5957 12.495 96.8038 8.80792Z" fill="#FFAB04"/>
<path d="M73.7133 3.68706C76.5259 0.864866 80.9943 -0.0455181 84.7369 1.20626C80.6768 0.978664 77.2518 1.63869 73.7133 3.68706Z" fill="#FFAB04"/>
<path d="M75.0289 1.29728C75.7774 0.273101 77.2518 -0.318649 78.4539 0.182062C77.2291 0.341379 76.1403 0.796571 75.0289 1.29728Z" fill="#FFAB04"/>
<path d="M21.6351 19.3001C21.2268 23.3741 22.0434 26.8108 23.926 30.4068C21.2495 27.4936 20.2288 23.0327 21.6351 19.3001Z" fill="#FFAB04"/>
<path d="M41.3686 5.71265C37.3538 4.91606 33.8835 5.41677 30.1182 6.96442C33.2484 4.57467 37.7848 3.98292 41.3686 5.71265Z" fill="#FFAB04"/>
<path d="M36.9456 3.5277C35.7207 3.61874 34.5639 3.73254 33.3845 4.18773C34.2464 3.16355 35.8115 2.98147 36.9456 3.5277Z" fill="#FFAB04"/>
<path d="M55.8625 4.98431C55.0232 5.8947 54.2747 6.78232 53.7303 7.89754C53.6396 6.57749 54.6376 5.34847 55.8625 4.98431Z" fill="#FFAB04"/>
<path d="M100.955 47.6586C101.272 51.3229 99.6844 55.2375 97.0987 57.8094C97.3028 57.3769 97.5523 57.0128 97.7564 56.6031C99.2988 53.8037 100.365 50.7994 100.955 47.6586Z" fill="#FFAB04"/>
<path d="M29.3697 34.458C26.5571 41.3314 26.7386 49.1152 29.4831 55.9658C25.8086 49.5021 25.6272 40.9673 29.3697 34.458Z" fill="#FFAB04"/>
<path d="M25.5591 38.3954C24.856 41.5135 24.6518 44.6998 24.9467 47.8634C24.9694 48.3186 25.0601 48.7738 25.0828 49.2517C23.6992 45.8605 23.7899 41.6272 25.5591 38.3954Z" fill="#FFAB04"/>
<path d="M83.1491 18.7084L81.6748 17.5932L91.6323 4.34709C91.9271 3.93741 92.5169 3.86913 92.9252 4.16501C93.3334 4.46088 93.4015 5.05263 93.1066 5.46231C93.0839 5.48507 83.1491 18.7084 83.1491 18.7084Z" fill="#FFAB04"/>
<path opacity="0.1" d="M82.015 17.1607L83.3533 18.4352L83.1491 18.7084L81.6748 17.5931L82.015 17.1607Z" fill="black"/>
<path opacity="0.1" d="M83.6708 18.0029L82.3326 16.7511L82.5367 16.4552L83.9884 17.5704L83.6708 18.0029Z" fill="black"/>
<path d="M94.6944 25.65L71.8534 8.37551C76.6167 2.04834 85.5761 0.796561 91.8818 5.55332C98.1874 10.3328 99.4349 19.3229 94.6944 25.65Z" fill="#FFC727"/>
<path d="M94.6944 25.65L71.8534 8.37551C76.6167 2.04834 85.5761 0.796561 91.8818 5.55332C98.1874 10.3328 99.4349 19.3229 94.6944 25.65Z" fill="#FFAB04"/>
<path opacity="0.5" d="M92.3354 5.94025C86.9824 2.54907 79.2932 4.50639 74.7341 10.5377L73.3051 9.44523C78.0683 3.11806 86.2793 1.29729 91.6323 5.3485C91.8818 5.55333 92.1086 5.73541 92.3354 5.94025Z" fill="white"/>
<path d="M38.057 23.101L39.2818 21.7354L26.9881 10.6515C26.6025 10.3101 26.0355 10.3556 25.6952 10.7197C25.355 11.1067 25.3777 11.6757 25.7633 12.017L38.057 23.101Z" fill="#FFAB04"/>
<path opacity="0.1" d="M38.8736 21.3712L37.8075 22.8733L38.057 23.1009L39.2818 21.7354L38.8736 21.3712Z" fill="black"/>
<path opacity="0.1" d="M37.3992 22.5092L38.488 21.0071L38.2384 20.7795L37.0136 22.1451L37.3992 22.5092Z" fill="black"/>
<path d="M28.0542 32.1365L47.1525 10.788C41.2779 5.50781 32.2277 5.98577 26.9654 11.8805C21.7032 17.7752 22.1795 26.8336 28.0542 32.1365Z" fill="#FFC727"/>
<path d="M28.0542 32.1365L47.1525 10.788C41.2779 5.50781 32.2277 5.98577 26.9654 11.8805C21.7032 17.7752 22.1795 26.8336 28.0542 32.1365Z" fill="#FFAB04"/>
<path opacity="0.5" d="M26.6025 12.3356C31.207 7.98857 39.1457 8.421 44.7482 13.4736L45.9504 12.1308C40.0757 6.82783 31.6606 6.62299 27.1696 11.6301C26.9654 11.8577 26.784 12.0853 26.6025 12.3356Z" fill="white"/>
<path d="M44.1131 70.7823L42.2532 80L45.4514 79.6814L50.8951 74.1963L44.1131 70.7823Z" fill="#FFC727"/>
<path opacity="0.1" d="M44.1131 70.7823L42.2532 80L45.4514 79.6814L50.8951 74.1963L44.1131 70.7823Z" fill="#FFAB04"/>
<path d="M85.9164 66.7084L89.5002 75.4025L86.302 75.7212L79.9056 71.3741L85.9164 66.7084Z" fill="#FFC727"/>
<path opacity="0.1" d="M85.9164 66.7084L89.5002 75.4025L86.302 75.7212L79.9056 71.3741L85.9164 66.7084Z" fill="#FFAB04"/>
<path d="M62.5049 6.0609L55.4842 6.74298L55.7705 9.71034L62.7912 9.02826L62.5049 6.0609Z" fill="#37474F"/>
<path d="M61.004 9.21588L57.5725 9.54926L57.8413 12.3355L61.2728 12.0022L61.004 9.21588Z" fill="#37474F"/>
<path d="M61.0567 9.7183L57.6317 10.2645L57.5637 9.53623L61.0113 9.21759L61.0567 9.7183Z" fill="#263238"/>
<path d="M62.6218 76.9047C80.7609 76.9047 95.4656 62.1498 95.4656 43.9488C95.4656 25.7477 80.7609 10.9929 62.6218 10.9929C44.4827 10.9929 29.778 25.7477 29.778 43.9488C29.778 62.1498 44.4827 76.9047 62.6218 76.9047Z" fill="#FFAB04"/>
<path opacity="0.1" d="M62.5764 74.8791C79.8888 74.8791 93.9232 60.7968 93.9232 43.4253C93.9232 26.0539 79.8888 11.9716 62.5764 11.9716C45.2641 11.9716 31.2297 26.0539 31.2297 43.4253C31.2297 60.7968 45.2641 74.8791 62.5764 74.8791Z" fill="black"/>
<path d="M62.5991 73.2176C78.784 73.2176 91.9045 60.0524 91.9045 43.8122C91.9045 27.572 78.784 14.4068 62.5991 14.4068C46.4142 14.4068 33.2938 27.572 33.2938 43.8122C33.2938 60.0524 46.4142 73.2176 62.5991 73.2176Z" fill="white"/>
<path d="M80.8809 22.054L79.52 23.7155L79.021 23.3058L80.3819 21.6443C80.4727 21.7126 80.5634 21.7809 80.6314 21.8492C80.6995 21.9175 80.8129 21.9857 80.8809 22.054Z" fill="#263238"/>
<path d="M67.249 17.9118L66.6139 17.798L66.9768 15.6813C67.1809 15.7041 67.4077 15.7496 67.6119 15.7951L67.249 17.9118Z" fill="#263238"/>
<path d="M53.7077 19.0725L53.0953 19.3001L52.3468 17.2745C52.5509 17.2063 52.755 17.1152 52.9592 17.0469L53.7077 19.0725Z" fill="#263238"/>
<path d="M42.5708 26.8335L42.1625 27.3342L40.5067 25.9687C40.5747 25.8776 40.6428 25.7866 40.7108 25.7183C40.7789 25.6273 40.8469 25.559 40.915 25.468L42.5708 26.8335Z" fill="#263238"/>
<path d="M36.6961 39.8065L34.5866 39.4424C34.6093 39.2375 34.6547 39.01 34.7001 38.8051L36.8095 39.1693L36.6961 39.8065Z" fill="#263238"/>
<path d="M38.1704 53.3485L36.1517 54.0995C36.061 53.8947 35.9929 53.6899 35.9249 53.485L37.9436 52.7339L38.1704 53.3485Z" fill="#263238"/>
<path d="M46.1999 64.3413L44.839 66.0028C44.7482 65.9345 44.6575 65.8662 44.5895 65.7979C44.5214 65.7297 44.408 65.6614 44.34 65.5931L45.7009 63.9316L46.1999 64.3413Z" fill="#263238"/>
<path d="M58.2668 71.943C58.0627 71.9203 57.8359 71.8747 57.6317 71.8292L57.9946 69.6898L58.6297 69.8036L58.2668 71.943Z" fill="#263238"/>
<path d="M72.8514 70.3727C72.6473 70.4637 72.4432 70.532 72.239 70.6003L71.4905 68.5746L72.1029 68.347L72.8514 70.3727Z" fill="#263238"/>
<path d="M84.5101 61.9061C84.442 61.9971 84.374 62.0882 84.3059 62.1565L82.6501 60.7909L83.0584 60.2902L84.7142 61.6557C84.6461 61.7468 84.5781 61.8378 84.5101 61.9061Z" fill="#263238"/>
<path d="M90.5435 48.8193L88.4114 48.4551L88.5248 47.8179L90.6569 48.182C90.6116 48.3869 90.5889 48.6145 90.5435 48.8193Z" fill="#263238"/>
<path d="M89.296 34.1394L87.2773 34.8905L87.0505 34.276L89.0692 33.5249C89.1372 33.7297 89.228 33.9346 89.296 34.1394Z" fill="#263238"/>
<path d="M87.7309 46.9986L61.0567 45.155L61.3743 42.3784L87.8217 46.2475L87.7309 46.9986Z" fill="#FFC727"/>
<path d="M60.8979 23.7838L64.2095 45.3143L61.4196 45.5647L60.1494 23.852L60.8979 23.7838Z" fill="#263238"/>
<path d="M54.5923 57.6728L62.0774 41.9459L64.5044 43.3115L55.2501 58.037L54.5923 57.6728Z" fill="#263238"/>
<path d="M63.5518 43.7212C63.5971 44.2446 63.2115 44.7226 62.6898 44.7681C62.1681 44.8136 61.6918 44.4267 61.6464 43.9032C61.6011 43.3798 61.9867 42.9018 62.5084 42.8563C63.0301 42.8108 63.5064 43.1977 63.5518 43.7212Z" fill="#FFC727"/>
<path d="M59.2421 17.2518L59.4916 19.9374C59.5143 20.074 59.4009 20.2105 59.2648 20.2105C59.1287 20.2333 59.0153 20.1195 58.9926 19.9829L58.7885 17.7525L58.607 17.8663C58.5617 17.889 58.5163 17.9118 58.4936 17.9118C58.4029 17.9118 58.3122 17.889 58.2668 17.798C58.1761 17.6842 58.1988 17.5249 58.3122 17.4566L58.8339 17.0697C58.8339 17.0697 58.8565 17.0697 58.8565 17.0469L58.8792 17.0242H58.9019H58.9246H58.9473C58.9473 17.0242 58.9473 17.0242 58.9699 17.0242C58.9926 17.0242 58.9926 17.0242 58.9926 17.0242H59.0153C59.038 17.0242 59.038 17.0242 59.038 17.0242H59.0607C59.0834 17.0242 59.0834 17.0469 59.0834 17.0469C59.0834 17.0469 59.0834 17.0469 59.106 17.0697C59.106 17.0697 59.1287 17.0697 59.1287 17.0924L59.1514 17.1152C59.1514 17.1152 59.1514 17.1152 59.1741 17.138L59.1968 17.1607C59.1968 17.1607 59.1968 17.1607 59.1968 17.1835L59.2194 17.2062C59.2194 17.2062 59.2195 17.229 59.2421 17.229V17.2518C59.2421 17.229 59.2421 17.2062 59.2421 17.2518C59.2421 17.229 59.2421 17.229 59.2421 17.2518Z" fill="#263238"/>
<path d="M62.1228 19.6643C62.1455 19.8008 62.0321 19.9146 61.896 19.9374L60.2855 20.0967C60.2175 20.0967 60.1494 20.0739 60.0814 20.0284C59.968 19.9374 59.968 19.7781 60.0587 19.6643L61.2835 18.3215C61.397 18.1849 61.4423 18.0256 61.4196 17.8663C61.397 17.7297 61.3516 17.5932 61.2382 17.4794C61.1021 17.3656 60.9433 17.32 60.7845 17.32C60.6484 17.3428 60.5123 17.3883 60.3989 17.5021L60.2628 17.6387C60.1721 17.7525 60.0133 17.7525 59.8999 17.6614C59.8092 17.5704 59.7865 17.4111 59.8772 17.2973L60.0133 17.1607C60.1948 16.9559 60.4443 16.8421 60.7165 16.7966C61.0114 16.7738 61.3289 16.8648 61.5557 17.0697C61.7599 17.2518 61.8733 17.5021 61.9186 17.7752C61.9413 18.0711 61.8506 18.3897 61.6465 18.6173L60.8753 19.4822L61.8279 19.3912C61.9867 19.4139 62.1001 19.5277 62.1228 19.6643Z" fill="#263238"/>
<path d="M73.2597 19.2546L73.5092 21.9402C73.5319 22.0768 73.4185 22.2133 73.2824 22.2133C73.1463 22.2361 73.0329 22.1223 73.0102 21.9857L72.8061 19.7553L72.6246 19.8691C72.5793 19.8918 72.5339 19.9146 72.5112 19.9146C72.4205 19.9146 72.3298 19.8918 72.2844 19.8008C72.1937 19.687 72.2164 19.5277 72.3298 19.4594L72.8515 19.0725C72.8515 19.0725 72.8741 19.0725 72.8741 19.0497L72.8968 19.027H72.9195H72.9422H72.9649C72.9649 19.027 72.9649 19.027 72.9876 19.027C73.0102 19.027 73.0102 19.027 73.0102 19.027H73.0329C73.0556 19.027 73.0556 19.027 73.0556 19.027H73.0783C73.101 19.027 73.101 19.0497 73.101 19.0497C73.101 19.0497 73.101 19.0497 73.1236 19.0725C73.1236 19.0725 73.1463 19.0725 73.1463 19.0953L73.169 19.118C73.169 19.118 73.169 19.118 73.1917 19.1408L73.2144 19.1635C73.2144 19.1635 73.2144 19.1635 73.2144 19.1863L73.2371 19.2091C73.2371 19.2091 73.2371 19.2318 73.2597 19.2318V19.2546C73.2371 19.2318 73.2371 19.2318 73.2597 19.2546Z" fill="#263238"/>
<path d="M47.0845 21.8036L47.334 24.4893C47.3567 24.6258 47.2433 24.7624 47.1072 24.7624C46.9711 24.7852 46.8577 24.6714 46.835 24.5348L46.6309 22.3044L46.4494 22.4182C46.404 22.4409 46.3587 22.4637 46.336 22.4637C46.2453 22.4637 46.1545 22.4409 46.1092 22.3499C46.0184 22.2361 46.0411 22.0768 46.1545 22.0085L46.6762 21.6216C46.6762 21.6216 46.6989 21.6216 46.6989 21.5988L46.7216 21.576H46.7443H46.767H46.7896C46.7896 21.576 46.7896 21.576 46.8123 21.576C46.835 21.576 46.835 21.576 46.835 21.576H46.8577C46.8804 21.576 46.8804 21.576 46.8804 21.576H46.9031C46.9257 21.576 46.9257 21.5988 46.9257 21.5988C46.9257 21.5988 46.9257 21.5988 46.9484 21.6216C46.9484 21.6216 46.9711 21.6216 46.9711 21.6443L46.9938 21.6671C46.9938 21.6671 46.9938 21.6671 47.0165 21.6898L47.0391 21.7126C47.0391 21.7126 47.0391 21.7126 47.0391 21.7354L47.0618 21.7581C47.0618 21.7581 47.0618 21.7809 47.0845 21.7809V21.8036C47.0618 21.7809 47.0618 21.7581 47.0845 21.8036Z" fill="#263238"/>
<path d="M48.6042 21.6443L48.8537 24.33C48.8764 24.4665 48.763 24.6031 48.6269 24.6031C48.4908 24.6259 48.3774 24.5121 48.3547 24.3755L48.1506 22.1451L47.9691 22.2589C47.9238 22.2816 47.8784 22.3044 47.8557 22.3044C47.765 22.3044 47.6743 22.2816 47.6289 22.1906C47.5382 22.0768 47.5608 21.9175 47.6743 21.8492L48.1959 21.4623C48.1959 21.4623 48.2186 21.4623 48.2186 21.4395L48.2413 21.4167H48.264H48.2867H48.3094C48.3094 21.4167 48.3094 21.4167 48.332 21.4167C48.3547 21.4167 48.3547 21.4167 48.3547 21.4167H48.3774C48.4001 21.4167 48.4001 21.4167 48.4001 21.4167H48.4228C48.4454 21.4167 48.4454 21.4395 48.4454 21.4395C48.4454 21.4395 48.4454 21.4395 48.4681 21.4623C48.4681 21.4623 48.4908 21.4623 48.4908 21.485L48.5135 21.5078C48.5135 21.5078 48.5135 21.5078 48.5362 21.5305L48.5589 21.5533C48.5589 21.5533 48.5589 21.5533 48.5589 21.5761L48.5815 21.5988C48.5815 21.5988 48.5815 21.6216 48.6042 21.6216V21.6443C48.5815 21.6216 48.5815 21.6216 48.6042 21.6443Z" fill="#263238"/>
<path d="M84.6008 30.3841C84.6235 30.5206 84.5101 30.6344 84.374 30.6572L82.7862 30.8165C82.7182 30.8165 82.6501 30.7937 82.5821 30.7482C82.4687 30.6572 82.4687 30.4979 82.5594 30.3841L83.7842 29.0412C83.8976 28.9047 83.943 28.7454 83.9203 28.5861C83.8977 28.4495 83.8523 28.3129 83.7389 28.1991C83.6028 28.0853 83.444 28.0398 83.2852 28.0398C83.1491 28.0626 83.013 28.1081 82.8996 28.2219L82.7635 28.3585C82.6728 28.4723 82.514 28.4723 82.4006 28.3812C82.3099 28.2902 82.2872 28.1309 82.3779 28.0171L82.514 27.8805C82.6955 27.6757 82.9677 27.5619 83.2172 27.5164C83.5121 27.4936 83.8296 27.5846 84.0564 27.7895C84.2606 27.9715 84.374 28.2219 84.3967 28.495C84.4193 28.7909 84.3286 29.1095 84.1245 29.3371L83.3533 30.202L84.3059 30.1109C84.4647 30.1337 84.5781 30.2247 84.6008 30.3841Z" fill="#263238"/>
<path d="M38.4653 32.1593L38.7148 34.8449C38.7375 34.9815 38.6241 35.0953 38.488 35.118C38.3519 35.1408 38.2385 35.027 38.2158 34.8904L38.0116 32.66L37.8302 32.7738C37.7848 32.7966 37.7394 32.8193 37.7168 32.8193C37.626 32.8193 37.5353 32.7966 37.4899 32.7055C37.3992 32.5917 37.4219 32.4324 37.5353 32.3641L38.057 31.9772C38.057 31.9772 38.0797 31.9772 38.0797 31.9545L38.1024 31.9317H38.125H38.1477H38.1704C38.1704 31.9317 38.1704 31.9317 38.1931 31.9317C38.2158 31.9317 38.2158 31.9317 38.2158 31.9317H38.2385C38.2611 31.9317 38.2611 31.9317 38.2611 31.9317H38.2838C38.3065 31.9317 38.3065 31.9545 38.3065 31.9545C38.3065 31.9545 38.3065 31.9545 38.3292 31.9772C38.3292 31.9772 38.3519 31.9772 38.3519 32L38.3745 32.0227C38.3745 32.0227 38.3745 32.0227 38.3972 32.0455L38.4199 32.0683C38.4199 32.0683 38.4199 32.0683 38.4199 32.091L38.4426 32.1138C38.4426 32.1138 38.4426 32.1365 38.4653 32.1365V32.1593C38.4653 32.1365 38.4653 32.1365 38.4653 32.1593Z" fill="#263238"/>
<path d="M39.1684 33.4338C39.1231 33.0241 39.1911 32.6372 39.3726 32.3186C39.5313 31.9999 39.8035 31.7724 40.1664 31.7268C40.5067 31.7041 40.8242 31.8862 41.051 32.1593C41.2779 32.4324 41.414 32.7965 41.4593 33.2062C41.5047 33.6159 41.4366 34.0028 41.2552 34.3214C41.0964 34.6173 40.8242 34.8677 40.4613 34.9132C40.0984 34.9359 39.7808 34.7539 39.5767 34.4807C39.3499 34.2304 39.2138 33.8435 39.1684 33.4338ZM40.9603 33.2745C40.9376 32.9559 40.8015 32.6827 40.6654 32.5007C40.5067 32.3186 40.3479 32.2503 40.2118 32.2731C40.0757 32.2731 39.9169 32.3869 39.8035 32.5917C39.6901 32.7965 39.6221 33.0924 39.6674 33.411C39.6901 33.7297 39.8262 34.0028 39.9623 34.1849C40.1211 34.3669 40.2799 34.4352 40.4159 34.4352C40.552 34.4352 40.6881 34.3214 40.8015 34.1166C40.9376 33.889 40.983 33.5931 40.9603 33.2745Z" fill="#263238"/>
<path d="M36.2651 45.9288C36.1971 45.3143 36.6507 44.7909 37.2631 44.7226C37.8302 44.6771 38.3519 45.0412 38.4426 45.6102C38.5107 45.9744 38.5107 45.9744 38.4426 45.6102C38.4653 45.7012 38.4653 45.7923 38.488 45.8606C38.5107 46.1564 38.5107 46.4978 38.4199 46.7937C38.3292 47.0896 38.1704 47.4082 37.9209 47.6358C37.7395 47.7724 37.5126 47.8862 37.2631 47.9089C37.127 47.9317 36.991 47.8406 36.9683 47.7041C36.9456 47.5675 37.0363 47.4537 37.1951 47.4082C37.3765 47.3855 37.49 47.3172 37.6034 47.2489C37.7168 47.1579 37.7848 47.0441 37.8529 46.9075C37.8756 46.862 37.8982 46.8165 37.8982 46.7937C37.7621 46.862 37.6261 46.9075 37.4673 46.9303C36.8775 46.9758 36.3332 46.5433 36.2651 45.9288ZM36.7641 45.8833C36.7868 46.202 37.0817 46.4523 37.4219 46.4295C37.7621 46.4068 37.989 46.1109 37.9663 45.7695C37.9436 45.4509 37.6487 45.2005 37.3085 45.2233C36.9683 45.246 36.7414 45.5419 36.7641 45.8833Z" fill="#263238"/>
<path d="M88.5475 40.99C88.797 41.1949 88.9331 41.468 88.9558 41.7639C88.9784 42.0597 88.9104 42.3556 88.7063 42.5832C88.5021 42.8336 88.2299 42.9701 87.9351 42.9929C87.6402 43.0156 87.3453 42.9474 87.1185 42.7425C87.0051 42.6515 87.0051 42.4922 87.0958 42.3784C87.1865 42.2646 87.3453 42.2418 87.4587 42.3556C87.5948 42.4694 87.7536 42.5149 87.9124 42.4922C88.0712 42.4694 88.2299 42.4011 88.3207 42.2646C88.4341 42.128 88.4794 41.9687 88.4567 41.8094C88.4341 41.6501 88.366 41.4908 88.2299 41.3997C88.0938 41.2859 87.9351 41.2404 87.7763 41.2632C87.7082 41.2859 87.6402 41.2404 87.5721 41.1949C87.5495 41.1721 87.5268 41.1494 87.5721 41.1949C87.4587 41.1038 87.436 40.9445 87.5268 40.8307L87.9351 40.3073L87.2092 40.3755C87.0731 40.3983 86.937 40.2845 86.937 40.1479C86.9144 40.0114 87.0278 39.8748 87.1639 39.8748L88.5021 39.7383C88.6382 39.7155 88.7743 39.8293 88.7743 39.9659C88.7743 40.0114 88.7743 40.0569 88.7516 40.1024C88.7516 40.1252 88.7289 40.1479 88.7063 40.1707L88.1846 40.808C88.3207 40.8535 88.4341 40.9218 88.5475 40.99Z" fill="#263238"/>
<path d="M86.8917 55.01C86.9144 55.1465 86.801 55.2603 86.6649 55.2831H86.6195L86.6422 55.6245C86.6649 55.761 86.5515 55.8748 86.4154 55.8976C86.2793 55.9203 86.1659 55.8065 86.1432 55.67L86.1205 55.3286L84.7142 55.4651C84.6689 55.4651 84.6008 55.4651 84.5555 55.4196C84.4421 55.3513 84.3967 55.192 84.4874 55.0782L85.9618 52.825C85.9618 52.825 85.9618 52.825 85.9618 52.8023C85.9844 52.8023 85.9844 52.7795 85.9844 52.7795L86.0071 52.7568L86.0298 52.734C86.0298 52.734 86.0298 52.7112 86.0525 52.7112C86.0525 52.7112 86.0752 52.7112 86.0752 52.6885H86.0978H86.1205H86.1432H86.1659H86.1886H86.2113L86.2339 52.7112C86.2339 52.7112 86.2566 52.7112 86.2566 52.734H86.2793L86.302 52.7568C86.302 52.7568 86.302 52.7795 86.3247 52.7795C86.3247 52.7795 86.3247 52.7795 86.3474 52.8023V52.825V52.8478V52.8706V52.8933V52.9161C86.3474 52.9161 86.3474 52.9161 86.3474 52.9388L86.5288 54.7824H86.5742C86.7329 54.7596 86.869 54.8734 86.8917 55.01ZM85.9618 53.7127L85.1679 54.9189L86.0752 54.8279L85.9618 53.7127Z" fill="#263238"/>
<path d="M43.1832 59.0156C43.2285 59.6074 42.7976 60.1536 42.2078 60.1991C41.6181 60.2446 41.0737 59.8122 41.0283 59.2204C40.983 58.8563 41.1418 58.4921 41.4366 58.2645C41.3232 58.1507 41.2552 57.9914 41.2552 57.8321C41.2098 57.4224 41.5274 57.0583 41.9356 57.0128C42.3439 56.9672 42.7068 57.2859 42.7522 57.6728C42.7749 57.8321 42.7295 58.0142 42.6388 58.128C42.911 58.3101 43.1378 58.6287 43.1832 59.0156ZM42.6841 59.0611C42.6615 58.7425 42.3666 58.4921 42.049 58.5377C41.7315 58.5604 41.482 58.8563 41.5047 59.1749C41.55 59.4936 41.8222 59.7439 42.1625 59.6984C42.48 59.6756 42.7068 59.3798 42.6841 59.0611ZM41.7088 57.7866C41.7315 57.9231 41.8449 58.0369 41.981 58.0142C42.1171 57.9914 42.2305 57.8776 42.2078 57.7411C42.1851 57.6045 42.0717 57.4907 41.9356 57.5135C41.7995 57.5362 41.7088 57.65 41.7088 57.7866Z" fill="#263238"/>
<path d="M77.9322 64.4097C78.1817 64.6145 78.3178 64.8876 78.3405 65.1835C78.3632 65.4794 78.2952 65.7752 78.091 66.0028C77.8869 66.2532 77.6147 66.3897 77.3198 66.4125C77.0476 66.4353 76.7301 66.367 76.5033 66.1622C76.3899 66.0711 76.3672 65.9118 76.4806 65.798C76.5713 65.6842 76.7301 65.6842 76.8435 65.7752C76.9796 65.889 77.1384 65.9346 77.2971 65.9118C77.4559 65.889 77.6147 65.8208 77.7054 65.6842C77.8188 65.5476 77.8642 65.3883 77.8415 65.229C77.8188 65.0697 77.7508 64.9104 77.6147 64.8193C77.4786 64.7055 77.3198 64.66 77.1611 64.6828C77.0023 64.7055 76.8435 64.7738 76.7528 64.9104C76.662 65.0242 76.5033 65.0242 76.3899 64.9331C76.3672 64.9104 76.3445 64.8876 76.3445 64.8876V64.8649C76.3445 64.8649 76.3445 64.8421 76.3218 64.8421C76.3218 64.8193 76.3218 64.8193 76.3218 64.8193C76.3218 64.7966 76.3218 64.7738 76.3218 64.7511L76.3445 63.5676C76.3445 63.4993 76.3899 63.431 76.4352 63.3627H76.4579C76.4579 63.3627 76.4579 63.3627 76.4806 63.3627C76.5033 63.34 76.5486 63.34 76.594 63.3172L77.9322 63.1806C78.0683 63.1579 78.2044 63.2717 78.2044 63.4082C78.2271 63.5448 78.1137 63.6814 77.9776 63.6814L76.8662 63.7952L76.8435 64.2503C76.9342 64.2048 77.0476 64.1821 77.1384 64.1821C77.3879 64.1366 77.7054 64.2048 77.9322 64.4097Z" fill="#263238"/>
<path d="M53.0953 65.9118L52.2334 68.7113C52.2107 68.8023 52.1199 68.8706 52.0292 68.8934C52.0065 68.8934 51.9612 68.8934 51.9385 68.8934C51.8024 68.8478 51.7343 68.7113 51.7797 68.5747L52.5282 66.1622L51.3714 66.276C51.2353 66.2988 51.1219 66.185 51.0992 66.0484C51.0766 65.9118 51.19 65.798 51.3261 65.7753L52.8685 65.616C52.8911 65.616 52.8911 65.616 52.9138 65.616C52.9365 65.616 52.9819 65.6387 53.0046 65.6387C53.0046 65.6387 53.0046 65.6387 53.0272 65.6387C53.0272 65.6387 53.0499 65.6387 53.0499 65.6615C53.0499 65.6615 53.0726 65.6615 53.0726 65.6842L53.0953 65.707L53.118 65.7298L53.1406 65.7525V65.7753C53.1406 65.7753 53.1406 65.798 53.1633 65.798C53.1633 65.8208 53.186 65.8663 53.1633 65.8891C53.0953 65.8891 53.0953 65.9118 53.0953 65.9118Z" fill="#263238"/>
<path d="M66.2056 69.5077C66.2736 70.1222 65.82 70.6457 65.2076 70.714C64.6405 70.7595 64.1188 70.3726 64.0281 69.8264C63.96 69.4622 63.96 69.4622 64.0281 69.8264C64.0054 69.7353 64.0054 69.6443 64.0054 69.576C63.9827 69.2801 63.9827 68.9387 64.0734 68.6429C64.1642 68.3242 64.323 68.0284 64.5725 67.8008C64.7539 67.6642 64.9807 67.5504 65.2302 67.5277C65.3663 67.5049 65.5024 67.5959 65.5251 67.7325C65.5478 67.869 65.4344 67.9828 65.2983 68.0284C65.1168 68.0511 65.0034 68.1194 64.89 68.1877C64.7766 68.2787 64.7085 68.3925 64.6405 68.5291C64.6178 68.5746 64.6178 68.6201 64.5951 68.6429C64.7312 68.5746 64.8673 68.5291 65.0261 68.5063C65.6158 68.4608 66.1602 68.916 66.2056 69.5077ZM65.7066 69.5533C65.6839 69.2346 65.389 68.9843 65.0488 69.007C64.7312 69.0298 64.4817 69.3484 64.5044 69.6671C64.5271 70.0085 64.822 70.236 65.1622 70.2133C65.5024 70.1905 65.7292 69.8947 65.7066 69.5533Z" fill="#263238"/>
</g>
<path d="M435.547 133V117" stroke="#C92E34"/>
<path d="M433.096 117H438" stroke="#C92E34"/>
<path d="M433.096 133H438" stroke="#C92E34"/>
<path d="M433.096 133H438" stroke="#C92E34"/>
<path d="M24 133H433.598" stroke="#C92E34" stroke-dasharray="1 1"/>
<path d="M24 117L433.598 117" stroke="#C92E34" stroke-dasharray="1 1"/>
<path d="M436.547 201V193" stroke="#C92E34"/>
<path d="M434.096 193H439" stroke="#C92E34"/>
<path d="M434.096 201H439" stroke="#C92E34"/>
<path d="M434.096 201H439" stroke="#C92E34"/>
<path d="M25 201H434.598" stroke="#C92E34" stroke-dasharray="1 1"/>
<path d="M25 193L434.598 193" stroke="#C92E34" stroke-dasharray="1 1"/>
<path d="M454.34 123.068V122.125C455.229 122.038 455.848 121.895 456.199 121.694C456.55 121.489 456.812 121.008 456.985 120.252H457.956V130H456.644V123.068H454.34ZM464.888 120.17C465.981 120.17 466.743 120.455 467.171 121.024C467.604 121.59 467.82 122.173 467.82 122.774H466.604C466.531 122.387 466.414 122.084 466.255 121.865C465.959 121.455 465.51 121.25 464.908 121.25C464.22 121.25 463.673 121.569 463.268 122.207C462.862 122.84 462.636 123.75 462.591 124.935C462.873 124.52 463.229 124.21 463.657 124.005C464.049 123.823 464.487 123.731 464.97 123.731C465.79 123.731 466.506 123.993 467.116 124.518C467.727 125.042 468.032 125.823 468.032 126.862C468.032 127.751 467.743 128.539 467.164 129.228C466.585 129.911 465.76 130.253 464.689 130.253C463.773 130.253 462.983 129.907 462.317 129.214C461.652 128.517 461.319 127.345 461.319 125.7C461.319 124.483 461.467 123.451 461.764 122.604C462.333 120.981 463.375 120.17 464.888 120.17ZM464.799 129.159C465.446 129.159 465.929 128.943 466.248 128.51C466.572 128.072 466.733 127.557 466.733 126.965C466.733 126.464 466.59 125.987 466.303 125.536C466.016 125.08 465.494 124.853 464.737 124.853C464.209 124.853 463.744 125.028 463.343 125.379C462.946 125.73 462.748 126.258 462.748 126.965C462.748 127.585 462.928 128.106 463.288 128.53C463.653 128.95 464.156 129.159 464.799 129.159ZM476.475 129.173C477.049 129.173 477.525 128.934 477.903 128.455C478.286 127.972 478.478 127.252 478.478 126.295C478.478 125.712 478.393 125.21 478.225 124.791C477.906 123.984 477.322 123.581 476.475 123.581C475.622 123.581 475.039 124.007 474.725 124.859C474.556 125.315 474.472 125.894 474.472 126.596C474.472 127.161 474.556 127.642 474.725 128.038C475.044 128.795 475.627 129.173 476.475 129.173ZM473.289 122.713H474.485V123.684C474.731 123.351 475 123.093 475.292 122.911C475.707 122.638 476.194 122.501 476.755 122.501C477.584 122.501 478.288 122.82 478.867 123.458C479.446 124.091 479.735 124.998 479.735 126.179C479.735 127.774 479.318 128.913 478.484 129.597C477.956 130.03 477.34 130.246 476.639 130.246C476.087 130.246 475.625 130.125 475.251 129.884C475.032 129.747 474.788 129.512 474.52 129.18V132.919H473.289V122.713ZM480.48 122.679H482.073L483.755 125.256L485.457 122.679L486.954 122.713L484.486 126.247L487.063 130H485.491L483.673 127.252L481.909 130H480.351L482.928 126.247L480.48 122.679Z" fill="#C92E34"/>
<path d="M464.808 196.312C465.35 196.312 465.774 196.162 466.079 195.861C466.384 195.556 466.537 195.194 466.537 194.774C466.537 194.41 466.391 194.075 466.1 193.77C465.808 193.464 465.364 193.312 464.767 193.312C464.174 193.312 463.746 193.464 463.481 193.77C463.217 194.075 463.085 194.433 463.085 194.843C463.085 195.303 463.256 195.663 463.598 195.923C463.939 196.183 464.343 196.312 464.808 196.312ZM464.883 201.159C465.452 201.159 465.924 201.007 466.298 200.701C466.676 200.391 466.865 199.931 466.865 199.32C466.865 198.687 466.672 198.206 466.284 197.878C465.897 197.55 465.4 197.386 464.794 197.386C464.206 197.386 463.725 197.554 463.352 197.892C462.982 198.224 462.798 198.687 462.798 199.279C462.798 199.79 462.966 200.232 463.304 200.605C463.646 200.975 464.172 201.159 464.883 201.159ZM463.133 196.784C462.791 196.638 462.524 196.467 462.333 196.271C461.973 195.907 461.793 195.433 461.793 194.85C461.793 194.12 462.057 193.494 462.586 192.97C463.115 192.446 463.864 192.184 464.835 192.184C465.774 192.184 466.51 192.432 467.043 192.929C467.576 193.421 467.843 193.997 467.843 194.658C467.843 195.269 467.688 195.763 467.378 196.142C467.205 196.356 466.936 196.565 466.571 196.771C466.977 196.957 467.296 197.172 467.528 197.413C467.961 197.869 468.178 198.461 468.178 199.19C468.178 200.052 467.888 200.783 467.31 201.385C466.731 201.982 465.913 202.28 464.855 202.28C463.903 202.28 463.096 202.023 462.436 201.508C461.779 200.988 461.451 200.236 461.451 199.252C461.451 198.673 461.592 198.174 461.875 197.755C462.158 197.331 462.577 197.007 463.133 196.784ZM476.682 201.173C477.256 201.173 477.732 200.934 478.11 200.455C478.493 199.972 478.685 199.252 478.685 198.295C478.685 197.712 478.6 197.21 478.432 196.791C478.113 195.984 477.529 195.581 476.682 195.581C475.829 195.581 475.246 196.007 474.932 196.859C474.763 197.315 474.679 197.894 474.679 198.596C474.679 199.161 474.763 199.642 474.932 200.038C475.251 200.795 475.834 201.173 476.682 201.173ZM473.496 194.713H474.692V195.684C474.938 195.351 475.207 195.093 475.499 194.911C475.914 194.638 476.401 194.501 476.962 194.501C477.791 194.501 478.495 194.82 479.074 195.458C479.653 196.091 479.942 196.998 479.942 198.179C479.942 199.774 479.525 200.913 478.691 201.597C478.163 202.03 477.548 202.246 476.846 202.246C476.294 202.246 475.832 202.125 475.458 201.884C475.239 201.747 474.995 201.512 474.727 201.18V204.919H473.496V194.713ZM480.688 194.679H482.28L483.962 197.256L485.664 194.679L487.161 194.713L484.693 198.247L487.271 202H485.698L483.88 199.252L482.116 202H480.558L483.135 198.247L480.688 194.679Z" fill="#C92E34"/>
<path d="M0.999981 257L33 257L33 40L1 40L0.999981 257Z" fill="#FF685D" fill-opacity="0.2"/>
<path d="M393 257L425 257L425 40L393 40L393 257Z" fill="#FF685D" fill-opacity="0.2"/>
<path d="M425 40L425 80L1 80L0.999998 40L425 40Z" fill="#FF685D" fill-opacity="0.2"/>
<path d="M425 237L425 257L1 257L0.999999 237L425 237Z" fill="#FF685D" fill-opacity="0.2"/>
<path d="M208.438 252C208.483 251.157 208.656 250.423 208.957 249.799C209.262 249.174 209.855 248.607 210.734 248.097L212.047 247.338C212.635 246.996 213.047 246.704 213.284 246.463C213.658 246.085 213.845 245.652 213.845 245.164C213.845 244.594 213.674 244.143 213.332 243.811C212.99 243.473 212.535 243.305 211.965 243.305C211.122 243.305 210.538 243.624 210.215 244.262C210.042 244.604 209.946 245.077 209.928 245.684H208.677C208.69 244.831 208.848 244.136 209.148 243.599C209.682 242.651 210.623 242.177 211.972 242.177C213.093 242.177 213.911 242.48 214.426 243.086C214.945 243.692 215.205 244.367 215.205 245.109C215.205 245.893 214.929 246.563 214.378 247.119C214.059 247.443 213.487 247.835 212.662 248.295L211.726 248.814C211.279 249.061 210.928 249.295 210.673 249.519C210.217 249.915 209.93 250.355 209.812 250.838H215.157V252H208.438ZM219.58 242.211C220.847 242.211 221.763 242.733 222.328 243.776C222.766 244.583 222.984 245.688 222.984 247.092C222.984 248.423 222.786 249.523 222.39 250.394C221.815 251.642 220.877 252.267 219.573 252.267C218.397 252.267 217.522 251.756 216.948 250.735C216.47 249.883 216.23 248.739 216.23 247.304C216.23 246.192 216.374 245.237 216.661 244.439C217.199 242.954 218.172 242.211 219.58 242.211ZM219.566 251.146C220.204 251.146 220.713 250.863 221.091 250.298C221.469 249.733 221.658 248.68 221.658 247.14C221.658 246.028 221.521 245.114 221.248 244.398C220.975 243.678 220.444 243.318 219.655 243.318C218.931 243.318 218.4 243.66 218.062 244.344C217.73 245.023 217.563 246.025 217.563 247.352C217.563 248.35 217.671 249.152 217.885 249.758C218.213 250.683 218.773 251.146 219.566 251.146ZM231.475 251.173C232.049 251.173 232.525 250.934 232.903 250.455C233.286 249.972 233.478 249.252 233.478 248.295C233.478 247.712 233.393 247.21 233.225 246.791C232.906 245.984 232.322 245.581 231.475 245.581C230.622 245.581 230.039 246.007 229.725 246.859C229.556 247.315 229.472 247.894 229.472 248.596C229.472 249.161 229.556 249.642 229.725 250.038C230.044 250.795 230.627 251.173 231.475 251.173ZM228.289 244.713H229.485V245.684C229.731 245.351 230 245.093 230.292 244.911C230.707 244.638 231.194 244.501 231.755 244.501C232.584 244.501 233.288 244.82 233.867 245.458C234.446 246.091 234.735 246.998 234.735 248.179C234.735 249.774 234.318 250.913 233.484 251.597C232.956 252.03 232.34 252.246 231.639 252.246C231.087 252.246 230.625 252.125 230.251 251.884C230.032 251.747 229.788 251.512 229.52 251.18V254.919H228.289V244.713ZM235.48 244.679H237.073L238.755 247.256L240.457 244.679L241.954 244.713L239.486 248.247L242.063 252H240.491L238.673 249.252L236.909 252H235.351L237.928 248.247L235.48 244.679Z" fill="#C92E34"/>
<path d="M154.628 60.5342V56.0977L151.49 60.5342H154.628ZM154.648 64V61.6074H150.355V60.4043L154.84 54.1836H155.879V60.5342H157.321V61.6074H155.879V64H154.648ZM161.58 54.2109C162.847 54.2109 163.763 54.7327 164.328 55.7764C164.766 56.583 164.984 57.6882 164.984 59.0918C164.984 60.4225 164.786 61.5231 164.39 62.3936C163.815 63.6423 162.877 64.2666 161.573 64.2666C160.397 64.2666 159.522 63.7562 158.948 62.7354C158.47 61.8831 158.23 60.7393 158.23 59.3037C158.23 58.1917 158.374 57.237 158.661 56.4395C159.199 54.9538 160.172 54.2109 161.58 54.2109ZM161.566 63.1455C162.204 63.1455 162.713 62.863 163.091 62.2979C163.469 61.7327 163.658 60.68 163.658 59.1396C163.658 58.0277 163.521 57.1139 163.248 56.3984C162.975 55.6784 162.444 55.3184 161.655 55.3184C160.931 55.3184 160.4 55.6602 160.062 56.3438C159.73 57.0228 159.563 58.0254 159.563 59.3516C159.563 60.3496 159.671 61.1517 159.885 61.7578C160.213 62.6829 160.773 63.1455 161.566 63.1455ZM173.475 63.1729C174.049 63.1729 174.525 62.9336 174.903 62.4551C175.286 61.972 175.478 61.252 175.478 60.2949C175.478 59.7116 175.393 59.2103 175.225 58.791C174.906 57.9844 174.322 57.5811 173.475 57.5811C172.622 57.5811 172.039 58.0072 171.725 58.8594C171.556 59.3151 171.472 59.8939 171.472 60.5957C171.472 61.1608 171.556 61.6416 171.725 62.0381C172.044 62.7946 172.627 63.1729 173.475 63.1729ZM170.289 56.7129H171.485V57.6836C171.731 57.3509 172 57.0934 172.292 56.9111C172.707 56.6377 173.194 56.501 173.755 56.501C174.584 56.501 175.288 56.82 175.867 57.458C176.446 58.0915 176.735 58.9984 176.735 60.1787C176.735 61.7738 176.318 62.9131 175.484 63.5967C174.956 64.0296 174.34 64.2461 173.639 64.2461C173.087 64.2461 172.625 64.1253 172.251 63.8838C172.032 63.7471 171.788 63.5124 171.52 63.1797V66.9189H170.289V56.7129ZM177.48 56.6787H179.073L180.755 59.2559L182.457 56.6787L183.954 56.7129L181.486 60.2471L184.063 64H182.491L180.673 61.252L178.909 64H177.351L179.928 60.2471L177.48 56.6787ZM188.418 53.7939C187.702 55.1839 187.238 56.207 187.023 56.8633C186.7 57.8613 186.538 59.0143 186.538 60.3223C186.538 61.6439 186.723 62.8516 187.092 63.9453C187.32 64.6198 187.769 65.5905 188.438 66.8574H187.611C186.946 65.8184 186.534 65.1553 186.374 64.8682C186.215 64.5811 186.041 64.1914 185.854 63.6992C185.599 63.0247 185.422 62.3047 185.321 61.5391C185.271 61.1426 185.246 60.7643 185.246 60.4043C185.246 59.0553 185.458 57.8545 185.882 56.8018C186.151 56.1318 186.711 55.1292 187.563 53.7939H188.418ZM196.96 62.712H201.328V63.706H196.96V62.712ZM196.386 53.752H201.874V64.546H200.824V54.746H197.394V64.77H196.386V53.752ZM189.554 55.096H194.748V56.118H189.554V55.096ZM191.92 52.226L192.956 52.352C192.797 53.052 192.62 53.7987 192.424 54.592C192.237 55.3853 192.041 56.188 191.836 57C191.64 57.8027 191.439 58.5727 191.234 59.31C191.038 60.038 190.856 60.6913 190.688 61.27L189.792 60.836C189.96 60.304 190.137 59.6833 190.324 58.974C190.52 58.2647 190.711 57.518 190.898 56.734C191.094 55.95 191.28 55.1707 191.458 54.396C191.635 53.6213 191.789 52.898 191.92 52.226ZM190.268 60.304L190.842 59.548C191.299 59.7813 191.766 60.0427 192.242 60.332C192.727 60.6213 193.194 60.9247 193.642 61.242C194.099 61.5593 194.514 61.8767 194.888 62.194C195.27 62.5113 195.583 62.8147 195.826 63.104L195.196 63.986C194.953 63.6967 194.645 63.3933 194.272 63.076C193.908 62.7493 193.502 62.4227 193.053 62.096C192.606 61.76 192.144 61.4427 191.668 61.144C191.192 60.836 190.725 60.556 190.268 60.304ZM194.454 55.096H194.636L194.818 55.082L195.476 55.208C195.326 57.084 195.037 58.6707 194.608 59.968C194.178 61.2653 193.609 62.3293 192.9 63.16C192.2 63.9813 191.36 64.6393 190.38 65.134C190.314 65.0033 190.221 64.854 190.1 64.686C189.978 64.518 189.862 64.378 189.75 64.266C190.636 63.874 191.406 63.2953 192.06 62.53C192.722 61.7647 193.254 60.7893 193.656 59.604C194.057 58.4093 194.323 56.9813 194.454 55.32V55.096ZM203.806 59.674H216.084V60.64H203.806V59.674ZM209.392 53.262H210.498V65.12H209.392V53.262ZM209.014 60.08L209.896 60.472C209.457 61.06 208.925 61.6247 208.3 62.166C207.674 62.7073 207.002 63.1927 206.284 63.622C205.574 64.042 204.87 64.3873 204.17 64.658C204.114 64.574 204.044 64.476 203.96 64.364C203.876 64.252 203.787 64.1447 203.694 64.042C203.61 63.9487 203.526 63.8647 203.442 63.79C203.964 63.622 204.492 63.4073 205.024 63.146C205.556 62.8847 206.069 62.5907 206.564 62.264C207.068 61.9373 207.525 61.5873 207.936 61.214C208.356 60.8407 208.715 60.4627 209.014 60.08ZM210.806 60.038C211.114 60.4207 211.482 60.794 211.912 61.158C212.35 61.522 212.822 61.8673 213.326 62.194C213.83 62.5113 214.348 62.8007 214.88 63.062C215.421 63.3233 215.944 63.538 216.448 63.706C216.373 63.7713 216.289 63.86 216.196 63.972C216.102 64.0747 216.014 64.182 215.93 64.294C215.855 64.406 215.79 64.504 215.734 64.588C215.22 64.3827 214.693 64.1353 214.152 63.846C213.62 63.5473 213.097 63.216 212.584 62.852C212.08 62.488 211.604 62.1007 211.156 61.69C210.708 61.27 210.316 60.8453 209.98 60.416L210.806 60.038ZM206.242 56.118V57.574H213.676V56.118H206.242ZM206.242 53.822V55.25H213.676V53.822H206.242ZM205.164 52.912H214.81V58.484H205.164V52.912ZM223.924 53.528H228.852V54.48H223.924V53.528ZM222.006 58.792H228.81V59.758H222.006V58.792ZM228.446 53.528H229.51C229.51 53.528 229.505 53.584 229.496 53.696C229.496 53.7987 229.486 53.8873 229.468 53.962C229.421 54.7833 229.365 55.4507 229.3 55.964C229.234 56.4773 229.155 56.874 229.062 57.154C228.978 57.434 228.875 57.644 228.754 57.784C228.623 57.9053 228.488 57.994 228.348 58.05C228.208 58.106 228.03 58.1387 227.816 58.148C227.638 58.1667 227.386 58.176 227.06 58.176C226.742 58.1667 226.402 58.1527 226.038 58.134C226.019 57.9847 225.982 57.8213 225.926 57.644C225.879 57.4573 225.809 57.294 225.716 57.154C226.07 57.1913 226.402 57.2147 226.71 57.224C227.027 57.2333 227.251 57.238 227.382 57.238C227.503 57.238 227.596 57.2333 227.662 57.224C227.736 57.2053 227.806 57.168 227.872 57.112C227.956 57.0187 228.03 56.8507 228.096 56.608C228.17 56.356 228.236 55.9967 228.292 55.53C228.348 55.054 228.399 54.4333 228.446 53.668V53.528ZM223.77 52.24L224.834 52.366C224.656 53.7193 224.348 54.9093 223.91 55.936C223.48 56.9533 222.888 57.798 222.132 58.47C222.076 58.414 221.992 58.344 221.88 58.26C221.777 58.1667 221.665 58.078 221.544 57.994C221.432 57.91 221.329 57.8447 221.236 57.798C221.982 57.21 222.552 56.4447 222.944 55.502C223.345 54.55 223.62 53.4627 223.77 52.24ZM228.46 58.792H228.67L228.866 58.75L229.538 59.044C229.211 59.9307 228.777 60.71 228.236 61.382C227.704 62.0447 227.083 62.6233 226.374 63.118C225.674 63.6033 224.913 64.0047 224.092 64.322C223.28 64.6487 222.435 64.91 221.558 65.106C221.53 65.0127 221.488 64.9053 221.432 64.784C221.376 64.672 221.31 64.56 221.236 64.448C221.161 64.336 221.091 64.2427 221.026 64.168C221.856 64.0187 222.654 63.804 223.42 63.524C224.194 63.2347 224.908 62.88 225.562 62.46C226.224 62.0307 226.803 61.5267 227.298 60.948C227.802 60.36 228.189 59.6973 228.46 58.96V58.792ZM223.896 59.66C224.278 60.4067 224.792 61.0833 225.436 61.69C226.08 62.2873 226.826 62.8007 227.676 63.23C228.525 63.65 229.449 63.9673 230.448 64.182C230.373 64.2567 230.289 64.3453 230.196 64.448C230.112 64.56 230.028 64.672 229.944 64.784C229.869 64.9053 229.804 65.0173 229.748 65.12C228.73 64.8587 227.788 64.4853 226.92 64C226.061 63.524 225.296 62.95 224.624 62.278C223.952 61.5967 223.396 60.8313 222.958 59.982L223.896 59.66ZM218.226 53.108L218.814 52.352C219.122 52.4827 219.434 52.6367 219.752 52.814C220.078 52.982 220.386 53.1593 220.676 53.346C220.965 53.5327 221.198 53.71 221.376 53.878L220.76 54.746C220.582 54.5687 220.349 54.382 220.06 54.186C219.78 53.99 219.481 53.7987 219.164 53.612C218.846 53.416 218.534 53.248 218.226 53.108ZM217.47 56.902L218.03 56.118C218.338 56.2393 218.655 56.384 218.982 56.552C219.318 56.7107 219.63 56.8787 219.92 57.056C220.218 57.2333 220.461 57.4013 220.648 57.56L220.06 58.428C219.873 58.2693 219.635 58.0967 219.346 57.91C219.056 57.7233 218.748 57.5413 218.422 57.364C218.095 57.1867 217.778 57.0327 217.47 56.902ZM217.932 64.238C218.174 63.8647 218.44 63.4307 218.73 62.936C219.019 62.432 219.313 61.9047 219.612 61.354C219.91 60.794 220.186 60.248 220.438 59.716L221.222 60.388C220.998 60.8827 220.746 61.396 220.466 61.928C220.195 62.46 219.915 62.9873 219.626 63.51C219.346 64.0233 219.08 64.4947 218.828 64.924L217.932 64.238ZM231.82 54.06H244.084V55.04H231.82V54.06ZM235.25 59.058H241.816V59.954H235.25V59.058ZM234.508 56.664H241.648V57.616H235.544V65.106H234.508V56.664ZM241.41 56.664H242.446V63.804C242.446 64.112 242.404 64.35 242.32 64.518C242.236 64.6953 242.077 64.8307 241.844 64.924C241.61 64.9987 241.293 65.0407 240.892 65.05C240.5 65.0687 240.005 65.078 239.408 65.078C239.38 64.938 239.333 64.77 239.268 64.574C239.202 64.378 239.132 64.21 239.058 64.07C239.366 64.0793 239.655 64.084 239.926 64.084C240.206 64.0933 240.448 64.0933 240.654 64.084C240.859 64.084 241.008 64.084 241.102 64.084C241.223 64.084 241.302 64.0607 241.34 64.014C241.386 63.9767 241.41 63.902 241.41 63.79V56.664ZM236.412 52.24L237.476 52.492C237.158 53.5093 236.757 54.5173 236.272 55.516C235.786 56.5147 235.203 57.448 234.522 58.316C233.84 59.1747 233.056 59.9213 232.17 60.556C232.123 60.472 232.058 60.3833 231.974 60.29C231.89 60.1873 231.806 60.0893 231.722 59.996C231.638 59.8933 231.563 59.8093 231.498 59.744C232.123 59.3147 232.692 58.8153 233.206 58.246C233.728 57.6767 234.195 57.0653 234.606 56.412C235.016 55.7493 235.371 55.068 235.67 54.368C235.968 53.6587 236.216 52.9493 236.412 52.24ZM235.25 61.424H241.816V62.334H235.25V61.424ZM250.832 53.906H257.846V54.844H250.832V53.906ZM250.244 56.622H258.434V57.574H250.244V56.622ZM250.314 59.156H258.294V60.094H250.314V59.156ZM253.772 52.226H254.808V57.21H253.772V52.226ZM255.62 57.42H256.656V63.874C256.656 64.1727 256.614 64.4013 256.53 64.56C256.446 64.728 256.296 64.8493 256.082 64.924C255.858 65.008 255.564 65.0593 255.2 65.078C254.836 65.0967 254.369 65.106 253.8 65.106C253.781 64.966 253.734 64.798 253.66 64.602C253.594 64.4153 253.524 64.252 253.45 64.112C253.879 64.1213 254.271 64.126 254.626 64.126C254.98 64.1353 255.214 64.1353 255.326 64.126C255.438 64.126 255.512 64.1073 255.55 64.07C255.596 64.0327 255.62 63.9627 255.62 63.86V57.42ZM251.168 61.074L252.007 60.584C252.241 60.8173 252.479 61.0787 252.722 61.368C252.964 61.6573 253.184 61.942 253.38 62.222C253.585 62.502 253.739 62.7587 253.842 62.992L252.946 63.538C252.843 63.3047 252.694 63.048 252.498 62.768C252.311 62.4787 252.101 62.1893 251.868 61.9C251.634 61.6013 251.401 61.326 251.168 61.074ZM246.506 53.15H250.006V62.362H246.506V61.41H249.012V54.116H246.506V53.15ZM246.548 57.224H249.474V58.176H246.548V57.224ZM246.002 53.15H246.982V63.51H246.002V53.15ZM267.982 52.282H268.976V53.794H267.982V52.282ZM265.056 53.234H272.028V54.046H265.056V53.234ZM264.664 55.53H272.35V56.37H264.664V55.53ZM266.12 54.172L266.974 53.976C267.114 54.2093 267.24 54.466 267.352 54.746C267.473 55.0167 267.557 55.25 267.604 55.446L266.694 55.684C266.656 55.4787 266.582 55.236 266.47 54.956C266.367 54.6667 266.25 54.4053 266.12 54.172ZM270.068 53.92L270.964 54.186C270.824 54.4567 270.684 54.7273 270.544 54.998C270.404 55.2687 270.268 55.5067 270.138 55.712L269.368 55.474C269.489 55.2593 269.615 55.0027 269.746 54.704C269.886 54.4053 269.993 54.144 270.068 53.92ZM266.218 59.436V60.444H270.88V59.436H266.218ZM266.218 57.742V58.736H270.88V57.742H266.218ZM265.364 57.028H271.776V61.158H265.364V57.028ZM267.996 57.518H268.976V64.406H267.996V57.518ZM265.252 62.04H271.832V62.852H265.252V62.04ZM264.468 63.944H272.378V64.798H264.468V63.944ZM260.45 55.712H264.398V56.608H260.45V55.712ZM259.708 58.106H264.832V59.03H259.708V58.106ZM260.016 59.94L260.744 59.772C260.893 60.192 261.019 60.6493 261.122 61.144C261.224 61.6387 261.29 62.0633 261.318 62.418L260.534 62.614C260.524 62.25 260.468 61.8207 260.366 61.326C260.272 60.8313 260.156 60.3693 260.016 59.94ZM259.568 63.72C260.025 63.636 260.543 63.538 261.122 63.426C261.71 63.314 262.33 63.1973 262.984 63.076C263.637 62.9453 264.29 62.81 264.944 62.67L265.014 63.552C264.099 63.7573 263.18 63.958 262.256 64.154C261.341 64.3593 260.52 64.5367 259.792 64.686L259.568 63.72ZM263.908 59.646L264.734 59.856C264.612 60.2853 264.491 60.7333 264.37 61.2C264.248 61.6573 264.127 62.0493 264.006 62.376L263.32 62.166C263.394 61.942 263.469 61.6807 263.544 61.382C263.618 61.074 263.688 60.7707 263.754 60.472C263.819 60.164 263.87 59.8887 263.908 59.646ZM261.892 56.048H262.83V63.678L261.892 63.818V56.048ZM261.85 52.24H262.41V52.464H262.718V52.744C262.447 53.276 262.078 53.8873 261.612 54.578C261.145 55.2593 260.566 55.908 259.876 56.524C259.82 56.4493 259.754 56.37 259.68 56.286C259.605 56.202 259.526 56.1227 259.442 56.048C259.358 55.964 259.283 55.8987 259.218 55.852C259.647 55.4973 260.03 55.1147 260.366 54.704C260.702 54.284 260.991 53.864 261.234 53.444C261.486 53.0147 261.691 52.6133 261.85 52.24ZM262.018 52.24H262.802C263.082 52.4827 263.371 52.7533 263.67 53.052C263.978 53.3507 264.267 53.6447 264.538 53.934C264.818 54.2233 265.042 54.4893 265.21 54.732L264.496 55.53C264.337 55.2967 264.132 55.026 263.88 54.718C263.628 54.41 263.357 54.102 263.068 53.794C262.788 53.486 262.508 53.2153 262.228 52.982H262.018V52.24ZM275.136 65.498L274.828 64.756C275.397 64.5227 275.831 64.224 276.13 63.86C276.438 63.496 276.592 63.048 276.592 62.516L276.34 61.34L277.096 62.404C276.993 62.5253 276.876 62.6093 276.746 62.656C276.615 62.6933 276.484 62.712 276.354 62.712C276.064 62.712 275.817 62.628 275.612 62.46C275.406 62.292 275.304 62.0447 275.304 61.718C275.304 61.382 275.406 61.13 275.612 60.962C275.826 60.794 276.078 60.71 276.368 60.71C276.76 60.71 277.054 60.8593 277.25 61.158C277.455 61.4473 277.558 61.8347 277.558 62.32C277.558 63.076 277.338 63.7293 276.9 64.28C276.461 64.8307 275.873 65.2367 275.136 65.498ZM295.268 53.92H296.29V61.69H295.268V53.92ZM298.698 52.506H299.748V63.72C299.748 64.084 299.696 64.3547 299.594 64.532C299.5 64.7093 299.342 64.8447 299.118 64.938C298.884 65.022 298.562 65.0733 298.152 65.092C297.741 65.12 297.214 65.134 296.57 65.134C296.56 65.0407 296.532 64.9287 296.486 64.798C296.439 64.6673 296.388 64.5367 296.332 64.406C296.285 64.2753 296.234 64.1633 296.178 64.07C296.682 64.0793 297.134 64.084 297.536 64.084C297.937 64.0933 298.203 64.0933 298.334 64.084C298.464 64.0747 298.558 64.0467 298.614 64C298.67 63.944 298.698 63.8507 298.698 63.72V52.506ZM289.276 62.04L290.312 62.32C290.078 62.852 289.78 63.37 289.416 63.874C289.052 64.378 288.683 64.8027 288.31 65.148C288.244 65.0827 288.156 65.008 288.044 64.924C287.941 64.84 287.834 64.7607 287.722 64.686C287.61 64.6113 287.512 64.5507 287.428 64.504C287.801 64.1867 288.151 63.8133 288.478 63.384C288.814 62.9453 289.08 62.4973 289.276 62.04ZM291.698 62.446L292.608 62.054C292.925 62.418 293.233 62.824 293.532 63.272C293.83 63.72 294.059 64.112 294.218 64.448L293.252 64.924C293.168 64.6907 293.042 64.4293 292.874 64.14C292.706 63.8507 292.519 63.5613 292.314 63.272C292.118 62.9733 291.912 62.698 291.698 62.446ZM289.276 56.314V58.064H292.692V56.314H289.276ZM289.276 58.932V60.682H292.692V58.932H289.276ZM289.276 53.724V55.46H292.692V53.724H289.276ZM288.282 52.786H293.742V61.634H288.282V52.786ZM302.478 57.21H306.034V58.176H302.478V57.21ZM301.904 53.472H306.678V58.708H305.656V54.452H301.904V53.472ZM301.918 57.21H302.926V61.69C302.926 61.9047 302.968 62.0447 303.052 62.11C303.136 62.166 303.322 62.194 303.612 62.194C303.677 62.194 303.798 62.194 303.976 62.194C304.153 62.194 304.349 62.194 304.564 62.194C304.788 62.194 304.993 62.194 305.18 62.194C305.366 62.194 305.506 62.194 305.6 62.194C305.768 62.194 305.894 62.1567 305.978 62.082C306.062 62.0073 306.122 61.8533 306.16 61.62C306.197 61.3773 306.225 61.0227 306.244 60.556C306.318 60.612 306.412 60.668 306.524 60.724C306.636 60.78 306.752 60.8313 306.874 60.878C306.995 60.9153 307.102 60.948 307.196 60.976C307.158 61.5547 307.088 62.0073 306.986 62.334C306.883 62.6607 306.729 62.8847 306.524 63.006C306.328 63.1273 306.048 63.188 305.684 63.188C305.609 63.188 305.469 63.188 305.264 63.188C305.058 63.188 304.83 63.188 304.578 63.188C304.335 63.188 304.111 63.188 303.906 63.188C303.71 63.188 303.579 63.188 303.514 63.188C303.094 63.188 302.767 63.1507 302.534 63.076C302.31 62.992 302.151 62.8427 302.058 62.628C301.964 62.404 301.918 62.096 301.918 61.704V57.21ZM308.651 54.802H314.406V55.81H308.651V54.802ZM309.016 52.24L310.108 52.436C309.921 53.276 309.697 54.088 309.436 54.872C309.174 55.6467 308.876 56.37 308.54 57.042C308.204 57.7047 307.83 58.288 307.42 58.792C307.354 58.736 307.266 58.666 307.154 58.582C307.042 58.498 306.925 58.4187 306.804 58.344C306.682 58.26 306.58 58.19 306.496 58.134C306.906 57.6767 307.27 57.14 307.588 56.524C307.905 55.8987 308.18 55.222 308.414 54.494C308.656 53.766 308.857 53.0147 309.016 52.24ZM312.292 55.208L313.356 55.334C313.16 56.6313 312.889 57.798 312.544 58.834C312.208 59.8607 311.774 60.7753 311.242 61.578C310.719 62.3713 310.075 63.062 309.31 63.65C308.554 64.238 307.658 64.7467 306.622 65.176C306.584 65.0827 306.528 64.98 306.454 64.868C306.379 64.756 306.295 64.6393 306.202 64.518C306.118 64.3967 306.043 64.3033 305.978 64.238C307.312 63.7527 308.4 63.1133 309.24 62.32C310.089 61.5267 310.752 60.5467 311.228 59.38C311.713 58.204 312.068 56.8133 312.292 55.208ZM309.058 55.712C309.319 57.0373 309.678 58.26 310.136 59.38C310.602 60.5 311.2 61.4753 311.928 62.306C312.656 63.1273 313.538 63.7573 314.574 64.196C314.499 64.2707 314.415 64.3593 314.322 64.462C314.228 64.5647 314.14 64.672 314.056 64.784C313.972 64.9053 313.902 65.0127 313.846 65.106C312.763 64.602 311.848 63.9067 311.102 63.02C310.355 62.1333 309.739 61.088 309.254 59.884C308.768 58.6707 308.386 57.336 308.106 55.88L309.058 55.712ZM317.892 59.702H327.426V60.626H317.892V59.702ZM316.086 54.634H325.228V55.6H316.086V54.634ZM320.02 57.168H326.446V58.092H320.02V57.168ZM326.978 59.702H328.028C328.028 59.702 328.023 59.73 328.014 59.786C328.014 59.842 328.009 59.9073 328 59.982C328 60.0473 327.995 60.1033 327.986 60.15C327.902 61.13 327.813 61.9327 327.72 62.558C327.626 63.174 327.524 63.6547 327.412 64C327.3 64.336 327.169 64.5787 327.02 64.728C326.889 64.868 326.749 64.9613 326.6 65.008C326.45 65.064 326.273 65.1013 326.068 65.12C325.89 65.1387 325.638 65.1433 325.312 65.134C324.994 65.134 324.654 65.1247 324.29 65.106C324.28 64.966 324.248 64.8027 324.192 64.616C324.145 64.4387 324.075 64.28 323.982 64.14C324.336 64.1773 324.668 64.2007 324.976 64.21C325.284 64.2193 325.503 64.2193 325.634 64.21C325.764 64.21 325.867 64.2007 325.942 64.182C326.026 64.1633 326.096 64.126 326.152 64.07C326.264 63.9673 326.366 63.762 326.46 63.454C326.553 63.146 326.642 62.7027 326.726 62.124C326.819 61.536 326.903 60.78 326.978 59.856V59.702ZM323.87 61.382L324.598 61.102C324.822 61.382 325.032 61.6993 325.228 62.054C325.433 62.4087 325.578 62.712 325.662 62.964L324.892 63.286C324.808 63.0247 324.668 62.7167 324.472 62.362C324.276 61.998 324.075 61.6713 323.87 61.382ZM317.808 52.66L318.732 52.282C319.002 52.5527 319.273 52.8653 319.544 53.22C319.814 53.5747 320.02 53.8873 320.16 54.158L319.194 54.606C319.072 54.3353 318.876 54.018 318.606 53.654C318.344 53.2807 318.078 52.9493 317.808 52.66ZM319.712 61.718L320.58 61.606C320.72 62.054 320.822 62.5393 320.888 63.062C320.962 63.5847 321 64.0327 321 64.406L320.076 64.546C320.094 64.294 320.085 64.0093 320.048 63.692C320.02 63.3653 319.978 63.034 319.922 62.698C319.875 62.3527 319.805 62.026 319.712 61.718ZM321.784 61.592L322.596 61.41C322.782 61.7927 322.95 62.208 323.1 62.656C323.258 63.104 323.37 63.4913 323.436 63.818L322.554 64.056C322.507 63.72 322.409 63.3233 322.26 62.866C322.11 62.3993 321.952 61.9747 321.784 61.592ZM317.92 61.41L318.802 61.69C318.699 62.082 318.573 62.4833 318.424 62.894C318.274 63.2953 318.092 63.6827 317.878 64.056C317.672 64.4293 317.43 64.756 317.15 65.036L316.338 64.476C316.599 64.224 316.832 63.93 317.038 63.594C317.243 63.2487 317.416 62.8893 317.556 62.516C317.705 62.1333 317.826 61.7647 317.92 61.41ZM322.05 52.226L323.114 52.492C322.806 53.472 322.428 54.4333 321.98 55.376C321.541 56.3093 321.028 57.2007 320.44 58.05C319.861 58.8993 319.194 59.688 318.438 60.416C317.691 61.1347 316.856 61.7647 315.932 62.306C315.894 62.222 315.838 62.1287 315.764 62.026C315.698 61.914 315.628 61.8067 315.554 61.704C315.488 61.592 315.423 61.4987 315.358 61.424C316.226 60.9293 317.014 60.3413 317.724 59.66C318.433 58.9787 319.063 58.2367 319.614 57.434C320.164 56.6313 320.64 55.7913 321.042 54.914C321.452 54.0273 321.788 53.1313 322.05 52.226ZM325.004 54.634H325.984C325.89 55.1193 325.783 55.628 325.662 56.16C325.55 56.692 325.442 57.1493 325.34 57.532L324.402 57.392C324.504 57.0187 324.612 56.58 324.724 56.076C324.836 55.5627 324.929 55.082 325.004 54.634ZM326.054 57.168H327.034C326.94 57.6533 326.838 58.162 326.726 58.694C326.614 59.226 326.506 59.6787 326.404 60.052L325.452 59.954C325.564 59.5713 325.676 59.1233 325.788 58.61C325.9 58.0967 325.988 57.616 326.054 57.168ZM329.375 64C329.421 63.1569 329.594 62.4232 329.895 61.7988C330.2 61.1745 330.792 60.6071 331.672 60.0967L332.984 59.3379C333.572 58.9961 333.985 58.7044 334.222 58.4629C334.595 58.0846 334.782 57.6517 334.782 57.1641C334.782 56.5944 334.611 56.1432 334.27 55.8105C333.928 55.4733 333.472 55.3047 332.902 55.3047C332.059 55.3047 331.476 55.6237 331.152 56.2617C330.979 56.6035 330.883 57.0775 330.865 57.6836H329.614C329.628 56.8314 329.785 56.1364 330.086 55.5986C330.619 54.6507 331.56 54.1768 332.909 54.1768C334.03 54.1768 334.848 54.4798 335.363 55.0859C335.883 55.6921 336.143 56.3665 336.143 57.1094C336.143 57.8932 335.867 58.5632 335.315 59.1191C334.996 59.4427 334.424 59.8346 333.6 60.2949L332.663 60.8145C332.216 61.0605 331.866 61.2952 331.61 61.5186C331.155 61.915 330.868 62.3548 330.749 62.8379H336.095V64H329.375ZM340.518 54.2109C341.785 54.2109 342.701 54.7327 343.266 55.7764C343.703 56.583 343.922 57.6882 343.922 59.0918C343.922 60.4225 343.724 61.5231 343.327 62.3936C342.753 63.6423 341.814 64.2666 340.511 64.2666C339.335 64.2666 338.46 63.7562 337.886 62.7354C337.407 61.8831 337.168 60.7393 337.168 59.3037C337.168 58.1917 337.312 57.237 337.599 56.4395C338.136 54.9538 339.109 54.2109 340.518 54.2109ZM340.504 63.1455C341.142 63.1455 341.65 62.863 342.028 62.2979C342.407 61.7327 342.596 60.68 342.596 59.1396C342.596 58.0277 342.459 57.1139 342.186 56.3984C341.912 55.6784 341.381 55.3184 340.593 55.3184C339.868 55.3184 339.337 55.6602 339 56.3438C338.667 57.0228 338.501 58.0254 338.501 59.3516C338.501 60.3496 338.608 61.1517 338.822 61.7578C339.15 62.6829 339.711 63.1455 340.504 63.1455ZM348.516 63.1729C349.09 63.1729 349.566 62.9336 349.944 62.4551C350.327 61.972 350.519 61.252 350.519 60.2949C350.519 59.7116 350.434 59.2103 350.266 58.791C349.947 57.9844 349.363 57.5811 348.516 57.5811C347.663 57.5811 347.08 58.0072 346.766 58.8594C346.597 59.3151 346.513 59.8939 346.513 60.5957C346.513 61.1608 346.597 61.6416 346.766 62.0381C347.085 62.7946 347.668 63.1729 348.516 63.1729ZM345.33 56.7129H346.526V57.6836C346.772 57.3509 347.041 57.0934 347.333 56.9111C347.748 56.6377 348.235 56.501 348.796 56.501C349.625 56.501 350.329 56.82 350.908 57.458C351.487 58.0915 351.776 58.9984 351.776 60.1787C351.776 61.7738 351.359 62.9131 350.525 63.5967C349.997 64.0296 349.382 64.2461 348.68 64.2461C348.128 64.2461 347.666 64.1253 347.292 63.8838C347.073 63.7471 346.829 63.5124 346.561 63.1797V66.9189H345.33V56.7129ZM352.521 56.6787H354.114L355.796 59.2559L357.498 56.6787L358.995 56.7129L356.527 60.2471L359.104 64H357.532L355.714 61.252L353.95 64H352.392L354.969 60.2471L352.521 56.6787ZM359.802 66.8574C360.526 65.4447 360.993 64.4147 361.203 63.7676C361.522 62.7878 361.682 61.6393 361.682 60.3223C361.682 59.0052 361.497 57.7998 361.128 56.7061C360.9 56.0316 360.451 55.0609 359.781 53.7939H360.608C361.31 54.915 361.734 55.6077 361.88 55.8721C362.03 56.1318 362.192 56.4919 362.365 56.9521C362.584 57.5218 362.739 58.0846 362.83 58.6406C362.926 59.1966 362.974 59.7321 362.974 60.2471C362.974 61.596 362.759 62.7992 362.331 63.8564C362.062 64.5355 361.504 65.5358 360.656 66.8574H359.802Z" fill="#C92E34"/>
<path d="M3.63672 165.267C2.47917 165.267 1.63835 164.95 1.11426 164.316C0.594727 163.678 0.334961 162.904 0.334961 161.992H1.62012C1.6748 162.626 1.79329 163.086 1.97559 163.373C2.2946 163.888 2.87109 164.146 3.70508 164.146C4.35221 164.146 4.87174 163.972 5.26367 163.626C5.6556 163.28 5.85156 162.833 5.85156 162.286C5.85156 161.612 5.64421 161.14 5.22949 160.871C4.81934 160.602 4.2474 160.468 3.51367 160.468C3.43164 160.468 3.34733 160.47 3.26074 160.475C3.17871 160.475 3.0944 160.477 3.00781 160.481V159.395C3.13542 159.408 3.24251 159.417 3.3291 159.422C3.41569 159.426 3.50911 159.429 3.60938 159.429C4.06966 159.429 4.44792 159.356 4.74414 159.21C5.26367 158.955 5.52344 158.499 5.52344 157.843C5.52344 157.355 5.35026 156.979 5.00391 156.715C4.65755 156.451 4.25423 156.318 3.79395 156.318C2.97363 156.318 2.40625 156.592 2.0918 157.139C1.91862 157.439 1.82064 157.868 1.79785 158.424H0.581055C0.581055 157.695 0.726888 157.075 1.01855 156.564C1.51986 155.653 2.40169 155.197 3.66406 155.197C4.66211 155.197 5.43457 155.421 5.98145 155.867C6.52832 156.309 6.80176 156.952 6.80176 157.795C6.80176 158.396 6.63997 158.884 6.31641 159.258C6.11589 159.49 5.85612 159.673 5.53711 159.805C6.05208 159.946 6.45312 160.219 6.74023 160.625C7.0319 161.026 7.17773 161.518 7.17773 162.102C7.17773 163.036 6.87012 163.797 6.25488 164.385C5.63965 164.973 4.76693 165.267 3.63672 165.267ZM8.23047 165C8.27604 164.157 8.44922 163.423 8.75 162.799C9.05534 162.174 9.64779 161.607 10.5273 161.097L11.8398 160.338C12.4277 159.996 12.8402 159.704 13.0771 159.463C13.4508 159.085 13.6377 158.652 13.6377 158.164C13.6377 157.594 13.4668 157.143 13.125 156.811C12.7832 156.473 12.3275 156.305 11.7578 156.305C10.9147 156.305 10.3314 156.624 10.0078 157.262C9.83464 157.604 9.73893 158.077 9.7207 158.684H8.46973C8.4834 157.831 8.64062 157.136 8.94141 156.599C9.47461 155.651 10.4157 155.177 11.7646 155.177C12.8857 155.177 13.7038 155.48 14.2188 156.086C14.7383 156.692 14.998 157.367 14.998 158.109C14.998 158.893 14.7223 159.563 14.1709 160.119C13.8519 160.443 13.2799 160.835 12.4551 161.295L11.5186 161.814C11.0719 162.061 10.721 162.295 10.4658 162.519C10.0101 162.915 9.72298 163.355 9.60449 163.838H14.9502V165H8.23047ZM23.4746 164.173C24.0488 164.173 24.5251 163.934 24.9033 163.455C25.2861 162.972 25.4775 162.252 25.4775 161.295C25.4775 160.712 25.3932 160.21 25.2246 159.791C24.9056 158.984 24.3223 158.581 23.4746 158.581C22.6224 158.581 22.0391 159.007 21.7246 159.859C21.556 160.315 21.4717 160.894 21.4717 161.596C21.4717 162.161 21.556 162.642 21.7246 163.038C22.0436 163.795 22.627 164.173 23.4746 164.173ZM20.2891 157.713H21.4854V158.684C21.7314 158.351 22.0003 158.093 22.292 157.911C22.7067 157.638 23.1943 157.501 23.7549 157.501C24.5843 157.501 25.2884 157.82 25.8672 158.458C26.446 159.091 26.7354 159.998 26.7354 161.179C26.7354 162.774 26.3184 163.913 25.4844 164.597C24.9557 165.03 24.3405 165.246 23.6387 165.246C23.0872 165.246 22.6247 165.125 22.251 164.884C22.0322 164.747 21.7884 164.512 21.5195 164.18V167.919H20.2891V157.713ZM27.4805 157.679H29.0732L30.7549 160.256L32.457 157.679L33.9541 157.713L31.4863 161.247L34.0635 165H32.4912L30.6729 162.252L28.9092 165H27.3506L29.9277 161.247L27.4805 157.679Z" fill="#C92E34"/>
<path d="M401.637 165.267C400.479 165.267 399.638 164.95 399.114 164.316C398.595 163.678 398.335 162.904 398.335 161.992H399.62C399.675 162.626 399.793 163.086 399.976 163.373C400.295 163.888 400.871 164.146 401.705 164.146C402.352 164.146 402.872 163.972 403.264 163.626C403.656 163.28 403.852 162.833 403.852 162.286C403.852 161.612 403.644 161.14 403.229 160.871C402.819 160.602 402.247 160.468 401.514 160.468C401.432 160.468 401.347 160.47 401.261 160.475C401.179 160.475 401.094 160.477 401.008 160.481V159.395C401.135 159.408 401.243 159.417 401.329 159.422C401.416 159.426 401.509 159.429 401.609 159.429C402.07 159.429 402.448 159.356 402.744 159.21C403.264 158.955 403.523 158.499 403.523 157.843C403.523 157.355 403.35 156.979 403.004 156.715C402.658 156.451 402.254 156.318 401.794 156.318C400.974 156.318 400.406 156.592 400.092 157.139C399.919 157.439 399.821 157.868 399.798 158.424H398.581C398.581 157.695 398.727 157.075 399.019 156.564C399.52 155.653 400.402 155.197 401.664 155.197C402.662 155.197 403.435 155.421 403.981 155.867C404.528 156.309 404.802 156.952 404.802 157.795C404.802 158.396 404.64 158.884 404.316 159.258C404.116 159.49 403.856 159.673 403.537 159.805C404.052 159.946 404.453 160.219 404.74 160.625C405.032 161.026 405.178 161.518 405.178 162.102C405.178 163.036 404.87 163.797 404.255 164.385C403.64 164.973 402.767 165.267 401.637 165.267ZM406.23 165C406.276 164.157 406.449 163.423 406.75 162.799C407.055 162.174 407.648 161.607 408.527 161.097L409.84 160.338C410.428 159.996 410.84 159.704 411.077 159.463C411.451 159.085 411.638 158.652 411.638 158.164C411.638 157.594 411.467 157.143 411.125 156.811C410.783 156.473 410.327 156.305 409.758 156.305C408.915 156.305 408.331 156.624 408.008 157.262C407.835 157.604 407.739 158.077 407.721 158.684H406.47C406.483 157.831 406.641 157.136 406.941 156.599C407.475 155.651 408.416 155.177 409.765 155.177C410.886 155.177 411.704 155.48 412.219 156.086C412.738 156.692 412.998 157.367 412.998 158.109C412.998 158.893 412.722 159.563 412.171 160.119C411.852 160.443 411.28 160.835 410.455 161.295L409.519 161.814C409.072 162.061 408.721 162.295 408.466 162.519C408.01 162.915 407.723 163.355 407.604 163.838H412.95V165H406.23ZM421.475 164.173C422.049 164.173 422.525 163.934 422.903 163.455C423.286 162.972 423.478 162.252 423.478 161.295C423.478 160.712 423.393 160.21 423.225 159.791C422.906 158.984 422.322 158.581 421.475 158.581C420.622 158.581 420.039 159.007 419.725 159.859C419.556 160.315 419.472 160.894 419.472 161.596C419.472 162.161 419.556 162.642 419.725 163.038C420.044 163.795 420.627 164.173 421.475 164.173ZM418.289 157.713H419.485V158.684C419.731 158.351 420 158.093 420.292 157.911C420.707 157.638 421.194 157.501 421.755 157.501C422.584 157.501 423.288 157.82 423.867 158.458C424.446 159.091 424.735 159.998 424.735 161.179C424.735 162.774 424.318 163.913 423.484 164.597C422.956 165.03 422.34 165.246 421.639 165.246C421.087 165.246 420.625 165.125 420.251 164.884C420.032 164.747 419.788 164.512 419.52 164.18V167.919H418.289V157.713ZM425.48 157.679H427.073L428.755 160.256L430.457 157.679L431.954 157.713L429.486 161.247L432.063 165H430.491L428.673 162.252L426.909 165H425.351L427.928 161.247L425.48 157.679Z" fill="#C92E34"/>
<path d="M93 257L133 257L133 80L93 80L93 257Z" fill="#FF685D" fill-opacity="0.1"/>
<path d="M193 257L233 257L233 80L193 80L193 257Z" fill="#FF685D" fill-opacity="0.1"/>
<path d="M293 257L333 257L333 80L293 80L293 257Z" fill="#FF685D" fill-opacity="0.1"/>
<path d="M102.628 217.534V213.098L99.4902 217.534H102.628ZM102.648 221V218.607H98.3555V217.404L102.84 211.184H103.879V217.534H105.321V218.607H103.879V221H102.648ZM109.58 211.211C110.847 211.211 111.763 211.733 112.328 212.776C112.766 213.583 112.984 214.688 112.984 216.092C112.984 217.423 112.786 218.523 112.39 219.394C111.815 220.642 110.877 221.267 109.573 221.267C108.397 221.267 107.522 220.756 106.948 219.735C106.47 218.883 106.23 217.739 106.23 216.304C106.23 215.192 106.374 214.237 106.661 213.439C107.199 211.954 108.172 211.211 109.58 211.211ZM109.566 220.146C110.204 220.146 110.713 219.863 111.091 219.298C111.469 218.733 111.658 217.68 111.658 216.14C111.658 215.028 111.521 214.114 111.248 213.398C110.975 212.678 110.444 212.318 109.655 212.318C108.931 212.318 108.4 212.66 108.062 213.344C107.73 214.023 107.563 215.025 107.563 216.352C107.563 217.35 107.671 218.152 107.885 218.758C108.213 219.683 108.773 220.146 109.566 220.146ZM117.578 220.173C118.152 220.173 118.629 219.934 119.007 219.455C119.39 218.972 119.581 218.252 119.581 217.295C119.581 216.712 119.497 216.21 119.328 215.791C119.009 214.984 118.426 214.581 117.578 214.581C116.726 214.581 116.143 215.007 115.828 215.859C115.66 216.315 115.575 216.894 115.575 217.596C115.575 218.161 115.66 218.642 115.828 219.038C116.147 219.795 116.73 220.173 117.578 220.173ZM114.393 213.713H115.589V214.684C115.835 214.351 116.104 214.093 116.396 213.911C116.81 213.638 117.298 213.501 117.858 213.501C118.688 213.501 119.392 213.82 119.971 214.458C120.549 215.091 120.839 215.998 120.839 217.179C120.839 218.774 120.422 219.913 119.588 220.597C119.059 221.03 118.444 221.246 117.742 221.246C117.191 221.246 116.728 221.125 116.354 220.884C116.136 220.747 115.892 220.512 115.623 220.18V223.919H114.393V213.713ZM121.584 213.679H123.177L124.858 216.256L126.561 213.679L128.058 213.713L125.59 217.247L128.167 221H126.595L124.776 218.252L123.013 221H121.454L124.031 217.247L121.584 213.679Z" fill="#C92E34"/>
<path d="M203.628 217.534V213.098L200.49 217.534H203.628ZM203.648 221V218.607H199.355V217.404L203.84 211.184H204.879V217.534H206.321V218.607H204.879V221H203.648ZM210.58 211.211C211.847 211.211 212.763 211.733 213.328 212.776C213.766 213.583 213.984 214.688 213.984 216.092C213.984 217.423 213.786 218.523 213.39 219.394C212.815 220.642 211.877 221.267 210.573 221.267C209.397 221.267 208.522 220.756 207.948 219.735C207.47 218.883 207.23 217.739 207.23 216.304C207.23 215.192 207.374 214.237 207.661 213.439C208.199 211.954 209.172 211.211 210.58 211.211ZM210.566 220.146C211.204 220.146 211.713 219.863 212.091 219.298C212.469 218.733 212.658 217.68 212.658 216.14C212.658 215.028 212.521 214.114 212.248 213.398C211.975 212.678 211.444 212.318 210.655 212.318C209.931 212.318 209.4 212.66 209.062 213.344C208.73 214.023 208.563 215.025 208.563 216.352C208.563 217.35 208.671 218.152 208.885 218.758C209.213 219.683 209.773 220.146 210.566 220.146ZM218.578 220.173C219.152 220.173 219.629 219.934 220.007 219.455C220.39 218.972 220.581 218.252 220.581 217.295C220.581 216.712 220.497 216.21 220.328 215.791C220.009 214.984 219.426 214.581 218.578 214.581C217.726 214.581 217.143 215.007 216.828 215.859C216.66 216.315 216.575 216.894 216.575 217.596C216.575 218.161 216.66 218.642 216.828 219.038C217.147 219.795 217.73 220.173 218.578 220.173ZM215.393 213.713H216.589V214.684C216.835 214.351 217.104 214.093 217.396 213.911C217.81 213.638 218.298 213.501 218.858 213.501C219.688 213.501 220.392 213.82 220.971 214.458C221.549 215.091 221.839 215.998 221.839 217.179C221.839 218.774 221.422 219.913 220.588 220.597C220.059 221.03 219.444 221.246 218.742 221.246C218.191 221.246 217.728 221.125 217.354 220.884C217.136 220.747 216.892 220.512 216.623 220.18V223.919H215.393V213.713ZM222.584 213.679H224.177L225.858 216.256L227.561 213.679L229.058 213.713L226.59 217.247L229.167 221H227.595L225.776 218.252L224.013 221H222.454L225.031 217.247L222.584 213.679Z" fill="#C92E34"/>
<path d="M303.628 217.534V213.098L300.49 217.534H303.628ZM303.648 221V218.607H299.355V217.404L303.84 211.184H304.879V217.534H306.321V218.607H304.879V221H303.648ZM310.58 211.211C311.847 211.211 312.763 211.733 313.328 212.776C313.766 213.583 313.984 214.688 313.984 216.092C313.984 217.423 313.786 218.523 313.39 219.394C312.815 220.642 311.877 221.267 310.573 221.267C309.397 221.267 308.522 220.756 307.948 219.735C307.47 218.883 307.23 217.739 307.23 216.304C307.23 215.192 307.374 214.237 307.661 213.439C308.199 211.954 309.172 211.211 310.58 211.211ZM310.566 220.146C311.204 220.146 311.713 219.863 312.091 219.298C312.469 218.733 312.658 217.68 312.658 216.14C312.658 215.028 312.521 214.114 312.248 213.398C311.975 212.678 311.444 212.318 310.655 212.318C309.931 212.318 309.4 212.66 309.062 213.344C308.73 214.023 308.563 215.025 308.563 216.352C308.563 217.35 308.671 218.152 308.885 218.758C309.213 219.683 309.773 220.146 310.566 220.146ZM318.578 220.173C319.152 220.173 319.629 219.934 320.007 219.455C320.39 218.972 320.581 218.252 320.581 217.295C320.581 216.712 320.497 216.21 320.328 215.791C320.009 214.984 319.426 214.581 318.578 214.581C317.726 214.581 317.143 215.007 316.828 215.859C316.66 216.315 316.575 216.894 316.575 217.596C316.575 218.161 316.66 218.642 316.828 219.038C317.147 219.795 317.73 220.173 318.578 220.173ZM315.393 213.713H316.589V214.684C316.835 214.351 317.104 214.093 317.396 213.911C317.81 213.638 318.298 213.501 318.858 213.501C319.688 213.501 320.392 213.82 320.971 214.458C321.549 215.091 321.839 215.998 321.839 217.179C321.839 218.774 321.422 219.913 320.588 220.597C320.059 221.03 319.444 221.246 318.742 221.246C318.191 221.246 317.728 221.125 317.354 220.884C317.136 220.747 316.892 220.512 316.623 220.18V223.919H315.393V213.713ZM322.584 213.679H324.177L325.858 216.256L327.561 213.679L329.058 213.713L326.59 217.247L329.167 221H327.595L325.776 218.252L324.013 221H322.454L325.031 217.247L322.584 213.679Z" fill="#C92E34"/>
<defs>
<clipPath id="clip0_2972_327">
<rect width="80" height="80" fill="white" transform="translate(21)"/>
</clipPath>
</defs>
</svg>
