<svg width="344" height="340" viewBox="0 0 344 340" fill="none" xmlns="http://www.w3.org/2000/svg">
<line x1="6" y1="51" x2="6.00001" y2="213" stroke="#D9D9D9" stroke-width="2"/>
<path d="M299.573 90V82" stroke="#C92E34"/>
<path d="M295.079 82H304.07" stroke="#C92E34"/>
<path d="M295.079 90H304.07" stroke="#C92E34"/>
<path d="M295.079 90H304.07" stroke="#C92E34"/>
<path d="M33 90L296 90" stroke="#C92E34" stroke-dasharray="1 1"/>
<path d="M33 82L296 82" stroke="#C92E34" stroke-dasharray="1 1"/>
<path d="M299.573 189V169" stroke="#C92E34"/>
<path d="M295.079 169H304.07" stroke="#C92E34"/>
<path d="M295.079 189H304.07" stroke="#C92E34"/>
<path d="M295.079 189H304.07" stroke="#C92E34"/>
<path d="M33 189L296 189" stroke="#C92E34" stroke-dasharray="1 1"/>
<path d="M33 169L296 169" stroke="#C92E34" stroke-dasharray="1 1"/>
<path d="M311.877 85.3125C312.419 85.3125 312.843 85.1621 313.148 84.8613C313.454 84.556 313.606 84.1937 313.606 83.7744C313.606 83.4098 313.461 83.0749 313.169 82.7695C312.877 82.4642 312.433 82.3115 311.836 82.3115C311.243 82.3115 310.815 82.4642 310.551 82.7695C310.286 83.0749 310.154 83.4326 310.154 83.8428C310.154 84.3031 310.325 84.6631 310.667 84.9229C311.009 85.1826 311.412 85.3125 311.877 85.3125ZM311.952 90.1592C312.522 90.1592 312.993 90.0065 313.367 89.7012C313.745 89.3913 313.935 88.931 313.935 88.3203C313.935 87.6868 313.741 87.2061 313.354 86.8779C312.966 86.5498 312.469 86.3857 311.863 86.3857C311.275 86.3857 310.795 86.5544 310.421 86.8916C310.052 87.2243 309.867 87.6868 309.867 88.2793C309.867 88.7897 310.036 89.2318 310.373 89.6055C310.715 89.9746 311.241 90.1592 311.952 90.1592ZM310.202 85.7842C309.86 85.6383 309.594 85.4674 309.402 85.2715C309.042 84.9069 308.862 84.4329 308.862 83.8496C308.862 83.1204 309.127 82.4938 309.655 81.9697C310.184 81.4456 310.934 81.1836 311.904 81.1836C312.843 81.1836 313.579 81.432 314.112 81.9287C314.646 82.4209 314.912 82.9974 314.912 83.6582C314.912 84.2689 314.757 84.7633 314.447 85.1416C314.274 85.3558 314.005 85.5654 313.641 85.7705C314.046 85.9574 314.365 86.1715 314.598 86.4131C315.031 86.8688 315.247 87.4613 315.247 88.1904C315.247 89.0518 314.958 89.7832 314.379 90.3848C313.8 90.9818 312.982 91.2803 311.925 91.2803C310.972 91.2803 310.166 91.0228 309.505 90.5078C308.849 89.9883 308.521 89.2363 308.521 88.252C308.521 87.6732 308.662 87.1742 308.944 86.7549C309.227 86.3311 309.646 86.0075 310.202 85.7842ZM323.751 90.1729C324.325 90.1729 324.801 89.9336 325.18 89.4551C325.562 88.972 325.754 88.252 325.754 87.2949C325.754 86.7116 325.67 86.2103 325.501 85.791C325.182 84.9844 324.599 84.5811 323.751 84.5811C322.899 84.5811 322.315 85.0072 322.001 85.8594C321.832 86.3151 321.748 86.8939 321.748 87.5957C321.748 88.1608 321.832 88.6416 322.001 89.0381C322.32 89.7946 322.903 90.1729 323.751 90.1729ZM320.565 83.7129H321.762V84.6836C322.008 84.3509 322.277 84.0934 322.568 83.9111C322.983 83.6377 323.471 83.501 324.031 83.501C324.861 83.501 325.565 83.82 326.144 84.458C326.722 85.0915 327.012 85.9984 327.012 87.1787C327.012 88.7738 326.595 89.9131 325.761 90.5967C325.232 91.0296 324.617 91.2461 323.915 91.2461C323.364 91.2461 322.901 91.1253 322.527 90.8838C322.309 90.7471 322.065 90.5124 321.796 90.1797V93.9189H320.565V83.7129ZM327.757 83.6787H329.35L331.031 86.2559L332.733 83.6787L334.23 83.7129L331.763 87.2471L334.34 91H332.768L330.949 88.252L329.186 91H327.627L330.204 87.2471L327.757 83.6787Z" fill="#C92E34"/>
<path d="M308.507 183C308.552 182.157 308.726 181.423 309.026 180.799C309.332 180.174 309.924 179.607 310.804 179.097L312.116 178.338C312.704 177.996 313.117 177.704 313.354 177.463C313.727 177.085 313.914 176.652 313.914 176.164C313.914 175.594 313.743 175.143 313.401 174.811C313.06 174.473 312.604 174.305 312.034 174.305C311.191 174.305 310.608 174.624 310.284 175.262C310.111 175.604 310.015 176.077 309.997 176.684H308.746C308.76 175.831 308.917 175.136 309.218 174.599C309.751 173.651 310.692 173.177 312.041 173.177C313.162 173.177 313.98 173.48 314.495 174.086C315.015 174.692 315.274 175.367 315.274 176.109C315.274 176.893 314.999 177.563 314.447 178.119C314.128 178.443 313.556 178.835 312.731 179.295L311.795 179.814C311.348 180.061 310.997 180.295 310.742 180.519C310.286 180.915 309.999 181.355 309.881 181.838H315.227V183H308.507ZM319.649 173.211C320.916 173.211 321.832 173.733 322.397 174.776C322.835 175.583 323.054 176.688 323.054 178.092C323.054 179.423 322.855 180.523 322.459 181.394C321.885 182.642 320.946 183.267 319.643 183.267C318.467 183.267 317.592 182.756 317.018 181.735C316.539 180.883 316.3 179.739 316.3 178.304C316.3 177.192 316.443 176.237 316.73 175.439C317.268 173.954 318.241 173.211 319.649 173.211ZM319.636 182.146C320.274 182.146 320.782 181.863 321.16 181.298C321.538 180.733 321.728 179.68 321.728 178.14C321.728 177.028 321.591 176.114 321.317 175.398C321.044 174.678 320.513 174.318 319.725 174.318C319 174.318 318.469 174.66 318.132 175.344C317.799 176.023 317.633 177.025 317.633 178.352C317.633 179.35 317.74 180.152 317.954 180.758C318.282 181.683 318.843 182.146 319.636 182.146ZM331.544 182.173C332.118 182.173 332.594 181.934 332.973 181.455C333.355 180.972 333.547 180.252 333.547 179.295C333.547 178.712 333.463 178.21 333.294 177.791C332.975 176.984 332.392 176.581 331.544 176.581C330.692 176.581 330.108 177.007 329.794 177.859C329.625 178.315 329.541 178.894 329.541 179.596C329.541 180.161 329.625 180.642 329.794 181.038C330.113 181.795 330.696 182.173 331.544 182.173ZM328.358 175.713H329.555V176.684C329.801 176.351 330.07 176.093 330.361 175.911C330.776 175.638 331.264 175.501 331.824 175.501C332.654 175.501 333.358 175.82 333.937 176.458C334.515 177.091 334.805 177.998 334.805 179.179C334.805 180.774 334.388 181.913 333.554 182.597C333.025 183.03 332.41 183.246 331.708 183.246C331.157 183.246 330.694 183.125 330.32 182.884C330.102 182.747 329.858 182.512 329.589 182.18V185.919H328.358V175.713ZM335.55 175.679H337.143L338.824 178.256L340.526 175.679L342.023 175.713L339.556 179.247L342.133 183H340.561L338.742 180.252L336.979 183H335.42L337.997 179.247L335.55 175.679Z" fill="#C92E34"/>
<path d="M1.33984 6.06836V5.125C2.22852 5.03841 2.84831 4.89486 3.19922 4.69434C3.55013 4.48926 3.81217 4.00846 3.98535 3.25195H4.95605V13H3.64355V6.06836H1.33984ZM8.23047 13C8.27604 12.1569 8.44922 11.4232 8.75 10.7988C9.05534 10.1745 9.64779 9.6071 10.5273 9.09668L11.8398 8.33789C12.4277 7.99609 12.8402 7.70443 13.0771 7.46289C13.4508 7.08464 13.6377 6.65169 13.6377 6.16406C13.6377 5.5944 13.4668 5.14323 13.125 4.81055C12.7832 4.47331 12.3275 4.30469 11.7578 4.30469C10.9147 4.30469 10.3314 4.6237 10.0078 5.26172C9.83464 5.60352 9.73893 6.07747 9.7207 6.68359H8.46973C8.4834 5.83138 8.64062 5.13639 8.94141 4.59863C9.47461 3.65072 10.4157 3.17676 11.7646 3.17676C12.8857 3.17676 13.7038 3.47982 14.2188 4.08594C14.7383 4.69206 14.998 5.36654 14.998 6.10938C14.998 6.89323 14.7223 7.56315 14.1709 8.11914C13.8519 8.44271 13.2799 8.83464 12.4551 9.29492L11.5186 9.81445C11.0719 10.0605 10.721 10.2952 10.4658 10.5186C10.0101 10.915 9.72298 11.3548 9.60449 11.8379H14.9502V13H8.23047ZM23.4746 12.1729C24.0488 12.1729 24.5251 11.9336 24.9033 11.4551C25.2861 10.972 25.4775 10.252 25.4775 9.29492C25.4775 8.71159 25.3932 8.21029 25.2246 7.79102C24.9056 6.98438 24.3223 6.58105 23.4746 6.58105C22.6224 6.58105 22.0391 7.00716 21.7246 7.85938C21.556 8.3151 21.4717 8.89388 21.4717 9.5957C21.4717 10.1608 21.556 10.6416 21.7246 11.0381C22.0436 11.7946 22.627 12.1729 23.4746 12.1729ZM20.2891 5.71289H21.4854V6.68359C21.7314 6.35091 22.0003 6.09342 22.292 5.91113C22.7067 5.6377 23.1943 5.50098 23.7549 5.50098C24.5843 5.50098 25.2884 5.81999 25.8672 6.45801C26.446 7.09147 26.7354 7.99837 26.7354 9.17871C26.7354 10.7738 26.3184 11.9131 25.4844 12.5967C24.9557 13.0296 24.3405 13.2461 23.6387 13.2461C23.0872 13.2461 22.6247 13.1253 22.251 12.8838C22.0322 12.7471 21.7884 12.5124 21.5195 12.1797V15.9189H20.2891V5.71289ZM27.4805 5.67871H29.0732L30.7549 8.25586L32.457 5.67871L33.9541 5.71289L31.4863 9.24707L34.0635 13H32.4912L30.6729 10.252L28.9092 13H27.3506L29.9277 9.24707L27.4805 5.67871Z" fill="#C92E34"/>
<circle cx="6" cy="51" r="6" fill="#00A19B"/>
<rect x="24.5" y="28.5" width="259" height="53" rx="3.5" stroke="#00A19B"/>
<path d="M149.904 47.44C152.064 47.44 153.784 48.14 155.044 49.56C156.244 50.9 156.844 52.68 156.844 54.88C156.844 57.02 156.264 58.76 155.104 60.12C155.624 60.82 156.164 61.54 156.684 62.3L155.284 63.54C154.744 62.76 154.224 62.02 153.704 61.32C152.644 61.96 151.384 62.28 149.904 62.28C147.724 62.28 146.004 61.56 144.764 60.16C143.564 58.8 142.984 57.04 142.984 54.88C142.984 52.7 143.564 50.94 144.764 49.58C146.004 48.14 147.724 47.44 149.904 47.44ZM149.904 49.36C148.384 49.36 147.204 49.86 146.364 50.9C145.564 51.88 145.164 53.2 145.164 54.88C145.164 56.54 145.564 57.86 146.364 58.84C147.204 59.84 148.384 60.36 149.904 60.36C150.904 60.36 151.764 60.14 152.464 59.72C151.744 58.82 151.024 58 150.324 57.26L151.584 56.02C152.304 56.78 153.024 57.6 153.744 58.44C154.344 57.52 154.644 56.34 154.644 54.88C154.644 53.16 154.224 51.82 153.424 50.84C152.604 49.84 151.424 49.36 149.904 49.36ZM162.292 47.72H163.932V62H161.752V50.34C160.892 51.16 159.792 51.76 158.472 52.14V49.98C159.112 49.82 159.772 49.54 160.492 49.14C161.212 48.7 161.812 48.24 162.292 47.72Z" fill="#00A19B"/>
<rect x="24.5" y="97.5" width="259" height="71" rx="3.5" stroke="#D9D9D9"/>
<path d="M127.104 114.056H127.824C129.088 114.856 130.448 115.832 131.888 117L131.232 117.88C129.712 116.632 128.496 115.704 127.568 115.112C127.12 115.656 126.592 116.184 126 116.696H129.632V117.56H125.728V116.936C124.992 117.56 124.176 118.184 123.248 118.808L122.576 117.88C124.4 116.712 125.904 115.432 127.104 114.056ZM125.36 121.24V121.448C125.36 121.72 125.344 121.992 125.328 122.248H129.76V121.24H125.36ZM129.76 120.456V119.448H125.36V120.456H129.76ZM131.024 124.216V128.536H129.936V127.928H126.464V128.552H125.408V124.216H131.024ZM126.464 127.016H129.936V125.144H126.464V127.016ZM125.264 123.096C125.04 125.176 124.448 126.984 123.488 128.552L122.592 127.768C123.68 126.136 124.224 124.024 124.24 121.448V118.584H130.864V123.096H125.264ZM132.656 115.064H133.76V125.384H132.656V115.064ZM135.216 128.44H132.832L132.576 127.32C133.36 127.352 134.112 127.384 134.816 127.384C135.232 127.384 135.456 127.176 135.456 126.792V113.96H136.608V127.08C136.608 127.976 136.144 128.44 135.216 128.44ZM144 113.928H145.12V116.36H146.8V113.928H147.92V116.36H149.28C149.76 115.672 150.16 114.952 150.48 114.184L151.536 114.584C151.168 115.272 150.8 115.864 150.432 116.36H152.976V117.368H139.024V116.36H141.488C141.216 115.736 140.88 115.144 140.496 114.6L141.568 114.2C141.936 114.808 142.272 115.528 142.592 116.36H144V113.928ZM139.728 119.128H143.216C142.976 118.664 142.704 118.232 142.384 117.832L143.456 117.432C143.808 117.912 144.128 118.472 144.416 119.128H147.488C147.872 118.616 148.224 118.056 148.512 117.464L149.616 117.848C149.344 118.328 149.056 118.744 148.752 119.128H152.272V120.136H146.592V121.32H151.488V122.28H146.592V123.48H152.96V124.504H146.592V128.648H145.424V124.504H139.04V123.48H145.424V122.28H140.512V121.32H145.424V120.136H139.728V119.128ZM149.168 125.08C150.544 125.912 151.696 126.728 152.624 127.56L151.792 128.376C150.976 127.576 149.856 126.712 148.416 125.8L149.168 125.08ZM142.928 125.048L143.696 125.736C142.704 126.728 141.488 127.608 140.032 128.376L139.312 127.448C140.736 126.776 141.936 125.976 142.928 125.048ZM154.912 121.56H169.088V122.552H162.352L161.792 123.768H168.064V127.304C168.064 128.152 167.6 128.584 166.704 128.584H165.536L165.264 127.592L166.384 127.64C166.768 127.64 166.96 127.448 166.96 127.064V124.744H164.4V128.488H163.296V124.744H160.912V128.488H159.824V124.744H157.424V128.648H156.32V123.768H160.624L161.184 122.552H154.912V121.56ZM155.888 114.504H168.128V115.448H162.56V116.456H168.768V119.72H167.664V117.368H162.56V120.872H161.44V117.368H156.336V119.72H155.232V116.456H161.44V115.448H155.888V114.504ZM157.68 117.944C158.672 118.04 159.632 118.184 160.56 118.376L160.256 119.096C159.312 118.92 158.32 118.792 157.296 118.696L157.68 117.944ZM160.288 119.688L160.544 120.424C159.872 120.584 158.816 120.696 157.344 120.792L157.088 119.976C158.528 119.912 159.6 119.816 160.288 119.688ZM163.648 119.096L163.488 118.296C164.576 118.232 165.536 118.104 166.384 117.912L166.672 118.696C165.808 118.872 164.8 119 163.648 119.096ZM163.792 119.704C164.864 119.8 165.888 119.96 166.848 120.168L166.528 120.952C165.536 120.712 164.512 120.536 163.456 120.408L163.792 119.704ZM170.928 114.568H185.072V115.608H180.352V117.032H184.08V121.064H177.424C177.136 121.576 176.864 122.04 176.608 122.488H185.264V123.544H181.824C181.504 124.504 180.912 125.32 180.064 126.008C181.696 126.504 183.36 127.08 185.056 127.752L184.336 128.696C182.576 127.944 180.8 127.288 179.024 126.712C177.504 127.528 175.008 128.168 171.552 128.632L171.12 127.608C173.968 127.272 176.128 126.824 177.568 126.264C176.24 125.864 174.912 125.512 173.584 125.208C173.968 124.648 174.32 124.088 174.672 123.544H170.72V122.488H175.312C175.6 121.992 175.872 121.512 176.128 121.064H171.92V117.032H175.648V115.608H170.928V114.568ZM178.832 125.64C179.728 125.08 180.336 124.376 180.656 123.544H175.984C175.712 123.976 175.456 124.376 175.216 124.728C176.4 124.984 177.6 125.288 178.832 125.64ZM179.248 117.032V115.608H176.752V117.032H179.248ZM182.976 120.072V118.04H180.352V120.072H182.976ZM179.248 120.072V118.04H176.752V120.072H179.248ZM175.648 120.072V118.04H173.024V120.072H175.648ZM98.896 148.424H105.408V147.112H106.56V148.424H113.104V149.496H106.56V152.584H105.408V149.496H98.896V148.424ZM104.144 141.912C103.696 142.44 103.232 142.952 102.72 143.432L102.384 142.36C103.728 141.016 104.656 139.544 105.2 137.944L106.272 138.168C106.112 138.632 105.92 139.08 105.696 139.512H108.24C108.064 139 107.872 138.52 107.68 138.088L108.816 137.896C108.992 138.376 109.168 138.904 109.328 139.512H112.72V140.472H109.376V141.576H112.4V142.504H109.376V143.592H112.416V144.52H109.376V145.704H112.896V146.664H104.144V141.912ZM108.288 140.472H105.2V141.576H108.288V140.472ZM108.288 142.504H105.2V143.592H108.288V142.504ZM108.288 144.52H105.2V145.704H108.288V144.52ZM100.32 138.008C101.28 138.456 102.176 139 102.992 139.64L102.416 140.52C101.552 139.816 100.656 139.272 99.744 138.856L100.32 138.008ZM99.264 140.648C100.176 141.048 101.008 141.528 101.76 142.088L101.168 142.984C100.368 142.36 99.536 141.88 98.688 141.528L99.264 140.648ZM102.192 143.576L102.832 144.344C102 145.448 100.96 146.488 99.744 147.464L98.96 146.552C100.24 145.64 101.328 144.648 102.192 143.576ZM128.352 144.12V151.432C128.352 152.12 127.936 152.472 127.136 152.472H125.856L125.584 151.512L126.816 151.56C127.136 151.56 127.312 151.4 127.312 151.08V149.88H124.96V152.392H123.968V149.88H121.536C121.28 151.064 120.816 151.96 120.144 152.6L119.328 151.848C120.256 150.952 120.72 149.656 120.72 147.96V146.024C120.192 146.824 119.616 147.544 118.992 148.184L118.304 147.352C119.488 146.2 120.464 144.744 121.248 142.952H118.96V141.928H121.808V140.36H119.696V139.336H121.808V137.944H122.88V139.336H125.616V137.944H126.704V139.336H128.768V140.36H126.704V141.928H129.28V142.952H122.32C122.16 143.352 121.984 143.736 121.808 144.12H128.352ZM121.68 148.968H123.968V147.496H121.728V147.88C121.728 148.264 121.712 148.616 121.68 148.968ZM124.96 147.496V148.968H127.312V147.496H124.96ZM121.728 146.584H123.968V145.032H121.728V146.584ZM124.96 145.032V146.584H127.312V145.032H124.96ZM117.984 137.896L119.024 138.376C118.704 139.416 118.32 140.408 117.872 141.352V152.632H116.752V143.352C116.208 144.168 115.616 144.952 114.976 145.688L114.64 144.536C116.176 142.6 117.28 140.392 117.984 137.896ZM125.616 141.928V140.36H122.88V141.928H125.616ZM137.936 137.88L138.96 138.424C138.672 138.744 138.368 139.048 138.048 139.336H142.64V140.248C140.912 143.32 137.696 145.048 133.024 145.416L132.528 144.376C133.968 144.28 135.248 144.072 136.4 143.736C135.904 143.128 135.376 142.568 134.832 142.072L135.84 141.592C136.416 142.136 136.96 142.712 137.472 143.352C139.136 142.68 140.432 141.672 141.328 140.36H136.656C135.408 141.096 133.936 141.656 132.224 142.04L131.552 140.984C134.4 140.44 136.528 139.416 137.936 137.88ZM137.328 147.88C137.936 148.504 138.528 149.176 139.072 149.896C140.848 149.128 142.24 148.024 143.264 146.616H138.528C137.12 147.288 135.456 147.8 133.52 148.136L132.832 147.112C136.32 146.76 138.896 145.688 140.56 143.928L141.552 144.472C141.168 144.856 140.768 145.224 140.32 145.56H144.704V146.472C142.432 150.248 138.208 152.2 132 152.344L131.536 151.24C134.032 151.224 136.192 150.92 138 150.312C137.456 149.592 136.896 148.936 136.304 148.36L137.328 147.88ZM150.096 139.816L151.216 140.248C150.368 142.792 149.264 144.728 147.904 146.056L146.928 145.224C148.336 143.88 149.392 142.072 150.096 139.816ZM157.888 144.792L158.896 145.416C157.04 149.128 153.344 151.528 147.824 152.616L147.152 151.512C152.56 150.488 156.128 148.248 157.888 144.792ZM153.408 137.976H154.592V147.208H153.408V137.976ZM157.344 139.56C158.912 141.304 160.272 143.224 161.456 145.304L160.368 145.864C159.152 143.672 157.792 141.72 156.304 140.024L157.344 139.56ZM170.048 139.8C169.552 140.472 168.928 141.064 168.192 141.592L167.552 140.744C168.72 139.96 169.52 139 169.936 137.864L170.992 137.992C170.88 138.28 170.768 138.568 170.64 138.84H176.368V139.656C175.952 140.488 175.488 141.192 174.976 141.768L174.176 141.144C174.544 140.76 174.88 140.312 175.184 139.8H170.048ZM163.28 138.856H167.216V139.848H163.28V138.856ZM162.96 141.736H167.552V142.744H162.96V141.736ZM171.92 140.088L172.912 140.28C172.848 140.536 172.768 140.776 172.672 141C173.824 142.168 175.312 142.872 177.104 143.096L176.64 144.056C174.896 143.784 173.424 143.032 172.224 141.8C171.456 142.856 170.224 143.544 168.528 143.88L167.984 143.048C170.192 142.648 171.504 141.656 171.92 140.088ZM164.848 143.928H175.184V150.264H164.848V143.928ZM174.048 149.336V148.312H165.984V149.336H174.048ZM165.984 147.528H174.048V146.6H165.984V147.528ZM165.984 145.816H174.048V144.824H165.984V145.816ZM171.712 150.408C173.552 150.728 175.328 151.176 177.024 151.768L176.64 152.68C174.944 152.04 173.152 151.56 171.296 151.208L171.712 150.408ZM168.064 150.36L168.64 151.112C167.456 151.752 165.744 152.28 163.504 152.664L162.976 151.768C165.216 151.4 166.912 150.936 168.064 150.36ZM181.808 142.504C181.04 142.968 180.24 143.4 179.408 143.784L178.736 142.824C181.52 141.576 183.792 139.992 185.552 138.056H186.48C188.016 139.96 190.272 141.528 193.248 142.776L192.592 143.736C191.744 143.384 190.96 142.984 190.224 142.552V143.432H186.592V145.736H192.288V146.808H186.592V151.08H188.368C188.912 150.04 189.392 148.92 189.808 147.72L190.864 148.088C190.464 149.208 190.016 150.216 189.536 151.08H192.848V152.184H179.168V151.08H182.48C182.144 150.056 181.712 149.112 181.2 148.216L182.24 147.832C182.736 148.728 183.184 149.816 183.6 151.08H185.44V146.808H179.728V145.736H185.44V143.432H181.808V142.504ZM189.952 142.392C188.384 141.464 187.072 140.376 186.016 139.144C184.816 140.392 183.472 141.48 181.984 142.392H189.952ZM202.24 139.352C203.264 139.352 204.08 139.624 204.688 140.2C205.296 140.744 205.6 141.496 205.6 142.456C205.6 143.176 205.392 143.8 205.008 144.328C204.832 144.52 204.4 144.936 203.696 145.56C203.344 145.848 203.104 146.136 202.944 146.424C202.736 146.776 202.64 147.176 202.64 147.608V147.976H201.36V147.608C201.36 147.032 201.472 146.536 201.712 146.088C201.936 145.672 202.288 145.24 202.784 144.792C203.328 144.312 203.664 143.976 203.824 143.784C204.128 143.384 204.288 142.968 204.288 142.52C204.288 141.88 204.096 141.384 203.744 141.032C203.36 140.648 202.848 140.472 202.176 140.472C201.376 140.472 200.784 140.728 200.4 141.256C200.048 141.704 199.872 142.312 199.872 143.096H198.592C198.608 141.976 198.928 141.08 199.552 140.408C200.192 139.704 201.088 139.352 202.24 139.352ZM202 149.096C202.272 149.096 202.512 149.176 202.704 149.368C202.88 149.544 202.976 149.768 202.976 150.04C202.976 150.328 202.88 150.552 202.704 150.728C202.512 150.904 202.272 151 202 151C201.728 151 201.504 150.904 201.312 150.728C201.12 150.536 201.04 150.312 201.04 150.04C201.04 149.768 201.12 149.544 201.312 149.368C201.504 149.176 201.728 149.096 202 149.096Z" fill="black"/>
<path d="M160.98 97H146.341L153.66 90.6611L160.98 97Z" stroke="#D9D9D9"/>
<path d="M153.66 91.3L162.321 98.8H145L153.66 91.3Z" fill="white"/>
<circle cx="6" cy="213" r="6" fill="#00A19B"/>
<rect x="24.5" y="189.5" width="259" height="53" rx="3.5" stroke="#00A19B"/>
<path d="M147.99 208.44C150.15 208.44 151.87 209.14 153.13 210.56C154.33 211.9 154.93 213.68 154.93 215.88C154.93 218.02 154.35 219.76 153.19 221.12C153.71 221.82 154.25 222.54 154.77 223.3L153.37 224.54C152.83 223.76 152.31 223.02 151.79 222.32C150.73 222.96 149.47 223.28 147.99 223.28C145.81 223.28 144.09 222.56 142.85 221.16C141.65 219.8 141.07 218.04 141.07 215.88C141.07 213.7 141.65 211.94 142.85 210.58C144.09 209.14 145.81 208.44 147.99 208.44ZM147.99 210.36C146.47 210.36 145.29 210.86 144.45 211.9C143.65 212.88 143.25 214.2 143.25 215.88C143.25 217.54 143.65 218.86 144.45 219.84C145.29 220.84 146.47 221.36 147.99 221.36C148.99 221.36 149.85 221.14 150.55 220.72C149.83 219.82 149.11 219 148.41 218.26L149.67 217.02C150.39 217.78 151.11 218.6 151.83 219.44C152.43 218.52 152.73 217.34 152.73 215.88C152.73 214.16 152.31 212.82 151.51 211.84C150.69 210.84 149.51 210.36 147.99 210.36ZM161.958 208.44C163.318 208.44 164.458 208.82 165.338 209.62C166.198 210.42 166.638 211.44 166.638 212.7C166.638 213.94 166.158 215.06 165.238 216.08C164.678 216.66 163.698 217.42 162.278 218.38C160.738 219.4 159.818 220.3 159.518 221.08H166.658V223H156.818C156.818 221.58 157.278 220.34 158.238 219.26C158.758 218.64 159.838 217.78 161.458 216.66C162.418 215.98 163.098 215.44 163.498 215.02C164.138 214.3 164.478 213.52 164.478 212.68C164.478 211.88 164.258 211.28 163.818 210.88C163.378 210.48 162.718 210.28 161.878 210.28C160.978 210.28 160.298 210.58 159.838 211.2C159.358 211.8 159.118 212.66 159.078 213.82H156.898C156.918 212.22 157.378 210.94 158.278 209.98C159.198 208.94 160.438 208.44 161.958 208.44Z" fill="#00A19B"/>
<rect x="24.5" y="258.5" width="259" height="71" rx="3.5" stroke="#D9D9D9"/>
<path d="M127.104 275.056H127.824C129.088 275.856 130.448 276.832 131.888 278L131.232 278.88C129.712 277.632 128.496 276.704 127.568 276.112C127.12 276.656 126.592 277.184 126 277.696H129.632V278.56H125.728V277.936C124.992 278.56 124.176 279.184 123.248 279.808L122.576 278.88C124.4 277.712 125.904 276.432 127.104 275.056ZM125.36 282.24V282.448C125.36 282.72 125.344 282.992 125.328 283.248H129.76V282.24H125.36ZM129.76 281.456V280.448H125.36V281.456H129.76ZM131.024 285.216V289.536H129.936V288.928H126.464V289.552H125.408V285.216H131.024ZM126.464 288.016H129.936V286.144H126.464V288.016ZM125.264 284.096C125.04 286.176 124.448 287.984 123.488 289.552L122.592 288.768C123.68 287.136 124.224 285.024 124.24 282.448V279.584H130.864V284.096H125.264ZM132.656 276.064H133.76V286.384H132.656V276.064ZM135.216 289.44H132.832L132.576 288.32C133.36 288.352 134.112 288.384 134.816 288.384C135.232 288.384 135.456 288.176 135.456 287.792V274.96H136.608V288.08C136.608 288.976 136.144 289.44 135.216 289.44ZM144 274.928H145.12V277.36H146.8V274.928H147.92V277.36H149.28C149.76 276.672 150.16 275.952 150.48 275.184L151.536 275.584C151.168 276.272 150.8 276.864 150.432 277.36H152.976V278.368H139.024V277.36H141.488C141.216 276.736 140.88 276.144 140.496 275.6L141.568 275.2C141.936 275.808 142.272 276.528 142.592 277.36H144V274.928ZM139.728 280.128H143.216C142.976 279.664 142.704 279.232 142.384 278.832L143.456 278.432C143.808 278.912 144.128 279.472 144.416 280.128H147.488C147.872 279.616 148.224 279.056 148.512 278.464L149.616 278.848C149.344 279.328 149.056 279.744 148.752 280.128H152.272V281.136H146.592V282.32H151.488V283.28H146.592V284.48H152.96V285.504H146.592V289.648H145.424V285.504H139.04V284.48H145.424V283.28H140.512V282.32H145.424V281.136H139.728V280.128ZM149.168 286.08C150.544 286.912 151.696 287.728 152.624 288.56L151.792 289.376C150.976 288.576 149.856 287.712 148.416 286.8L149.168 286.08ZM142.928 286.048L143.696 286.736C142.704 287.728 141.488 288.608 140.032 289.376L139.312 288.448C140.736 287.776 141.936 286.976 142.928 286.048ZM154.912 282.56H169.088V283.552H162.352L161.792 284.768H168.064V288.304C168.064 289.152 167.6 289.584 166.704 289.584H165.536L165.264 288.592L166.384 288.64C166.768 288.64 166.96 288.448 166.96 288.064V285.744H164.4V289.488H163.296V285.744H160.912V289.488H159.824V285.744H157.424V289.648H156.32V284.768H160.624L161.184 283.552H154.912V282.56ZM155.888 275.504H168.128V276.448H162.56V277.456H168.768V280.72H167.664V278.368H162.56V281.872H161.44V278.368H156.336V280.72H155.232V277.456H161.44V276.448H155.888V275.504ZM157.68 278.944C158.672 279.04 159.632 279.184 160.56 279.376L160.256 280.096C159.312 279.92 158.32 279.792 157.296 279.696L157.68 278.944ZM160.288 280.688L160.544 281.424C159.872 281.584 158.816 281.696 157.344 281.792L157.088 280.976C158.528 280.912 159.6 280.816 160.288 280.688ZM163.648 280.096L163.488 279.296C164.576 279.232 165.536 279.104 166.384 278.912L166.672 279.696C165.808 279.872 164.8 280 163.648 280.096ZM163.792 280.704C164.864 280.8 165.888 280.96 166.848 281.168L166.528 281.952C165.536 281.712 164.512 281.536 163.456 281.408L163.792 280.704ZM170.928 275.568H185.072V276.608H180.352V278.032H184.08V282.064H177.424C177.136 282.576 176.864 283.04 176.608 283.488H185.264V284.544H181.824C181.504 285.504 180.912 286.32 180.064 287.008C181.696 287.504 183.36 288.08 185.056 288.752L184.336 289.696C182.576 288.944 180.8 288.288 179.024 287.712C177.504 288.528 175.008 289.168 171.552 289.632L171.12 288.608C173.968 288.272 176.128 287.824 177.568 287.264C176.24 286.864 174.912 286.512 173.584 286.208C173.968 285.648 174.32 285.088 174.672 284.544H170.72V283.488H175.312C175.6 282.992 175.872 282.512 176.128 282.064H171.92V278.032H175.648V276.608H170.928V275.568ZM178.832 286.64C179.728 286.08 180.336 285.376 180.656 284.544H175.984C175.712 284.976 175.456 285.376 175.216 285.728C176.4 285.984 177.6 286.288 178.832 286.64ZM179.248 278.032V276.608H176.752V278.032H179.248ZM182.976 281.072V279.04H180.352V281.072H182.976ZM179.248 281.072V279.04H176.752V281.072H179.248ZM175.648 281.072V279.04H173.024V281.072H175.648ZM98.896 309.424H105.408V308.112H106.56V309.424H113.104V310.496H106.56V313.584H105.408V310.496H98.896V309.424ZM104.144 302.912C103.696 303.44 103.232 303.952 102.72 304.432L102.384 303.36C103.728 302.016 104.656 300.544 105.2 298.944L106.272 299.168C106.112 299.632 105.92 300.08 105.696 300.512H108.24C108.064 300 107.872 299.52 107.68 299.088L108.816 298.896C108.992 299.376 109.168 299.904 109.328 300.512H112.72V301.472H109.376V302.576H112.4V303.504H109.376V304.592H112.416V305.52H109.376V306.704H112.896V307.664H104.144V302.912ZM108.288 301.472H105.2V302.576H108.288V301.472ZM108.288 303.504H105.2V304.592H108.288V303.504ZM108.288 305.52H105.2V306.704H108.288V305.52ZM100.32 299.008C101.28 299.456 102.176 300 102.992 300.64L102.416 301.52C101.552 300.816 100.656 300.272 99.744 299.856L100.32 299.008ZM99.264 301.648C100.176 302.048 101.008 302.528 101.76 303.088L101.168 303.984C100.368 303.36 99.536 302.88 98.688 302.528L99.264 301.648ZM102.192 304.576L102.832 305.344C102 306.448 100.96 307.488 99.744 308.464L98.96 307.552C100.24 306.64 101.328 305.648 102.192 304.576ZM128.352 305.12V312.432C128.352 313.12 127.936 313.472 127.136 313.472H125.856L125.584 312.512L126.816 312.56C127.136 312.56 127.312 312.4 127.312 312.08V310.88H124.96V313.392H123.968V310.88H121.536C121.28 312.064 120.816 312.96 120.144 313.6L119.328 312.848C120.256 311.952 120.72 310.656 120.72 308.96V307.024C120.192 307.824 119.616 308.544 118.992 309.184L118.304 308.352C119.488 307.2 120.464 305.744 121.248 303.952H118.96V302.928H121.808V301.36H119.696V300.336H121.808V298.944H122.88V300.336H125.616V298.944H126.704V300.336H128.768V301.36H126.704V302.928H129.28V303.952H122.32C122.16 304.352 121.984 304.736 121.808 305.12H128.352ZM121.68 309.968H123.968V308.496H121.728V308.88C121.728 309.264 121.712 309.616 121.68 309.968ZM124.96 308.496V309.968H127.312V308.496H124.96ZM121.728 307.584H123.968V306.032H121.728V307.584ZM124.96 306.032V307.584H127.312V306.032H124.96ZM117.984 298.896L119.024 299.376C118.704 300.416 118.32 301.408 117.872 302.352V313.632H116.752V304.352C116.208 305.168 115.616 305.952 114.976 306.688L114.64 305.536C116.176 303.6 117.28 301.392 117.984 298.896ZM125.616 302.928V301.36H122.88V302.928H125.616ZM137.936 298.88L138.96 299.424C138.672 299.744 138.368 300.048 138.048 300.336H142.64V301.248C140.912 304.32 137.696 306.048 133.024 306.416L132.528 305.376C133.968 305.28 135.248 305.072 136.4 304.736C135.904 304.128 135.376 303.568 134.832 303.072L135.84 302.592C136.416 303.136 136.96 303.712 137.472 304.352C139.136 303.68 140.432 302.672 141.328 301.36H136.656C135.408 302.096 133.936 302.656 132.224 303.04L131.552 301.984C134.4 301.44 136.528 300.416 137.936 298.88ZM137.328 308.88C137.936 309.504 138.528 310.176 139.072 310.896C140.848 310.128 142.24 309.024 143.264 307.616H138.528C137.12 308.288 135.456 308.8 133.52 309.136L132.832 308.112C136.32 307.76 138.896 306.688 140.56 304.928L141.552 305.472C141.168 305.856 140.768 306.224 140.32 306.56H144.704V307.472C142.432 311.248 138.208 313.2 132 313.344L131.536 312.24C134.032 312.224 136.192 311.92 138 311.312C137.456 310.592 136.896 309.936 136.304 309.36L137.328 308.88ZM150.096 300.816L151.216 301.248C150.368 303.792 149.264 305.728 147.904 307.056L146.928 306.224C148.336 304.88 149.392 303.072 150.096 300.816ZM157.888 305.792L158.896 306.416C157.04 310.128 153.344 312.528 147.824 313.616L147.152 312.512C152.56 311.488 156.128 309.248 157.888 305.792ZM153.408 298.976H154.592V308.208H153.408V298.976ZM157.344 300.56C158.912 302.304 160.272 304.224 161.456 306.304L160.368 306.864C159.152 304.672 157.792 302.72 156.304 301.024L157.344 300.56ZM170.048 300.8C169.552 301.472 168.928 302.064 168.192 302.592L167.552 301.744C168.72 300.96 169.52 300 169.936 298.864L170.992 298.992C170.88 299.28 170.768 299.568 170.64 299.84H176.368V300.656C175.952 301.488 175.488 302.192 174.976 302.768L174.176 302.144C174.544 301.76 174.88 301.312 175.184 300.8H170.048ZM163.28 299.856H167.216V300.848H163.28V299.856ZM162.96 302.736H167.552V303.744H162.96V302.736ZM171.92 301.088L172.912 301.28C172.848 301.536 172.768 301.776 172.672 302C173.824 303.168 175.312 303.872 177.104 304.096L176.64 305.056C174.896 304.784 173.424 304.032 172.224 302.8C171.456 303.856 170.224 304.544 168.528 304.88L167.984 304.048C170.192 303.648 171.504 302.656 171.92 301.088ZM164.848 304.928H175.184V311.264H164.848V304.928ZM174.048 310.336V309.312H165.984V310.336H174.048ZM165.984 308.528H174.048V307.6H165.984V308.528ZM165.984 306.816H174.048V305.824H165.984V306.816ZM171.712 311.408C173.552 311.728 175.328 312.176 177.024 312.768L176.64 313.68C174.944 313.04 173.152 312.56 171.296 312.208L171.712 311.408ZM168.064 311.36L168.64 312.112C167.456 312.752 165.744 313.28 163.504 313.664L162.976 312.768C165.216 312.4 166.912 311.936 168.064 311.36ZM181.808 303.504C181.04 303.968 180.24 304.4 179.408 304.784L178.736 303.824C181.52 302.576 183.792 300.992 185.552 299.056H186.48C188.016 300.96 190.272 302.528 193.248 303.776L192.592 304.736C191.744 304.384 190.96 303.984 190.224 303.552V304.432H186.592V306.736H192.288V307.808H186.592V312.08H188.368C188.912 311.04 189.392 309.92 189.808 308.72L190.864 309.088C190.464 310.208 190.016 311.216 189.536 312.08H192.848V313.184H179.168V312.08H182.48C182.144 311.056 181.712 310.112 181.2 309.216L182.24 308.832C182.736 309.728 183.184 310.816 183.6 312.08H185.44V307.808H179.728V306.736H185.44V304.432H181.808V303.504ZM189.952 303.392C188.384 302.464 187.072 301.376 186.016 300.144C184.816 301.392 183.472 302.48 181.984 303.392H189.952ZM202.24 300.352C203.264 300.352 204.08 300.624 204.688 301.2C205.296 301.744 205.6 302.496 205.6 303.456C205.6 304.176 205.392 304.8 205.008 305.328C204.832 305.52 204.4 305.936 203.696 306.56C203.344 306.848 203.104 307.136 202.944 307.424C202.736 307.776 202.64 308.176 202.64 308.608V308.976H201.36V308.608C201.36 308.032 201.472 307.536 201.712 307.088C201.936 306.672 202.288 306.24 202.784 305.792C203.328 305.312 203.664 304.976 203.824 304.784C204.128 304.384 204.288 303.968 204.288 303.52C204.288 302.88 204.096 302.384 203.744 302.032C203.36 301.648 202.848 301.472 202.176 301.472C201.376 301.472 200.784 301.728 200.4 302.256C200.048 302.704 199.872 303.312 199.872 304.096H198.592C198.608 302.976 198.928 302.08 199.552 301.408C200.192 300.704 201.088 300.352 202.24 300.352ZM202 310.096C202.272 310.096 202.512 310.176 202.704 310.368C202.88 310.544 202.976 310.768 202.976 311.04C202.976 311.328 202.88 311.552 202.704 311.728C202.512 311.904 202.272 312 202 312C201.728 312 201.504 311.904 201.312 311.728C201.12 311.536 201.04 311.312 201.04 311.04C201.04 310.768 201.12 310.544 201.312 310.368C201.504 310.176 201.728 310.096 202 310.096Z" fill="black"/>
<path d="M160.98 258H146.341L153.66 251.661L160.98 258Z" stroke="#D9D9D9"/>
<path d="M153.66 252.3L162.321 259.8H145L153.66 252.3Z" fill="white"/>
<path d="M24.0002 23.4966L12.0003 23.4966" stroke="#C92E34"/>
<path d="M12.0003 27.9907L12.0003 19.0001" stroke="#C92E34"/>
<path d="M24.0002 27.9907L24.0002 19.0001" stroke="#C92E34"/>
<path d="M24.0002 27.9907L24.0002 19.0001" stroke="#C92E34"/>
<path d="M24 339.07L24 27.0696" stroke="#C92E34" stroke-dasharray="1 1"/>
<path d="M12 339.07L12 27.0696" stroke="#C92E34" stroke-dasharray="1 1"/>
</svg>
