<svg width="207" height="165" viewBox="0 0 207 165" fill="none" xmlns="http://www.w3.org/2000/svg">
<line y1="71" x2="207" y2="71" stroke="#D9D9D9" stroke-width="2"/>
<circle cx="102" cy="70" r="8" fill="#00A19B"/>
<g opacity="0.7">
<rect x="35.5" y="0.5" width="137" height="53" rx="3.5" stroke="#00A19B"/>
<path d="M99.9036 19.44C102.064 19.44 103.784 20.14 105.044 21.56C106.244 22.9 106.844 24.68 106.844 26.88C106.844 29.02 106.264 30.76 105.104 32.12C105.624 32.82 106.164 33.54 106.684 34.3L105.284 35.54C104.744 34.76 104.224 34.02 103.704 33.32C102.644 33.96 101.384 34.28 99.9036 34.28C97.7236 34.28 96.0036 33.56 94.7636 32.16C93.5636 30.8 92.9836 29.04 92.9836 26.88C92.9836 24.7 93.5636 22.94 94.7636 21.58C96.0036 20.14 97.7236 19.44 99.9036 19.44ZM99.9036 21.36C98.3836 21.36 97.2036 21.86 96.3636 22.9C95.5636 23.88 95.1636 25.2 95.1636 26.88C95.1636 28.54 95.5636 29.86 96.3636 30.84C97.2036 31.84 98.3836 32.36 99.9036 32.36C100.904 32.36 101.764 32.14 102.464 31.72C101.744 30.82 101.024 30 100.324 29.26L101.584 28.02C102.304 28.78 103.024 29.6 103.744 30.44C104.344 29.52 104.644 28.34 104.644 26.88C104.644 25.16 104.224 23.82 103.424 22.84C102.604 21.84 101.424 21.36 99.9036 21.36ZM112.292 19.72H113.932V34H111.752V22.34C110.892 23.16 109.792 23.76 108.472 24.14V21.98C109.112 21.82 109.772 21.54 110.492 21.14C111.212 20.7 111.812 20.24 112.292 19.72Z" fill="#00A19B"/>
</g>
<rect x="29.5" y="93.5" width="149" height="71" rx="3.5" stroke="#00A19B" stroke-opacity="0.7"/>
<path d="M73.742 107.438H74.552C75.974 108.338 77.504 109.436 79.124 110.75L78.386 111.74C76.676 110.336 75.308 109.292 74.264 108.626C73.76 109.238 73.166 109.832 72.5 110.408H76.586V111.38H72.194V110.678C71.366 111.38 70.448 112.082 69.404 112.784L68.648 111.74C70.7 110.426 72.392 108.986 73.742 107.438ZM71.78 115.52V115.754C71.78 116.06 71.762 116.366 71.744 116.654H76.73V115.52H71.78ZM76.73 114.638V113.504H71.78V114.638H76.73ZM78.152 118.868V123.728H76.928V123.044H73.022V123.746H71.834V118.868H78.152ZM73.022 122.018H76.928V119.912H73.022V122.018ZM71.672 117.608C71.42 119.948 70.754 121.982 69.674 123.746L68.666 122.864C69.89 121.028 70.502 118.652 70.52 115.754V112.532H77.972V117.608H71.672ZM79.988 108.572H81.23V120.182H79.988V108.572ZM82.868 123.62H80.186L79.898 122.36C80.78 122.396 81.626 122.432 82.418 122.432C82.886 122.432 83.138 122.198 83.138 121.766V107.33H84.434V122.09C84.434 123.098 83.912 123.62 82.868 123.62ZM92.75 107.294H94.01V110.03H95.9V107.294H97.16V110.03H98.69C99.23 109.256 99.68 108.446 100.04 107.582L101.228 108.032C100.814 108.806 100.4 109.472 99.986 110.03H102.848V111.164H87.152V110.03H89.924C89.618 109.328 89.24 108.662 88.808 108.05L90.014 107.6C90.428 108.284 90.806 109.094 91.166 110.03H92.75V107.294ZM87.944 113.144H91.868C91.598 112.622 91.292 112.136 90.932 111.686L92.138 111.236C92.534 111.776 92.894 112.406 93.218 113.144H96.674C97.106 112.568 97.502 111.938 97.826 111.272L99.068 111.704C98.762 112.244 98.438 112.712 98.096 113.144H102.056V114.278H95.666V115.61H101.174V116.69H95.666V118.04H102.83V119.192H95.666V123.854H94.352V119.192H87.17V118.04H94.352V116.69H88.826V115.61H94.352V114.278H87.944V113.144ZM98.564 119.84C100.112 120.776 101.408 121.694 102.452 122.63L101.516 123.548C100.598 122.648 99.338 121.676 97.718 120.65L98.564 119.84ZM91.544 119.804L92.408 120.578C91.292 121.694 89.924 122.684 88.286 123.548L87.476 122.504C89.078 121.748 90.428 120.848 91.544 119.804ZM105.026 115.88H120.974V116.996H113.396L112.766 118.364H119.822V122.342C119.822 123.296 119.3 123.782 118.292 123.782H116.978L116.672 122.666L117.932 122.72C118.364 122.72 118.58 122.504 118.58 122.072V119.462H115.7V123.674H114.458V119.462H111.776V123.674H110.552V119.462H107.852V123.854H106.61V118.364H111.452L112.082 116.996H105.026V115.88ZM106.124 107.942H119.894V109.004H113.63V110.138H120.614V113.81H119.372V111.164H113.63V115.106H112.37V111.164H106.628V113.81H105.386V110.138H112.37V109.004H106.124V107.942ZM108.14 111.812C109.256 111.92 110.336 112.082 111.38 112.298L111.038 113.108C109.976 112.91 108.86 112.766 107.708 112.658L108.14 111.812ZM111.074 113.774L111.362 114.602C110.606 114.782 109.418 114.908 107.762 115.016L107.474 114.098C109.094 114.026 110.3 113.918 111.074 113.774ZM114.854 113.108L114.674 112.208C115.898 112.136 116.978 111.992 117.932 111.776L118.256 112.658C117.284 112.856 116.15 113 114.854 113.108ZM115.016 113.792C116.222 113.9 117.374 114.08 118.454 114.314L118.094 115.196C116.978 114.926 115.826 114.728 114.638 114.584L115.016 113.792ZM123.044 108.014H138.956V109.184H133.646V110.786H137.84V115.322H130.352C130.028 115.898 129.722 116.42 129.434 116.924H139.172V118.112H135.302C134.942 119.192 134.276 120.11 133.322 120.884C135.158 121.442 137.03 122.09 138.938 122.846L138.128 123.908C136.148 123.062 134.15 122.324 132.152 121.676C130.442 122.594 127.634 123.314 123.746 123.836L123.26 122.684C126.464 122.306 128.894 121.802 130.514 121.172C129.02 120.722 127.526 120.326 126.032 119.984C126.464 119.354 126.86 118.724 127.256 118.112H122.81V116.924H127.976C128.3 116.366 128.606 115.826 128.894 115.322H124.16V110.786H128.354V109.184H123.044V108.014ZM131.936 120.47C132.944 119.84 133.628 119.048 133.988 118.112H128.732C128.426 118.598 128.138 119.048 127.868 119.444C129.2 119.732 130.55 120.074 131.936 120.47ZM132.404 110.786V109.184H129.596V110.786H132.404ZM136.598 114.206V111.92H133.646V114.206H136.598ZM132.404 114.206V111.92H129.596V114.206H132.404ZM128.354 114.206V111.92H125.402V114.206H128.354ZM42.008 146.102H49.334V144.626H50.63V146.102H57.992V147.308H50.63V150.782H49.334V147.308H42.008V146.102ZM47.912 138.776C47.408 139.37 46.886 139.946 46.31 140.486L45.932 139.28C47.444 137.768 48.488 136.112 49.1 134.312L50.306 134.564C50.126 135.086 49.91 135.59 49.658 136.076H52.52C52.322 135.5 52.106 134.96 51.89 134.474L53.168 134.258C53.366 134.798 53.564 135.392 53.744 136.076H57.56V137.156H53.798V138.398H57.2V139.442H53.798V140.666H57.218V141.71H53.798V143.042H57.758V144.122H47.912V138.776ZM52.574 137.156H49.1V138.398H52.574V137.156ZM52.574 139.442H49.1V140.666H52.574V139.442ZM52.574 141.71H49.1V143.042H52.574V141.71ZM43.61 134.384C44.69 134.888 45.698 135.5 46.616 136.22L45.968 137.21C44.996 136.418 43.988 135.806 42.962 135.338L43.61 134.384ZM42.422 137.354C43.448 137.804 44.384 138.344 45.23 138.974L44.564 139.982C43.664 139.28 42.728 138.74 41.774 138.344L42.422 137.354ZM45.716 140.648L46.436 141.512C45.5 142.754 44.33 143.924 42.962 145.022L42.08 143.996C43.52 142.97 44.744 141.854 45.716 140.648ZM75.146 141.26V149.486C75.146 150.26 74.678 150.656 73.778 150.656H72.338L72.032 149.576L73.418 149.63C73.778 149.63 73.976 149.45 73.976 149.09V147.74H71.33V150.566H70.214V147.74H67.478C67.19 149.072 66.668 150.08 65.912 150.8L64.994 149.954C66.038 148.946 66.56 147.488 66.56 145.58V143.402C65.966 144.302 65.318 145.112 64.616 145.832L63.842 144.896C65.174 143.6 66.272 141.962 67.154 139.946H64.58V138.794H67.784V137.03H65.408V135.878H67.784V134.312H68.99V135.878H72.068V134.312H73.292V135.878H75.614V137.03H73.292V138.794H76.19V139.946H68.36C68.18 140.396 67.982 140.828 67.784 141.26H75.146ZM67.64 146.714H70.214V145.058H67.694V145.49C67.694 145.922 67.676 146.318 67.64 146.714ZM71.33 145.058V146.714H73.976V145.058H71.33ZM67.694 144.032H70.214V142.286H67.694V144.032ZM71.33 142.286V144.032H73.976V142.286H71.33ZM63.482 134.258L64.652 134.798C64.292 135.968 63.86 137.084 63.356 138.146V150.836H62.096V140.396C61.484 141.314 60.818 142.196 60.098 143.024L59.72 141.728C61.448 139.55 62.69 137.066 63.482 134.258ZM72.068 138.794V137.03H68.99V138.794H72.068ZM85.928 134.24L87.08 134.852C86.756 135.212 86.414 135.554 86.054 135.878H91.22V136.904C89.276 140.36 85.658 142.304 80.402 142.718L79.844 141.548C81.464 141.44 82.904 141.206 84.2 140.828C83.642 140.144 83.048 139.514 82.436 138.956L83.57 138.416C84.218 139.028 84.83 139.676 85.406 140.396C87.278 139.64 88.736 138.506 89.744 137.03H84.488C83.084 137.858 81.428 138.488 79.502 138.92L78.746 137.732C81.95 137.12 84.344 135.968 85.928 134.24ZM85.244 145.49C85.928 146.192 86.594 146.948 87.206 147.758C89.204 146.894 90.77 145.652 91.922 144.068H86.594C85.01 144.824 83.138 145.4 80.96 145.778L80.186 144.626C84.11 144.23 87.008 143.024 88.88 141.044L89.996 141.656C89.564 142.088 89.114 142.502 88.61 142.88H93.542V143.906C90.986 148.154 86.234 150.35 79.25 150.512L78.728 149.27C81.536 149.252 83.966 148.91 86 148.226C85.388 147.416 84.758 146.678 84.092 146.03L85.244 145.49ZM99.608 136.418L100.868 136.904C99.914 139.766 98.672 141.944 97.142 143.438L96.044 142.502C97.628 140.99 98.816 138.956 99.608 136.418ZM108.374 142.016L109.508 142.718C107.42 146.894 103.262 149.594 97.052 150.818L96.296 149.576C102.38 148.424 106.394 145.904 108.374 142.016ZM103.334 134.348H104.666V144.734H103.334V134.348ZM107.762 136.13C109.526 138.092 111.056 140.252 112.388 142.592L111.164 143.222C109.796 140.756 108.266 138.56 106.592 136.652L107.762 136.13ZM122.054 136.4C121.496 137.156 120.794 137.822 119.966 138.416L119.246 137.462C120.56 136.58 121.46 135.5 121.928 134.222L123.116 134.366C122.99 134.69 122.864 135.014 122.72 135.32H129.164V136.238C128.696 137.174 128.174 137.966 127.598 138.614L126.698 137.912C127.112 137.48 127.49 136.976 127.832 136.4H122.054ZM114.44 135.338H118.868V136.454H114.44V135.338ZM114.08 138.578H119.246V139.712H114.08V138.578ZM124.16 136.724L125.276 136.94C125.204 137.228 125.114 137.498 125.006 137.75C126.302 139.064 127.976 139.856 129.992 140.108L129.47 141.188C127.508 140.882 125.852 140.036 124.502 138.65C123.638 139.838 122.252 140.612 120.344 140.99L119.732 140.054C122.216 139.604 123.692 138.488 124.16 136.724ZM116.204 141.044H127.832V148.172H116.204V141.044ZM126.554 147.128V145.976H117.482V147.128H126.554ZM117.482 145.094H126.554V144.05H117.482V145.094ZM117.482 143.168H126.554V142.052H117.482V143.168ZM123.926 148.334C125.996 148.694 127.994 149.198 129.902 149.864L129.47 150.89C127.562 150.17 125.546 149.63 123.458 149.234L123.926 148.334ZM119.822 148.28L120.47 149.126C119.138 149.846 117.212 150.44 114.692 150.872L114.098 149.864C116.618 149.45 118.526 148.928 119.822 148.28ZM135.284 139.442C134.42 139.964 133.52 140.45 132.584 140.882L131.828 139.802C134.96 138.398 137.516 136.616 139.496 134.438H140.54C142.268 136.58 144.806 138.344 148.154 139.748L147.416 140.828C146.462 140.432 145.58 139.982 144.752 139.496V140.486H140.666V143.078H147.074V144.284H140.666V149.09H142.664C143.276 147.92 143.816 146.66 144.284 145.31L145.472 145.724C145.022 146.984 144.518 148.118 143.978 149.09H147.704V150.332H132.314V149.09H136.04C135.662 147.938 135.176 146.876 134.6 145.868L135.77 145.436C136.328 146.444 136.832 147.668 137.3 149.09H139.37V144.284H132.944V143.078H139.37V140.486H135.284V139.442ZM144.446 139.316C142.682 138.272 141.206 137.048 140.018 135.662C138.668 137.066 137.156 138.29 135.482 139.316H144.446ZM158.27 135.896C159.422 135.896 160.34 136.202 161.024 136.85C161.708 137.462 162.05 138.308 162.05 139.388C162.05 140.198 161.816 140.9 161.384 141.494C161.186 141.71 160.7 142.178 159.908 142.88C159.512 143.204 159.242 143.528 159.062 143.852C158.828 144.248 158.72 144.698 158.72 145.184V145.598H157.28V145.184C157.28 144.536 157.406 143.978 157.676 143.474C157.928 143.006 158.324 142.52 158.882 142.016C159.494 141.476 159.872 141.098 160.052 140.882C160.394 140.432 160.574 139.964 160.574 139.46C160.574 138.74 160.358 138.182 159.962 137.786C159.53 137.354 158.954 137.156 158.198 137.156C157.298 137.156 156.632 137.444 156.2 138.038C155.804 138.542 155.606 139.226 155.606 140.108H154.166C154.184 138.848 154.544 137.84 155.246 137.084C155.966 136.292 156.974 135.896 158.27 135.896ZM158 146.858C158.306 146.858 158.576 146.948 158.792 147.164C158.99 147.362 159.098 147.614 159.098 147.92C159.098 148.244 158.99 148.496 158.792 148.694C158.576 148.892 158.306 149 158 149C157.694 149 157.442 148.892 157.226 148.694C157.01 148.478 156.92 148.226 156.92 147.92C156.92 147.614 157.01 147.362 157.226 147.164C157.442 146.948 157.694 146.858 158 146.858Z" fill="black"/>
<path d="M111.319 93H96.6806L104 86.6611L111.319 93Z" stroke="#00A19B" stroke-opacity="0.7"/>
<path d="M104 87.3L112.66 94.8H95.3398L104 87.3Z" fill="white"/>
</svg>
