<svg width="836" height="177" viewBox="0 0 836 177" fill="none" xmlns="http://www.w3.org/2000/svg">
<line x1="13" y1="75" x2="799" y2="75.0001" stroke="#D9D9D9" stroke-width="2"/>
<circle cx="112.2" cy="74" r="8" fill="#00A19B"/>
<rect x="39.7" y="4.5" width="149" height="53" rx="3.5" fill="white"/>
<rect x="39.7" y="4.5" width="149" height="53" rx="3.5" stroke="#00A19B"/>
<path d="M110.104 23.44C112.264 23.44 113.984 24.14 115.244 25.56C116.444 26.9 117.044 28.68 117.044 30.88C117.044 33.02 116.464 34.76 115.304 36.12C115.824 36.82 116.364 37.54 116.884 38.3L115.484 39.54C114.944 38.76 114.424 38.02 113.904 37.32C112.844 37.96 111.584 38.28 110.104 38.28C107.924 38.28 106.204 37.56 104.964 36.16C103.764 34.8 103.184 33.04 103.184 30.88C103.184 28.7 103.764 26.94 104.964 25.58C106.204 24.14 107.924 23.44 110.104 23.44ZM110.104 25.36C108.584 25.36 107.404 25.86 106.564 26.9C105.764 27.88 105.364 29.2 105.364 30.88C105.364 32.54 105.764 33.86 106.564 34.84C107.404 35.84 108.584 36.36 110.104 36.36C111.104 36.36 111.964 36.14 112.664 35.72C111.944 34.82 111.224 34 110.524 33.26L111.784 32.02C112.504 32.78 113.224 33.6 113.944 34.44C114.544 33.52 114.844 32.34 114.844 30.88C114.844 29.16 114.424 27.82 113.624 26.84C112.804 25.84 111.624 25.36 110.104 25.36ZM122.492 23.72H124.132V38H121.952V26.34C121.092 27.16 119.992 27.76 118.672 28.14V25.98C119.312 25.82 119.972 25.54 120.692 25.14C121.412 24.7 122.012 24.24 122.492 23.72Z" fill="#00A19B"/>
<rect x="39.7" y="97.5" width="149" height="77" rx="3.5" fill="white"/>
<rect x="39.7" y="97.5" width="149" height="77" rx="3.5" stroke="#D9D9D9"/>
<path d="M83.942 114.438H84.752C86.174 115.338 87.704 116.436 89.324 117.75L88.586 118.74C86.876 117.336 85.508 116.292 84.464 115.626C83.96 116.238 83.366 116.832 82.7 117.408H86.786V118.38H82.394V117.678C81.566 118.38 80.648 119.082 79.604 119.784L78.848 118.74C80.9 117.426 82.592 115.986 83.942 114.438ZM81.98 122.52V122.754C81.98 123.06 81.962 123.366 81.944 123.654H86.93V122.52H81.98ZM86.93 121.638V120.504H81.98V121.638H86.93ZM88.352 125.868V130.728H87.128V130.044H83.222V130.746H82.034V125.868H88.352ZM83.222 129.018H87.128V126.912H83.222V129.018ZM81.872 124.608C81.62 126.948 80.954 128.982 79.874 130.746L78.866 129.864C80.09 128.028 80.702 125.652 80.72 122.754V119.532H88.172V124.608H81.872ZM90.188 115.572H91.43V127.182H90.188V115.572ZM93.068 130.62H90.386L90.098 129.36C90.98 129.396 91.826 129.432 92.618 129.432C93.086 129.432 93.338 129.198 93.338 128.766V114.33H94.634V129.09C94.634 130.098 94.112 130.62 93.068 130.62ZM102.95 114.294H104.21V117.03H106.1V114.294H107.36V117.03H108.89C109.43 116.256 109.88 115.446 110.24 114.582L111.428 115.032C111.014 115.806 110.6 116.472 110.186 117.03H113.048V118.164H97.352V117.03H100.124C99.818 116.328 99.44 115.662 99.008 115.05L100.214 114.6C100.628 115.284 101.006 116.094 101.366 117.03H102.95V114.294ZM98.144 120.144H102.068C101.798 119.622 101.492 119.136 101.132 118.686L102.338 118.236C102.734 118.776 103.094 119.406 103.418 120.144H106.874C107.306 119.568 107.702 118.938 108.026 118.272L109.268 118.704C108.962 119.244 108.638 119.712 108.296 120.144H112.256V121.278H105.866V122.61H111.374V123.69H105.866V125.04H113.03V126.192H105.866V130.854H104.552V126.192H97.37V125.04H104.552V123.69H99.026V122.61H104.552V121.278H98.144V120.144ZM108.764 126.84C110.312 127.776 111.608 128.694 112.652 129.63L111.716 130.548C110.798 129.648 109.538 128.676 107.918 127.65L108.764 126.84ZM101.744 126.804L102.608 127.578C101.492 128.694 100.124 129.684 98.486 130.548L97.676 129.504C99.278 128.748 100.628 127.848 101.744 126.804ZM115.226 122.88H131.174V123.996H123.596L122.966 125.364H130.022V129.342C130.022 130.296 129.5 130.782 128.492 130.782H127.178L126.872 129.666L128.132 129.72C128.564 129.72 128.78 129.504 128.78 129.072V126.462H125.9V130.674H124.658V126.462H121.976V130.674H120.752V126.462H118.052V130.854H116.81V125.364H121.652L122.282 123.996H115.226V122.88ZM116.324 114.942H130.094V116.004H123.83V117.138H130.814V120.81H129.572V118.164H123.83V122.106H122.57V118.164H116.828V120.81H115.586V117.138H122.57V116.004H116.324V114.942ZM118.34 118.812C119.456 118.92 120.536 119.082 121.58 119.298L121.238 120.108C120.176 119.91 119.06 119.766 117.908 119.658L118.34 118.812ZM121.274 120.774L121.562 121.602C120.806 121.782 119.618 121.908 117.962 122.016L117.674 121.098C119.294 121.026 120.5 120.918 121.274 120.774ZM125.054 120.108L124.874 119.208C126.098 119.136 127.178 118.992 128.132 118.776L128.456 119.658C127.484 119.856 126.35 120 125.054 120.108ZM125.216 120.792C126.422 120.9 127.574 121.08 128.654 121.314L128.294 122.196C127.178 121.926 126.026 121.728 124.838 121.584L125.216 120.792ZM133.244 115.014H149.156V116.184H143.846V117.786H148.04V122.322H140.552C140.228 122.898 139.922 123.42 139.634 123.924H149.372V125.112H145.502C145.142 126.192 144.476 127.11 143.522 127.884C145.358 128.442 147.23 129.09 149.138 129.846L148.328 130.908C146.348 130.062 144.35 129.324 142.352 128.676C140.642 129.594 137.834 130.314 133.946 130.836L133.46 129.684C136.664 129.306 139.094 128.802 140.714 128.172C139.22 127.722 137.726 127.326 136.232 126.984C136.664 126.354 137.06 125.724 137.456 125.112H133.01V123.924H138.176C138.5 123.366 138.806 122.826 139.094 122.322H134.36V117.786H138.554V116.184H133.244V115.014ZM142.136 127.47C143.144 126.84 143.828 126.048 144.188 125.112H138.932C138.626 125.598 138.338 126.048 138.068 126.444C139.4 126.732 140.75 127.074 142.136 127.47ZM142.604 117.786V116.184H139.796V117.786H142.604ZM146.798 121.206V118.92H143.846V121.206H146.798ZM142.604 121.206V118.92H139.796V121.206H142.604ZM138.554 121.206V118.92H135.602V121.206H138.554ZM52.208 153.102H59.534V151.626H60.83V153.102H68.192V154.308H60.83V157.782H59.534V154.308H52.208V153.102ZM58.112 145.776C57.608 146.37 57.086 146.946 56.51 147.486L56.132 146.28C57.644 144.768 58.688 143.112 59.3 141.312L60.506 141.564C60.326 142.086 60.11 142.59 59.858 143.076H62.72C62.522 142.5 62.306 141.96 62.09 141.474L63.368 141.258C63.566 141.798 63.764 142.392 63.944 143.076H67.76V144.156H63.998V145.398H67.4V146.442H63.998V147.666H67.418V148.71H63.998V150.042H67.958V151.122H58.112V145.776ZM62.774 144.156H59.3V145.398H62.774V144.156ZM62.774 146.442H59.3V147.666H62.774V146.442ZM62.774 148.71H59.3V150.042H62.774V148.71ZM53.81 141.384C54.89 141.888 55.898 142.5 56.816 143.22L56.168 144.21C55.196 143.418 54.188 142.806 53.162 142.338L53.81 141.384ZM52.622 144.354C53.648 144.804 54.584 145.344 55.43 145.974L54.764 146.982C53.864 146.28 52.928 145.74 51.974 145.344L52.622 144.354ZM55.916 147.648L56.636 148.512C55.7 149.754 54.53 150.924 53.162 152.022L52.28 150.996C53.72 149.97 54.944 148.854 55.916 147.648ZM85.346 148.26V156.486C85.346 157.26 84.878 157.656 83.978 157.656H82.538L82.232 156.576L83.618 156.63C83.978 156.63 84.176 156.45 84.176 156.09V154.74H81.53V157.566H80.414V154.74H77.678C77.39 156.072 76.868 157.08 76.112 157.8L75.194 156.954C76.238 155.946 76.76 154.488 76.76 152.58V150.402C76.166 151.302 75.518 152.112 74.816 152.832L74.042 151.896C75.374 150.6 76.472 148.962 77.354 146.946H74.78V145.794H77.984V144.03H75.608V142.878H77.984V141.312H79.19V142.878H82.268V141.312H83.492V142.878H85.814V144.03H83.492V145.794H86.39V146.946H78.56C78.38 147.396 78.182 147.828 77.984 148.26H85.346ZM77.84 153.714H80.414V152.058H77.894V152.49C77.894 152.922 77.876 153.318 77.84 153.714ZM81.53 152.058V153.714H84.176V152.058H81.53ZM77.894 151.032H80.414V149.286H77.894V151.032ZM81.53 149.286V151.032H84.176V149.286H81.53ZM73.682 141.258L74.852 141.798C74.492 142.968 74.06 144.084 73.556 145.146V157.836H72.296V147.396C71.684 148.314 71.018 149.196 70.298 150.024L69.92 148.728C71.648 146.55 72.89 144.066 73.682 141.258ZM82.268 145.794V144.03H79.19V145.794H82.268ZM96.128 141.24L97.28 141.852C96.956 142.212 96.614 142.554 96.254 142.878H101.42V143.904C99.476 147.36 95.858 149.304 90.602 149.718L90.044 148.548C91.664 148.44 93.104 148.206 94.4 147.828C93.842 147.144 93.248 146.514 92.636 145.956L93.77 145.416C94.418 146.028 95.03 146.676 95.606 147.396C97.478 146.64 98.936 145.506 99.944 144.03H94.688C93.284 144.858 91.628 145.488 89.702 145.92L88.946 144.732C92.15 144.12 94.544 142.968 96.128 141.24ZM95.444 152.49C96.128 153.192 96.794 153.948 97.406 154.758C99.404 153.894 100.97 152.652 102.122 151.068H96.794C95.21 151.824 93.338 152.4 91.16 152.778L90.386 151.626C94.31 151.23 97.208 150.024 99.08 148.044L100.196 148.656C99.764 149.088 99.314 149.502 98.81 149.88H103.742V150.906C101.186 155.154 96.434 157.35 89.45 157.512L88.928 156.27C91.736 156.252 94.166 155.91 96.2 155.226C95.588 154.416 94.958 153.678 94.292 153.03L95.444 152.49ZM109.808 143.418L111.068 143.904C110.114 146.766 108.872 148.944 107.342 150.438L106.244 149.502C107.828 147.99 109.016 145.956 109.808 143.418ZM118.574 149.016L119.708 149.718C117.62 153.894 113.462 156.594 107.252 157.818L106.496 156.576C112.58 155.424 116.594 152.904 118.574 149.016ZM113.534 141.348H114.866V151.734H113.534V141.348ZM117.962 143.13C119.726 145.092 121.256 147.252 122.588 149.592L121.364 150.222C119.996 147.756 118.466 145.56 116.792 143.652L117.962 143.13ZM132.254 143.4C131.696 144.156 130.994 144.822 130.166 145.416L129.446 144.462C130.76 143.58 131.66 142.5 132.128 141.222L133.316 141.366C133.19 141.69 133.064 142.014 132.92 142.32H139.364V143.238C138.896 144.174 138.374 144.966 137.798 145.614L136.898 144.912C137.312 144.48 137.69 143.976 138.032 143.4H132.254ZM124.64 142.338H129.068V143.454H124.64V142.338ZM124.28 145.578H129.446V146.712H124.28V145.578ZM134.36 143.724L135.476 143.94C135.404 144.228 135.314 144.498 135.206 144.75C136.502 146.064 138.176 146.856 140.192 147.108L139.67 148.188C137.708 147.882 136.052 147.036 134.702 145.65C133.838 146.838 132.452 147.612 130.544 147.99L129.932 147.054C132.416 146.604 133.892 145.488 134.36 143.724ZM126.404 148.044H138.032V155.172H126.404V148.044ZM136.754 154.128V152.976H127.682V154.128H136.754ZM127.682 152.094H136.754V151.05H127.682V152.094ZM127.682 150.168H136.754V149.052H127.682V150.168ZM134.126 155.334C136.196 155.694 138.194 156.198 140.102 156.864L139.67 157.89C137.762 157.17 135.746 156.63 133.658 156.234L134.126 155.334ZM130.022 155.28L130.67 156.126C129.338 156.846 127.412 157.44 124.892 157.872L124.298 156.864C126.818 156.45 128.726 155.928 130.022 155.28ZM145.484 146.442C144.62 146.964 143.72 147.45 142.784 147.882L142.028 146.802C145.16 145.398 147.716 143.616 149.696 141.438H150.74C152.468 143.58 155.006 145.344 158.354 146.748L157.616 147.828C156.662 147.432 155.78 146.982 154.952 146.496V147.486H150.866V150.078H157.274V151.284H150.866V156.09H152.864C153.476 154.92 154.016 153.66 154.484 152.31L155.672 152.724C155.222 153.984 154.718 155.118 154.178 156.09H157.904V157.332H142.514V156.09H146.24C145.862 154.938 145.376 153.876 144.8 152.868L145.97 152.436C146.528 153.444 147.032 154.668 147.5 156.09H149.57V151.284H143.144V150.078H149.57V147.486H145.484V146.442ZM154.646 146.316C152.882 145.272 151.406 144.048 150.218 142.662C148.868 144.066 147.356 145.29 145.682 146.316H154.646ZM168.47 142.896C169.622 142.896 170.54 143.202 171.224 143.85C171.908 144.462 172.25 145.308 172.25 146.388C172.25 147.198 172.016 147.9 171.584 148.494C171.386 148.71 170.9 149.178 170.108 149.88C169.712 150.204 169.442 150.528 169.262 150.852C169.028 151.248 168.92 151.698 168.92 152.184V152.598H167.48V152.184C167.48 151.536 167.606 150.978 167.876 150.474C168.128 150.006 168.524 149.52 169.082 149.016C169.694 148.476 170.072 148.098 170.252 147.882C170.594 147.432 170.774 146.964 170.774 146.46C170.774 145.74 170.558 145.182 170.162 144.786C169.73 144.354 169.154 144.156 168.398 144.156C167.498 144.156 166.832 144.444 166.4 145.038C166.004 145.542 165.806 146.226 165.806 147.108H164.366C164.384 145.848 164.744 144.84 165.446 144.084C166.166 143.292 167.174 142.896 168.47 142.896ZM168.2 153.858C168.506 153.858 168.776 153.948 168.992 154.164C169.19 154.362 169.298 154.614 169.298 154.92C169.298 155.244 169.19 155.496 168.992 155.694C168.776 155.892 168.506 156 168.2 156C167.894 156 167.642 155.892 167.426 155.694C167.21 155.478 167.12 155.226 167.12 154.92C167.12 154.614 167.21 154.362 167.426 154.164C167.642 153.948 167.894 153.858 168.2 153.858Z" fill="black"/>
<path d="M121.519 97H106.881L114.2 90.6611L121.519 97Z" stroke="#D9D9D9"/>
<path d="M114.2 91.3L122.86 98.8H105.54L114.2 91.3Z" fill="white"/>
<circle cx="307.233" cy="74" r="8" fill="#00A19B"/>
<rect x="234.233" y="4.5" width="149" height="53" rx="3.5" fill="white"/>
<rect x="234.233" y="4.5" width="149" height="53" rx="3.5" stroke="#00A19B"/>
<path d="M302.723 23.44C304.883 23.44 306.603 24.14 307.863 25.56C309.063 26.9 309.663 28.68 309.663 30.88C309.663 33.02 309.083 34.76 307.923 36.12C308.443 36.82 308.983 37.54 309.503 38.3L308.103 39.54C307.563 38.76 307.043 38.02 306.523 37.32C305.463 37.96 304.203 38.28 302.723 38.28C300.543 38.28 298.823 37.56 297.583 36.16C296.383 34.8 295.803 33.04 295.803 30.88C295.803 28.7 296.383 26.94 297.583 25.58C298.823 24.14 300.543 23.44 302.723 23.44ZM302.723 25.36C301.203 25.36 300.023 25.86 299.183 26.9C298.383 27.88 297.983 29.2 297.983 30.88C297.983 32.54 298.383 33.86 299.183 34.84C300.023 35.84 301.203 36.36 302.723 36.36C303.723 36.36 304.583 36.14 305.283 35.72C304.563 34.82 303.843 34 303.143 33.26L304.403 32.02C305.123 32.78 305.843 33.6 306.563 34.44C307.163 33.52 307.463 32.34 307.463 30.88C307.463 29.16 307.043 27.82 306.243 26.84C305.423 25.84 304.243 25.36 302.723 25.36ZM316.692 23.44C318.052 23.44 319.192 23.82 320.072 24.62C320.932 25.42 321.372 26.44 321.372 27.7C321.372 28.94 320.892 30.06 319.972 31.08C319.412 31.66 318.432 32.42 317.012 33.38C315.472 34.4 314.552 35.3 314.252 36.08H321.392V38H311.552C311.552 36.58 312.012 35.34 312.972 34.26C313.492 33.64 314.572 32.78 316.192 31.66C317.152 30.98 317.832 30.44 318.232 30.02C318.872 29.3 319.212 28.52 319.212 27.68C319.212 26.88 318.992 26.28 318.552 25.88C318.112 25.48 317.452 25.28 316.612 25.28C315.712 25.28 315.032 25.58 314.572 26.2C314.092 26.8 313.852 27.66 313.812 28.82H311.632C311.652 27.22 312.112 25.94 313.012 24.98C313.932 23.94 315.172 23.44 316.692 23.44Z" fill="#00A19B"/>
<rect x="234.233" y="97.5" width="149" height="77" rx="3.5" fill="white"/>
<rect x="234.233" y="97.5" width="149" height="77" rx="3.5" stroke="#D9D9D9"/>
<path d="M278.475 114.438H279.285C280.707 115.338 282.237 116.436 283.857 117.75L283.119 118.74C281.409 117.336 280.041 116.292 278.997 115.626C278.493 116.238 277.899 116.832 277.233 117.408H281.319V118.38H276.927V117.678C276.099 118.38 275.181 119.082 274.137 119.784L273.381 118.74C275.433 117.426 277.125 115.986 278.475 114.438ZM276.513 122.52V122.754C276.513 123.06 276.495 123.366 276.477 123.654H281.463V122.52H276.513ZM281.463 121.638V120.504H276.513V121.638H281.463ZM282.885 125.868V130.728H281.661V130.044H277.755V130.746H276.567V125.868H282.885ZM277.755 129.018H281.661V126.912H277.755V129.018ZM276.405 124.608C276.153 126.948 275.487 128.982 274.407 130.746L273.399 129.864C274.623 128.028 275.235 125.652 275.253 122.754V119.532H282.705V124.608H276.405ZM284.721 115.572H285.963V127.182H284.721V115.572ZM287.601 130.62H284.919L284.631 129.36C285.513 129.396 286.359 129.432 287.151 129.432C287.619 129.432 287.871 129.198 287.871 128.766V114.33H289.167V129.09C289.167 130.098 288.645 130.62 287.601 130.62ZM297.483 114.294H298.743V117.03H300.633V114.294H301.893V117.03H303.423C303.963 116.256 304.413 115.446 304.773 114.582L305.961 115.032C305.547 115.806 305.133 116.472 304.719 117.03H307.581V118.164H291.885V117.03H294.657C294.351 116.328 293.973 115.662 293.541 115.05L294.747 114.6C295.161 115.284 295.539 116.094 295.899 117.03H297.483V114.294ZM292.677 120.144H296.601C296.331 119.622 296.025 119.136 295.665 118.686L296.871 118.236C297.267 118.776 297.627 119.406 297.951 120.144H301.407C301.839 119.568 302.235 118.938 302.559 118.272L303.801 118.704C303.495 119.244 303.171 119.712 302.829 120.144H306.789V121.278H300.399V122.61H305.907V123.69H300.399V125.04H307.563V126.192H300.399V130.854H299.085V126.192H291.903V125.04H299.085V123.69H293.559V122.61H299.085V121.278H292.677V120.144ZM303.297 126.84C304.845 127.776 306.141 128.694 307.185 129.63L306.249 130.548C305.331 129.648 304.071 128.676 302.451 127.65L303.297 126.84ZM296.277 126.804L297.141 127.578C296.025 128.694 294.657 129.684 293.019 130.548L292.209 129.504C293.811 128.748 295.161 127.848 296.277 126.804ZM309.759 122.88H325.707V123.996H318.129L317.499 125.364H324.555V129.342C324.555 130.296 324.033 130.782 323.025 130.782H321.711L321.405 129.666L322.665 129.72C323.097 129.72 323.313 129.504 323.313 129.072V126.462H320.433V130.674H319.191V126.462H316.509V130.674H315.285V126.462H312.585V130.854H311.343V125.364H316.185L316.815 123.996H309.759V122.88ZM310.857 114.942H324.627V116.004H318.363V117.138H325.347V120.81H324.105V118.164H318.363V122.106H317.103V118.164H311.361V120.81H310.119V117.138H317.103V116.004H310.857V114.942ZM312.873 118.812C313.989 118.92 315.069 119.082 316.113 119.298L315.771 120.108C314.709 119.91 313.593 119.766 312.441 119.658L312.873 118.812ZM315.807 120.774L316.095 121.602C315.339 121.782 314.151 121.908 312.495 122.016L312.207 121.098C313.827 121.026 315.033 120.918 315.807 120.774ZM319.587 120.108L319.407 119.208C320.631 119.136 321.711 118.992 322.665 118.776L322.989 119.658C322.017 119.856 320.883 120 319.587 120.108ZM319.749 120.792C320.955 120.9 322.107 121.08 323.187 121.314L322.827 122.196C321.711 121.926 320.559 121.728 319.371 121.584L319.749 120.792ZM327.777 115.014H343.689V116.184H338.379V117.786H342.573V122.322H335.085C334.761 122.898 334.455 123.42 334.167 123.924H343.905V125.112H340.035C339.675 126.192 339.009 127.11 338.055 127.884C339.891 128.442 341.763 129.09 343.671 129.846L342.861 130.908C340.881 130.062 338.883 129.324 336.885 128.676C335.175 129.594 332.367 130.314 328.479 130.836L327.993 129.684C331.197 129.306 333.627 128.802 335.247 128.172C333.753 127.722 332.259 127.326 330.765 126.984C331.197 126.354 331.593 125.724 331.989 125.112H327.543V123.924H332.709C333.033 123.366 333.339 122.826 333.627 122.322H328.893V117.786H333.087V116.184H327.777V115.014ZM336.669 127.47C337.677 126.84 338.361 126.048 338.721 125.112H333.465C333.159 125.598 332.871 126.048 332.601 126.444C333.933 126.732 335.283 127.074 336.669 127.47ZM337.137 117.786V116.184H334.329V117.786H337.137ZM341.331 121.206V118.92H338.379V121.206H341.331ZM337.137 121.206V118.92H334.329V121.206H337.137ZM333.087 121.206V118.92H330.135V121.206H333.087ZM246.741 153.102H254.067V151.626H255.363V153.102H262.725V154.308H255.363V157.782H254.067V154.308H246.741V153.102ZM252.645 145.776C252.141 146.37 251.619 146.946 251.043 147.486L250.665 146.28C252.177 144.768 253.221 143.112 253.833 141.312L255.039 141.564C254.859 142.086 254.643 142.59 254.391 143.076H257.253C257.055 142.5 256.839 141.96 256.623 141.474L257.901 141.258C258.099 141.798 258.297 142.392 258.477 143.076H262.293V144.156H258.531V145.398H261.933V146.442H258.531V147.666H261.951V148.71H258.531V150.042H262.491V151.122H252.645V145.776ZM257.307 144.156H253.833V145.398H257.307V144.156ZM257.307 146.442H253.833V147.666H257.307V146.442ZM257.307 148.71H253.833V150.042H257.307V148.71ZM248.343 141.384C249.423 141.888 250.431 142.5 251.349 143.22L250.701 144.21C249.729 143.418 248.721 142.806 247.695 142.338L248.343 141.384ZM247.155 144.354C248.181 144.804 249.117 145.344 249.963 145.974L249.297 146.982C248.397 146.28 247.461 145.74 246.507 145.344L247.155 144.354ZM250.449 147.648L251.169 148.512C250.233 149.754 249.063 150.924 247.695 152.022L246.813 150.996C248.253 149.97 249.477 148.854 250.449 147.648ZM279.879 148.26V156.486C279.879 157.26 279.411 157.656 278.511 157.656H277.071L276.765 156.576L278.151 156.63C278.511 156.63 278.709 156.45 278.709 156.09V154.74H276.063V157.566H274.947V154.74H272.211C271.923 156.072 271.401 157.08 270.645 157.8L269.727 156.954C270.771 155.946 271.293 154.488 271.293 152.58V150.402C270.699 151.302 270.051 152.112 269.349 152.832L268.575 151.896C269.907 150.6 271.005 148.962 271.887 146.946H269.313V145.794H272.517V144.03H270.141V142.878H272.517V141.312H273.723V142.878H276.801V141.312H278.025V142.878H280.347V144.03H278.025V145.794H280.923V146.946H273.093C272.913 147.396 272.715 147.828 272.517 148.26H279.879ZM272.373 153.714H274.947V152.058H272.427V152.49C272.427 152.922 272.409 153.318 272.373 153.714ZM276.063 152.058V153.714H278.709V152.058H276.063ZM272.427 151.032H274.947V149.286H272.427V151.032ZM276.063 149.286V151.032H278.709V149.286H276.063ZM268.215 141.258L269.385 141.798C269.025 142.968 268.593 144.084 268.089 145.146V157.836H266.829V147.396C266.217 148.314 265.551 149.196 264.831 150.024L264.453 148.728C266.181 146.55 267.423 144.066 268.215 141.258ZM276.801 145.794V144.03H273.723V145.794H276.801ZM290.661 141.24L291.813 141.852C291.489 142.212 291.147 142.554 290.787 142.878H295.953V143.904C294.009 147.36 290.391 149.304 285.135 149.718L284.577 148.548C286.197 148.44 287.637 148.206 288.933 147.828C288.375 147.144 287.781 146.514 287.169 145.956L288.303 145.416C288.951 146.028 289.563 146.676 290.139 147.396C292.011 146.64 293.469 145.506 294.477 144.03H289.221C287.817 144.858 286.161 145.488 284.235 145.92L283.479 144.732C286.683 144.12 289.077 142.968 290.661 141.24ZM289.977 152.49C290.661 153.192 291.327 153.948 291.939 154.758C293.937 153.894 295.503 152.652 296.655 151.068H291.327C289.743 151.824 287.871 152.4 285.693 152.778L284.919 151.626C288.843 151.23 291.741 150.024 293.613 148.044L294.729 148.656C294.297 149.088 293.847 149.502 293.343 149.88H298.275V150.906C295.719 155.154 290.967 157.35 283.983 157.512L283.461 156.27C286.269 156.252 288.699 155.91 290.733 155.226C290.121 154.416 289.491 153.678 288.825 153.03L289.977 152.49ZM304.341 143.418L305.601 143.904C304.647 146.766 303.405 148.944 301.875 150.438L300.777 149.502C302.361 147.99 303.549 145.956 304.341 143.418ZM313.107 149.016L314.241 149.718C312.153 153.894 307.995 156.594 301.785 157.818L301.029 156.576C307.113 155.424 311.127 152.904 313.107 149.016ZM308.067 141.348H309.399V151.734H308.067V141.348ZM312.495 143.13C314.259 145.092 315.789 147.252 317.121 149.592L315.897 150.222C314.529 147.756 312.999 145.56 311.325 143.652L312.495 143.13ZM326.787 143.4C326.229 144.156 325.527 144.822 324.699 145.416L323.979 144.462C325.293 143.58 326.193 142.5 326.661 141.222L327.849 141.366C327.723 141.69 327.597 142.014 327.453 142.32H333.897V143.238C333.429 144.174 332.907 144.966 332.331 145.614L331.431 144.912C331.845 144.48 332.223 143.976 332.565 143.4H326.787ZM319.173 142.338H323.601V143.454H319.173V142.338ZM318.813 145.578H323.979V146.712H318.813V145.578ZM328.893 143.724L330.009 143.94C329.937 144.228 329.847 144.498 329.739 144.75C331.035 146.064 332.709 146.856 334.725 147.108L334.203 148.188C332.241 147.882 330.585 147.036 329.235 145.65C328.371 146.838 326.985 147.612 325.077 147.99L324.465 147.054C326.949 146.604 328.425 145.488 328.893 143.724ZM320.937 148.044H332.565V155.172H320.937V148.044ZM331.287 154.128V152.976H322.215V154.128H331.287ZM322.215 152.094H331.287V151.05H322.215V152.094ZM322.215 150.168H331.287V149.052H322.215V150.168ZM328.659 155.334C330.729 155.694 332.727 156.198 334.635 156.864L334.203 157.89C332.295 157.17 330.279 156.63 328.191 156.234L328.659 155.334ZM324.555 155.28L325.203 156.126C323.871 156.846 321.945 157.44 319.425 157.872L318.831 156.864C321.351 156.45 323.259 155.928 324.555 155.28ZM340.017 146.442C339.153 146.964 338.253 147.45 337.317 147.882L336.561 146.802C339.693 145.398 342.249 143.616 344.229 141.438H345.273C347.001 143.58 349.539 145.344 352.887 146.748L352.149 147.828C351.195 147.432 350.313 146.982 349.485 146.496V147.486H345.399V150.078H351.807V151.284H345.399V156.09H347.397C348.009 154.92 348.549 153.66 349.017 152.31L350.205 152.724C349.755 153.984 349.251 155.118 348.711 156.09H352.437V157.332H337.047V156.09H340.773C340.395 154.938 339.909 153.876 339.333 152.868L340.503 152.436C341.061 153.444 341.565 154.668 342.033 156.09H344.103V151.284H337.677V150.078H344.103V147.486H340.017V146.442ZM349.179 146.316C347.415 145.272 345.939 144.048 344.751 142.662C343.401 144.066 341.889 145.29 340.215 146.316H349.179ZM363.003 142.896C364.155 142.896 365.073 143.202 365.757 143.85C366.441 144.462 366.783 145.308 366.783 146.388C366.783 147.198 366.549 147.9 366.117 148.494C365.919 148.71 365.433 149.178 364.641 149.88C364.245 150.204 363.975 150.528 363.795 150.852C363.561 151.248 363.453 151.698 363.453 152.184V152.598H362.013V152.184C362.013 151.536 362.139 150.978 362.409 150.474C362.661 150.006 363.057 149.52 363.615 149.016C364.227 148.476 364.605 148.098 364.785 147.882C365.127 147.432 365.307 146.964 365.307 146.46C365.307 145.74 365.091 145.182 364.695 144.786C364.263 144.354 363.687 144.156 362.931 144.156C362.031 144.156 361.365 144.444 360.933 145.038C360.537 145.542 360.339 146.226 360.339 147.108H358.899C358.917 145.848 359.277 144.84 359.979 144.084C360.699 143.292 361.707 142.896 363.003 142.896ZM362.733 153.858C363.039 153.858 363.309 153.948 363.525 154.164C363.723 154.362 363.831 154.614 363.831 154.92C363.831 155.244 363.723 155.496 363.525 155.694C363.309 155.892 363.039 156 362.733 156C362.427 156 362.175 155.892 361.959 155.694C361.743 155.478 361.653 155.226 361.653 154.92C361.653 154.614 361.743 154.362 361.959 154.164C362.175 153.948 362.427 153.858 362.733 153.858Z" fill="black"/>
<path d="M316.053 97H301.414L308.733 90.6611L316.053 97Z" stroke="#D9D9D9"/>
<path d="M308.733 91.3L317.394 98.8H300.073L308.733 91.3Z" fill="white"/>
<circle cx="501.267" cy="74" r="8" fill="#00A19B"/>
<rect x="428.767" y="4.5" width="149" height="53" rx="3.5" fill="white"/>
<rect x="428.767" y="4.5" width="149" height="53" rx="3.5" stroke="#00A19B"/>
<path d="M497.256 23.44C499.416 23.44 501.136 24.14 502.396 25.56C503.596 26.9 504.196 28.68 504.196 30.88C504.196 33.02 503.616 34.76 502.456 36.12C502.976 36.82 503.516 37.54 504.036 38.3L502.636 39.54C502.096 38.76 501.576 38.02 501.056 37.32C499.996 37.96 498.736 38.28 497.256 38.28C495.076 38.28 493.356 37.56 492.116 36.16C490.916 34.8 490.336 33.04 490.336 30.88C490.336 28.7 490.916 26.94 492.116 25.58C493.356 24.14 495.076 23.44 497.256 23.44ZM497.256 25.36C495.736 25.36 494.556 25.86 493.716 26.9C492.916 27.88 492.516 29.2 492.516 30.88C492.516 32.54 492.916 33.86 493.716 34.84C494.556 35.84 495.736 36.36 497.256 36.36C498.256 36.36 499.116 36.14 499.816 35.72C499.096 34.82 498.376 34 497.676 33.26L498.936 32.02C499.656 32.78 500.376 33.6 501.096 34.44C501.696 33.52 501.996 32.34 501.996 30.88C501.996 29.16 501.576 27.82 500.776 26.84C499.956 25.84 498.776 25.36 497.256 25.36ZM511.145 23.44C512.585 23.44 513.725 23.78 514.605 24.48C515.445 25.18 515.885 26.14 515.885 27.36C515.885 28.92 515.085 29.98 513.525 30.5C514.365 30.76 515.005 31.16 515.445 31.68C515.925 32.22 516.165 32.92 516.165 33.76C516.165 35.08 515.705 36.16 514.805 37C513.845 37.84 512.585 38.28 511.065 38.28C509.605 38.28 508.425 37.9 507.545 37.16C506.545 36.32 505.985 35.1 505.865 33.5H508.065C508.105 34.46 508.405 35.2 509.005 35.72C509.525 36.2 510.205 36.44 511.045 36.44C511.965 36.44 512.705 36.16 513.265 35.64C513.745 35.16 514.005 34.58 514.005 33.86C514.005 33.02 513.745 32.4 513.225 32C512.745 31.6 512.025 31.4 511.085 31.4H510.045V29.76H511.065C511.945 29.76 512.605 29.56 513.045 29.18C513.485 28.8 513.725 28.24 513.725 27.52C513.725 26.8 513.505 26.26 513.105 25.88C512.665 25.48 512.005 25.3 511.165 25.3C510.305 25.3 509.625 25.52 509.145 25.96C508.665 26.4 508.365 27.06 508.285 27.94H506.145C506.265 26.52 506.785 25.42 507.725 24.62C508.605 23.82 509.745 23.44 511.145 23.44Z" fill="#00A19B"/>
<rect x="428.767" y="97.5" width="149" height="77" rx="3.5" fill="white"/>
<rect x="428.767" y="97.5" width="149" height="77" rx="3.5" stroke="#D9D9D9"/>
<path d="M473.009 114.438H473.819C475.241 115.338 476.771 116.436 478.391 117.75L477.653 118.74C475.943 117.336 474.575 116.292 473.531 115.626C473.027 116.238 472.433 116.832 471.767 117.408H475.853V118.38H471.461V117.678C470.633 118.38 469.715 119.082 468.671 119.784L467.915 118.74C469.967 117.426 471.659 115.986 473.009 114.438ZM471.047 122.52V122.754C471.047 123.06 471.029 123.366 471.011 123.654H475.997V122.52H471.047ZM475.997 121.638V120.504H471.047V121.638H475.997ZM477.419 125.868V130.728H476.195V130.044H472.289V130.746H471.101V125.868H477.419ZM472.289 129.018H476.195V126.912H472.289V129.018ZM470.939 124.608C470.687 126.948 470.021 128.982 468.941 130.746L467.933 129.864C469.157 128.028 469.769 125.652 469.787 122.754V119.532H477.239V124.608H470.939ZM479.255 115.572H480.497V127.182H479.255V115.572ZM482.135 130.62H479.453L479.165 129.36C480.047 129.396 480.893 129.432 481.685 129.432C482.153 129.432 482.405 129.198 482.405 128.766V114.33H483.701V129.09C483.701 130.098 483.179 130.62 482.135 130.62ZM492.017 114.294H493.277V117.03H495.167V114.294H496.427V117.03H497.957C498.497 116.256 498.947 115.446 499.307 114.582L500.495 115.032C500.081 115.806 499.667 116.472 499.253 117.03H502.115V118.164H486.419V117.03H489.191C488.885 116.328 488.507 115.662 488.075 115.05L489.281 114.6C489.695 115.284 490.073 116.094 490.433 117.03H492.017V114.294ZM487.211 120.144H491.135C490.865 119.622 490.559 119.136 490.199 118.686L491.405 118.236C491.801 118.776 492.161 119.406 492.485 120.144H495.941C496.373 119.568 496.769 118.938 497.093 118.272L498.335 118.704C498.029 119.244 497.705 119.712 497.363 120.144H501.323V121.278H494.933V122.61H500.441V123.69H494.933V125.04H502.097V126.192H494.933V130.854H493.619V126.192H486.437V125.04H493.619V123.69H488.093V122.61H493.619V121.278H487.211V120.144ZM497.831 126.84C499.379 127.776 500.675 128.694 501.719 129.63L500.783 130.548C499.865 129.648 498.605 128.676 496.985 127.65L497.831 126.84ZM490.811 126.804L491.675 127.578C490.559 128.694 489.191 129.684 487.553 130.548L486.743 129.504C488.345 128.748 489.695 127.848 490.811 126.804ZM504.293 122.88H520.241V123.996H512.663L512.033 125.364H519.089V129.342C519.089 130.296 518.567 130.782 517.559 130.782H516.245L515.939 129.666L517.199 129.72C517.631 129.72 517.847 129.504 517.847 129.072V126.462H514.967V130.674H513.725V126.462H511.043V130.674H509.819V126.462H507.119V130.854H505.877V125.364H510.719L511.349 123.996H504.293V122.88ZM505.391 114.942H519.161V116.004H512.897V117.138H519.881V120.81H518.639V118.164H512.897V122.106H511.637V118.164H505.895V120.81H504.653V117.138H511.637V116.004H505.391V114.942ZM507.407 118.812C508.523 118.92 509.603 119.082 510.647 119.298L510.305 120.108C509.243 119.91 508.127 119.766 506.975 119.658L507.407 118.812ZM510.341 120.774L510.629 121.602C509.873 121.782 508.685 121.908 507.029 122.016L506.741 121.098C508.361 121.026 509.567 120.918 510.341 120.774ZM514.121 120.108L513.941 119.208C515.165 119.136 516.245 118.992 517.199 118.776L517.523 119.658C516.551 119.856 515.417 120 514.121 120.108ZM514.283 120.792C515.489 120.9 516.641 121.08 517.721 121.314L517.361 122.196C516.245 121.926 515.093 121.728 513.905 121.584L514.283 120.792ZM522.311 115.014H538.223V116.184H532.913V117.786H537.107V122.322H529.619C529.295 122.898 528.989 123.42 528.701 123.924H538.439V125.112H534.569C534.209 126.192 533.543 127.11 532.589 127.884C534.425 128.442 536.297 129.09 538.205 129.846L537.395 130.908C535.415 130.062 533.417 129.324 531.419 128.676C529.709 129.594 526.901 130.314 523.013 130.836L522.527 129.684C525.731 129.306 528.161 128.802 529.781 128.172C528.287 127.722 526.793 127.326 525.299 126.984C525.731 126.354 526.127 125.724 526.523 125.112H522.077V123.924H527.243C527.567 123.366 527.873 122.826 528.161 122.322H523.427V117.786H527.621V116.184H522.311V115.014ZM531.203 127.47C532.211 126.84 532.895 126.048 533.255 125.112H527.999C527.693 125.598 527.405 126.048 527.135 126.444C528.467 126.732 529.817 127.074 531.203 127.47ZM531.671 117.786V116.184H528.863V117.786H531.671ZM535.865 121.206V118.92H532.913V121.206H535.865ZM531.671 121.206V118.92H528.863V121.206H531.671ZM527.621 121.206V118.92H524.669V121.206H527.621ZM441.275 153.102H448.601V151.626H449.897V153.102H457.259V154.308H449.897V157.782H448.601V154.308H441.275V153.102ZM447.179 145.776C446.675 146.37 446.153 146.946 445.577 147.486L445.199 146.28C446.711 144.768 447.755 143.112 448.367 141.312L449.573 141.564C449.393 142.086 449.177 142.59 448.925 143.076H451.787C451.589 142.5 451.373 141.96 451.157 141.474L452.435 141.258C452.633 141.798 452.831 142.392 453.011 143.076H456.827V144.156H453.065V145.398H456.467V146.442H453.065V147.666H456.485V148.71H453.065V150.042H457.025V151.122H447.179V145.776ZM451.841 144.156H448.367V145.398H451.841V144.156ZM451.841 146.442H448.367V147.666H451.841V146.442ZM451.841 148.71H448.367V150.042H451.841V148.71ZM442.877 141.384C443.957 141.888 444.965 142.5 445.883 143.22L445.235 144.21C444.263 143.418 443.255 142.806 442.229 142.338L442.877 141.384ZM441.689 144.354C442.715 144.804 443.651 145.344 444.497 145.974L443.831 146.982C442.931 146.28 441.995 145.74 441.041 145.344L441.689 144.354ZM444.983 147.648L445.703 148.512C444.767 149.754 443.597 150.924 442.229 152.022L441.347 150.996C442.787 149.97 444.011 148.854 444.983 147.648ZM474.413 148.26V156.486C474.413 157.26 473.945 157.656 473.045 157.656H471.605L471.299 156.576L472.685 156.63C473.045 156.63 473.243 156.45 473.243 156.09V154.74H470.597V157.566H469.481V154.74H466.745C466.457 156.072 465.935 157.08 465.179 157.8L464.261 156.954C465.305 155.946 465.827 154.488 465.827 152.58V150.402C465.233 151.302 464.585 152.112 463.883 152.832L463.109 151.896C464.441 150.6 465.539 148.962 466.421 146.946H463.847V145.794H467.051V144.03H464.675V142.878H467.051V141.312H468.257V142.878H471.335V141.312H472.559V142.878H474.881V144.03H472.559V145.794H475.457V146.946H467.627C467.447 147.396 467.249 147.828 467.051 148.26H474.413ZM466.907 153.714H469.481V152.058H466.961V152.49C466.961 152.922 466.943 153.318 466.907 153.714ZM470.597 152.058V153.714H473.243V152.058H470.597ZM466.961 151.032H469.481V149.286H466.961V151.032ZM470.597 149.286V151.032H473.243V149.286H470.597ZM462.749 141.258L463.919 141.798C463.559 142.968 463.127 144.084 462.623 145.146V157.836H461.363V147.396C460.751 148.314 460.085 149.196 459.365 150.024L458.987 148.728C460.715 146.55 461.957 144.066 462.749 141.258ZM471.335 145.794V144.03H468.257V145.794H471.335ZM485.195 141.24L486.347 141.852C486.023 142.212 485.681 142.554 485.321 142.878H490.487V143.904C488.543 147.36 484.925 149.304 479.669 149.718L479.111 148.548C480.731 148.44 482.171 148.206 483.467 147.828C482.909 147.144 482.315 146.514 481.703 145.956L482.837 145.416C483.485 146.028 484.097 146.676 484.673 147.396C486.545 146.64 488.003 145.506 489.011 144.03H483.755C482.351 144.858 480.695 145.488 478.769 145.92L478.013 144.732C481.217 144.12 483.611 142.968 485.195 141.24ZM484.511 152.49C485.195 153.192 485.861 153.948 486.473 154.758C488.471 153.894 490.037 152.652 491.189 151.068H485.861C484.277 151.824 482.405 152.4 480.227 152.778L479.453 151.626C483.377 151.23 486.275 150.024 488.147 148.044L489.263 148.656C488.831 149.088 488.381 149.502 487.877 149.88H492.809V150.906C490.253 155.154 485.501 157.35 478.517 157.512L477.995 156.27C480.803 156.252 483.233 155.91 485.267 155.226C484.655 154.416 484.025 153.678 483.359 153.03L484.511 152.49ZM498.875 143.418L500.135 143.904C499.181 146.766 497.939 148.944 496.409 150.438L495.311 149.502C496.895 147.99 498.083 145.956 498.875 143.418ZM507.641 149.016L508.775 149.718C506.687 153.894 502.529 156.594 496.319 157.818L495.563 156.576C501.647 155.424 505.661 152.904 507.641 149.016ZM502.601 141.348H503.933V151.734H502.601V141.348ZM507.029 143.13C508.793 145.092 510.323 147.252 511.655 149.592L510.431 150.222C509.063 147.756 507.533 145.56 505.859 143.652L507.029 143.13ZM521.321 143.4C520.763 144.156 520.061 144.822 519.233 145.416L518.513 144.462C519.827 143.58 520.727 142.5 521.195 141.222L522.383 141.366C522.257 141.69 522.131 142.014 521.987 142.32H528.431V143.238C527.963 144.174 527.441 144.966 526.865 145.614L525.965 144.912C526.379 144.48 526.757 143.976 527.099 143.4H521.321ZM513.707 142.338H518.135V143.454H513.707V142.338ZM513.347 145.578H518.513V146.712H513.347V145.578ZM523.427 143.724L524.543 143.94C524.471 144.228 524.381 144.498 524.273 144.75C525.569 146.064 527.243 146.856 529.259 147.108L528.737 148.188C526.775 147.882 525.119 147.036 523.769 145.65C522.905 146.838 521.519 147.612 519.611 147.99L518.999 147.054C521.483 146.604 522.959 145.488 523.427 143.724ZM515.471 148.044H527.099V155.172H515.471V148.044ZM525.821 154.128V152.976H516.749V154.128H525.821ZM516.749 152.094H525.821V151.05H516.749V152.094ZM516.749 150.168H525.821V149.052H516.749V150.168ZM523.193 155.334C525.263 155.694 527.261 156.198 529.169 156.864L528.737 157.89C526.829 157.17 524.813 156.63 522.725 156.234L523.193 155.334ZM519.089 155.28L519.737 156.126C518.405 156.846 516.479 157.44 513.959 157.872L513.365 156.864C515.885 156.45 517.793 155.928 519.089 155.28ZM534.551 146.442C533.687 146.964 532.787 147.45 531.851 147.882L531.095 146.802C534.227 145.398 536.783 143.616 538.763 141.438H539.807C541.535 143.58 544.073 145.344 547.421 146.748L546.683 147.828C545.729 147.432 544.847 146.982 544.019 146.496V147.486H539.933V150.078H546.341V151.284H539.933V156.09H541.931C542.543 154.92 543.083 153.66 543.551 152.31L544.739 152.724C544.289 153.984 543.785 155.118 543.245 156.09H546.971V157.332H531.581V156.09H535.307C534.929 154.938 534.443 153.876 533.867 152.868L535.037 152.436C535.595 153.444 536.099 154.668 536.567 156.09H538.637V151.284H532.211V150.078H538.637V147.486H534.551V146.442ZM543.713 146.316C541.949 145.272 540.473 144.048 539.285 142.662C537.935 144.066 536.423 145.29 534.749 146.316H543.713ZM557.537 142.896C558.689 142.896 559.607 143.202 560.291 143.85C560.975 144.462 561.317 145.308 561.317 146.388C561.317 147.198 561.083 147.9 560.651 148.494C560.453 148.71 559.967 149.178 559.175 149.88C558.779 150.204 558.509 150.528 558.329 150.852C558.095 151.248 557.987 151.698 557.987 152.184V152.598H556.547V152.184C556.547 151.536 556.673 150.978 556.943 150.474C557.195 150.006 557.591 149.52 558.149 149.016C558.761 148.476 559.139 148.098 559.319 147.882C559.661 147.432 559.841 146.964 559.841 146.46C559.841 145.74 559.625 145.182 559.229 144.786C558.797 144.354 558.221 144.156 557.465 144.156C556.565 144.156 555.899 144.444 555.467 145.038C555.071 145.542 554.873 146.226 554.873 147.108H553.433C553.451 145.848 553.811 144.84 554.513 144.084C555.233 143.292 556.241 142.896 557.537 142.896ZM557.267 153.858C557.573 153.858 557.843 153.948 558.059 154.164C558.257 154.362 558.365 154.614 558.365 154.92C558.365 155.244 558.257 155.496 558.059 155.694C557.843 155.892 557.573 156 557.267 156C556.961 156 556.709 155.892 556.493 155.694C556.277 155.478 556.187 155.226 556.187 154.92C556.187 154.614 556.277 154.362 556.493 154.164C556.709 153.948 556.961 153.858 557.267 153.858Z" fill="black"/>
<path d="M510.586 97H495.947L503.267 90.6611L510.586 97Z" stroke="#D9D9D9"/>
<path d="M503.267 91.3L511.927 98.8H494.606L503.267 91.3Z" fill="white"/>
<circle cx="696.3" cy="74" r="8" fill="#00A19B"/>
<rect x="623.3" y="4.5" width="149" height="53" rx="3.5" fill="white"/>
<rect x="623.3" y="4.5" width="149" height="53" rx="3.5" stroke="#00A19B"/>
<path d="M691.79 23.44C693.95 23.44 695.67 24.14 696.93 25.56C698.13 26.9 698.73 28.68 698.73 30.88C698.73 33.02 698.15 34.76 696.99 36.12C697.51 36.82 698.05 37.54 698.57 38.3L697.17 39.54C696.63 38.76 696.11 38.02 695.59 37.32C694.53 37.96 693.27 38.28 691.79 38.28C689.61 38.28 687.89 37.56 686.65 36.16C685.45 34.8 684.87 33.04 684.87 30.88C684.87 28.7 685.45 26.94 686.65 25.58C687.89 24.14 689.61 23.44 691.79 23.44ZM691.79 25.36C690.27 25.36 689.09 25.86 688.25 26.9C687.45 27.88 687.05 29.2 687.05 30.88C687.05 32.54 687.45 33.86 688.25 34.84C689.09 35.84 690.27 36.36 691.79 36.36C692.79 36.36 693.65 36.14 694.35 35.72C693.63 34.82 692.91 34 692.21 33.26L693.47 32.02C694.19 32.78 694.91 33.6 695.63 34.44C696.23 33.52 696.53 32.34 696.53 30.88C696.53 29.16 696.11 27.82 695.31 26.84C694.49 25.84 693.31 25.36 691.79 25.36ZM706.978 23.72H708.978V33.16H711.138V34.9H708.978V38H706.898V34.9H699.938V32.84L706.978 23.72ZM706.838 26.48L701.718 33.16H706.898V26.48H706.838Z" fill="#00A19B"/>
<rect x="623.3" y="97.5" width="149" height="77" rx="3.5" fill="white"/>
<rect x="623.3" y="97.5" width="149" height="77" rx="3.5" stroke="#D9D9D9"/>
<path d="M667.542 114.438H668.352C669.774 115.338 671.304 116.436 672.924 117.75L672.186 118.74C670.476 117.336 669.108 116.292 668.064 115.626C667.56 116.238 666.966 116.832 666.3 117.408H670.386V118.38H665.994V117.678C665.166 118.38 664.248 119.082 663.204 119.784L662.448 118.74C664.5 117.426 666.192 115.986 667.542 114.438ZM665.58 122.52V122.754C665.58 123.06 665.562 123.366 665.544 123.654H670.53V122.52H665.58ZM670.53 121.638V120.504H665.58V121.638H670.53ZM671.952 125.868V130.728H670.728V130.044H666.822V130.746H665.634V125.868H671.952ZM666.822 129.018H670.728V126.912H666.822V129.018ZM665.472 124.608C665.22 126.948 664.554 128.982 663.474 130.746L662.466 129.864C663.69 128.028 664.302 125.652 664.32 122.754V119.532H671.772V124.608H665.472ZM673.788 115.572H675.03V127.182H673.788V115.572ZM676.668 130.62H673.986L673.698 129.36C674.58 129.396 675.426 129.432 676.218 129.432C676.686 129.432 676.938 129.198 676.938 128.766V114.33H678.234V129.09C678.234 130.098 677.712 130.62 676.668 130.62ZM686.55 114.294H687.81V117.03H689.7V114.294H690.96V117.03H692.49C693.03 116.256 693.48 115.446 693.84 114.582L695.028 115.032C694.614 115.806 694.2 116.472 693.786 117.03H696.648V118.164H680.952V117.03H683.724C683.418 116.328 683.04 115.662 682.608 115.05L683.814 114.6C684.228 115.284 684.606 116.094 684.966 117.03H686.55V114.294ZM681.744 120.144H685.668C685.398 119.622 685.092 119.136 684.732 118.686L685.938 118.236C686.334 118.776 686.694 119.406 687.018 120.144H690.474C690.906 119.568 691.302 118.938 691.626 118.272L692.868 118.704C692.562 119.244 692.238 119.712 691.896 120.144H695.856V121.278H689.466V122.61H694.974V123.69H689.466V125.04H696.63V126.192H689.466V130.854H688.152V126.192H680.97V125.04H688.152V123.69H682.626V122.61H688.152V121.278H681.744V120.144ZM692.364 126.84C693.912 127.776 695.208 128.694 696.252 129.63L695.316 130.548C694.398 129.648 693.138 128.676 691.518 127.65L692.364 126.84ZM685.344 126.804L686.208 127.578C685.092 128.694 683.724 129.684 682.086 130.548L681.276 129.504C682.878 128.748 684.228 127.848 685.344 126.804ZM698.826 122.88H714.774V123.996H707.196L706.566 125.364H713.622V129.342C713.622 130.296 713.1 130.782 712.092 130.782H710.778L710.472 129.666L711.732 129.72C712.164 129.72 712.38 129.504 712.38 129.072V126.462H709.5V130.674H708.258V126.462H705.576V130.674H704.352V126.462H701.652V130.854H700.41V125.364H705.252L705.882 123.996H698.826V122.88ZM699.924 114.942H713.694V116.004H707.43V117.138H714.414V120.81H713.172V118.164H707.43V122.106H706.17V118.164H700.428V120.81H699.186V117.138H706.17V116.004H699.924V114.942ZM701.94 118.812C703.056 118.92 704.136 119.082 705.18 119.298L704.838 120.108C703.776 119.91 702.66 119.766 701.508 119.658L701.94 118.812ZM704.874 120.774L705.162 121.602C704.406 121.782 703.218 121.908 701.562 122.016L701.274 121.098C702.894 121.026 704.1 120.918 704.874 120.774ZM708.654 120.108L708.474 119.208C709.698 119.136 710.778 118.992 711.732 118.776L712.056 119.658C711.084 119.856 709.95 120 708.654 120.108ZM708.816 120.792C710.022 120.9 711.174 121.08 712.254 121.314L711.894 122.196C710.778 121.926 709.626 121.728 708.438 121.584L708.816 120.792ZM716.844 115.014H732.756V116.184H727.446V117.786H731.64V122.322H724.152C723.828 122.898 723.522 123.42 723.234 123.924H732.972V125.112H729.102C728.742 126.192 728.076 127.11 727.122 127.884C728.958 128.442 730.83 129.09 732.738 129.846L731.928 130.908C729.948 130.062 727.95 129.324 725.952 128.676C724.242 129.594 721.434 130.314 717.546 130.836L717.06 129.684C720.264 129.306 722.694 128.802 724.314 128.172C722.82 127.722 721.326 127.326 719.832 126.984C720.264 126.354 720.66 125.724 721.056 125.112H716.61V123.924H721.776C722.1 123.366 722.406 122.826 722.694 122.322H717.96V117.786H722.154V116.184H716.844V115.014ZM725.736 127.47C726.744 126.84 727.428 126.048 727.788 125.112H722.532C722.226 125.598 721.938 126.048 721.668 126.444C723 126.732 724.35 127.074 725.736 127.47ZM726.204 117.786V116.184H723.396V117.786H726.204ZM730.398 121.206V118.92H727.446V121.206H730.398ZM726.204 121.206V118.92H723.396V121.206H726.204ZM722.154 121.206V118.92H719.202V121.206H722.154ZM635.808 153.102H643.134V151.626H644.43V153.102H651.792V154.308H644.43V157.782H643.134V154.308H635.808V153.102ZM641.712 145.776C641.208 146.37 640.686 146.946 640.11 147.486L639.732 146.28C641.244 144.768 642.288 143.112 642.9 141.312L644.106 141.564C643.926 142.086 643.71 142.59 643.458 143.076H646.32C646.122 142.5 645.906 141.96 645.69 141.474L646.968 141.258C647.166 141.798 647.364 142.392 647.544 143.076H651.36V144.156H647.598V145.398H651V146.442H647.598V147.666H651.018V148.71H647.598V150.042H651.558V151.122H641.712V145.776ZM646.374 144.156H642.9V145.398H646.374V144.156ZM646.374 146.442H642.9V147.666H646.374V146.442ZM646.374 148.71H642.9V150.042H646.374V148.71ZM637.41 141.384C638.49 141.888 639.498 142.5 640.416 143.22L639.768 144.21C638.796 143.418 637.788 142.806 636.762 142.338L637.41 141.384ZM636.222 144.354C637.248 144.804 638.184 145.344 639.03 145.974L638.364 146.982C637.464 146.28 636.528 145.74 635.574 145.344L636.222 144.354ZM639.516 147.648L640.236 148.512C639.3 149.754 638.13 150.924 636.762 152.022L635.88 150.996C637.32 149.97 638.544 148.854 639.516 147.648ZM668.946 148.26V156.486C668.946 157.26 668.478 157.656 667.578 157.656H666.138L665.832 156.576L667.218 156.63C667.578 156.63 667.776 156.45 667.776 156.09V154.74H665.13V157.566H664.014V154.74H661.278C660.99 156.072 660.468 157.08 659.712 157.8L658.794 156.954C659.838 155.946 660.36 154.488 660.36 152.58V150.402C659.766 151.302 659.118 152.112 658.416 152.832L657.642 151.896C658.974 150.6 660.072 148.962 660.954 146.946H658.38V145.794H661.584V144.03H659.208V142.878H661.584V141.312H662.79V142.878H665.868V141.312H667.092V142.878H669.414V144.03H667.092V145.794H669.99V146.946H662.16C661.98 147.396 661.782 147.828 661.584 148.26H668.946ZM661.44 153.714H664.014V152.058H661.494V152.49C661.494 152.922 661.476 153.318 661.44 153.714ZM665.13 152.058V153.714H667.776V152.058H665.13ZM661.494 151.032H664.014V149.286H661.494V151.032ZM665.13 149.286V151.032H667.776V149.286H665.13ZM657.282 141.258L658.452 141.798C658.092 142.968 657.66 144.084 657.156 145.146V157.836H655.896V147.396C655.284 148.314 654.618 149.196 653.898 150.024L653.52 148.728C655.248 146.55 656.49 144.066 657.282 141.258ZM665.868 145.794V144.03H662.79V145.794H665.868ZM679.728 141.24L680.88 141.852C680.556 142.212 680.214 142.554 679.854 142.878H685.02V143.904C683.076 147.36 679.458 149.304 674.202 149.718L673.644 148.548C675.264 148.44 676.704 148.206 678 147.828C677.442 147.144 676.848 146.514 676.236 145.956L677.37 145.416C678.018 146.028 678.63 146.676 679.206 147.396C681.078 146.64 682.536 145.506 683.544 144.03H678.288C676.884 144.858 675.228 145.488 673.302 145.92L672.546 144.732C675.75 144.12 678.144 142.968 679.728 141.24ZM679.044 152.49C679.728 153.192 680.394 153.948 681.006 154.758C683.004 153.894 684.57 152.652 685.722 151.068H680.394C678.81 151.824 676.938 152.4 674.76 152.778L673.986 151.626C677.91 151.23 680.808 150.024 682.68 148.044L683.796 148.656C683.364 149.088 682.914 149.502 682.41 149.88H687.342V150.906C684.786 155.154 680.034 157.35 673.05 157.512L672.528 156.27C675.336 156.252 677.766 155.91 679.8 155.226C679.188 154.416 678.558 153.678 677.892 153.03L679.044 152.49ZM693.408 143.418L694.668 143.904C693.714 146.766 692.472 148.944 690.942 150.438L689.844 149.502C691.428 147.99 692.616 145.956 693.408 143.418ZM702.174 149.016L703.308 149.718C701.22 153.894 697.062 156.594 690.852 157.818L690.096 156.576C696.18 155.424 700.194 152.904 702.174 149.016ZM697.134 141.348H698.466V151.734H697.134V141.348ZM701.562 143.13C703.326 145.092 704.856 147.252 706.188 149.592L704.964 150.222C703.596 147.756 702.066 145.56 700.392 143.652L701.562 143.13ZM715.854 143.4C715.296 144.156 714.594 144.822 713.766 145.416L713.046 144.462C714.36 143.58 715.26 142.5 715.728 141.222L716.916 141.366C716.79 141.69 716.664 142.014 716.52 142.32H722.964V143.238C722.496 144.174 721.974 144.966 721.398 145.614L720.498 144.912C720.912 144.48 721.29 143.976 721.632 143.4H715.854ZM708.24 142.338H712.668V143.454H708.24V142.338ZM707.88 145.578H713.046V146.712H707.88V145.578ZM717.96 143.724L719.076 143.94C719.004 144.228 718.914 144.498 718.806 144.75C720.102 146.064 721.776 146.856 723.792 147.108L723.27 148.188C721.308 147.882 719.652 147.036 718.302 145.65C717.438 146.838 716.052 147.612 714.144 147.99L713.532 147.054C716.016 146.604 717.492 145.488 717.96 143.724ZM710.004 148.044H721.632V155.172H710.004V148.044ZM720.354 154.128V152.976H711.282V154.128H720.354ZM711.282 152.094H720.354V151.05H711.282V152.094ZM711.282 150.168H720.354V149.052H711.282V150.168ZM717.726 155.334C719.796 155.694 721.794 156.198 723.702 156.864L723.27 157.89C721.362 157.17 719.346 156.63 717.258 156.234L717.726 155.334ZM713.622 155.28L714.27 156.126C712.938 156.846 711.012 157.44 708.492 157.872L707.898 156.864C710.418 156.45 712.326 155.928 713.622 155.28ZM729.084 146.442C728.22 146.964 727.32 147.45 726.384 147.882L725.628 146.802C728.76 145.398 731.316 143.616 733.296 141.438H734.34C736.068 143.58 738.606 145.344 741.954 146.748L741.216 147.828C740.262 147.432 739.38 146.982 738.552 146.496V147.486H734.466V150.078H740.874V151.284H734.466V156.09H736.464C737.076 154.92 737.616 153.66 738.084 152.31L739.272 152.724C738.822 153.984 738.318 155.118 737.778 156.09H741.504V157.332H726.114V156.09H729.84C729.462 154.938 728.976 153.876 728.4 152.868L729.57 152.436C730.128 153.444 730.632 154.668 731.1 156.09H733.17V151.284H726.744V150.078H733.17V147.486H729.084V146.442ZM738.246 146.316C736.482 145.272 735.006 144.048 733.818 142.662C732.468 144.066 730.956 145.29 729.282 146.316H738.246ZM752.07 142.896C753.222 142.896 754.14 143.202 754.824 143.85C755.508 144.462 755.85 145.308 755.85 146.388C755.85 147.198 755.616 147.9 755.184 148.494C754.986 148.71 754.5 149.178 753.708 149.88C753.312 150.204 753.042 150.528 752.862 150.852C752.628 151.248 752.52 151.698 752.52 152.184V152.598H751.08V152.184C751.08 151.536 751.206 150.978 751.476 150.474C751.728 150.006 752.124 149.52 752.682 149.016C753.294 148.476 753.672 148.098 753.852 147.882C754.194 147.432 754.374 146.964 754.374 146.46C754.374 145.74 754.158 145.182 753.762 144.786C753.33 144.354 752.754 144.156 751.998 144.156C751.098 144.156 750.432 144.444 750 145.038C749.604 145.542 749.406 146.226 749.406 147.108H747.966C747.984 145.848 748.344 144.84 749.046 144.084C749.766 143.292 750.774 142.896 752.07 142.896ZM751.8 153.858C752.106 153.858 752.376 153.948 752.592 154.164C752.79 154.362 752.898 154.614 752.898 154.92C752.898 155.244 752.79 155.496 752.592 155.694C752.376 155.892 752.106 156 751.8 156C751.494 156 751.242 155.892 751.026 155.694C750.81 155.478 750.72 155.226 750.72 154.92C750.72 154.614 750.81 154.362 751.026 154.164C751.242 153.948 751.494 153.858 751.8 153.858Z" fill="black"/>
<path d="M705.119 97H690.481L697.8 90.6611L705.119 97Z" stroke="#D9D9D9"/>
<path d="M697.8 91.3L706.46 98.8H689.14L697.8 91.3Z" fill="white"/>
<path d="M-1.52588e-05 175L40 175L40 0L4.01968e-08 -3.49691e-06L-1.52588e-05 175Z" fill="#FF685D" fill-opacity="0.2"/>
<path d="M772 175L812 175L812 0L772 -3.49691e-06L772 175Z" fill="#FF685D" fill-opacity="0.2"/>
<path d="M7.62793 135.534V131.098L4.49023 135.534H7.62793ZM7.64844 139V136.607H3.35547V135.404L7.83984 129.184H8.87891V135.534H10.3213V136.607H8.87891V139H7.64844ZM14.5801 129.211C15.847 129.211 16.763 129.733 17.3281 130.776C17.7656 131.583 17.9844 132.688 17.9844 134.092C17.9844 135.423 17.7861 136.523 17.3896 137.394C16.8154 138.642 15.8766 139.267 14.5732 139.267C13.3975 139.267 12.5225 138.756 11.9482 137.735C11.4697 136.883 11.2305 135.739 11.2305 134.304C11.2305 133.192 11.374 132.237 11.6611 131.439C12.1989 129.954 13.1719 129.211 14.5801 129.211ZM14.5664 138.146C15.2044 138.146 15.7126 137.863 16.0908 137.298C16.4691 136.733 16.6582 135.68 16.6582 134.14C16.6582 133.028 16.5215 132.114 16.248 131.398C15.9746 130.678 15.4437 130.318 14.6553 130.318C13.9307 130.318 13.3997 130.66 13.0625 131.344C12.7298 132.023 12.5635 133.025 12.5635 134.352C12.5635 135.35 12.6706 136.152 12.8848 136.758C13.2129 137.683 13.7734 138.146 14.5664 138.146ZM26.4746 138.173C27.0488 138.173 27.5251 137.934 27.9033 137.455C28.2861 136.972 28.4775 136.252 28.4775 135.295C28.4775 134.712 28.3932 134.21 28.2246 133.791C27.9056 132.984 27.3223 132.581 26.4746 132.581C25.6224 132.581 25.0391 133.007 24.7246 133.859C24.556 134.315 24.4717 134.894 24.4717 135.596C24.4717 136.161 24.556 136.642 24.7246 137.038C25.0436 137.795 25.627 138.173 26.4746 138.173ZM23.2891 131.713H24.4854V132.684C24.7314 132.351 25.0003 132.093 25.292 131.911C25.7067 131.638 26.1943 131.501 26.7549 131.501C27.5843 131.501 28.2884 131.82 28.8672 132.458C29.446 133.091 29.7354 133.998 29.7354 135.179C29.7354 136.774 29.3184 137.913 28.4844 138.597C27.9557 139.03 27.3405 139.246 26.6387 139.246C26.0872 139.246 25.6247 139.125 25.251 138.884C25.0322 138.747 24.7884 138.512 24.5195 138.18V141.919H23.2891V131.713ZM30.4805 131.679H32.0732L33.7549 134.256L35.457 131.679L36.9541 131.713L34.4863 135.247L37.0635 139H35.4912L33.6729 136.252L31.9092 139H30.3506L32.9277 135.247L30.4805 131.679Z" fill="#C92E34"/>
<path d="M778.628 135.534V131.098L775.49 135.534H778.628ZM778.648 139V136.607H774.355V135.404L778.84 129.184H779.879V135.534H781.321V136.607H779.879V139H778.648ZM785.58 129.211C786.847 129.211 787.763 129.733 788.328 130.776C788.766 131.583 788.984 132.688 788.984 134.092C788.984 135.423 788.786 136.523 788.39 137.394C787.815 138.642 786.877 139.267 785.573 139.267C784.397 139.267 783.522 138.756 782.948 137.735C782.47 136.883 782.23 135.739 782.23 134.304C782.23 133.192 782.374 132.237 782.661 131.439C783.199 129.954 784.172 129.211 785.58 129.211ZM785.566 138.146C786.204 138.146 786.713 137.863 787.091 137.298C787.469 136.733 787.658 135.68 787.658 134.14C787.658 133.028 787.521 132.114 787.248 131.398C786.975 130.678 786.444 130.318 785.655 130.318C784.931 130.318 784.4 130.66 784.062 131.344C783.73 132.023 783.563 133.025 783.563 134.352C783.563 135.35 783.671 136.152 783.885 136.758C784.213 137.683 784.773 138.146 785.566 138.146ZM797.475 138.173C798.049 138.173 798.525 137.934 798.903 137.455C799.286 136.972 799.478 136.252 799.478 135.295C799.478 134.712 799.393 134.21 799.225 133.791C798.906 132.984 798.322 132.581 797.475 132.581C796.622 132.581 796.039 133.007 795.725 133.859C795.556 134.315 795.472 134.894 795.472 135.596C795.472 136.161 795.556 136.642 795.725 137.038C796.044 137.795 796.627 138.173 797.475 138.173ZM794.289 131.713H795.485V132.684C795.731 132.351 796 132.093 796.292 131.911C796.707 131.638 797.194 131.501 797.755 131.501C798.584 131.501 799.288 131.82 799.867 132.458C800.446 133.091 800.735 133.998 800.735 135.179C800.735 136.774 800.318 137.913 799.484 138.597C798.956 139.03 798.34 139.246 797.639 139.246C797.087 139.246 796.625 139.125 796.251 138.884C796.032 138.747 795.788 138.512 795.52 138.18V141.919H794.289V131.713ZM801.48 131.679H803.073L804.755 134.256L806.457 131.679L807.954 131.713L805.486 135.247L808.063 139H806.491L804.673 136.252L802.909 139H801.351L803.928 135.247L801.48 131.679Z" fill="#C92E34"/>
<path d="M190 175L234 175L234 0L190 -3.8466e-06L190 175Z" fill="#FF685D" fill-opacity="0.1"/>
<path d="M384 175L428 175L428 0L384 -3.8466e-06L384 175Z" fill="#FF685D" fill-opacity="0.1"/>
<path d="M578 175L622 175L622 0L578 -3.8466e-06L578 175Z" fill="#FF685D" fill-opacity="0.1"/>
<path d="M199.846 137.052C199.846 137.407 199.976 137.688 200.235 137.893C200.495 138.098 200.803 138.2 201.158 138.2C201.591 138.2 202.01 138.1 202.416 137.899C203.1 137.567 203.441 137.022 203.441 136.266V135.274C203.291 135.37 203.097 135.45 202.86 135.514C202.623 135.577 202.391 135.623 202.163 135.65L201.418 135.746C200.971 135.805 200.636 135.899 200.413 136.026C200.035 136.241 199.846 136.582 199.846 137.052ZM202.826 134.563C203.109 134.527 203.298 134.409 203.394 134.208C203.448 134.099 203.476 133.941 203.476 133.736C203.476 133.317 203.325 133.014 203.024 132.827C202.728 132.636 202.302 132.54 201.746 132.54C201.104 132.54 200.648 132.713 200.379 133.06C200.229 133.251 200.131 133.536 200.085 133.914H198.937C198.959 133.012 199.251 132.385 199.812 132.034C200.377 131.679 201.031 131.501 201.773 131.501C202.635 131.501 203.334 131.665 203.872 131.993C204.405 132.321 204.672 132.832 204.672 133.524V137.742C204.672 137.87 204.697 137.972 204.747 138.05C204.802 138.127 204.913 138.166 205.082 138.166C205.137 138.166 205.198 138.164 205.267 138.159C205.335 138.15 205.408 138.139 205.485 138.125V139.034C205.294 139.089 205.148 139.123 205.048 139.137C204.948 139.15 204.811 139.157 204.638 139.157C204.214 139.157 203.906 139.007 203.715 138.706C203.615 138.547 203.544 138.321 203.503 138.029C203.252 138.357 202.892 138.642 202.423 138.884C201.953 139.125 201.436 139.246 200.871 139.246C200.192 139.246 199.636 139.041 199.203 138.631C198.775 138.216 198.561 137.699 198.561 137.079C198.561 136.4 198.772 135.874 199.196 135.5C199.62 135.126 200.176 134.896 200.864 134.81L202.826 134.563ZM207.926 131.679V136.539C207.926 136.913 207.985 137.218 208.104 137.455C208.322 137.893 208.73 138.111 209.327 138.111C210.184 138.111 210.767 137.729 211.077 136.963C211.246 136.553 211.33 135.99 211.33 135.274V131.679H212.561V139H211.398L211.412 137.92C211.253 138.198 211.054 138.433 210.817 138.624C210.348 139.007 209.778 139.198 209.108 139.198C208.065 139.198 207.354 138.85 206.976 138.152C206.771 137.779 206.668 137.28 206.668 136.655V131.679H207.926ZM214.734 129.635H215.979V131.679H217.147V132.684H215.979V137.462C215.979 137.717 216.065 137.888 216.238 137.975C216.334 138.025 216.493 138.05 216.717 138.05C216.776 138.05 216.84 138.05 216.908 138.05C216.977 138.045 217.056 138.038 217.147 138.029V139C217.006 139.041 216.858 139.071 216.703 139.089C216.553 139.107 216.389 139.116 216.211 139.116C215.637 139.116 215.247 138.97 215.042 138.679C214.837 138.382 214.734 138 214.734 137.53V132.684H213.743V131.679H214.734V129.635ZM221.29 138.207C222.106 138.207 222.664 137.899 222.965 137.284C223.27 136.664 223.423 135.976 223.423 135.22C223.423 134.536 223.313 133.98 223.095 133.552C222.748 132.877 222.151 132.54 221.304 132.54C220.552 132.54 220.005 132.827 219.663 133.401C219.321 133.976 219.15 134.668 219.15 135.479C219.15 136.259 219.321 136.908 219.663 137.428C220.005 137.947 220.547 138.207 221.29 138.207ZM221.338 131.467C222.281 131.467 223.079 131.781 223.73 132.41C224.382 133.039 224.708 133.964 224.708 135.186C224.708 136.366 224.421 137.341 223.847 138.111C223.272 138.882 222.382 139.267 221.174 139.267C220.167 139.267 219.367 138.927 218.774 138.248C218.182 137.564 217.886 136.648 217.886 135.5C217.886 134.27 218.198 133.29 218.822 132.561C219.447 131.831 220.285 131.467 221.338 131.467Z" fill="#C92E34"/>
<path d="M393.846 137.052C393.846 137.407 393.976 137.688 394.235 137.893C394.495 138.098 394.803 138.2 395.158 138.2C395.591 138.2 396.01 138.1 396.416 137.899C397.1 137.567 397.441 137.022 397.441 136.266V135.274C397.291 135.37 397.097 135.45 396.86 135.514C396.623 135.577 396.391 135.623 396.163 135.65L395.418 135.746C394.971 135.805 394.636 135.899 394.413 136.026C394.035 136.241 393.846 136.582 393.846 137.052ZM396.826 134.563C397.109 134.527 397.298 134.409 397.394 134.208C397.448 134.099 397.476 133.941 397.476 133.736C397.476 133.317 397.325 133.014 397.024 132.827C396.728 132.636 396.302 132.54 395.746 132.54C395.104 132.54 394.648 132.713 394.379 133.06C394.229 133.251 394.131 133.536 394.085 133.914H392.937C392.959 133.012 393.251 132.385 393.812 132.034C394.377 131.679 395.031 131.501 395.773 131.501C396.635 131.501 397.334 131.665 397.872 131.993C398.405 132.321 398.672 132.832 398.672 133.524V137.742C398.672 137.87 398.697 137.972 398.747 138.05C398.802 138.127 398.913 138.166 399.082 138.166C399.137 138.166 399.198 138.164 399.267 138.159C399.335 138.15 399.408 138.139 399.485 138.125V139.034C399.294 139.089 399.148 139.123 399.048 139.137C398.948 139.15 398.811 139.157 398.638 139.157C398.214 139.157 397.906 139.007 397.715 138.706C397.615 138.547 397.544 138.321 397.503 138.029C397.252 138.357 396.892 138.642 396.423 138.884C395.953 139.125 395.436 139.246 394.871 139.246C394.192 139.246 393.636 139.041 393.203 138.631C392.775 138.216 392.561 137.699 392.561 137.079C392.561 136.4 392.772 135.874 393.196 135.5C393.62 135.126 394.176 134.896 394.864 134.81L396.826 134.563ZM401.926 131.679V136.539C401.926 136.913 401.985 137.218 402.104 137.455C402.322 137.893 402.73 138.111 403.327 138.111C404.184 138.111 404.767 137.729 405.077 136.963C405.246 136.553 405.33 135.99 405.33 135.274V131.679H406.561V139H405.398L405.412 137.92C405.253 138.198 405.054 138.433 404.817 138.624C404.348 139.007 403.778 139.198 403.108 139.198C402.065 139.198 401.354 138.85 400.976 138.152C400.771 137.779 400.668 137.28 400.668 136.655V131.679H401.926ZM408.734 129.635H409.979V131.679H411.147V132.684H409.979V137.462C409.979 137.717 410.065 137.888 410.238 137.975C410.334 138.025 410.493 138.05 410.717 138.05C410.776 138.05 410.84 138.05 410.908 138.05C410.977 138.045 411.056 138.038 411.147 138.029V139C411.006 139.041 410.858 139.071 410.703 139.089C410.553 139.107 410.389 139.116 410.211 139.116C409.637 139.116 409.247 138.97 409.042 138.679C408.837 138.382 408.734 138 408.734 137.53V132.684H407.743V131.679H408.734V129.635ZM415.29 138.207C416.106 138.207 416.664 137.899 416.965 137.284C417.27 136.664 417.423 135.976 417.423 135.22C417.423 134.536 417.313 133.98 417.095 133.552C416.748 132.877 416.151 132.54 415.304 132.54C414.552 132.54 414.005 132.827 413.663 133.401C413.321 133.976 413.15 134.668 413.15 135.479C413.15 136.259 413.321 136.908 413.663 137.428C414.005 137.947 414.547 138.207 415.29 138.207ZM415.338 131.467C416.281 131.467 417.079 131.781 417.73 132.41C418.382 133.039 418.708 133.964 418.708 135.186C418.708 136.366 418.421 137.341 417.847 138.111C417.272 138.882 416.382 139.267 415.174 139.267C414.167 139.267 413.367 138.927 412.774 138.248C412.182 137.564 411.886 136.648 411.886 135.5C411.886 134.27 412.198 133.29 412.822 132.561C413.447 131.831 414.285 131.467 415.338 131.467Z" fill="#C92E34"/>
<path d="M587.846 137.052C587.846 137.407 587.976 137.688 588.235 137.893C588.495 138.098 588.803 138.2 589.158 138.2C589.591 138.2 590.01 138.1 590.416 137.899C591.1 137.567 591.441 137.022 591.441 136.266V135.274C591.291 135.37 591.097 135.45 590.86 135.514C590.623 135.577 590.391 135.623 590.163 135.65L589.418 135.746C588.971 135.805 588.636 135.899 588.413 136.026C588.035 136.241 587.846 136.582 587.846 137.052ZM590.826 134.563C591.109 134.527 591.298 134.409 591.394 134.208C591.448 134.099 591.476 133.941 591.476 133.736C591.476 133.317 591.325 133.014 591.024 132.827C590.728 132.636 590.302 132.54 589.746 132.54C589.104 132.54 588.648 132.713 588.379 133.06C588.229 133.251 588.131 133.536 588.085 133.914H586.937C586.959 133.012 587.251 132.385 587.812 132.034C588.377 131.679 589.031 131.501 589.773 131.501C590.635 131.501 591.334 131.665 591.872 131.993C592.405 132.321 592.672 132.832 592.672 133.524V137.742C592.672 137.87 592.697 137.972 592.747 138.05C592.802 138.127 592.913 138.166 593.082 138.166C593.137 138.166 593.198 138.164 593.267 138.159C593.335 138.15 593.408 138.139 593.485 138.125V139.034C593.294 139.089 593.148 139.123 593.048 139.137C592.948 139.15 592.811 139.157 592.638 139.157C592.214 139.157 591.906 139.007 591.715 138.706C591.615 138.547 591.544 138.321 591.503 138.029C591.252 138.357 590.892 138.642 590.423 138.884C589.953 139.125 589.436 139.246 588.871 139.246C588.192 139.246 587.636 139.041 587.203 138.631C586.775 138.216 586.561 137.699 586.561 137.079C586.561 136.4 586.772 135.874 587.196 135.5C587.62 135.126 588.176 134.896 588.864 134.81L590.826 134.563ZM595.926 131.679V136.539C595.926 136.913 595.985 137.218 596.104 137.455C596.322 137.893 596.73 138.111 597.327 138.111C598.184 138.111 598.767 137.729 599.077 136.963C599.246 136.553 599.33 135.99 599.33 135.274V131.679H600.561V139H599.398L599.412 137.92C599.253 138.198 599.054 138.433 598.817 138.624C598.348 139.007 597.778 139.198 597.108 139.198C596.065 139.198 595.354 138.85 594.976 138.152C594.771 137.779 594.668 137.28 594.668 136.655V131.679H595.926ZM602.734 129.635H603.979V131.679H605.147V132.684H603.979V137.462C603.979 137.717 604.065 137.888 604.238 137.975C604.334 138.025 604.493 138.05 604.717 138.05C604.776 138.05 604.84 138.05 604.908 138.05C604.977 138.045 605.056 138.038 605.147 138.029V139C605.006 139.041 604.858 139.071 604.703 139.089C604.553 139.107 604.389 139.116 604.211 139.116C603.637 139.116 603.247 138.97 603.042 138.679C602.837 138.382 602.734 138 602.734 137.53V132.684H601.743V131.679H602.734V129.635ZM609.29 138.207C610.106 138.207 610.664 137.899 610.965 137.284C611.27 136.664 611.423 135.976 611.423 135.22C611.423 134.536 611.313 133.98 611.095 133.552C610.748 132.877 610.151 132.54 609.304 132.54C608.552 132.54 608.005 132.827 607.663 133.401C607.321 133.976 607.15 134.668 607.15 135.479C607.15 136.259 607.321 136.908 607.663 137.428C608.005 137.947 608.547 138.207 609.29 138.207ZM609.338 131.467C610.281 131.467 611.079 131.781 611.73 132.41C612.382 133.039 612.708 133.964 612.708 135.186C612.708 136.366 612.421 137.341 611.847 138.111C611.272 138.882 610.382 139.267 609.174 139.267C608.167 139.267 607.367 138.927 606.774 138.248C606.182 137.564 605.886 136.648 605.886 135.5C605.886 134.27 606.198 133.29 606.822 132.561C607.447 131.831 608.285 131.467 609.338 131.467Z" fill="#C92E34"/>
<path d="M800.504 65V57" stroke="#C92E34"/>
<path d="M796.01 57H805" stroke="#C92E34"/>
<path d="M796.01 65H805" stroke="#C92E34"/>
<path d="M796.01 65H805" stroke="#C92E34"/>
<path d="M46 65L796.931 65" stroke="#C92E34" stroke-dasharray="1 1"/>
<path d="M46 57L796.931 57" stroke="#C92E34" stroke-dasharray="1 1"/>
<path d="M800.504 90V82" stroke="#C92E34"/>
<path d="M796.01 82H805" stroke="#C92E34"/>
<path d="M796.01 90H805" stroke="#C92E34"/>
<path d="M796.01 90H805" stroke="#C92E34"/>
<path d="M46 90L796.931 90" stroke="#C92E34" stroke-dasharray="1 1"/>
<path d="M46 82L796.931 82" stroke="#C92E34" stroke-dasharray="1 1"/>
<path d="M812.808 60.3125C813.35 60.3125 813.774 60.1621 814.079 59.8613C814.384 59.556 814.537 59.1937 814.537 58.7744C814.537 58.4098 814.391 58.0749 814.1 57.7695C813.808 57.4642 813.364 57.3115 812.767 57.3115C812.174 57.3115 811.746 57.4642 811.481 57.7695C811.217 58.0749 811.085 58.4326 811.085 58.8428C811.085 59.3031 811.256 59.6631 811.598 59.9229C811.939 60.1826 812.343 60.3125 812.808 60.3125ZM812.883 65.1592C813.452 65.1592 813.924 65.0065 814.298 64.7012C814.676 64.3913 814.865 63.931 814.865 63.3203C814.865 62.6868 814.672 62.2061 814.284 61.8779C813.897 61.5498 813.4 61.3857 812.794 61.3857C812.206 61.3857 811.725 61.5544 811.352 61.8916C810.982 62.2243 810.798 62.6868 810.798 63.2793C810.798 63.7897 810.966 64.2318 811.304 64.6055C811.646 64.9746 812.172 65.1592 812.883 65.1592ZM811.133 60.7842C810.791 60.6383 810.524 60.4674 810.333 60.2715C809.973 59.9069 809.793 59.4329 809.793 58.8496C809.793 58.1204 810.057 57.4938 810.586 56.9697C811.115 56.4456 811.864 56.1836 812.835 56.1836C813.774 56.1836 814.51 56.432 815.043 56.9287C815.576 57.4209 815.843 57.9974 815.843 58.6582C815.843 59.2689 815.688 59.7633 815.378 60.1416C815.205 60.3558 814.936 60.5654 814.571 60.7705C814.977 60.9574 815.296 61.1715 815.528 61.4131C815.961 61.8688 816.178 62.4613 816.178 63.1904C816.178 64.0518 815.888 64.7832 815.31 65.3848C814.731 65.9818 813.913 66.2803 812.855 66.2803C811.903 66.2803 811.096 66.0228 810.436 65.5078C809.779 64.9883 809.451 64.2363 809.451 63.252C809.451 62.6732 809.592 62.1742 809.875 61.7549C810.158 61.3311 810.577 61.0075 811.133 60.7842ZM824.682 65.1729C825.256 65.1729 825.732 64.9336 826.11 64.4551C826.493 63.972 826.685 63.252 826.685 62.2949C826.685 61.7116 826.6 61.2103 826.432 60.791C826.113 59.9844 825.529 59.5811 824.682 59.5811C823.829 59.5811 823.246 60.0072 822.932 60.8594C822.763 61.3151 822.679 61.8939 822.679 62.5957C822.679 63.1608 822.763 63.6416 822.932 64.0381C823.251 64.7946 823.834 65.1729 824.682 65.1729ZM821.496 58.7129H822.692V59.6836C822.938 59.3509 823.207 59.0934 823.499 58.9111C823.914 58.6377 824.401 58.501 824.962 58.501C825.791 58.501 826.495 58.82 827.074 59.458C827.653 60.0915 827.942 60.9984 827.942 62.1787C827.942 63.7738 827.525 64.9131 826.691 65.5967C826.163 66.0296 825.548 66.2461 824.846 66.2461C824.294 66.2461 823.832 66.1253 823.458 65.8838C823.239 65.7471 822.995 65.5124 822.727 65.1797V68.9189H821.496V58.7129ZM828.688 58.6787H830.28L831.962 61.2559L833.664 58.6787L835.161 58.7129L832.693 62.2471L835.271 66H833.698L831.88 63.252L830.116 66H828.558L831.135 62.2471L828.688 58.6787Z" fill="#C92E34"/>
<path d="M812.808 85.3125C813.35 85.3125 813.774 85.1621 814.079 84.8613C814.384 84.556 814.537 84.1937 814.537 83.7744C814.537 83.4098 814.391 83.0749 814.1 82.7695C813.808 82.4642 813.364 82.3115 812.767 82.3115C812.174 82.3115 811.746 82.4642 811.481 82.7695C811.217 83.0749 811.085 83.4326 811.085 83.8428C811.085 84.3031 811.256 84.6631 811.598 84.9229C811.939 85.1826 812.343 85.3125 812.808 85.3125ZM812.883 90.1592C813.452 90.1592 813.924 90.0065 814.298 89.7012C814.676 89.3913 814.865 88.931 814.865 88.3203C814.865 87.6868 814.672 87.2061 814.284 86.8779C813.897 86.5498 813.4 86.3857 812.794 86.3857C812.206 86.3857 811.725 86.5544 811.352 86.8916C810.982 87.2243 810.798 87.6868 810.798 88.2793C810.798 88.7897 810.966 89.2318 811.304 89.6055C811.646 89.9746 812.172 90.1592 812.883 90.1592ZM811.133 85.7842C810.791 85.6383 810.524 85.4674 810.333 85.2715C809.973 84.9069 809.793 84.4329 809.793 83.8496C809.793 83.1204 810.057 82.4938 810.586 81.9697C811.115 81.4456 811.864 81.1836 812.835 81.1836C813.774 81.1836 814.51 81.432 815.043 81.9287C815.576 82.4209 815.843 82.9974 815.843 83.6582C815.843 84.2689 815.688 84.7633 815.378 85.1416C815.205 85.3558 814.936 85.5654 814.571 85.7705C814.977 85.9574 815.296 86.1715 815.528 86.4131C815.961 86.8688 816.178 87.4613 816.178 88.1904C816.178 89.0518 815.888 89.7832 815.31 90.3848C814.731 90.9818 813.913 91.2803 812.855 91.2803C811.903 91.2803 811.096 91.0228 810.436 90.5078C809.779 89.9883 809.451 89.2363 809.451 88.252C809.451 87.6732 809.592 87.1742 809.875 86.7549C810.158 86.3311 810.577 86.0075 811.133 85.7842ZM824.682 90.1729C825.256 90.1729 825.732 89.9336 826.11 89.4551C826.493 88.972 826.685 88.252 826.685 87.2949C826.685 86.7116 826.6 86.2103 826.432 85.791C826.113 84.9844 825.529 84.5811 824.682 84.5811C823.829 84.5811 823.246 85.0072 822.932 85.8594C822.763 86.3151 822.679 86.8939 822.679 87.5957C822.679 88.1608 822.763 88.6416 822.932 89.0381C823.251 89.7946 823.834 90.1729 824.682 90.1729ZM821.496 83.7129H822.692V84.6836C822.938 84.3509 823.207 84.0934 823.499 83.9111C823.914 83.6377 824.401 83.501 824.962 83.501C825.791 83.501 826.495 83.82 827.074 84.458C827.653 85.0915 827.942 85.9984 827.942 87.1787C827.942 88.7738 827.525 89.9131 826.691 90.5967C826.163 91.0296 825.548 91.2461 824.846 91.2461C824.294 91.2461 823.832 91.1253 823.458 90.8838C823.239 90.7471 822.995 90.5124 822.727 90.1797V93.9189H821.496V83.7129ZM828.688 83.6787H830.28L831.962 86.2559L833.664 83.6787L835.161 83.7129L832.693 87.2471L835.271 91H833.698L831.88 88.252L830.116 91H828.558L831.135 87.2471L828.688 83.6787Z" fill="#C92E34"/>
</svg>
